<?xml version="1.0" encoding="UTF-8" standalone="no"?>
<!DOCTYPE svg PUBLIC "-//W3C//DTD SVG 1.1//EN"
 "http://www.w3.org/Graphics/SVG/1.1/DTD/svg11.dtd">
<!-- Generated by graphviz version 2.43.0 (0)
 -->
<!-- Title: Ogre::SceneQueryListener Pages: 1 -->
<svg width="911pt" height="263pt"
 viewBox="0.00 0.00 911.00 262.50" xmlns="http://www.w3.org/2000/svg" xmlns:xlink="http://www.w3.org/1999/xlink">
<g id="graph0" class="graph" transform="scale(1 1) rotate(0) translate(4 258.5)">
<title>Ogre::SceneQueryListener</title>
<!-- Node1 -->
<g id="node1" class="node">
<title>Node1</title>
<g id="a_node1"><a xlink:title="This optional class allows you to receive per&#45;result callbacks from SceneQuery executions instead of ...">
<polygon fill="#bfbfbf" stroke="black" points="0,-98.5 0,-117.5 143,-117.5 143,-98.5 0,-98.5"/>
<text text-anchor="middle" x="71.5" y="-105.5" font-family="Helvetica,sans-Serif" font-size="10.00">Ogre::SceneQueryListener</text>
</a>
</g>
</g>
<!-- Node2 -->
<g id="node2" class="node">
<title>Node2</title>
<g id="a_node2"><a xlink:href="class_ogre_1_1_region_scene_query.html" target="_top" xlink:title="Abstract class defining a query which returns single results from a region.">
<polygon fill="none" stroke="black" points="179,-98.5 179,-117.5 317,-117.5 317,-98.5 179,-98.5"/>
<text text-anchor="middle" x="248" y="-105.5" font-family="Helvetica,sans-Serif" font-size="10.00">Ogre::RegionSceneQuery</text>
</a>
</g>
</g>
<!-- Node1&#45;&gt;Node2 -->
<g id="edge1" class="edge">
<title>Node1&#45;&gt;Node2</title>
<path fill="none" stroke="midnightblue" d="M153.47,-108C161.91,-108 170.43,-108 178.72,-108"/>
<polygon fill="midnightblue" stroke="midnightblue" points="153.22,-104.5 143.22,-108 153.22,-111.5 153.22,-104.5"/>
</g>
<!-- Node3 -->
<g id="node3" class="node">
<title>Node3</title>
<g id="a_node3"><a xlink:href="class_ogre_1_1_axis_aligned_box_scene_query.html" target="_top" xlink:title="Specialises the SceneQuery class for querying within an axis aligned box.">
<polygon fill="none" stroke="black" points="353.5,-164 353.5,-194 505.5,-194 505.5,-164 353.5,-164"/>
<text text-anchor="start" x="361.5" y="-182" font-family="Helvetica,sans-Serif" font-size="10.00">Ogre::AxisAlignedBoxScene</text>
<text text-anchor="middle" x="429.5" y="-171" font-family="Helvetica,sans-Serif" font-size="10.00">Query</text>
</a>
</g>
</g>
<!-- Node2&#45;&gt;Node3 -->
<g id="edge2" class="edge">
<title>Node2&#45;&gt;Node3</title>
<path fill="none" stroke="midnightblue" d="M282.59,-121.29C313.18,-133.39 358.31,-151.24 390.27,-163.88"/>
<polygon fill="midnightblue" stroke="midnightblue" points="283.79,-118 273.21,-117.58 281.22,-124.51 283.79,-118"/>
</g>
<!-- Node7 -->
<g id="node7" class="node">
<title>Node7</title>
<g id="a_node7"><a xlink:href="class_ogre_1_1_plane_bounded_volume_list_scene_query.html" target="_top" xlink:title="Specialises the SceneQuery class for querying within a plane&#45;bounded volume.">
<polygon fill="none" stroke="black" points="353,-93 353,-123 506,-123 506,-93 353,-93"/>
<text text-anchor="start" x="361" y="-111" font-family="Helvetica,sans-Serif" font-size="10.00">Ogre::PlaneBoundedVolume</text>
<text text-anchor="middle" x="429.5" y="-100" font-family="Helvetica,sans-Serif" font-size="10.00">ListSceneQuery</text>
</a>
</g>
</g>
<!-- Node2&#45;&gt;Node7 -->
<g id="edge6" class="edge">
<title>Node2&#45;&gt;Node7</title>
<path fill="none" stroke="midnightblue" d="M327.38,-108C335.86,-108 344.48,-108 352.93,-108"/>
<polygon fill="midnightblue" stroke="midnightblue" points="327.12,-104.5 317.12,-108 327.12,-111.5 327.12,-104.5"/>
</g>
<!-- Node11 -->
<g id="node11" class="node">
<title>Node11</title>
<g id="a_node11"><a xlink:href="class_ogre_1_1_sphere_scene_query.html" target="_top" xlink:title="Specialises the SceneQuery class for querying within a sphere.">
<polygon fill="none" stroke="black" points="360.5,-52.5 360.5,-71.5 498.5,-71.5 498.5,-52.5 360.5,-52.5"/>
<text text-anchor="middle" x="429.5" y="-59.5" font-family="Helvetica,sans-Serif" font-size="10.00">Ogre::SphereSceneQuery</text>
</a>
</g>
</g>
<!-- Node2&#45;&gt;Node11 -->
<g id="edge10" class="edge">
<title>Node2&#45;&gt;Node11</title>
<path fill="none" stroke="midnightblue" d="M295.95,-95.97C325.72,-88.34 363.69,-78.61 391.36,-71.52"/>
<polygon fill="midnightblue" stroke="midnightblue" points="295.01,-92.6 286.19,-98.47 296.75,-99.38 295.01,-92.6"/>
</g>
<!-- Node4 -->
<g id="node4" class="node">
<title>Node4</title>
<g id="a_node4"><a xlink:href="class_ogre_1_1_default_axis_aligned_box_scene_query.html" target="_top" xlink:title="Default implementation of AxisAlignedBoxSceneQuery.">
<polygon fill="none" stroke="black" points="548,-175 548,-205 688,-205 688,-175 548,-175"/>
<text text-anchor="start" x="556" y="-193" font-family="Helvetica,sans-Serif" font-size="10.00">Ogre::DefaultAxisAligned</text>
<text text-anchor="middle" x="618" y="-182" font-family="Helvetica,sans-Serif" font-size="10.00">BoxSceneQuery</text>
</a>
</g>
</g>
<!-- Node3&#45;&gt;Node4 -->
<g id="edge3" class="edge">
<title>Node3&#45;&gt;Node4</title>
<path fill="none" stroke="midnightblue" d="M515.78,-184.03C526.51,-184.66 537.39,-185.3 547.83,-185.92"/>
<polygon fill="midnightblue" stroke="midnightblue" points="515.74,-180.52 505.55,-183.43 515.33,-187.51 515.74,-180.52"/>
</g>
<!-- Node5 -->
<g id="node5" class="node">
<title>Node5</title>
<g id="a_node5"><a xlink:href="class_ogre_1_1_octree_axis_aligned_box_scene_query.html" target="_top" xlink:title="Octree implementation of AxisAlignedBoxSceneQuery.">
<polygon fill="none" stroke="black" points="739,-224 739,-254 894,-254 894,-224 739,-224"/>
<text text-anchor="start" x="747" y="-242" font-family="Helvetica,sans-Serif" font-size="10.00">Ogre::OctreeAxisAlignedBox</text>
<text text-anchor="middle" x="816.5" y="-231" font-family="Helvetica,sans-Serif" font-size="10.00">SceneQuery</text>
</a>
</g>
</g>
<!-- Node4&#45;&gt;Node5 -->
<g id="edge4" class="edge">
<title>Node4&#45;&gt;Node5</title>
<path fill="none" stroke="midnightblue" d="M689.09,-207.48C710.74,-212.88 734.4,-218.78 755.32,-223.99"/>
<polygon fill="midnightblue" stroke="midnightblue" points="689.84,-204.06 679.29,-205.03 688.15,-210.85 689.84,-204.06"/>
</g>
<!-- Node6 -->
<g id="node6" class="node">
<title>Node6</title>
<g id="a_node6"><a xlink:href="class_ogre_1_1_p_c_z_axis_aligned_box_scene_query.html" target="_top" xlink:title="PCZ implementation of AxisAlignedBoxSceneQuery.">
<polygon fill="none" stroke="black" points="731,-175 731,-205 902,-205 902,-175 731,-175"/>
<text text-anchor="start" x="739" y="-193" font-family="Helvetica,sans-Serif" font-size="10.00">Ogre::PCZAxisAlignedBoxScene</text>
<text text-anchor="middle" x="816.5" y="-182" font-family="Helvetica,sans-Serif" font-size="10.00">Query</text>
</a>
</g>
</g>
<!-- Node4&#45;&gt;Node6 -->
<g id="edge5" class="edge">
<title>Node4&#45;&gt;Node6</title>
<path fill="none" stroke="midnightblue" d="M698.18,-190C708.91,-190 719.96,-190 730.78,-190"/>
<polygon fill="midnightblue" stroke="midnightblue" points="698,-186.5 688,-190 698,-193.5 698,-186.5"/>
</g>
<!-- Node8 -->
<g id="node8" class="node">
<title>Node8</title>
<g id="a_node8"><a xlink:href="class_ogre_1_1_default_plane_bounded_volume_list_scene_query.html" target="_top" xlink:title="Default implementation of PlaneBoundedVolumeListSceneQuery.">
<polygon fill="none" stroke="black" points="542,-93 542,-123 694,-123 694,-93 542,-93"/>
<text text-anchor="start" x="550" y="-111" font-family="Helvetica,sans-Serif" font-size="10.00">Ogre::DefaultPlaneBounded</text>
<text text-anchor="middle" x="618" y="-100" font-family="Helvetica,sans-Serif" font-size="10.00">VolumeListSceneQuery</text>
</a>
</g>
</g>
<!-- Node7&#45;&gt;Node8 -->
<g id="edge7" class="edge">
<title>Node7&#45;&gt;Node8</title>
<path fill="none" stroke="midnightblue" d="M516.13,-108C524.74,-108 533.43,-108 541.91,-108"/>
<polygon fill="midnightblue" stroke="midnightblue" points="516.09,-104.5 506.09,-108 516.09,-111.5 516.09,-104.5"/>
</g>
<!-- Node9 -->
<g id="node9" class="node">
<title>Node9</title>
<g id="a_node9"><a xlink:href="class_ogre_1_1_octree_plane_bounded_volume_list_scene_query.html" target="_top" xlink:title="Octree implementation of PlaneBoundedVolumeListSceneQuery.">
<polygon fill="none" stroke="black" points="742.5,-126 742.5,-156 890.5,-156 890.5,-126 742.5,-126"/>
<text text-anchor="start" x="750.5" y="-144" font-family="Helvetica,sans-Serif" font-size="10.00">Ogre::OctreePlaneBounded</text>
<text text-anchor="middle" x="816.5" y="-133" font-family="Helvetica,sans-Serif" font-size="10.00">VolumeListSceneQuery</text>
</a>
</g>
</g>
<!-- Node8&#45;&gt;Node9 -->
<g id="edge8" class="edge">
<title>Node8&#45;&gt;Node9</title>
<path fill="none" stroke="midnightblue" d="M704.24,-122.31C716.94,-124.45 729.93,-126.63 742.36,-128.72"/>
<polygon fill="midnightblue" stroke="midnightblue" points="704.57,-118.82 694.13,-120.62 703.41,-125.73 704.57,-118.82"/>
</g>
<!-- Node10 -->
<g id="node10" class="node">
<title>Node10</title>
<g id="a_node10"><a xlink:href="class_ogre_1_1_p_c_z_plane_bounded_volume_list_scene_query.html" target="_top" xlink:title="PCZ implementation of PlaneBoundedVolumeListSceneQuery.">
<polygon fill="none" stroke="black" points="730,-77 730,-107 903,-107 903,-77 730,-77"/>
<text text-anchor="start" x="738" y="-95" font-family="Helvetica,sans-Serif" font-size="10.00">Ogre::PCZPlaneBoundedVolume</text>
<text text-anchor="middle" x="816.5" y="-84" font-family="Helvetica,sans-Serif" font-size="10.00">ListSceneQuery</text>
</a>
</g>
</g>
<!-- Node8&#45;&gt;Node10 -->
<g id="edge9" class="edge">
<title>Node8&#45;&gt;Node10</title>
<path fill="none" stroke="midnightblue" d="M704.1,-101.07C712.65,-100.37 721.35,-99.67 729.91,-98.97"/>
<polygon fill="midnightblue" stroke="midnightblue" points="703.81,-97.58 694.13,-101.88 704.38,-104.56 703.81,-97.58"/>
</g>
<!-- Node12 -->
<g id="node12" class="node">
<title>Node12</title>
<g id="a_node12"><a xlink:href="class_ogre_1_1_default_sphere_scene_query.html" target="_top" xlink:title="Default implementation of SphereSceneQuery.">
<polygon fill="none" stroke="black" points="545.5,-33 545.5,-63 690.5,-63 690.5,-33 545.5,-33"/>
<text text-anchor="start" x="553.5" y="-51" font-family="Helvetica,sans-Serif" font-size="10.00">Ogre::DefaultSphereScene</text>
<text text-anchor="middle" x="618" y="-40" font-family="Helvetica,sans-Serif" font-size="10.00">Query</text>
</a>
</g>
</g>
<!-- Node11&#45;&gt;Node12 -->
<g id="edge11" class="edge">
<title>Node11&#45;&gt;Node12</title>
<path fill="none" stroke="midnightblue" d="M508.71,-56.13C520.84,-55.22 533.32,-54.28 545.3,-53.38"/>
<polygon fill="midnightblue" stroke="midnightblue" points="508.33,-52.65 498.62,-56.89 508.86,-59.63 508.33,-52.65"/>
</g>
<!-- Node13 -->
<g id="node13" class="node">
<title>Node13</title>
<g id="a_node13"><a xlink:href="class_ogre_1_1_octree_sphere_scene_query.html" target="_top" xlink:title="Octree implementation of SphereSceneQuery.">
<polygon fill="none" stroke="black" points="731.5,-38.5 731.5,-57.5 901.5,-57.5 901.5,-38.5 731.5,-38.5"/>
<text text-anchor="middle" x="816.5" y="-45.5" font-family="Helvetica,sans-Serif" font-size="10.00">Ogre::OctreeSphereSceneQuery</text>
</a>
</g>
</g>
<!-- Node12&#45;&gt;Node13 -->
<g id="edge12" class="edge">
<title>Node12&#45;&gt;Node13</title>
<path fill="none" stroke="midnightblue" d="M701.07,-48C711.04,-48 721.25,-48 731.25,-48"/>
<polygon fill="midnightblue" stroke="midnightblue" points="700.78,-44.5 690.78,-48 700.78,-51.5 700.78,-44.5"/>
</g>
<!-- Node14 -->
<g id="node14" class="node">
<title>Node14</title>
<g id="a_node14"><a xlink:href="class_ogre_1_1_p_c_z_sphere_scene_query.html" target="_top" xlink:title="PCZ implementation of SphereSceneQuery.">
<polygon fill="none" stroke="black" points="737.5,-0.5 737.5,-19.5 895.5,-19.5 895.5,-0.5 737.5,-0.5"/>
<text text-anchor="middle" x="816.5" y="-7.5" font-family="Helvetica,sans-Serif" font-size="10.00">Ogre::PCZSphereSceneQuery</text>
</a>
</g>
</g>
<!-- Node12&#45;&gt;Node14 -->
<g id="edge13" class="edge">
<title>Node12&#45;&gt;Node14</title>
<path fill="none" stroke="midnightblue" d="M700.89,-32.16C723.13,-27.86 746.51,-23.34 766.32,-19.51"/>
<polygon fill="midnightblue" stroke="midnightblue" points="699.93,-28.78 690.78,-34.12 701.26,-35.66 699.93,-28.78"/>
</g>
</g>
</svg>
