<?xml version="1.0" encoding="UTF-8" standalone="no"?>
<!DOCTYPE svg PUBLIC "-//W3C//DTD SVG 1.1//EN"
 "http://www.w3.org/Graphics/SVG/1.1/DTD/svg11.dtd">
<!-- Generated by graphviz version 2.43.0 (0)
 -->
<!-- Title: Ogre::ScriptCompilerEvent Pages: 1 -->
<svg width="378pt" height="333pt"
 viewBox="0.00 0.00 378.00 333.00" xmlns="http://www.w3.org/2000/svg" xmlns:xlink="http://www.w3.org/1999/xlink">
<g id="graph0" class="graph" transform="scale(1 1) rotate(0) translate(4 329)">
<title>Ogre::ScriptCompilerEvent</title>
<!-- Node1 -->
<g id="node1" class="node">
<title>Node1</title>
<g id="a_node1"><a xlink:title="This struct is a base class for events which can be thrown by the compilers and caught by subscribers...">
<polygon fill="#bfbfbf" stroke="black" points="0,-153 0,-172 146,-172 146,-153 0,-153"/>
<text text-anchor="middle" x="73" y="-160" font-family="Helvetica,sans-Serif" font-size="10.00">Ogre::ScriptCompilerEvent</text>
</a>
</g>
</g>
<!-- Node2 -->
<g id="node2" class="node">
<title>Node2</title>
<g id="a_node2"><a xlink:href="class_ogre_1_1_create_compositor_script_compiler_event.html" target="_top" xlink:title=" ">
<polygon fill="none" stroke="black" points="195,-294.5 195,-324.5 357,-324.5 357,-294.5 195,-294.5"/>
<text text-anchor="start" x="203" y="-312.5" font-family="Helvetica,sans-Serif" font-size="10.00">Ogre::CreateCompositorScript</text>
<text text-anchor="middle" x="276" y="-301.5" font-family="Helvetica,sans-Serif" font-size="10.00">CompilerEvent</text>
</a>
</g>
</g>
<!-- Node1&#45;&gt;Node2 -->
<g id="edge1" class="edge">
<title>Node1&#45;&gt;Node2</title>
<path fill="none" stroke="midnightblue" d="M84.93,-180.78C102.11,-207.9 138.04,-258.47 182,-285.5 187.54,-288.91 193.55,-291.83 199.76,-294.35"/>
<polygon fill="midnightblue" stroke="midnightblue" points="87.89,-178.91 79.65,-172.25 81.93,-182.59 87.89,-178.91"/>
</g>
<!-- Node3 -->
<g id="node3" class="node">
<title>Node3</title>
<g id="a_node3"><a xlink:href="class_ogre_1_1_create_gpu_program_script_compiler_event.html" target="_top" xlink:title=" ">
<polygon fill="none" stroke="black" points="192.5,-245.5 192.5,-275.5 359.5,-275.5 359.5,-245.5 192.5,-245.5"/>
<text text-anchor="start" x="200.5" y="-263.5" font-family="Helvetica,sans-Serif" font-size="10.00">Ogre::CreateGpuProgramScript</text>
<text text-anchor="middle" x="276" y="-252.5" font-family="Helvetica,sans-Serif" font-size="10.00">CompilerEvent</text>
</a>
</g>
</g>
<!-- Node1&#45;&gt;Node3 -->
<g id="edge2" class="edge">
<title>Node1&#45;&gt;Node3</title>
<path fill="none" stroke="midnightblue" d="M93.15,-178.71C113.82,-195.44 148.32,-221.19 182,-236.5 189.44,-239.88 197.44,-242.85 205.51,-245.43"/>
<polygon fill="midnightblue" stroke="midnightblue" points="95.12,-175.8 85.18,-172.15 90.67,-181.21 95.12,-175.8"/>
</g>
<!-- Node4 -->
<g id="node4" class="node">
<title>Node4</title>
<g id="a_node4"><a xlink:href="class_ogre_1_1_create_gpu_shared_parameters_script_compiler_event.html" target="_top" xlink:title=" ">
<polygon fill="none" stroke="black" points="182,-196.5 182,-226.5 370,-226.5 370,-196.5 182,-196.5"/>
<text text-anchor="start" x="190" y="-214.5" font-family="Helvetica,sans-Serif" font-size="10.00">Ogre::CreateGpuSharedParameters</text>
<text text-anchor="middle" x="276" y="-203.5" font-family="Helvetica,sans-Serif" font-size="10.00">ScriptCompilerEvent</text>
</a>
</g>
</g>
<!-- Node1&#45;&gt;Node4 -->
<g id="edge3" class="edge">
<title>Node1&#45;&gt;Node4</title>
<path fill="none" stroke="midnightblue" d="M123.28,-174.51C150.44,-181.14 184.41,-189.42 213.32,-196.46"/>
<polygon fill="midnightblue" stroke="midnightblue" points="123.78,-171.03 113.23,-172.06 122.12,-177.83 123.78,-171.03"/>
</g>
<!-- Node5 -->
<g id="node5" class="node">
<title>Node5</title>
<g id="a_node5"><a xlink:href="class_ogre_1_1_create_material_script_compiler_event.html" target="_top" xlink:title=" ">
<polygon fill="none" stroke="black" points="203,-147.5 203,-177.5 349,-177.5 349,-147.5 203,-147.5"/>
<text text-anchor="start" x="211" y="-165.5" font-family="Helvetica,sans-Serif" font-size="10.00">Ogre::CreateMaterialScript</text>
<text text-anchor="middle" x="276" y="-154.5" font-family="Helvetica,sans-Serif" font-size="10.00">CompilerEvent</text>
</a>
</g>
</g>
<!-- Node1&#45;&gt;Node5 -->
<g id="edge4" class="edge">
<title>Node1&#45;&gt;Node5</title>
<path fill="none" stroke="midnightblue" d="M156.29,-162.5C171.67,-162.5 187.63,-162.5 202.68,-162.5"/>
<polygon fill="midnightblue" stroke="midnightblue" points="156.28,-159 146.28,-162.5 156.28,-166 156.28,-159"/>
</g>
<!-- Node6 -->
<g id="node6" class="node">
<title>Node6</title>
<g id="a_node6"><a xlink:href="class_ogre_1_1_create_particle_system_script_compiler_event.html" target="_top" xlink:title=" ">
<polygon fill="none" stroke="black" points="200,-98.5 200,-128.5 352,-128.5 352,-98.5 200,-98.5"/>
<text text-anchor="start" x="208" y="-116.5" font-family="Helvetica,sans-Serif" font-size="10.00">Ogre::CreateParticleSystem</text>
<text text-anchor="middle" x="276" y="-105.5" font-family="Helvetica,sans-Serif" font-size="10.00">ScriptCompilerEvent</text>
</a>
</g>
</g>
<!-- Node1&#45;&gt;Node6 -->
<g id="edge5" class="edge">
<title>Node1&#45;&gt;Node6</title>
<path fill="none" stroke="midnightblue" d="M123.28,-150.49C150.44,-143.86 184.41,-135.58 213.32,-128.54"/>
<polygon fill="midnightblue" stroke="midnightblue" points="122.12,-147.17 113.23,-152.94 123.78,-153.97 122.12,-147.17"/>
</g>
<!-- Node7 -->
<g id="node7" class="node">
<title>Node7</title>
<g id="a_node7"><a xlink:href="class_ogre_1_1_process_name_exclusion_script_compiler_event.html" target="_top" xlink:title=" ">
<polygon fill="none" stroke="black" points="196.5,-49.5 196.5,-79.5 355.5,-79.5 355.5,-49.5 196.5,-49.5"/>
<text text-anchor="start" x="204.5" y="-67.5" font-family="Helvetica,sans-Serif" font-size="10.00">Ogre::ProcessNameExclusion</text>
<text text-anchor="middle" x="276" y="-56.5" font-family="Helvetica,sans-Serif" font-size="10.00">ScriptCompilerEvent</text>
</a>
</g>
</g>
<!-- Node1&#45;&gt;Node7 -->
<g id="edge6" class="edge">
<title>Node1&#45;&gt;Node7</title>
<path fill="none" stroke="midnightblue" d="M93.55,-146.32C114.31,-129.88 148.68,-104.72 182,-89.5 190.21,-85.75 199.1,-82.47 208.01,-79.63"/>
<polygon fill="midnightblue" stroke="midnightblue" points="91.12,-143.79 85.53,-152.78 95.51,-149.24 91.12,-143.79"/>
</g>
<!-- Node8 -->
<g id="node8" class="node">
<title>Node8</title>
<g id="a_node8"><a xlink:href="class_ogre_1_1_process_resource_name_script_compiler_event.html" target="_top" xlink:title=" ">
<polygon fill="none" stroke="black" points="197,-0.5 197,-30.5 355,-30.5 355,-0.5 197,-0.5"/>
<text text-anchor="start" x="205" y="-18.5" font-family="Helvetica,sans-Serif" font-size="10.00">Ogre::ProcessResourceName</text>
<text text-anchor="middle" x="276" y="-7.5" font-family="Helvetica,sans-Serif" font-size="10.00">ScriptCompilerEvent</text>
</a>
</g>
</g>
<!-- Node1&#45;&gt;Node8 -->
<g id="edge7" class="edge">
<title>Node1&#45;&gt;Node8</title>
<path fill="none" stroke="midnightblue" d="M85.23,-144.07C102.59,-117.17 138.52,-67.42 182,-40.5 188.25,-36.63 195.11,-33.35 202.17,-30.57"/>
<polygon fill="midnightblue" stroke="midnightblue" points="82.06,-142.54 79.69,-152.86 87.98,-146.27 82.06,-142.54"/>
</g>
</g>
</svg>
