<?xml version="1.0" encoding="UTF-8" standalone="no"?>
<!DOCTYPE svg PUBLIC "-//W3C//DTD SVG 1.1//EN"
 "http://www.w3.org/Graphics/SVG/1.1/DTD/svg11.dtd">
<!-- Generated by graphviz version 2.43.0 (0)
 -->
<!-- Title: Ogre::GpuProgram Pages: 1 -->
<svg width="1132pt" height="294pt"
 viewBox="0.00 0.00 1132.00 294.00" xmlns="http://www.w3.org/2000/svg" xmlns:xlink="http://www.w3.org/1999/xlink">
<g id="graph0" class="graph" transform="scale(1 1) rotate(0) translate(4 290)">
<title>Ogre::GpuProgram</title>
<!-- Node1 -->
<g id="node1" class="node">
<title>Node1</title>
<g id="a_node1"><a xlink:title="Defines a program which runs on the GPU such as a vertex or fragment program.">
<polygon fill="#bfbfbf" stroke="black" points="281,-152.5 281,-171.5 388,-171.5 388,-152.5 281,-152.5"/>
<text text-anchor="middle" x="334.5" y="-159.5" font-family="Helvetica,sans-Serif" font-size="10.00">Ogre::GpuProgram</text>
</a>
</g>
</g>
<!-- Node5 -->
<g id="node5" class="node">
<title>Node5</title>
<g id="a_node5"><a xlink:href="class_ogre_1_1_d3_d9_gpu_program.html" target="_top" xlink:title="Direct3D implementation of a few things common to low&#45;level vertex &amp; fragment programs.">
<polygon fill="none" stroke="black" points="434.5,-237.5 434.5,-256.5 568.5,-256.5 568.5,-237.5 434.5,-237.5"/>
<text text-anchor="middle" x="501.5" y="-244.5" font-family="Helvetica,sans-Serif" font-size="10.00">Ogre::D3D9GpuProgram</text>
</a>
</g>
</g>
<!-- Node1&#45;&gt;Node5 -->
<g id="edge4" class="edge">
<title>Node1&#45;&gt;Node5</title>
<path fill="none" stroke="midnightblue" d="M352.96,-178.37C369.88,-193.38 396.9,-215.17 424,-228 432.04,-231.81 440.93,-234.9 449.72,-237.41"/>
<polygon fill="midnightblue" stroke="midnightblue" points="355.27,-175.74 345.51,-171.61 350.56,-180.92 355.27,-175.74"/>
</g>
<!-- Node6 -->
<g id="node6" class="node">
<title>Node6</title>
<g id="a_node6"><a xlink:href="class_ogre_1_1_g_l_gpu_program.html" target="_top" xlink:title="Generalised low&#45;level GL program, can be applied to multiple types (eg ARB and NV)">
<polygon fill="none" stroke="black" points="442,-199.5 442,-218.5 561,-218.5 561,-199.5 442,-199.5"/>
<text text-anchor="middle" x="501.5" y="-206.5" font-family="Helvetica,sans-Serif" font-size="10.00">Ogre::GLGpuProgram</text>
</a>
</g>
</g>
<!-- Node1&#45;&gt;Node6 -->
<g id="edge5" class="edge">
<title>Node1&#45;&gt;Node6</title>
<path fill="none" stroke="midnightblue" d="M378.66,-174.29C406.21,-182.14 441.41,-192.17 466.88,-199.42"/>
<polygon fill="midnightblue" stroke="midnightblue" points="379.47,-170.88 368.89,-171.51 377.55,-177.62 379.47,-170.88"/>
</g>
<!-- Node9 -->
<g id="node9" class="node">
<title>Node9</title>
<g id="a_node9"><a xlink:href="class_ogre_1_1_high_level_gpu_program.html" target="_top" xlink:title="Abstract base class representing a high&#45;level program (a vertex or fragment program).">
<polygon fill="none" stroke="black" points="424,-133.5 424,-152.5 579,-152.5 579,-133.5 424,-133.5"/>
<text text-anchor="middle" x="501.5" y="-140.5" font-family="Helvetica,sans-Serif" font-size="10.00">Ogre::HighLevelGpuProgram</text>
</a>
</g>
</g>
<!-- Node1&#45;&gt;Node9 -->
<g id="edge8" class="edge">
<title>Node1&#45;&gt;Node9</title>
<path fill="none" stroke="midnightblue" d="M398.25,-154.77C406.66,-153.81 415.37,-152.8 423.98,-151.81"/>
<polygon fill="midnightblue" stroke="midnightblue" points="397.69,-151.31 388.16,-155.94 398.5,-158.27 397.69,-151.31"/>
</g>
<!-- Node21 -->
<g id="node21" class="node">
<title>Node21</title>
<g id="a_node21"><a xlink:href="class_ogre_1_1_vulkan_program.html" target="_top" xlink:title="Specialisation of GpuProgram to provide support for SPIRV.">
<polygon fill="none" stroke="black" points="441,-95.5 441,-114.5 562,-114.5 562,-95.5 441,-95.5"/>
<text text-anchor="middle" x="501.5" y="-102.5" font-family="Helvetica,sans-Serif" font-size="10.00">Ogre::VulkanProgram</text>
</a>
</g>
</g>
<!-- Node1&#45;&gt;Node21 -->
<g id="edge20" class="edge">
<title>Node1&#45;&gt;Node21</title>
<path fill="none" stroke="midnightblue" d="M364.58,-148.1C381.62,-140.31 403.73,-130.82 424,-124 434.51,-120.47 446.02,-117.27 456.86,-114.54"/>
<polygon fill="midnightblue" stroke="midnightblue" points="362.78,-145.08 355.18,-152.46 365.72,-151.43 362.78,-145.08"/>
</g>
<!-- Node2 -->
<g id="node2" class="node">
<title>Node2</title>
<g id="a_node2"><a xlink:href="class_ogre_1_1_resource.html" target="_top" xlink:title="Abstract class representing a loadable resource.">
<polygon fill="none" stroke="black" points="154,-152.5 154,-171.5 245,-171.5 245,-152.5 154,-152.5"/>
<text text-anchor="middle" x="199.5" y="-159.5" font-family="Helvetica,sans-Serif" font-size="10.00">Ogre::Resource</text>
</a>
</g>
</g>
<!-- Node2&#45;&gt;Node1 -->
<g id="edge1" class="edge">
<title>Node2&#45;&gt;Node1</title>
<path fill="none" stroke="midnightblue" d="M255.31,-162C263.77,-162 272.49,-162 280.91,-162"/>
<polygon fill="midnightblue" stroke="midnightblue" points="255.16,-158.5 245.16,-162 255.16,-165.5 255.16,-158.5"/>
</g>
<!-- Node3 -->
<g id="node3" class="node">
<title>Node3</title>
<g id="a_node3"><a xlink:href="class_ogre_1_1_string_interface.html" target="_top" xlink:title="Class defining the common interface which classes can use to present a reflection&#45;style,...">
<polygon fill="none" stroke="black" points="0,-171.5 0,-190.5 118,-190.5 118,-171.5 0,-171.5"/>
<text text-anchor="middle" x="59" y="-178.5" font-family="Helvetica,sans-Serif" font-size="10.00">Ogre::StringInterface</text>
</a>
</g>
</g>
<!-- Node3&#45;&gt;Node2 -->
<g id="edge2" class="edge">
<title>Node3&#45;&gt;Node2</title>
<path fill="none" stroke="midnightblue" d="M128.39,-171.62C136.98,-170.44 145.6,-169.26 153.7,-168.15"/>
<polygon fill="midnightblue" stroke="midnightblue" points="127.77,-168.17 118.34,-173 128.72,-175.11 127.77,-168.17"/>
</g>
<!-- Node4 -->
<g id="node4" class="node">
<title>Node4</title>
<g id="a_node4"><a xlink:title=" ">
<polygon fill="none" stroke="#bfbfbf" points="16,-133.5 16,-152.5 102,-152.5 102,-133.5 16,-133.5"/>
<text text-anchor="middle" x="59" y="-140.5" font-family="Helvetica,sans-Serif" font-size="10.00">ResourceAlloc</text>
</a>
</g>
</g>
<!-- Node4&#45;&gt;Node2 -->
<g id="edge3" class="edge">
<title>Node4&#45;&gt;Node2</title>
<path fill="none" stroke="midnightblue" d="M112.45,-150.2C125.99,-152.05 140.45,-154.04 153.57,-155.84"/>
<polygon fill="midnightblue" stroke="midnightblue" points="112.69,-146.7 102.31,-148.8 111.74,-153.63 112.69,-146.7"/>
</g>
<!-- Node7 -->
<g id="node7" class="node">
<title>Node7</title>
<g id="a_node7"><a xlink:href="class_ogre_1_1_g_l_arb_gpu_program.html" target="_top" xlink:title="Specialisation of the GL low&#45;level program for ARB programs.">
<polygon fill="none" stroke="black" points="626.5,-266.5 626.5,-285.5 763.5,-285.5 763.5,-266.5 626.5,-266.5"/>
<text text-anchor="middle" x="695" y="-273.5" font-family="Helvetica,sans-Serif" font-size="10.00">Ogre::GLArbGpuProgram</text>
</a>
</g>
</g>
<!-- Node6&#45;&gt;Node7 -->
<g id="edge6" class="edge">
<title>Node6&#45;&gt;Node7</title>
<path fill="none" stroke="midnightblue" d="M563.76,-221.64C569.02,-223.5 574.17,-225.6 579,-228 597.4,-237.14 596.56,-247.93 615,-257 622.85,-260.86 631.53,-263.96 640.18,-266.45"/>
<polygon fill="midnightblue" stroke="midnightblue" points="564.81,-218.3 554.21,-218.58 562.66,-224.97 564.81,-218.3"/>
</g>
<!-- Node8 -->
<g id="node8" class="node">
<title>Node8</title>
<g id="a_node8"><a xlink:href="class_ogre_1_1_g_l_gpu_nvparse_program.html" target="_top" xlink:title=" ">
<polygon fill="none" stroke="black" points="615,-228.5 615,-247.5 775,-247.5 775,-228.5 615,-228.5"/>
<text text-anchor="middle" x="695" y="-235.5" font-family="Helvetica,sans-Serif" font-size="10.00">Ogre::GLGpuNvparseProgram</text>
</a>
</g>
</g>
<!-- Node6&#45;&gt;Node8 -->
<g id="edge7" class="edge">
<title>Node6&#45;&gt;Node8</title>
<path fill="none" stroke="midnightblue" d="M571.28,-219.42C590.78,-222.37 611.9,-225.57 631.03,-228.46"/>
<polygon fill="midnightblue" stroke="midnightblue" points="571.67,-215.93 561.26,-217.9 570.62,-222.86 571.67,-215.93"/>
</g>
<!-- Node10 -->
<g id="node10" class="node">
<title>Node10</title>
<g id="a_node10"><a xlink:href="class_ogre_1_1_cg_program.html" target="_top" xlink:title="Specialisation of HighLevelGpuProgram to provide support for nVidia&#39;s CG language.">
<polygon fill="none" stroke="black" points="645,-190.5 645,-209.5 745,-209.5 745,-190.5 645,-190.5"/>
<text text-anchor="middle" x="695" y="-197.5" font-family="Helvetica,sans-Serif" font-size="10.00">Ogre::CgProgram</text>
</a>
</g>
</g>
<!-- Node9&#45;&gt;Node10 -->
<g id="edge9" class="edge">
<title>Node9&#45;&gt;Node10</title>
<path fill="none" stroke="midnightblue" d="M538.24,-155.99C560.23,-163.75 589.06,-173.52 615,-181 626.66,-184.36 639.4,-187.61 651.18,-190.44"/>
<polygon fill="midnightblue" stroke="midnightblue" points="539.25,-152.63 528.66,-152.58 536.91,-159.23 539.25,-152.63"/>
</g>
<!-- Node11 -->
<g id="node11" class="node">
<title>Node11</title>
<g id="a_node11"><a xlink:href="class_ogre_1_1_d3_d11_h_l_s_l_program.html" target="_top" xlink:title="Specialization of HighLevelGpuProgram to provide support for D3D11 High&#45;Level Shader Language (HLSL).">
<polygon fill="none" stroke="black" points="623,-152.5 623,-171.5 767,-171.5 767,-152.5 623,-152.5"/>
<text text-anchor="middle" x="695" y="-159.5" font-family="Helvetica,sans-Serif" font-size="10.00">Ogre::D3D11HLSLProgram</text>
</a>
</g>
</g>
<!-- Node9&#45;&gt;Node11 -->
<g id="edge10" class="edge">
<title>Node9&#45;&gt;Node11</title>
<path fill="none" stroke="midnightblue" d="M589.28,-151.61C600.52,-152.73 611.94,-153.86 622.89,-154.94"/>
<polygon fill="midnightblue" stroke="midnightblue" points="589.31,-148.1 579.01,-150.59 588.62,-155.06 589.31,-148.1"/>
</g>
<!-- Node12 -->
<g id="node12" class="node">
<title>Node12</title>
<g id="a_node12"><a xlink:href="class_ogre_1_1_d3_d9_h_l_s_l_program.html" target="_top" xlink:title="Specialisation of HighLevelGpuProgram to provide support for D3D9 High&#45;Level Shader Language (HLSL).">
<polygon fill="none" stroke="black" points="626,-114.5 626,-133.5 764,-133.5 764,-114.5 626,-114.5"/>
<text text-anchor="middle" x="695" y="-121.5" font-family="Helvetica,sans-Serif" font-size="10.00">Ogre::D3D9HLSLProgram</text>
</a>
</g>
</g>
<!-- Node9&#45;&gt;Node12 -->
<g id="edge11" class="edge">
<title>Node9&#45;&gt;Node12</title>
<path fill="none" stroke="midnightblue" d="M589.28,-134.39C601.58,-133.17 614.09,-131.93 625.97,-130.75"/>
<polygon fill="midnightblue" stroke="midnightblue" points="588.62,-130.94 579.01,-135.41 589.31,-137.9 588.62,-130.94"/>
</g>
<!-- Node13 -->
<g id="node13" class="node">
<title>Node13</title>
<g id="a_node13"><a xlink:href="class_ogre_1_1_g_l_s_l_shader_common.html" target="_top" xlink:title="Specialisation of HighLevelGpuProgram to provide support for OpenGL Shader Language (GLSL).">
<polygon fill="none" stroke="black" points="621,-76.5 621,-95.5 769,-95.5 769,-76.5 621,-76.5"/>
<text text-anchor="middle" x="695" y="-83.5" font-family="Helvetica,sans-Serif" font-size="10.00">Ogre::GLSLShaderCommon</text>
</a>
</g>
</g>
<!-- Node9&#45;&gt;Node13 -->
<g id="edge12" class="edge">
<title>Node9&#45;&gt;Node13</title>
<path fill="none" stroke="midnightblue" d="M558.81,-130.68C565.69,-128.69 572.56,-126.46 579,-124 595.9,-117.55 598.07,-111.39 615,-105 624.77,-101.31 635.49,-98.17 645.8,-95.57"/>
<polygon fill="midnightblue" stroke="midnightblue" points="557.49,-127.41 548.77,-133.42 559.34,-134.16 557.49,-127.41"/>
</g>
<!-- Node19 -->
<g id="node19" class="node">
<title>Node19</title>
<g id="a_node19"><a xlink:href="class_ogre_1_1_g_l_s_lang_program.html" target="_top" xlink:title="Specialisation of HighLevelGpuProgram to provide support for the GLSLang compiler by Khronos.">
<polygon fill="none" stroke="black" points="630.5,-38.5 630.5,-57.5 759.5,-57.5 759.5,-38.5 630.5,-38.5"/>
<text text-anchor="middle" x="695" y="-45.5" font-family="Helvetica,sans-Serif" font-size="10.00">Ogre::GLSLangProgram</text>
</a>
</g>
</g>
<!-- Node9&#45;&gt;Node19 -->
<g id="edge18" class="edge">
<title>Node9&#45;&gt;Node19</title>
<path fill="none" stroke="midnightblue" d="M570.55,-129.21C573.5,-127.65 576.34,-125.92 579,-124 603.29,-106.46 590.64,-84.45 615,-67 620.39,-63.14 626.46,-60.05 632.79,-57.59"/>
<polygon fill="midnightblue" stroke="midnightblue" points="569.05,-126.04 561.39,-133.37 571.95,-132.42 569.05,-126.04"/>
</g>
<!-- Node20 -->
<g id="node20" class="node">
<title>Node20</title>
<g id="a_node20"><a xlink:href="class_ogre_1_1_metal_program.html" target="_top" xlink:title="Specialisation of HighLevelGpuProgram to provide support for Metal Shader Language.">
<polygon fill="none" stroke="black" points="637.5,-0.5 637.5,-19.5 752.5,-19.5 752.5,-0.5 637.5,-0.5"/>
<text text-anchor="middle" x="695" y="-7.5" font-family="Helvetica,sans-Serif" font-size="10.00">Ogre::MetalProgram</text>
</a>
</g>
</g>
<!-- Node9&#45;&gt;Node20 -->
<g id="edge19" class="edge">
<title>Node9&#45;&gt;Node20</title>
<path fill="none" stroke="midnightblue" d="M573.46,-128.29C575.4,-126.98 577.25,-125.55 579,-124 612.77,-94.02 581.12,-58.85 615,-29 621.35,-23.4 629.06,-19.39 637.15,-16.52"/>
<polygon fill="midnightblue" stroke="midnightblue" points="571.47,-125.4 564.49,-133.37 574.92,-131.49 571.47,-125.4"/>
</g>
<!-- Node14 -->
<g id="node14" class="node">
<title>Node14</title>
<g id="a_node14"><a xlink:href="class_ogre_1_1_g_l_s_l_1_1_g_l_s_l_program.html" target="_top" xlink:title=" ">
<polygon fill="none" stroke="black" points="811,-114.5 811,-133.5 952,-133.5 952,-114.5 811,-114.5"/>
<text text-anchor="middle" x="881.5" y="-121.5" font-family="Helvetica,sans-Serif" font-size="10.00">Ogre::GLSL::GLSLProgram</text>
</a>
</g>
</g>
<!-- Node13&#45;&gt;Node14 -->
<g id="edge13" class="edge">
<title>Node13&#45;&gt;Node14</title>
<path fill="none" stroke="midnightblue" d="M752.37,-97.61C778.61,-103.01 809.44,-109.36 834.28,-114.48"/>
<polygon fill="midnightblue" stroke="midnightblue" points="753.06,-94.18 742.56,-95.59 751.65,-101.03 753.06,-94.18"/>
</g>
<!-- Node15 -->
<g id="node15" class="node">
<title>Node15</title>
<g id="a_node15"><a xlink:href="class_ogre_1_1_g_l_s_l_e_s_program.html" target="_top" xlink:title=" ">
<polygon fill="none" stroke="black" points="820,-76.5 820,-95.5 943,-95.5 943,-76.5 820,-76.5"/>
<text text-anchor="middle" x="881.5" y="-83.5" font-family="Helvetica,sans-Serif" font-size="10.00">Ogre::GLSLESProgram</text>
</a>
</g>
</g>
<!-- Node13&#45;&gt;Node15 -->
<g id="edge14" class="edge">
<title>Node13&#45;&gt;Node15</title>
<path fill="none" stroke="midnightblue" d="M779.51,-86C793.11,-86 806.96,-86 819.87,-86"/>
<polygon fill="midnightblue" stroke="midnightblue" points="779.18,-82.5 769.18,-86 779.18,-89.5 779.18,-82.5"/>
</g>
<!-- Node17 -->
<g id="node17" class="node">
<title>Node17</title>
<g id="a_node17"><a xlink:href="class_ogre_1_1_g_l_s_l_shader.html" target="_top" xlink:title=" ">
<polygon fill="none" stroke="black" points="829.5,-38.5 829.5,-57.5 933.5,-57.5 933.5,-38.5 829.5,-38.5"/>
<text text-anchor="middle" x="881.5" y="-45.5" font-family="Helvetica,sans-Serif" font-size="10.00">Ogre::GLSLShader</text>
</a>
</g>
</g>
<!-- Node13&#45;&gt;Node17 -->
<g id="edge16" class="edge">
<title>Node13&#45;&gt;Node17</title>
<path fill="none" stroke="midnightblue" d="M752.37,-74.39C778.61,-68.99 809.44,-62.64 834.28,-57.52"/>
<polygon fill="midnightblue" stroke="midnightblue" points="751.65,-70.97 742.56,-76.41 753.06,-77.82 751.65,-70.97"/>
</g>
<!-- Node16 -->
<g id="node16" class="node">
<title>Node16</title>
<g id="a_node16"><a xlink:href="class_ogre_1_1_g_l_s_l_e_s_cg_program.html" target="_top" xlink:title="Specialisation of HighLevelGpuProgram to provide support for CG.">
<polygon fill="none" stroke="black" points="988,-76.5 988,-95.5 1124,-95.5 1124,-76.5 988,-76.5"/>
<text text-anchor="middle" x="1056" y="-83.5" font-family="Helvetica,sans-Serif" font-size="10.00">Ogre::GLSLESCgProgram</text>
</a>
</g>
</g>
<!-- Node15&#45;&gt;Node16 -->
<g id="edge15" class="edge">
<title>Node15&#45;&gt;Node16</title>
<path fill="none" stroke="midnightblue" d="M953.63,-86C964.99,-86 976.72,-86 987.98,-86"/>
<polygon fill="midnightblue" stroke="midnightblue" points="953.32,-82.5 943.32,-86 953.32,-89.5 953.32,-82.5"/>
</g>
<!-- Node18 -->
<g id="node18" class="node">
<title>Node18</title>
<g id="a_node18"><a xlink:href="class_ogre_1_1_s_p_i_r_v_shader.html" target="_top" xlink:title=" ">
<polygon fill="none" stroke="black" points="1002,-38.5 1002,-57.5 1110,-57.5 1110,-38.5 1002,-38.5"/>
<text text-anchor="middle" x="1056" y="-45.5" font-family="Helvetica,sans-Serif" font-size="10.00">Ogre::SPIRVShader</text>
</a>
</g>
</g>
<!-- Node17&#45;&gt;Node18 -->
<g id="edge17" class="edge">
<title>Node17&#45;&gt;Node18</title>
<path fill="none" stroke="midnightblue" d="M943.81,-48C962.76,-48 983.46,-48 1001.81,-48"/>
<polygon fill="midnightblue" stroke="midnightblue" points="943.79,-44.5 933.79,-48 943.79,-51.5 943.79,-44.5"/>
</g>
</g>
</svg>
