<?xml version="1.0" encoding="UTF-8" standalone="no"?>
<!DOCTYPE svg PUBLIC "-//W3C//DTD SVG 1.1//EN"
 "http://www.w3.org/Graphics/SVG/1.1/DTD/svg11.dtd">
<!-- Generated by graphviz version 2.43.0 (0)
 -->
<!-- Title: Ogre::HardwareBuffer Pages: 1 -->
<svg width="839pt" height="420pt"
 viewBox="0.00 0.00 839.00 420.00" xmlns="http://www.w3.org/2000/svg" xmlns:xlink="http://www.w3.org/1999/xlink">
<g id="graph0" class="graph" transform="scale(1 1) rotate(0) translate(4 416)">
<title>Ogre::HardwareBuffer</title>
<!-- Node1 -->
<g id="node1" class="node">
<title>Node1</title>
<g id="a_node1"><a xlink:title="Abstract class defining common features of hardware buffers.">
<polygon fill="#bfbfbf" stroke="black" points="107,-202.5 107,-221.5 230,-221.5 230,-202.5 107,-202.5"/>
<text text-anchor="middle" x="168.5" y="-209.5" font-family="Helvetica,sans-Serif" font-size="10.00">Ogre::HardwareBuffer</text>
</a>
</g>
</g>
<!-- Node3 -->
<g id="node3" class="node">
<title>Node3</title>
<g id="a_node3"><a xlink:href="class_ogre_1_1_d3_d11_hardware_buffer.html" target="_top" xlink:title="Base implementation of a D3D11 buffer, dealing with all the common aspects.">
<polygon fill="none" stroke="black" points="272,-392.5 272,-411.5 428,-411.5 428,-392.5 272,-392.5"/>
<text text-anchor="middle" x="350" y="-399.5" font-family="Helvetica,sans-Serif" font-size="10.00">Ogre::D3D11HardwareBuffer</text>
</a>
</g>
</g>
<!-- Node1&#45;&gt;Node3 -->
<g id="edge2" class="edge">
<title>Node1&#45;&gt;Node3</title>
<path fill="none" stroke="midnightblue" d="M174.72,-231.31C185.45,-267.14 213.51,-343.83 266,-383 271.21,-386.89 277.09,-390 283.24,-392.49"/>
<polygon fill="midnightblue" stroke="midnightblue" points="178.06,-230.24 171.94,-221.59 171.33,-232.17 178.06,-230.24"/>
</g>
<!-- Node4 -->
<g id="node4" class="node">
<title>Node4</title>
<g id="a_node4"><a xlink:href="class_ogre_1_1_d3_d9_hardware_buffer.html" target="_top" xlink:title="Specialisation of HardwareVertexBuffer for D3D9.">
<polygon fill="none" stroke="black" points="275,-354.5 275,-373.5 425,-373.5 425,-354.5 275,-354.5"/>
<text text-anchor="middle" x="350" y="-361.5" font-family="Helvetica,sans-Serif" font-size="10.00">Ogre::D3D9HardwareBuffer</text>
</a>
</g>
</g>
<!-- Node1&#45;&gt;Node4 -->
<g id="edge3" class="edge">
<title>Node1&#45;&gt;Node4</title>
<path fill="none" stroke="midnightblue" d="M177.65,-230.64C191.43,-259.84 222.15,-316.01 266,-345 271.8,-348.83 278.26,-351.9 284.96,-354.35"/>
<polygon fill="midnightblue" stroke="midnightblue" points="180.83,-229.18 173.5,-221.53 174.46,-232.08 180.83,-229.18"/>
</g>
<!-- Node5 -->
<g id="node5" class="node">
<title>Node5</title>
<g id="a_node5"><a xlink:href="class_ogre_1_1_default_hardware_buffer.html" target="_top" xlink:title="Specialisation of HardwareBuffer for emulation.">
<polygon fill="none" stroke="black" points="270.5,-316.5 270.5,-335.5 429.5,-335.5 429.5,-316.5 270.5,-316.5"/>
<text text-anchor="middle" x="350" y="-323.5" font-family="Helvetica,sans-Serif" font-size="10.00">Ogre::DefaultHardwareBuffer</text>
</a>
</g>
</g>
<!-- Node1&#45;&gt;Node5 -->
<g id="edge4" class="edge">
<title>Node1&#45;&gt;Node5</title>
<path fill="none" stroke="midnightblue" d="M182.32,-229.6C199.07,-251.25 230.48,-287.54 266,-307 273.13,-310.91 281.03,-314.01 289.03,-316.48"/>
<polygon fill="midnightblue" stroke="midnightblue" points="185.07,-227.44 176.26,-221.56 179.49,-231.65 185.07,-227.44"/>
</g>
<!-- Node6 -->
<g id="node6" class="node">
<title>Node6</title>
<g id="a_node6"><a xlink:href="class_ogre_1_1_g_l3_plus_hardware_buffer.html" target="_top" xlink:title=" ">
<polygon fill="none" stroke="black" points="269,-278.5 269,-297.5 431,-297.5 431,-278.5 269,-278.5"/>
<text text-anchor="middle" x="350" y="-285.5" font-family="Helvetica,sans-Serif" font-size="10.00">Ogre::GL3PlusHardwareBuffer</text>
</a>
</g>
</g>
<!-- Node1&#45;&gt;Node6 -->
<g id="edge5" class="edge">
<title>Node1&#45;&gt;Node6</title>
<path fill="none" stroke="midnightblue" d="M191.02,-227.35C209.94,-240.19 238.66,-258.1 266,-269 275.47,-272.78 285.87,-275.9 296.01,-278.44"/>
<polygon fill="midnightblue" stroke="midnightblue" points="192.78,-224.31 182.56,-221.51 188.8,-230.07 192.78,-224.31"/>
</g>
<!-- Node7 -->
<g id="node7" class="node">
<title>Node7</title>
<g id="a_node7"><a xlink:href="class_ogre_1_1_g_l_e_s2_hardware_buffer.html" target="_top" xlink:title=" ">
<polygon fill="none" stroke="black" points="273,-240.5 273,-259.5 427,-259.5 427,-240.5 273,-240.5"/>
<text text-anchor="middle" x="350" y="-247.5" font-family="Helvetica,sans-Serif" font-size="10.00">Ogre::GLES2HardwareBuffer</text>
</a>
</g>
</g>
<!-- Node1&#45;&gt;Node7 -->
<g id="edge6" class="edge">
<title>Node1&#45;&gt;Node7</title>
<path fill="none" stroke="midnightblue" d="M224.68,-223.68C250.13,-229.07 279.97,-235.39 304.03,-240.48"/>
<polygon fill="midnightblue" stroke="midnightblue" points="225.3,-220.24 214.8,-221.59 223.85,-227.08 225.3,-220.24"/>
</g>
<!-- Node8 -->
<g id="node8" class="node">
<title>Node8</title>
<g id="a_node8"><a xlink:href="class_ogre_1_1_g_l_hardware_vertex_buffer.html" target="_top" xlink:title="Specialisation of HardwareVertexBuffer for OpenGL.">
<polygon fill="none" stroke="black" points="266,-202.5 266,-221.5 434,-221.5 434,-202.5 266,-202.5"/>
<text text-anchor="middle" x="350" y="-209.5" font-family="Helvetica,sans-Serif" font-size="10.00">Ogre::GLHardwareVertexBuffer</text>
</a>
</g>
</g>
<!-- Node1&#45;&gt;Node8 -->
<g id="edge7" class="edge">
<title>Node1&#45;&gt;Node8</title>
<path fill="none" stroke="midnightblue" d="M240.3,-212C248.64,-212 257.2,-212 265.69,-212"/>
<polygon fill="midnightblue" stroke="midnightblue" points="240.27,-208.5 230.27,-212 240.27,-215.5 240.27,-208.5"/>
</g>
<!-- Node9 -->
<g id="node9" class="node">
<title>Node9</title>
<g id="a_node9"><a xlink:href="class_ogre_1_1_hardware_index_buffer.html" target="_top" xlink:title="Specialisation of HardwareBuffer for vertex index buffers, still abstract.">
<polygon fill="none" stroke="black" points="275,-164.5 275,-183.5 425,-183.5 425,-164.5 275,-164.5"/>
<text text-anchor="middle" x="350" y="-171.5" font-family="Helvetica,sans-Serif" font-size="10.00">Ogre::HardwareIndexBuffer</text>
</a>
</g>
</g>
<!-- Node1&#45;&gt;Node9 -->
<g id="edge8" class="edge">
<title>Node1&#45;&gt;Node9</title>
<path fill="none" stroke="midnightblue" d="M224.68,-200.32C250.13,-194.93 279.97,-188.61 304.03,-183.52"/>
<polygon fill="midnightblue" stroke="midnightblue" points="223.85,-196.92 214.8,-202.41 225.3,-203.76 223.85,-196.92"/>
</g>
<!-- Node10 -->
<g id="node10" class="node">
<title>Node10</title>
<g id="a_node10"><a xlink:href="class_ogre_1_1_hardware_pixel_buffer.html" target="_top" xlink:title="Specialisation of HardwareBuffer for a pixel buffer.">
<polygon fill="none" stroke="black" points="276.5,-126.5 276.5,-145.5 423.5,-145.5 423.5,-126.5 276.5,-126.5"/>
<text text-anchor="middle" x="350" y="-133.5" font-family="Helvetica,sans-Serif" font-size="10.00">Ogre::HardwarePixelBuffer</text>
</a>
</g>
</g>
<!-- Node1&#45;&gt;Node10 -->
<g id="edge9" class="edge">
<title>Node1&#45;&gt;Node10</title>
<path fill="none" stroke="midnightblue" d="M191.02,-196.65C209.94,-183.81 238.66,-165.9 266,-155 275.47,-151.22 285.87,-148.1 296.01,-145.56"/>
<polygon fill="midnightblue" stroke="midnightblue" points="188.8,-193.93 182.56,-202.49 192.78,-199.69 188.8,-193.93"/>
</g>
<!-- Node24 -->
<g id="node24" class="node">
<title>Node24</title>
<g id="a_node24"><a xlink:href="class_ogre_1_1_hardware_vertex_buffer.html" target="_top" xlink:title="Specialisation of HardwareBuffer for a vertex buffer.">
<polygon fill="none" stroke="black" points="272.5,-88.5 272.5,-107.5 427.5,-107.5 427.5,-88.5 272.5,-88.5"/>
<text text-anchor="middle" x="350" y="-95.5" font-family="Helvetica,sans-Serif" font-size="10.00">Ogre::HardwareVertexBuffer</text>
</a>
</g>
</g>
<!-- Node1&#45;&gt;Node24 -->
<g id="edge23" class="edge">
<title>Node1&#45;&gt;Node24</title>
<path fill="none" stroke="midnightblue" d="M182.32,-194.4C199.07,-172.75 230.48,-136.46 266,-117 273.13,-113.09 281.03,-109.99 289.03,-107.52"/>
<polygon fill="midnightblue" stroke="midnightblue" points="179.49,-192.35 176.26,-202.44 185.07,-196.56 179.49,-192.35"/>
</g>
<!-- Node25 -->
<g id="node25" class="node">
<title>Node25</title>
<g id="a_node25"><a xlink:href="class_ogre_1_1_metal_hardware_buffer_common.html" target="_top" xlink:title="Common buffer operations for most v1 buffer interfaces used in Metal This implementation treats: Igno...">
<polygon fill="none" stroke="black" points="274.5,-39 274.5,-69 425.5,-69 425.5,-39 274.5,-39"/>
<text text-anchor="start" x="282.5" y="-57" font-family="Helvetica,sans-Serif" font-size="10.00">Ogre::MetalHardwareBuffer</text>
<text text-anchor="middle" x="350" y="-46" font-family="Helvetica,sans-Serif" font-size="10.00">Common</text>
</a>
</g>
</g>
<!-- Node1&#45;&gt;Node25 -->
<g id="edge24" class="edge">
<title>Node1&#45;&gt;Node25</title>
<path fill="none" stroke="midnightblue" d="M178.28,-192.9C192.56,-163.96 223.54,-109.17 266,-79 271.4,-75.16 277.39,-71.91 283.62,-69.15"/>
<polygon fill="midnightblue" stroke="midnightblue" points="174.94,-191.77 173.79,-202.3 181.26,-194.79 174.94,-191.77"/>
</g>
<!-- Node26 -->
<g id="node26" class="node">
<title>Node26</title>
<g id="a_node26"><a xlink:href="class_ogre_1_1_vulkan_hardware_buffer.html" target="_top" xlink:title=" ">
<polygon fill="none" stroke="black" points="271.5,-0.5 271.5,-19.5 428.5,-19.5 428.5,-0.5 271.5,-0.5"/>
<text text-anchor="middle" x="350" y="-7.5" font-family="Helvetica,sans-Serif" font-size="10.00">Ogre::VulkanHardwareBuffer</text>
</a>
</g>
</g>
<!-- Node1&#45;&gt;Node26 -->
<g id="edge25" class="edge">
<title>Node1&#45;&gt;Node26</title>
<path fill="none" stroke="midnightblue" d="M174.04,-192.39C183.86,-154.54 210.79,-71.43 266,-29 271.04,-25.13 276.73,-22.02 282.71,-19.53"/>
<polygon fill="midnightblue" stroke="midnightblue" points="170.62,-191.64 171.62,-202.19 177.41,-193.32 170.62,-191.64"/>
</g>
<!-- Node2 -->
<g id="node2" class="node">
<title>Node2</title>
<g id="a_node2"><a xlink:title=" ">
<polygon fill="none" stroke="#bfbfbf" points="0,-202.5 0,-221.5 71,-221.5 71,-202.5 0,-202.5"/>
<text text-anchor="middle" x="35.5" y="-209.5" font-family="Helvetica,sans-Serif" font-size="10.00">BufferAlloc</text>
</a>
</g>
</g>
<!-- Node2&#45;&gt;Node1 -->
<g id="edge1" class="edge">
<title>Node2&#45;&gt;Node1</title>
<path fill="none" stroke="midnightblue" d="M81.4,-212C89.64,-212 98.37,-212 106.99,-212"/>
<polygon fill="midnightblue" stroke="midnightblue" points="81.26,-208.5 71.26,-212 81.26,-215.5 81.26,-208.5"/>
</g>
<!-- Node11 -->
<g id="node11" class="node">
<title>Node11</title>
<g id="a_node11"><a xlink:href="class_ogre_1_1_d3_d11_hardware_pixel_buffer.html" target="_top" xlink:title=" ">
<polygon fill="none" stroke="black" points="482,-233 482,-263 632,-263 632,-233 482,-233"/>
<text text-anchor="start" x="490" y="-251" font-family="Helvetica,sans-Serif" font-size="10.00">Ogre::D3D11HardwarePixel</text>
<text text-anchor="middle" x="557" y="-240" font-family="Helvetica,sans-Serif" font-size="10.00">Buffer</text>
</a>
</g>
</g>
<!-- Node10&#45;&gt;Node11 -->
<g id="edge10" class="edge">
<title>Node10&#45;&gt;Node11</title>
<path fill="none" stroke="midnightblue" d="M426.52,-150.05C429.13,-151.54 431.64,-153.19 434,-155 461.13,-175.82 443.48,-201.41 470,-223 474.7,-226.83 479.97,-230.07 485.52,-232.82"/>
<polygon fill="midnightblue" stroke="midnightblue" points="427.81,-146.78 417.29,-145.54 424.74,-153.07 427.81,-146.78"/>
</g>
<!-- Node12 -->
<g id="node12" class="node">
<title>Node12</title>
<g id="a_node12"><a xlink:href="class_ogre_1_1_d3_d9_hardware_pixel_buffer.html" target="_top" xlink:title=" ">
<polygon fill="none" stroke="black" points="470,-194.5 470,-213.5 644,-213.5 644,-194.5 470,-194.5"/>
<text text-anchor="middle" x="557" y="-201.5" font-family="Helvetica,sans-Serif" font-size="10.00">Ogre::D3D9HardwarePixelBuffer</text>
</a>
</g>
</g>
<!-- Node10&#45;&gt;Node12 -->
<g id="edge11" class="edge">
<title>Node10&#45;&gt;Node12</title>
<path fill="none" stroke="midnightblue" d="M418.28,-148.61C423.7,-150.46 429.01,-152.58 434,-155 452.49,-163.97 451.53,-175 470,-184 478.82,-188.3 488.6,-191.69 498.32,-194.38"/>
<polygon fill="midnightblue" stroke="midnightblue" points="419.01,-145.17 408.43,-145.55 416.94,-151.86 419.01,-145.17"/>
</g>
<!-- Node13 -->
<g id="node13" class="node">
<title>Node13</title>
<g id="a_node13"><a xlink:href="class_ogre_1_1_g_l_hardware_pixel_buffer_common.html" target="_top" xlink:title=" ">
<polygon fill="none" stroke="black" points="477,-145 477,-175 637,-175 637,-145 477,-145"/>
<text text-anchor="start" x="485" y="-163" font-family="Helvetica,sans-Serif" font-size="10.00">Ogre::GLHardwarePixelBuffer</text>
<text text-anchor="middle" x="557" y="-152" font-family="Helvetica,sans-Serif" font-size="10.00">Common</text>
</a>
</g>
</g>
<!-- Node10&#45;&gt;Node13 -->
<g id="edge12" class="edge">
<title>Node10&#45;&gt;Node13</title>
<path fill="none" stroke="midnightblue" d="M433.81,-145.7C448.04,-147.36 462.79,-149.09 476.91,-150.74"/>
<polygon fill="midnightblue" stroke="midnightblue" points="433.9,-142.18 423.56,-144.5 433.09,-149.13 433.9,-142.18"/>
</g>
<!-- Node20 -->
<g id="node20" class="node">
<title>Node20</title>
<g id="a_node20"><a xlink:href="class_ogre_1_1_metal_hardware_pixel_buffer.html" target="_top" xlink:title=" ">
<polygon fill="none" stroke="black" points="484.5,-96 484.5,-126 629.5,-126 629.5,-96 484.5,-96"/>
<text text-anchor="start" x="492.5" y="-114" font-family="Helvetica,sans-Serif" font-size="10.00">Ogre::MetalHardwarePixel</text>
<text text-anchor="middle" x="557" y="-103" font-family="Helvetica,sans-Serif" font-size="10.00">Buffer</text>
</a>
</g>
</g>
<!-- Node10&#45;&gt;Node20 -->
<g id="edge19" class="edge">
<title>Node10&#45;&gt;Node20</title>
<path fill="none" stroke="midnightblue" d="M433.85,-125.9C450.54,-123.86 467.95,-121.74 484.22,-119.75"/>
<polygon fill="midnightblue" stroke="midnightblue" points="433.07,-122.47 423.56,-127.15 433.91,-129.41 433.07,-122.47"/>
</g>
<!-- Node22 -->
<g id="node22" class="node">
<title>Node22</title>
<g id="a_node22"><a xlink:href="class_ogre_1_1_tiny_hardware_pixel_buffer.html" target="_top" xlink:title=" ">
<polygon fill="none" stroke="black" points="473.5,-57.5 473.5,-76.5 640.5,-76.5 640.5,-57.5 473.5,-57.5"/>
<text text-anchor="middle" x="557" y="-64.5" font-family="Helvetica,sans-Serif" font-size="10.00">Ogre::TinyHardwarePixelBuffer</text>
</a>
</g>
</g>
<!-- Node10&#45;&gt;Node22 -->
<g id="edge21" class="edge">
<title>Node10&#45;&gt;Node22</title>
<path fill="none" stroke="midnightblue" d="M419.3,-123.24C424.38,-121.42 429.34,-119.36 434,-117 452.84,-107.48 451.12,-95.45 470,-86 477.79,-82.1 486.38,-78.99 495.02,-76.52"/>
<polygon fill="midnightblue" stroke="midnightblue" points="417.86,-120.03 409.42,-126.42 420.01,-126.69 417.86,-120.03"/>
</g>
<!-- Node23 -->
<g id="node23" class="node">
<title>Node23</title>
<g id="a_node23"><a xlink:href="class_ogre_1_1_vulkan_hardware_pixel_buffer.html" target="_top" xlink:title=" ">
<polygon fill="none" stroke="black" points="481.5,-8 481.5,-38 632.5,-38 632.5,-8 481.5,-8"/>
<text text-anchor="start" x="489.5" y="-26" font-family="Helvetica,sans-Serif" font-size="10.00">Ogre::VulkanHardwarePixel</text>
<text text-anchor="middle" x="557" y="-15" font-family="Helvetica,sans-Serif" font-size="10.00">Buffer</text>
</a>
</g>
</g>
<!-- Node10&#45;&gt;Node23 -->
<g id="edge22" class="edge">
<title>Node10&#45;&gt;Node23</title>
<path fill="none" stroke="midnightblue" d="M426.53,-121.97C429.14,-120.47 431.64,-118.82 434,-117 461.38,-95.86 443.24,-69.92 470,-48 474.69,-44.16 479.95,-40.9 485.49,-38.15"/>
<polygon fill="midnightblue" stroke="midnightblue" points="424.75,-118.95 417.31,-126.5 427.83,-125.23 424.75,-118.95"/>
</g>
<!-- Node14 -->
<g id="node14" class="node">
<title>Node14</title>
<g id="a_node14"><a xlink:href="class_ogre_1_1_g_l3_plus_render_buffer.html" target="_top" xlink:title="Renderbuffer surface.">
<polygon fill="none" stroke="black" points="681,-264.5 681,-283.5 830,-283.5 830,-264.5 681,-264.5"/>
<text text-anchor="middle" x="755.5" y="-271.5" font-family="Helvetica,sans-Serif" font-size="10.00">Ogre::GL3PlusRenderBuffer</text>
</a>
</g>
</g>
<!-- Node13&#45;&gt;Node14 -->
<g id="edge13" class="edge">
<title>Node13&#45;&gt;Node14</title>
<path fill="none" stroke="midnightblue" d="M637.55,-180.27C639.8,-181.74 641.95,-183.31 644,-185 671,-207.25 652.64,-233.2 680,-255 684.8,-258.83 690.28,-261.89 696.05,-264.34"/>
<polygon fill="midnightblue" stroke="midnightblue" points="638.95,-177.04 628.53,-175.12 635.48,-183.12 638.95,-177.04"/>
</g>
<!-- Node15 -->
<g id="node15" class="node">
<title>Node15</title>
<g id="a_node15"><a xlink:href="class_ogre_1_1_g_l3_plus_texture_buffer.html" target="_top" xlink:title="Texture surface.">
<polygon fill="none" stroke="black" points="680,-226.5 680,-245.5 831,-245.5 831,-226.5 680,-226.5"/>
<text text-anchor="middle" x="755.5" y="-233.5" font-family="Helvetica,sans-Serif" font-size="10.00">Ogre::GL3PlusTextureBuffer</text>
</a>
</g>
</g>
<!-- Node13&#45;&gt;Node15 -->
<g id="edge14" class="edge">
<title>Node13&#45;&gt;Node15</title>
<path fill="none" stroke="midnightblue" d="M631.42,-178.87C635.76,-180.74 639.99,-182.78 644,-185 662.74,-195.35 661.09,-206.96 680,-217 687.31,-220.88 695.45,-224 703.59,-226.49"/>
<polygon fill="midnightblue" stroke="midnightblue" points="632.35,-175.48 621.77,-175.04 629.77,-181.99 632.35,-175.48"/>
</g>
<!-- Node16 -->
<g id="node16" class="node">
<title>Node16</title>
<g id="a_node16"><a xlink:href="class_ogre_1_1_g_l_e_s2_render_buffer.html" target="_top" xlink:title=" ">
<polygon fill="none" stroke="black" points="685,-188.5 685,-207.5 826,-207.5 826,-188.5 685,-188.5"/>
<text text-anchor="middle" x="755.5" y="-195.5" font-family="Helvetica,sans-Serif" font-size="10.00">Ogre::GLES2RenderBuffer</text>
</a>
</g>
</g>
<!-- Node13&#45;&gt;Node16 -->
<g id="edge15" class="edge">
<title>Node13&#45;&gt;Node16</title>
<path fill="none" stroke="midnightblue" d="M645.65,-176.95C666.15,-180.91 687.26,-185 705.37,-188.5"/>
<polygon fill="midnightblue" stroke="midnightblue" points="646.14,-173.48 635.66,-175.02 644.82,-180.35 646.14,-173.48"/>
</g>
<!-- Node17 -->
<g id="node17" class="node">
<title>Node17</title>
<g id="a_node17"><a xlink:href="class_ogre_1_1_g_l_e_s2_texture_buffer.html" target="_top" xlink:title=" ">
<polygon fill="none" stroke="black" points="684,-150.5 684,-169.5 827,-169.5 827,-150.5 684,-150.5"/>
<text text-anchor="middle" x="755.5" y="-157.5" font-family="Helvetica,sans-Serif" font-size="10.00">Ogre::GLES2TextureBuffer</text>
</a>
</g>
</g>
<!-- Node13&#45;&gt;Node17 -->
<g id="edge16" class="edge">
<title>Node13&#45;&gt;Node17</title>
<path fill="none" stroke="midnightblue" d="M647.3,-160C659.55,-160 671.98,-160 683.83,-160"/>
<polygon fill="midnightblue" stroke="midnightblue" points="647.07,-156.5 637.07,-160 647.07,-163.5 647.07,-156.5"/>
</g>
<!-- Node18 -->
<g id="node18" class="node">
<title>Node18</title>
<g id="a_node18"><a xlink:href="class_ogre_1_1_g_l_render_buffer.html" target="_top" xlink:title="Renderbuffer surface.">
<polygon fill="none" stroke="black" points="694,-112.5 694,-131.5 817,-131.5 817,-112.5 694,-112.5"/>
<text text-anchor="middle" x="755.5" y="-119.5" font-family="Helvetica,sans-Serif" font-size="10.00">Ogre::GLRenderBuffer</text>
</a>
</g>
</g>
<!-- Node13&#45;&gt;Node18 -->
<g id="edge17" class="edge">
<title>Node13&#45;&gt;Node18</title>
<path fill="none" stroke="midnightblue" d="M645.65,-143.05C666.15,-139.09 687.26,-135 705.37,-131.5"/>
<polygon fill="midnightblue" stroke="midnightblue" points="644.82,-139.65 635.66,-144.98 646.14,-146.52 644.82,-139.65"/>
</g>
<!-- Node19 -->
<g id="node19" class="node">
<title>Node19</title>
<g id="a_node19"><a xlink:href="class_ogre_1_1_g_l_texture_buffer.html" target="_top" xlink:title="Texture surface.">
<polygon fill="none" stroke="black" points="693.5,-74.5 693.5,-93.5 817.5,-93.5 817.5,-74.5 693.5,-74.5"/>
<text text-anchor="middle" x="755.5" y="-81.5" font-family="Helvetica,sans-Serif" font-size="10.00">Ogre::GLTextureBuffer</text>
</a>
</g>
</g>
<!-- Node13&#45;&gt;Node19 -->
<g id="edge18" class="edge">
<title>Node13&#45;&gt;Node19</title>
<path fill="none" stroke="midnightblue" d="M631.42,-141.13C635.76,-139.26 639.99,-137.22 644,-135 662.74,-124.65 661.09,-113.04 680,-103 687.31,-99.12 695.45,-96 703.59,-93.51"/>
<polygon fill="midnightblue" stroke="midnightblue" points="629.77,-138.01 621.77,-144.96 632.35,-144.52 629.77,-138.01"/>
</g>
<!-- Node21 -->
<g id="node21" class="node">
<title>Node21</title>
<g id="a_node21"><a xlink:href="class_ogre_1_1_metal_texture_buffer.html" target="_top" xlink:title="Texture surface.">
<polygon fill="none" stroke="black" points="685.5,-36.5 685.5,-55.5 825.5,-55.5 825.5,-36.5 685.5,-36.5"/>
<text text-anchor="middle" x="755.5" y="-43.5" font-family="Helvetica,sans-Serif" font-size="10.00">Ogre::MetalTextureBuffer</text>
</a>
</g>
</g>
<!-- Node20&#45;&gt;Node21 -->
<g id="edge20" class="edge">
<title>Node20&#45;&gt;Node21</title>
<path fill="none" stroke="midnightblue" d="M626.87,-92.63C632.73,-90.57 638.51,-88.36 644,-86 661.02,-78.69 662.86,-72.02 680,-65 689.02,-61.31 698.95,-58.17 708.54,-55.58"/>
<polygon fill="midnightblue" stroke="midnightblue" points="625.34,-89.45 616.97,-95.95 627.56,-96.09 625.34,-89.45"/>
</g>
</g>
</svg>
