<?xml version="1.0" encoding="UTF-8" standalone="no"?>
<!DOCTYPE svg PUBLIC "-//W3C//DTD SVG 1.1//EN"
 "http://www.w3.org/Graphics/SVG/1.1/DTD/svg11.dtd">
<!-- Generated by graphviz version 2.43.0 (0)
 -->
<!-- Title: Ogre::SmallVectorImpl&lt; T &gt; Pages: 1 -->
<svg width="1037pt" height="166pt"
 viewBox="0.00 0.00 1037.00 165.50" xmlns="http://www.w3.org/2000/svg" xmlns:xlink="http://www.w3.org/1999/xlink">
<g id="graph0" class="graph" transform="scale(1 1) rotate(0) translate(4 161.5)">
<title>Ogre::SmallVectorImpl&lt; T &gt;</title>
<!-- Node1 -->
<g id="node1" class="node">
<title>Node1</title>
<g id="a_node1"><a xlink:title="SmallVectorImpl &#45; This class consists of common code factored out of the SmallVector class to reduce ...">
<polygon fill="#bfbfbf" stroke="black" points="537,-60 537,-79 692,-79 692,-60 537,-60"/>
<text text-anchor="middle" x="614.5" y="-67" font-family="Helvetica,sans-Serif" font-size="10.00">Ogre::SmallVectorImpl&lt; T &gt;</text>
</a>
</g>
</g>
<!-- Node5 -->
<g id="node5" class="node">
<title>Node5</title>
<g id="a_node5"><a xlink:href="class_ogre_1_1_small_vector.html" target="_top" xlink:title=" ">
<polygon fill="none" stroke="black" points="728,-122.5 728,-152.5 841,-152.5 841,-122.5 728,-122.5"/>
<text text-anchor="start" x="736" y="-140.5" font-family="Helvetica,sans-Serif" font-size="10.00">Ogre::SmallVector&lt;</text>
<text text-anchor="middle" x="784.5" y="-129.5" font-family="Helvetica,sans-Serif" font-size="10.00"> T, S &gt;</text>
</a>
</g>
</g>
<!-- Node1&#45;&gt;Node5 -->
<g id="edge4" class="edge">
<title>Node1&#45;&gt;Node5</title>
<path fill="none" stroke="midnightblue" d="M648.61,-82.9C676.74,-94.29 717.07,-110.61 746.3,-122.44"/>
<polygon fill="midnightblue" stroke="midnightblue" points="649.8,-79.61 639.21,-79.1 647.17,-86.09 649.8,-79.61"/>
</g>
<!-- Node7 -->
<g id="node7" class="node">
<title>Node7</title>
<g id="a_node7"><a xlink:href="class_ogre_1_1_small_vector.html" target="_top" xlink:title="SmallVector &#45; This is a &#39;vector&#39; (really, a variable&#45;sized array), optimized for the case when the ar...">
<polygon fill="none" stroke="black" points="728,-54.5 728,-84.5 841,-84.5 841,-54.5 728,-54.5"/>
<text text-anchor="start" x="736" y="-72.5" font-family="Helvetica,sans-Serif" font-size="10.00">Ogre::SmallVector&lt;</text>
<text text-anchor="middle" x="784.5" y="-61.5" font-family="Helvetica,sans-Serif" font-size="10.00"> T, N &gt;</text>
</a>
</g>
</g>
<!-- Node1&#45;&gt;Node7 -->
<g id="edge6" class="edge">
<title>Node1&#45;&gt;Node7</title>
<path fill="none" stroke="midnightblue" d="M702.23,-69.5C710.84,-69.5 719.41,-69.5 727.58,-69.5"/>
<polygon fill="midnightblue" stroke="midnightblue" points="702.13,-66 692.13,-69.5 702.13,-73 702.13,-66"/>
</g>
<!-- Node11 -->
<g id="node11" class="node">
<title>Node11</title>
<g id="a_node11"><a xlink:href="class_ogre_1_1_small_vector_3_01_t_00_010_01_4.html" target="_top" xlink:title="Specialize SmallVector at N=0.">
<polygon fill="none" stroke="black" points="728,-5.5 728,-35.5 841,-35.5 841,-5.5 728,-5.5"/>
<text text-anchor="start" x="736" y="-23.5" font-family="Helvetica,sans-Serif" font-size="10.00">Ogre::SmallVector&lt;</text>
<text text-anchor="middle" x="784.5" y="-12.5" font-family="Helvetica,sans-Serif" font-size="10.00"> T, 0 &gt;</text>
</a>
</g>
</g>
<!-- Node1&#45;&gt;Node11 -->
<g id="edge10" class="edge">
<title>Node1&#45;&gt;Node11</title>
<path fill="none" stroke="midnightblue" d="M657.9,-57.13C680.39,-50.57 708.21,-42.46 731.94,-35.54"/>
<polygon fill="midnightblue" stroke="midnightblue" points="656.91,-53.78 648.29,-59.94 658.87,-60.5 656.91,-53.78"/>
</g>
<!-- Node2 -->
<g id="node2" class="node">
<title>Node2</title>
<g id="a_node2"><a xlink:href="class_ogre_1_1_small_vector_template_base.html" target="_top" xlink:title=" ">
<polygon fill="none" stroke="black" points="351,-49 351,-90 501,-90 501,-49 351,-49"/>
<text text-anchor="start" x="359" y="-78" font-family="Helvetica,sans-Serif" font-size="10.00">Ogre::SmallVectorTemplate</text>
<text text-anchor="start" x="359" y="-67" font-family="Helvetica,sans-Serif" font-size="10.00">Base&lt; T, isPodLike&lt; T &gt;</text>
<text text-anchor="middle" x="426" y="-56" font-family="Helvetica,sans-Serif" font-size="10.00">::value &gt;</text>
</a>
</g>
</g>
<!-- Node2&#45;&gt;Node1 -->
<g id="edge1" class="edge">
<title>Node2&#45;&gt;Node1</title>
<path fill="none" stroke="midnightblue" d="M511.46,-69.5C519.89,-69.5 528.42,-69.5 536.76,-69.5"/>
<polygon fill="midnightblue" stroke="midnightblue" points="511.25,-66 501.25,-69.5 511.25,-73 511.25,-66"/>
</g>
<!-- Node3 -->
<g id="node3" class="node">
<title>Node3</title>
<g id="a_node3"><a xlink:href="class_ogre_1_1_small_vector_template_common.html" target="_top" xlink:title=" ">
<polygon fill="none" stroke="black" points="165,-54.5 165,-84.5 315,-84.5 315,-54.5 165,-54.5"/>
<text text-anchor="start" x="173" y="-72.5" font-family="Helvetica,sans-Serif" font-size="10.00">Ogre::SmallVectorTemplate</text>
<text text-anchor="middle" x="240" y="-61.5" font-family="Helvetica,sans-Serif" font-size="10.00">Common&lt; T &gt;</text>
</a>
</g>
</g>
<!-- Node3&#45;&gt;Node2 -->
<g id="edge2" class="edge">
<title>Node3&#45;&gt;Node2</title>
<path fill="none" stroke="midnightblue" d="M325.07,-69.5C333.65,-69.5 342.34,-69.5 350.81,-69.5"/>
<polygon fill="midnightblue" stroke="midnightblue" points="325.04,-66 315.04,-69.5 325.04,-73 325.04,-66"/>
</g>
<!-- Node4 -->
<g id="node4" class="node">
<title>Node4</title>
<g id="a_node4"><a xlink:href="class_ogre_1_1_small_vector_base.html" target="_top" xlink:title="SmallVectorBase &#45; This is all the non&#45;templated stuff common to all SmallVectors.">
<polygon fill="none" stroke="black" points="0,-60 0,-79 129,-79 129,-60 0,-60"/>
<text text-anchor="middle" x="64.5" y="-67" font-family="Helvetica,sans-Serif" font-size="10.00">Ogre::SmallVectorBase</text>
</a>
</g>
</g>
<!-- Node4&#45;&gt;Node3 -->
<g id="edge3" class="edge">
<title>Node4&#45;&gt;Node3</title>
<path fill="none" stroke="midnightblue" d="M139.31,-69.5C147.75,-69.5 156.36,-69.5 164.81,-69.5"/>
<polygon fill="midnightblue" stroke="midnightblue" points="139.12,-66 129.12,-69.5 139.12,-73 139.12,-66"/>
</g>
<!-- Node6 -->
<g id="node6" class="node">
<title>Node6</title>
<g id="a_node6"><a xlink:href="struct_ogre_1_1_vector_set.html" target="_top" xlink:title="VectorSet is basically a helper to use a vector as a small set container.">
<polygon fill="none" stroke="black" points="886,-138 886,-157 1020,-157 1020,-138 886,-138"/>
<text text-anchor="middle" x="953" y="-145" font-family="Helvetica,sans-Serif" font-size="10.00">Ogre::VectorSet&lt; T, S &gt;</text>
</a>
</g>
</g>
<!-- Node5&#45;&gt;Node6 -->
<g id="edge5" class="edge">
<title>Node5&#45;&gt;Node6</title>
<path fill="none" stroke="midnightblue" d="M851.61,-141.47C862.88,-142.15 874.59,-142.85 885.87,-143.53"/>
<polygon fill="midnightblue" stroke="midnightblue" points="851.6,-137.96 841.41,-140.86 851.18,-144.95 851.6,-137.96"/>
</g>
<!-- Node8 -->
<g id="node8" class="node">
<title>Node8</title>
<g id="a_node8"><a xlink:href="struct_ogre_1_1_vector_set.html" target="_top" xlink:title=" ">
<polygon fill="none" stroke="black" points="881.5,-88.5 881.5,-118.5 1024.5,-118.5 1024.5,-88.5 881.5,-88.5"/>
<text text-anchor="start" x="889.5" y="-106.5" font-family="Helvetica,sans-Serif" font-size="10.00">Ogre::VectorSet&lt; Triangle</text>
<text text-anchor="middle" x="953" y="-95.5" font-family="Helvetica,sans-Serif" font-size="10.00"> *, 7 &gt;</text>
</a>
</g>
</g>
<!-- Node7&#45;&gt;Node8 -->
<g id="edge7" class="edge">
<title>Node7&#45;&gt;Node8</title>
<path fill="none" stroke="midnightblue" d="M851.51,-82.98C861.35,-84.99 871.53,-87.07 881.46,-89.09"/>
<polygon fill="midnightblue" stroke="midnightblue" points="851.9,-79.49 841.41,-80.92 850.5,-86.35 851.9,-79.49"/>
</g>
<!-- Node9 -->
<g id="node9" class="node">
<title>Node9</title>
<g id="a_node9"><a xlink:href="struct_ogre_1_1_vector_set.html" target="_top" xlink:title=" ">
<polygon fill="none" stroke="black" points="877,-50 877,-69 1029,-69 1029,-50 877,-50"/>
<text text-anchor="middle" x="953" y="-57" font-family="Helvetica,sans-Serif" font-size="10.00">Ogre::VectorSet&lt; Edge, 8 &gt;</text>
</a>
</g>
</g>
<!-- Node7&#45;&gt;Node9 -->
<g id="edge8" class="edge">
<title>Node7&#45;&gt;Node9</title>
<path fill="none" stroke="midnightblue" d="M851.4,-65.54C859.72,-65.04 868.27,-64.53 876.72,-64.02"/>
<polygon fill="midnightblue" stroke="midnightblue" points="851.18,-62.05 841.41,-66.14 851.6,-69.04 851.18,-62.05"/>
</g>
<!-- Node10 -->
<g id="node10" class="node">
<title>Node10</title>
<g id="a_node10"><a xlink:href="struct_ogre_1_1_vector_set.html" target="_top" xlink:title=" ">
<polygon fill="none" stroke="black" points="890.5,-0.5 890.5,-30.5 1015.5,-30.5 1015.5,-0.5 890.5,-0.5"/>
<text text-anchor="start" x="898.5" y="-18.5" font-family="Helvetica,sans-Serif" font-size="10.00">Ogre::VectorSet&lt; Line</text>
<text text-anchor="middle" x="953" y="-7.5" font-family="Helvetica,sans-Serif" font-size="10.00"> *, 7 &gt;</text>
</a>
</g>
</g>
<!-- Node7&#45;&gt;Node10 -->
<g id="edge9" class="edge">
<title>Node7&#45;&gt;Node10</title>
<path fill="none" stroke="midnightblue" d="M841.55,-51.32C862.36,-44.57 885.72,-37 905.58,-30.55"/>
<polygon fill="midnightblue" stroke="midnightblue" points="840.31,-48.04 831.88,-54.46 842.47,-54.7 840.31,-48.04"/>
</g>
</g>
</svg>
