<?xml version="1.0" encoding="UTF-8" standalone="no"?>
<!DOCTYPE svg PUBLIC "-//W3C//DTD SVG 1.1//EN"
 "http://www.w3.org/Graphics/SVG/1.1/DTD/svg11.dtd">
<!-- Generated by graphviz version 2.43.0 (0)
 -->
<!-- Title: Ogre::ScriptLoader Pages: 1 -->
<svg width="711pt" height="408pt"
 viewBox="0.00 0.00 711.00 408.00" xmlns="http://www.w3.org/2000/svg" xmlns:xlink="http://www.w3.org/1999/xlink">
<g id="graph0" class="graph" transform="scale(1 1) rotate(0) translate(4 404)">
<title>Ogre::ScriptLoader</title>
<!-- Node1 -->
<g id="node1" class="node">
<title>Node1</title>
<g id="a_node1"><a xlink:title="Abstract class defining the interface used by classes which wish to perform script loading to define ...">
<polygon fill="#bfbfbf" stroke="black" points="0,-304.5 0,-323.5 107,-323.5 107,-304.5 0,-304.5"/>
<text text-anchor="middle" x="53.5" y="-311.5" font-family="Helvetica,sans-Serif" font-size="10.00">Ogre::ScriptLoader</text>
</a>
</g>
</g>
<!-- Node2 -->
<g id="node2" class="node">
<title>Node2</title>
<g id="a_node2"><a xlink:href="class_ogre_1_1_cg_fx_script_loader.html" target="_top" xlink:title="Manages Overlay objects, parsing them from .overlay files and storing a lookup library of them.">
<polygon fill="none" stroke="black" points="158,-380.5 158,-399.5 289,-399.5 289,-380.5 158,-380.5"/>
<text text-anchor="middle" x="223.5" y="-387.5" font-family="Helvetica,sans-Serif" font-size="10.00">Ogre::CgFxScriptLoader</text>
</a>
</g>
</g>
<!-- Node1&#45;&gt;Node2 -->
<g id="edge1" class="edge">
<title>Node1&#45;&gt;Node2</title>
<path fill="none" stroke="midnightblue" d="M74.53,-329.72C91.78,-342.55 117.81,-360.25 143,-371 151.88,-374.79 161.64,-377.9 171.21,-380.44"/>
<polygon fill="midnightblue" stroke="midnightblue" points="76.44,-326.78 66.36,-323.52 72.21,-332.35 76.44,-326.78"/>
</g>
<!-- Node3 -->
<g id="node3" class="node">
<title>Node3</title>
<g id="a_node3"><a xlink:href="class_ogre_1_1_overlay_manager.html" target="_top" xlink:title="Manages Overlay objects, parsing them from .overlay files and storing a lookup library of them.">
<polygon fill="none" stroke="black" points="160,-342.5 160,-361.5 287,-361.5 287,-342.5 160,-342.5"/>
<text text-anchor="middle" x="223.5" y="-349.5" font-family="Helvetica,sans-Serif" font-size="10.00">Ogre::OverlayManager</text>
</a>
</g>
</g>
<!-- Node1&#45;&gt;Node3 -->
<g id="edge2" class="edge">
<title>Node1&#45;&gt;Node3</title>
<path fill="none" stroke="midnightblue" d="M106.78,-325.82C130.46,-331.18 158.09,-337.43 180.41,-342.48"/>
<polygon fill="midnightblue" stroke="midnightblue" points="107.42,-322.38 96.89,-323.59 105.87,-329.21 107.42,-322.38"/>
</g>
<!-- Node4 -->
<g id="node4" class="node">
<title>Node4</title>
<g id="a_node4"><a xlink:href="class_ogre_1_1_quake3_shader_manager.html" target="_top" xlink:title="Class for managing Quake3 custom shaders.">
<polygon fill="none" stroke="black" points="144,-304.5 144,-323.5 303,-323.5 303,-304.5 144,-304.5"/>
<text text-anchor="middle" x="223.5" y="-311.5" font-family="Helvetica,sans-Serif" font-size="10.00">Ogre::Quake3ShaderManager</text>
</a>
</g>
</g>
<!-- Node1&#45;&gt;Node4 -->
<g id="edge3" class="edge">
<title>Node1&#45;&gt;Node4</title>
<path fill="none" stroke="midnightblue" d="M117.22,-314C125.9,-314 134.91,-314 143.84,-314"/>
<polygon fill="midnightblue" stroke="midnightblue" points="117.2,-310.5 107.2,-314 117.2,-317.5 117.2,-310.5"/>
</g>
<!-- Node5 -->
<g id="node5" class="node">
<title>Node5</title>
<g id="a_node5"><a xlink:href="class_ogre_1_1_resource_manager.html" target="_top" xlink:title="Defines a generic resource handler.">
<polygon fill="none" stroke="black" points="156.5,-266.5 156.5,-285.5 290.5,-285.5 290.5,-266.5 156.5,-266.5"/>
<text text-anchor="middle" x="223.5" y="-273.5" font-family="Helvetica,sans-Serif" font-size="10.00">Ogre::ResourceManager</text>
</a>
</g>
</g>
<!-- Node1&#45;&gt;Node5 -->
<g id="edge4" class="edge">
<title>Node1&#45;&gt;Node5</title>
<path fill="none" stroke="midnightblue" d="M106.78,-302.18C130.46,-296.82 158.09,-290.57 180.41,-285.52"/>
<polygon fill="midnightblue" stroke="midnightblue" points="105.87,-298.79 96.89,-304.41 107.42,-305.62 105.87,-298.79"/>
</g>
<!-- Node22 -->
<g id="node22" class="node">
<title>Node22</title>
<g id="a_node22"><a xlink:href="class_ogre_1_1_script_compiler_manager.html" target="_top" xlink:title="Manages threaded compilation of scripts.">
<polygon fill="none" stroke="black" points="143,-228.5 143,-247.5 304,-247.5 304,-228.5 143,-228.5"/>
<text text-anchor="middle" x="223.5" y="-235.5" font-family="Helvetica,sans-Serif" font-size="10.00">Ogre::ScriptCompilerManager</text>
</a>
</g>
</g>
<!-- Node1&#45;&gt;Node22 -->
<g id="edge21" class="edge">
<title>Node1&#45;&gt;Node22</title>
<path fill="none" stroke="midnightblue" d="M74.53,-298.28C91.78,-285.45 117.81,-267.75 143,-257 151.88,-253.21 161.64,-250.1 171.21,-247.56"/>
<polygon fill="midnightblue" stroke="midnightblue" points="72.21,-295.65 66.36,-304.48 76.44,-301.22 72.21,-295.65"/>
</g>
<!-- Node6 -->
<g id="node6" class="node">
<title>Node6</title>
<g id="a_node6"><a xlink:href="class_ogre_1_1_compositor_manager.html" target="_top" xlink:title="Class for managing Compositor settings for Ogre.">
<polygon fill="none" stroke="black" points="342,-380.5 342,-399.5 487,-399.5 487,-380.5 342,-380.5"/>
<text text-anchor="middle" x="414.5" y="-387.5" font-family="Helvetica,sans-Serif" font-size="10.00">Ogre::CompositorManager</text>
</a>
</g>
</g>
<!-- Node5&#45;&gt;Node6 -->
<g id="edge5" class="edge">
<title>Node5&#45;&gt;Node6</title>
<path fill="none" stroke="midnightblue" d="M297.44,-290.38C299.73,-291.78 301.93,-293.32 304,-295 333.03,-318.55 311.19,-347.19 340,-371 344.67,-374.86 350.04,-377.95 355.7,-380.42"/>
<polygon fill="midnightblue" stroke="midnightblue" points="298.67,-287.08 288.18,-285.59 295.46,-293.29 298.67,-287.08"/>
</g>
<!-- Node7 -->
<g id="node7" class="node">
<title>Node7</title>
<g id="a_node7"><a xlink:href="class_ogre_1_1_font_manager.html" target="_top" xlink:title="Manages Font resources, parsing .fontdef files and generally organising them.">
<polygon fill="none" stroke="black" points="359.5,-342.5 359.5,-361.5 469.5,-361.5 469.5,-342.5 359.5,-342.5"/>
<text text-anchor="middle" x="414.5" y="-349.5" font-family="Helvetica,sans-Serif" font-size="10.00">Ogre::FontManager</text>
</a>
</g>
</g>
<!-- Node5&#45;&gt;Node7 -->
<g id="edge6" class="edge">
<title>Node5&#45;&gt;Node7</title>
<path fill="none" stroke="midnightblue" d="M291.63,-289C295.93,-290.76 300.09,-292.74 304,-295 324.15,-306.63 319.96,-321.19 340,-333 346.59,-336.88 353.96,-339.98 361.43,-342.45"/>
<polygon fill="midnightblue" stroke="midnightblue" points="292.66,-285.65 282.07,-285.53 290.27,-292.23 292.66,-285.65"/>
</g>
<!-- Node8 -->
<g id="node8" class="node">
<title>Node8</title>
<g id="a_node8"><a xlink:href="class_ogre_1_1_gpu_program_manager.html" target="_top" xlink:title="This ResourceManager manages GPU shader programs.">
<polygon fill="none" stroke="black" points="340,-304.5 340,-323.5 489,-323.5 489,-304.5 340,-304.5"/>
<text text-anchor="middle" x="414.5" y="-311.5" font-family="Helvetica,sans-Serif" font-size="10.00">Ogre::GpuProgramManager</text>
</a>
</g>
</g>
<!-- Node5&#45;&gt;Node8 -->
<g id="edge7" class="edge">
<title>Node5&#45;&gt;Node8</title>
<path fill="none" stroke="midnightblue" d="M282.24,-287.61C309.12,-293.01 340.7,-299.36 366.15,-304.48"/>
<polygon fill="midnightblue" stroke="midnightblue" points="282.69,-284.13 272.19,-285.59 281.31,-290.99 282.69,-284.13"/>
</g>
<!-- Node9 -->
<g id="node9" class="node">
<title>Node9</title>
<g id="a_node9"><a xlink:href="class_ogre_1_1_material_manager.html" target="_top" xlink:title="Class for managing Material settings for Ogre.">
<polygon fill="none" stroke="black" points="350,-266.5 350,-285.5 479,-285.5 479,-266.5 350,-266.5"/>
<text text-anchor="middle" x="414.5" y="-273.5" font-family="Helvetica,sans-Serif" font-size="10.00">Ogre::MaterialManager</text>
</a>
</g>
</g>
<!-- Node5&#45;&gt;Node9 -->
<g id="edge8" class="edge">
<title>Node5&#45;&gt;Node9</title>
<path fill="none" stroke="midnightblue" d="M300.67,-276C317.03,-276 334.16,-276 349.98,-276"/>
<polygon fill="midnightblue" stroke="midnightblue" points="300.6,-272.5 290.6,-276 300.6,-279.5 300.6,-272.5"/>
</g>
<!-- Node10 -->
<g id="node10" class="node">
<title>Node10</title>
<g id="a_node10"><a xlink:href="class_ogre_1_1_mesh_manager.html" target="_top" xlink:title="Handles the management of mesh resources.">
<polygon fill="none" stroke="black" points="357,-228.5 357,-247.5 472,-247.5 472,-228.5 357,-228.5"/>
<text text-anchor="middle" x="414.5" y="-235.5" font-family="Helvetica,sans-Serif" font-size="10.00">Ogre::MeshManager</text>
</a>
</g>
</g>
<!-- Node5&#45;&gt;Node10 -->
<g id="edge9" class="edge">
<title>Node5&#45;&gt;Node10</title>
<path fill="none" stroke="midnightblue" d="M282.24,-264.39C309.12,-258.99 340.7,-252.64 366.15,-247.52"/>
<polygon fill="midnightblue" stroke="midnightblue" points="281.31,-261.01 272.19,-266.41 282.69,-267.87 281.31,-261.01"/>
</g>
<!-- Node11 -->
<g id="node11" class="node">
<title>Node11</title>
<g id="a_node11"><a xlink:href="class_ogre_1_1_skeleton_manager.html" target="_top" xlink:title="Handles the management of skeleton resources.">
<polygon fill="none" stroke="black" points="349,-190.5 349,-209.5 480,-209.5 480,-190.5 349,-190.5"/>
<text text-anchor="middle" x="414.5" y="-197.5" font-family="Helvetica,sans-Serif" font-size="10.00">Ogre::SkeletonManager</text>
</a>
</g>
</g>
<!-- Node5&#45;&gt;Node11 -->
<g id="edge10" class="edge">
<title>Node5&#45;&gt;Node11</title>
<path fill="none" stroke="midnightblue" d="M291.63,-263C295.93,-261.24 300.09,-259.26 304,-257 324.15,-245.37 319.96,-230.81 340,-219 346.59,-215.12 353.96,-212.02 361.43,-209.55"/>
<polygon fill="midnightblue" stroke="midnightblue" points="290.27,-259.77 282.07,-266.47 292.66,-266.35 290.27,-259.77"/>
</g>
<!-- Node12 -->
<g id="node12" class="node">
<title>Node12</title>
<g id="a_node12"><a xlink:href="class_ogre_1_1_texture_manager.html" target="_top" xlink:title="Class for loading &amp; managing textures.">
<polygon fill="none" stroke="black" points="352,-152.5 352,-171.5 477,-171.5 477,-152.5 352,-152.5"/>
<text text-anchor="middle" x="414.5" y="-159.5" font-family="Helvetica,sans-Serif" font-size="10.00">Ogre::TextureManager</text>
</a>
</g>
</g>
<!-- Node5&#45;&gt;Node12 -->
<g id="edge11" class="edge">
<title>Node5&#45;&gt;Node12</title>
<path fill="none" stroke="midnightblue" d="M297.44,-261.62C299.73,-260.22 301.93,-258.68 304,-257 333.03,-233.45 311.19,-204.81 340,-181 344.67,-177.14 350.04,-174.05 355.7,-171.58"/>
<polygon fill="midnightblue" stroke="midnightblue" points="295.46,-258.71 288.18,-266.41 298.67,-264.92 295.46,-258.71"/>
</g>
<!-- Node13 -->
<g id="node13" class="node">
<title>Node13</title>
<g id="a_node13"><a xlink:href="class_ogre_1_1_d3_d11_texture_manager.html" target="_top" xlink:title=" ">
<polygon fill="none" stroke="black" points="535,-304.5 535,-323.5 693,-323.5 693,-304.5 535,-304.5"/>
<text text-anchor="middle" x="614" y="-311.5" font-family="Helvetica,sans-Serif" font-size="10.00">Ogre::D3D11TextureManager</text>
</a>
</g>
</g>
<!-- Node12&#45;&gt;Node13 -->
<g id="edge12" class="edge">
<title>Node12&#45;&gt;Node13</title>
<path fill="none" stroke="midnightblue" d="M484.22,-177.02C485.89,-178.25 487.49,-179.57 489,-181 527.55,-217.56 485.72,-259.22 525,-295 529.16,-298.79 533.89,-301.89 538.95,-304.42"/>
<polygon fill="midnightblue" stroke="midnightblue" points="485.67,-173.8 475.29,-171.65 482.06,-179.8 485.67,-173.8"/>
</g>
<!-- Node14 -->
<g id="node14" class="node">
<title>Node14</title>
<g id="a_node14"><a xlink:href="class_ogre_1_1_d3_d9_texture_manager.html" target="_top" xlink:title=" ">
<polygon fill="none" stroke="black" points="538,-266.5 538,-285.5 690,-285.5 690,-266.5 538,-266.5"/>
<text text-anchor="middle" x="614" y="-273.5" font-family="Helvetica,sans-Serif" font-size="10.00">Ogre::D3D9TextureManager</text>
</a>
</g>
</g>
<!-- Node12&#45;&gt;Node14 -->
<g id="edge13" class="edge">
<title>Node12&#45;&gt;Node14</title>
<path fill="none" stroke="midnightblue" d="M482.5,-176.36C484.78,-177.77 486.96,-179.31 489,-181 517.81,-204.81 495.72,-233.77 525,-257 529.78,-260.79 535.14,-263.86 540.8,-266.35"/>
<polygon fill="midnightblue" stroke="midnightblue" points="483.79,-173.09 473.3,-171.58 480.56,-179.3 483.79,-173.09"/>
</g>
<!-- Node15 -->
<g id="node15" class="node">
<title>Node15</title>
<g id="a_node15"><a xlink:href="class_ogre_1_1_default_texture_manager.html" target="_top" xlink:title="Specialisation of TextureManager for offline processing. Cannot be used with an active RenderSystem.">
<polygon fill="none" stroke="black" points="533.5,-228.5 533.5,-247.5 694.5,-247.5 694.5,-228.5 533.5,-228.5"/>
<text text-anchor="middle" x="614" y="-235.5" font-family="Helvetica,sans-Serif" font-size="10.00">Ogre::DefaultTextureManager</text>
</a>
</g>
</g>
<!-- Node12&#45;&gt;Node15 -->
<g id="edge14" class="edge">
<title>Node12&#45;&gt;Node15</title>
<path fill="none" stroke="midnightblue" d="M477.26,-175.17C481.34,-176.88 485.3,-178.82 489,-181 509.04,-192.81 504.72,-207.59 525,-219 531.95,-222.91 539.62,-226.01 547.45,-228.48"/>
<polygon fill="midnightblue" stroke="midnightblue" points="478.17,-171.77 467.57,-171.55 475.72,-178.32 478.17,-171.77"/>
</g>
<!-- Node16 -->
<g id="node16" class="node">
<title>Node16</title>
<g id="a_node16"><a xlink:href="class_ogre_1_1_g_l3_plus_texture_manager.html" target="_top" xlink:title="GL3Plus&#45;specific implementation of a TextureManager.">
<polygon fill="none" stroke="black" points="532,-190.5 532,-209.5 696,-209.5 696,-190.5 532,-190.5"/>
<text text-anchor="middle" x="614" y="-197.5" font-family="Helvetica,sans-Serif" font-size="10.00">Ogre::GL3PlusTextureManager</text>
</a>
</g>
</g>
<!-- Node12&#45;&gt;Node16 -->
<g id="edge15" class="edge">
<title>Node12&#45;&gt;Node16</title>
<path fill="none" stroke="midnightblue" d="M475.21,-173.49C503.39,-178.91 536.63,-185.31 563.4,-190.46"/>
<polygon fill="midnightblue" stroke="midnightblue" points="475.56,-169.99 465.08,-171.54 474.24,-176.87 475.56,-169.99"/>
</g>
<!-- Node17 -->
<g id="node17" class="node">
<title>Node17</title>
<g id="a_node17"><a xlink:href="class_ogre_1_1_g_l_e_s2_texture_manager.html" target="_top" xlink:title="GL ES&#45;specific implementation of a TextureManager.">
<polygon fill="none" stroke="black" points="536.5,-152.5 536.5,-171.5 691.5,-171.5 691.5,-152.5 536.5,-152.5"/>
<text text-anchor="middle" x="614" y="-159.5" font-family="Helvetica,sans-Serif" font-size="10.00">Ogre::GLES2TextureManager</text>
</a>
</g>
</g>
<!-- Node12&#45;&gt;Node17 -->
<g id="edge16" class="edge">
<title>Node12&#45;&gt;Node17</title>
<path fill="none" stroke="midnightblue" d="M487.49,-162C503.43,-162 520.38,-162 536.49,-162"/>
<polygon fill="midnightblue" stroke="midnightblue" points="487.18,-158.5 477.18,-162 487.18,-165.5 487.18,-158.5"/>
</g>
<!-- Node18 -->
<g id="node18" class="node">
<title>Node18</title>
<g id="a_node18"><a xlink:href="class_ogre_1_1_g_l_texture_manager.html" target="_top" xlink:title="GL&#45;specific implementation of a TextureManager.">
<polygon fill="none" stroke="black" points="545.5,-114.5 545.5,-133.5 682.5,-133.5 682.5,-114.5 545.5,-114.5"/>
<text text-anchor="middle" x="614" y="-121.5" font-family="Helvetica,sans-Serif" font-size="10.00">Ogre::GLTextureManager</text>
</a>
</g>
</g>
<!-- Node12&#45;&gt;Node18 -->
<g id="edge17" class="edge">
<title>Node12&#45;&gt;Node18</title>
<path fill="none" stroke="midnightblue" d="M475.21,-150.51C503.39,-145.09 536.63,-138.69 563.4,-133.54"/>
<polygon fill="midnightblue" stroke="midnightblue" points="474.24,-147.13 465.08,-152.46 475.56,-154.01 474.24,-147.13"/>
</g>
<!-- Node19 -->
<g id="node19" class="node">
<title>Node19</title>
<g id="a_node19"><a xlink:href="class_ogre_1_1_metal_texture_manager.html" target="_top" xlink:title=" ">
<polygon fill="none" stroke="black" points="538,-76.5 538,-95.5 690,-95.5 690,-76.5 538,-76.5"/>
<text text-anchor="middle" x="614" y="-83.5" font-family="Helvetica,sans-Serif" font-size="10.00">Ogre::MetalTextureManager</text>
</a>
</g>
</g>
<!-- Node12&#45;&gt;Node19 -->
<g id="edge18" class="edge">
<title>Node12&#45;&gt;Node19</title>
<path fill="none" stroke="midnightblue" d="M439.67,-147.01C461.31,-134.18 494.27,-116.09 525,-105 535.44,-101.23 546.86,-98.09 557.91,-95.53"/>
<polygon fill="midnightblue" stroke="midnightblue" points="437.62,-144.16 430.85,-152.32 441.23,-150.16 437.62,-144.16"/>
</g>
<!-- Node20 -->
<g id="node20" class="node">
<title>Node20</title>
<g id="a_node20"><a xlink:href="class_ogre_1_1_tiny_texture_manager.html" target="_top" xlink:title=" ">
<polygon fill="none" stroke="black" points="541.5,-38.5 541.5,-57.5 686.5,-57.5 686.5,-38.5 541.5,-38.5"/>
<text text-anchor="middle" x="614" y="-45.5" font-family="Helvetica,sans-Serif" font-size="10.00">Ogre::TinyTextureManager</text>
</a>
</g>
</g>
<!-- Node12&#45;&gt;Node20 -->
<g id="edge19" class="edge">
<title>Node12&#45;&gt;Node20</title>
<path fill="none" stroke="midnightblue" d="M430.28,-144.67C449.73,-123.02 486.05,-86.47 525,-67 532.83,-63.09 541.44,-59.97 550.13,-57.5"/>
<polygon fill="midnightblue" stroke="midnightblue" points="427.43,-142.61 423.45,-152.43 432.69,-147.23 427.43,-142.61"/>
</g>
<!-- Node21 -->
<g id="node21" class="node">
<title>Node21</title>
<g id="a_node21"><a xlink:href="class_ogre_1_1_vulkan_texture_gpu_manager.html" target="_top" xlink:title=" ">
<polygon fill="none" stroke="black" points="525,-0.5 525,-19.5 703,-19.5 703,-0.5 525,-0.5"/>
<text text-anchor="middle" x="614" y="-7.5" font-family="Helvetica,sans-Serif" font-size="10.00">Ogre::VulkanTextureGpuManager</text>
</a>
</g>
</g>
<!-- Node12&#45;&gt;Node21 -->
<g id="edge20" class="edge">
<title>Node12&#45;&gt;Node21</title>
<path fill="none" stroke="midnightblue" d="M425.39,-143.28C441.89,-113.98 477.94,-57.68 525,-29 531.41,-25.1 538.5,-21.99 545.81,-19.51"/>
<polygon fill="midnightblue" stroke="midnightblue" points="422.11,-141.98 420.38,-152.43 428.25,-145.34 422.11,-141.98"/>
</g>
</g>
</svg>
