<?xml version="1.0" encoding="UTF-8" standalone="no"?>
<!DOCTYPE svg PUBLIC "-//W3C//DTD SVG 1.1//EN"
 "http://www.w3.org/Graphics/SVG/1.1/DTD/svg11.dtd">
<!-- Generated by graphviz version 2.43.0 (0)
 -->
<!-- Title: Ogre::StringInterface Pages: 1 -->
<svg width="902pt" height="1084pt"
 viewBox="0.00 0.00 902.00 1083.50" xmlns="http://www.w3.org/2000/svg" xmlns:xlink="http://www.w3.org/1999/xlink">
<g id="graph0" class="graph" transform="scale(1 1) rotate(0) translate(4 1079.5)">
<title>Ogre::StringInterface</title>
<!-- Node1 -->
<g id="node1" class="node">
<title>Node1</title>
<g id="a_node1"><a xlink:title="Class defining the common interface which classes can use to present a reflection&#45;style,...">
<polygon fill="#bfbfbf" stroke="black" points="0,-570.5 0,-589.5 118,-589.5 118,-570.5 0,-570.5"/>
<text text-anchor="middle" x="59" y="-577.5" font-family="Helvetica,sans-Serif" font-size="10.00">Ogre::StringInterface</text>
</a>
</g>
</g>
<!-- Node2 -->
<g id="node2" class="node">
<title>Node2</title>
<g id="a_node2"><a xlink:href="class_ogre_1_1_external_texture_source.html" target="_top" xlink:title="IMPORTANT: Plugins must override default dictionary name! Base class that texture plugins derive from...">
<polygon fill="none" stroke="black" points="158.5,-946.5 158.5,-965.5 313.5,-965.5 313.5,-946.5 158.5,-946.5"/>
<text text-anchor="middle" x="236" y="-953.5" font-family="Helvetica,sans-Serif" font-size="10.00">Ogre::ExternalTextureSource</text>
</a>
</g>
</g>
<!-- Node1&#45;&gt;Node2 -->
<g id="edge1" class="edge">
<title>Node1&#45;&gt;Node2</title>
<path fill="none" stroke="midnightblue" d="M62.53,-599.88C71.58,-667.75 104.4,-888.72 154,-937 157.93,-940.83 162.48,-943.94 167.38,-946.46"/>
<polygon fill="midnightblue" stroke="midnightblue" points="65.97,-599.17 61.2,-589.71 59.03,-600.07 65.97,-599.17"/>
</g>
<!-- Node3 -->
<g id="node3" class="node">
<title>Node3</title>
<g id="a_node3"><a xlink:href="class_ogre_1_1_overlay_element.html" target="_top" xlink:title="Abstract definition of a 2D element to be displayed in an Overlay.">
<polygon fill="none" stroke="black" points="173.5,-908.5 173.5,-927.5 298.5,-927.5 298.5,-908.5 173.5,-908.5"/>
<text text-anchor="middle" x="236" y="-915.5" font-family="Helvetica,sans-Serif" font-size="10.00">Ogre::OverlayElement</text>
</a>
</g>
</g>
<!-- Node1&#45;&gt;Node3 -->
<g id="edge2" class="edge">
<title>Node1&#45;&gt;Node3</title>
<path fill="none" stroke="midnightblue" d="M67.08,-599.09C81.51,-637.26 116.17,-725.29 154,-795 178.03,-839.27 213.04,-888.24 227.9,-908.47"/>
<polygon fill="midnightblue" stroke="midnightblue" points="70.35,-597.84 63.56,-589.7 63.8,-600.3 70.35,-597.84"/>
</g>
<!-- Node8 -->
<g id="node8" class="node">
<title>Node8</title>
<g id="a_node8"><a xlink:href="class_ogre_1_1_particle_affector.html" target="_top" xlink:title="Abstract class defining the interface to be implemented by particle affectors.">
<polygon fill="none" stroke="black" points="175.5,-766.5 175.5,-785.5 296.5,-785.5 296.5,-766.5 175.5,-766.5"/>
<text text-anchor="middle" x="236" y="-773.5" font-family="Helvetica,sans-Serif" font-size="10.00">Ogre::ParticleAffector</text>
</a>
</g>
</g>
<!-- Node1&#45;&gt;Node8 -->
<g id="edge7" class="edge">
<title>Node1&#45;&gt;Node8</title>
<path fill="none" stroke="midnightblue" d="M75.48,-597.33C111.18,-637.32 198.38,-734.99 226.27,-766.22"/>
<polygon fill="midnightblue" stroke="midnightblue" points="77.95,-594.85 68.68,-589.72 72.73,-599.51 77.95,-594.85"/>
</g>
<!-- Node19 -->
<g id="node19" class="node">
<title>Node19</title>
<g id="a_node19"><a xlink:href="class_ogre_1_1_particle_emitter.html" target="_top" xlink:title="Abstract class defining the interface to be implemented by particle emitters.">
<polygon fill="none" stroke="black" points="176.5,-570.5 176.5,-589.5 295.5,-589.5 295.5,-570.5 176.5,-570.5"/>
<text text-anchor="middle" x="236" y="-577.5" font-family="Helvetica,sans-Serif" font-size="10.00">Ogre::ParticleEmitter</text>
</a>
</g>
</g>
<!-- Node1&#45;&gt;Node19 -->
<g id="edge18" class="edge">
<title>Node1&#45;&gt;Node19</title>
<path fill="none" stroke="midnightblue" d="M128.52,-580C144.34,-580 161.03,-580 176.39,-580"/>
<polygon fill="midnightblue" stroke="midnightblue" points="128.27,-576.5 118.27,-580 128.27,-583.5 128.27,-576.5"/>
</g>
<!-- Node27 -->
<g id="node26" class="node">
<title>Node27</title>
<g id="a_node26"><a xlink:href="class_ogre_1_1_particle_system.html" target="_top" xlink:title="Class defining particle system based special effects.">
<polygon fill="none" stroke="black" points="176.5,-532.5 176.5,-551.5 295.5,-551.5 295.5,-532.5 176.5,-532.5"/>
<text text-anchor="middle" x="236" y="-539.5" font-family="Helvetica,sans-Serif" font-size="10.00">Ogre::ParticleSystem</text>
</a>
</g>
</g>
<!-- Node1&#45;&gt;Node27 -->
<g id="edge25" class="edge">
<title>Node1&#45;&gt;Node27</title>
<path fill="none" stroke="midnightblue" d="M114.12,-568.25C138.87,-562.87 167.8,-556.59 191.16,-551.52"/>
<polygon fill="midnightblue" stroke="midnightblue" points="113.19,-564.87 104.16,-570.41 114.67,-571.71 113.19,-564.87"/>
</g>
<!-- Node28 -->
<g id="node27" class="node">
<title>Node28</title>
<g id="a_node27"><a xlink:href="class_ogre_1_1_particle_system_renderer.html" target="_top" xlink:title="Abstract class defining the interface required to be implemented by classes which provide rendering c...">
<polygon fill="none" stroke="black" points="154,-494.5 154,-513.5 318,-513.5 318,-494.5 154,-494.5"/>
<text text-anchor="middle" x="236" y="-501.5" font-family="Helvetica,sans-Serif" font-size="10.00">Ogre::ParticleSystemRenderer</text>
</a>
</g>
</g>
<!-- Node1&#45;&gt;Node28 -->
<g id="edge26" class="edge">
<title>Node1&#45;&gt;Node28</title>
<path fill="none" stroke="midnightblue" d="M81.23,-564.44C99.64,-551.63 127.43,-533.85 154,-523 163.23,-519.23 173.36,-516.11 183.25,-513.57"/>
<polygon fill="midnightblue" stroke="midnightblue" points="79.12,-561.64 72.99,-570.28 83.17,-567.35 79.12,-561.64"/>
</g>
<!-- Node30 -->
<g id="node29" class="node">
<title>Node30</title>
<g id="a_node29"><a xlink:href="class_ogre_1_1_resource.html" target="_top" xlink:title="Abstract class representing a loadable resource.">
<polygon fill="none" stroke="black" points="190.5,-342.5 190.5,-361.5 281.5,-361.5 281.5,-342.5 190.5,-342.5"/>
<text text-anchor="middle" x="236" y="-349.5" font-family="Helvetica,sans-Serif" font-size="10.00">Ogre::Resource</text>
</a>
</g>
</g>
<!-- Node1&#45;&gt;Node30 -->
<g id="edge28" class="edge">
<title>Node1&#45;&gt;Node30</title>
<path fill="none" stroke="midnightblue" d="M73.48,-562.44C108.39,-516.95 200.94,-396.38 227.67,-361.55"/>
<polygon fill="midnightblue" stroke="midnightblue" points="70.61,-560.43 67.3,-570.49 76.16,-564.69 70.61,-560.43"/>
</g>
<!-- Node4 -->
<g id="node4" class="node">
<title>Node4</title>
<g id="a_node4"><a xlink:href="class_ogre_1_1_overlay_container.html" target="_top" xlink:title="A 2D element which contains other OverlayElement instances.">
<polygon fill="none" stroke="black" points="373.5,-1050.5 373.5,-1069.5 504.5,-1069.5 504.5,-1050.5 373.5,-1050.5"/>
<text text-anchor="middle" x="439" y="-1057.5" font-family="Helvetica,sans-Serif" font-size="10.00">Ogre::OverlayContainer</text>
</a>
</g>
</g>
<!-- Node3&#45;&gt;Node4 -->
<g id="edge3" class="edge">
<title>Node3&#45;&gt;Node4</title>
<path fill="none" stroke="midnightblue" d="M307.99,-929.83C311.58,-931.87 314.95,-934.25 318,-937 354.32,-969.76 317.55,-1008.38 354,-1041 359.57,-1045.99 366.17,-1049.75 373.18,-1052.58"/>
<polygon fill="midnightblue" stroke="midnightblue" points="309.24,-926.54 298.71,-925.38 306.22,-932.86 309.24,-926.54"/>
</g>
<!-- Node7 -->
<g id="node7" class="node">
<title>Node7</title>
<g id="a_node7"><a xlink:href="class_ogre_1_1_text_area_overlay_element.html" target="_top" xlink:title="This class implements an overlay element which contains simple unformatted text.">
<polygon fill="none" stroke="black" points="355.5,-1012.5 355.5,-1031.5 522.5,-1031.5 522.5,-1012.5 355.5,-1012.5"/>
<text text-anchor="middle" x="439" y="-1019.5" font-family="Helvetica,sans-Serif" font-size="10.00">Ogre::TextAreaOverlayElement</text>
</a>
</g>
</g>
<!-- Node3&#45;&gt;Node7 -->
<g id="edge6" class="edge">
<title>Node3&#45;&gt;Node7</title>
<path fill="none" stroke="midnightblue" d="M308.21,-930.83C311.66,-932.63 314.95,-934.68 318,-937 344.58,-957.25 327.34,-982.86 354,-1003 359.13,-1006.88 364.91,-1009.98 370.97,-1012.48"/>
<polygon fill="midnightblue" stroke="midnightblue" points="309.33,-927.5 298.78,-926.61 306.48,-933.89 309.33,-927.5"/>
</g>
<!-- Node5 -->
<g id="node5" class="node">
<title>Node5</title>
<g id="a_node5"><a xlink:href="class_ogre_1_1_panel_overlay_element.html" target="_top" xlink:title="OverlayElement representing a flat, single&#45;material (or transparent) panel which can contain other el...">
<polygon fill="none" stroke="black" points="561.5,-1050.5 561.5,-1069.5 713.5,-1069.5 713.5,-1050.5 561.5,-1050.5"/>
<text text-anchor="middle" x="637.5" y="-1057.5" font-family="Helvetica,sans-Serif" font-size="10.00">Ogre::PanelOverlayElement</text>
</a>
</g>
</g>
<!-- Node4&#45;&gt;Node5 -->
<g id="edge4" class="edge">
<title>Node4&#45;&gt;Node5</title>
<path fill="none" stroke="midnightblue" d="M514.97,-1060C530.14,-1060 546.09,-1060 561.27,-1060"/>
<polygon fill="midnightblue" stroke="midnightblue" points="514.61,-1056.5 504.61,-1060 514.61,-1063.5 514.61,-1056.5"/>
</g>
<!-- Node6 -->
<g id="node6" class="node">
<title>Node6</title>
<g id="a_node6"><a xlink:href="class_ogre_1_1_border_panel_overlay_element.html" target="_top" xlink:title="A specialisation of the PanelOverlayElement to provide a panel with a border.">
<polygon fill="none" stroke="black" points="751,-1045 751,-1075 894,-1075 894,-1045 751,-1045"/>
<text text-anchor="start" x="759" y="-1063" font-family="Helvetica,sans-Serif" font-size="10.00">Ogre::BorderPanelOverlay</text>
<text text-anchor="middle" x="822.5" y="-1052" font-family="Helvetica,sans-Serif" font-size="10.00">Element</text>
</a>
</g>
</g>
<!-- Node5&#45;&gt;Node6 -->
<g id="edge5" class="edge">
<title>Node5&#45;&gt;Node6</title>
<path fill="none" stroke="midnightblue" d="M723.91,-1060C732.97,-1060 742.11,-1060 750.98,-1060"/>
<polygon fill="midnightblue" stroke="midnightblue" points="723.73,-1056.5 713.73,-1060 723.73,-1063.5 723.73,-1056.5"/>
</g>
<!-- Node9 -->
<g id="node9" class="node">
<title>Node9</title>
<g id="a_node9"><a xlink:href="class_ogre_1_1_colour_fader_affector.html" target="_top" xlink:title="This affector modifies the colour of particles in flight.">
<polygon fill="none" stroke="black" points="367.5,-974.5 367.5,-993.5 510.5,-993.5 510.5,-974.5 367.5,-974.5"/>
<text text-anchor="middle" x="439" y="-981.5" font-family="Helvetica,sans-Serif" font-size="10.00">Ogre::ColourFaderAffector</text>
</a>
</g>
</g>
<!-- Node8&#45;&gt;Node9 -->
<g id="edge8" class="edge">
<title>Node8&#45;&gt;Node9</title>
<path fill="none" stroke="midnightblue" d="M249.58,-794.07C265.93,-817.79 295.11,-860.88 318,-899 335.2,-927.64 327.34,-944.86 354,-965 359.13,-968.88 364.91,-971.98 370.97,-974.48"/>
<polygon fill="midnightblue" stroke="midnightblue" points="252.36,-791.94 243.79,-785.71 246.61,-795.92 252.36,-791.94"/>
</g>
<!-- Node10 -->
<g id="node10" class="node">
<title>Node10</title>
<g id="a_node10"><a xlink:href="class_ogre_1_1_colour_fader_affector2.html" target="_top" xlink:title=" ">
<polygon fill="none" stroke="black" points="364.5,-936.5 364.5,-955.5 513.5,-955.5 513.5,-936.5 364.5,-936.5"/>
<text text-anchor="middle" x="439" y="-943.5" font-family="Helvetica,sans-Serif" font-size="10.00">Ogre::ColourFaderAffector2</text>
</a>
</g>
</g>
<!-- Node8&#45;&gt;Node10 -->
<g id="edge9" class="edge">
<title>Node8&#45;&gt;Node10</title>
<path fill="none" stroke="midnightblue" d="M246.09,-794.91C262.72,-827.36 301.24,-893.41 354,-927 360.05,-930.85 366.79,-933.93 373.74,-936.39"/>
<polygon fill="midnightblue" stroke="midnightblue" points="249.06,-793.03 241.47,-785.64 242.8,-796.15 249.06,-793.03"/>
</g>
<!-- Node11 -->
<g id="node11" class="node">
<title>Node11</title>
<g id="a_node11"><a xlink:href="class_ogre_1_1_colour_image_affector.html" target="_top" xlink:title=" ">
<polygon fill="none" stroke="black" points="366,-898.5 366,-917.5 512,-917.5 512,-898.5 366,-898.5"/>
<text text-anchor="middle" x="439" y="-905.5" font-family="Helvetica,sans-Serif" font-size="10.00">Ogre::ColourImageAffector</text>
</a>
</g>
</g>
<!-- Node8&#45;&gt;Node11 -->
<g id="edge10" class="edge">
<title>Node8&#45;&gt;Node11</title>
<path fill="none" stroke="midnightblue" d="M250.05,-793.66C269.69,-818.89 309.33,-864.87 354,-889 361.24,-892.91 369.24,-896.01 377.35,-898.48"/>
<polygon fill="midnightblue" stroke="midnightblue" points="252.81,-791.5 243.97,-785.67 247.24,-795.75 252.81,-791.5"/>
</g>
<!-- Node12 -->
<g id="node12" class="node">
<title>Node12</title>
<g id="a_node12"><a xlink:href="class_ogre_1_1_colour_interpolator_affector.html" target="_top" xlink:title=" ">
<polygon fill="none" stroke="black" points="372,-849 372,-879 506,-879 506,-849 372,-849"/>
<text text-anchor="start" x="380" y="-867" font-family="Helvetica,sans-Serif" font-size="10.00">Ogre::ColourInterpolator</text>
<text text-anchor="middle" x="439" y="-856" font-family="Helvetica,sans-Serif" font-size="10.00">Affector</text>
</a>
</g>
</g>
<!-- Node8&#45;&gt;Node12 -->
<g id="edge11" class="edge">
<title>Node8&#45;&gt;Node12</title>
<path fill="none" stroke="midnightblue" d="M261.19,-790.92C284.36,-804.76 320.64,-825.22 354,-839 362.72,-842.6 372.14,-845.92 381.42,-848.89"/>
<polygon fill="midnightblue" stroke="midnightblue" points="262.77,-787.79 252.4,-785.62 259.15,-793.78 262.77,-787.79"/>
</g>
<!-- Node13 -->
<g id="node13" class="node">
<title>Node13</title>
<g id="a_node13"><a xlink:href="class_ogre_1_1_deflector_plane_affector.html" target="_top" xlink:title="This affector defines a plane which deflects particles which collide with it.">
<polygon fill="none" stroke="black" points="361,-810.5 361,-829.5 517,-829.5 517,-810.5 361,-810.5"/>
<text text-anchor="middle" x="439" y="-817.5" font-family="Helvetica,sans-Serif" font-size="10.00">Ogre::DeflectorPlaneAffector</text>
</a>
</g>
</g>
<!-- Node8&#45;&gt;Node13 -->
<g id="edge12" class="edge">
<title>Node8&#45;&gt;Node13</title>
<path fill="none" stroke="midnightblue" d="M290.41,-787.69C322.93,-794.81 363.94,-803.79 394.47,-810.47"/>
<polygon fill="midnightblue" stroke="midnightblue" points="291.13,-784.27 280.61,-785.55 289.63,-791.1 291.13,-784.27"/>
</g>
<!-- Node14 -->
<g id="node14" class="node">
<title>Node14</title>
<g id="a_node14"><a xlink:href="class_ogre_1_1_direction_randomiser_affector.html" target="_top" xlink:title="This affector applies randomness to the movement of the particles.">
<polygon fill="none" stroke="black" points="364.5,-761 364.5,-791 513.5,-791 513.5,-761 364.5,-761"/>
<text text-anchor="start" x="372.5" y="-779" font-family="Helvetica,sans-Serif" font-size="10.00">Ogre::DirectionRandomiser</text>
<text text-anchor="middle" x="439" y="-768" font-family="Helvetica,sans-Serif" font-size="10.00">Affector</text>
</a>
</g>
</g>
<!-- Node8&#45;&gt;Node14 -->
<g id="edge13" class="edge">
<title>Node8&#45;&gt;Node14</title>
<path fill="none" stroke="midnightblue" d="M306.88,-776C325.42,-776 345.49,-776 364.23,-776"/>
<polygon fill="midnightblue" stroke="midnightblue" points="306.76,-772.5 296.76,-776 306.76,-779.5 306.76,-772.5"/>
</g>
<!-- Node15 -->
<g id="node15" class="node">
<title>Node15</title>
<g id="a_node15"><a xlink:href="class_ogre_1_1_linear_force_affector.html" target="_top" xlink:title="This affector applies a force vector to all particles to modify their trajectory.">
<polygon fill="none" stroke="black" points="369,-722.5 369,-741.5 509,-741.5 509,-722.5 369,-722.5"/>
<text text-anchor="middle" x="439" y="-729.5" font-family="Helvetica,sans-Serif" font-size="10.00">Ogre::LinearForceAffector</text>
</a>
</g>
</g>
<!-- Node8&#45;&gt;Node15 -->
<g id="edge14" class="edge">
<title>Node8&#45;&gt;Node15</title>
<path fill="none" stroke="midnightblue" d="M290.41,-764.31C322.93,-757.19 363.94,-748.21 394.47,-741.53"/>
<polygon fill="midnightblue" stroke="midnightblue" points="289.63,-760.9 280.61,-766.45 291.13,-767.73 289.63,-760.9"/>
</g>
<!-- Node16 -->
<g id="node16" class="node">
<title>Node16</title>
<g id="a_node16"><a xlink:href="class_ogre_1_1_rotation_affector.html" target="_top" xlink:title="This affector rotates particles in flight.">
<polygon fill="none" stroke="black" points="376.5,-684.5 376.5,-703.5 501.5,-703.5 501.5,-684.5 376.5,-684.5"/>
<text text-anchor="middle" x="439" y="-691.5" font-family="Helvetica,sans-Serif" font-size="10.00">Ogre::RotationAffector</text>
</a>
</g>
</g>
<!-- Node8&#45;&gt;Node16 -->
<g id="edge15" class="edge">
<title>Node8&#45;&gt;Node16</title>
<path fill="none" stroke="midnightblue" d="M260.21,-761.04C283.2,-746.84 319.82,-725.8 354,-713 363.94,-709.28 374.83,-706.16 385.38,-703.6"/>
<polygon fill="midnightblue" stroke="midnightblue" points="258.14,-758.21 251.53,-766.49 261.86,-764.14 258.14,-758.21"/>
</g>
<!-- Node17 -->
<g id="node17" class="node">
<title>Node17</title>
<g id="a_node17"><a xlink:href="class_ogre_1_1_scale_affector.html" target="_top" xlink:title="This affector scales particles in flight.">
<polygon fill="none" stroke="black" points="384,-646.5 384,-665.5 494,-665.5 494,-646.5 384,-646.5"/>
<text text-anchor="middle" x="439" y="-653.5" font-family="Helvetica,sans-Serif" font-size="10.00">Ogre::ScaleAffector</text>
</a>
</g>
</g>
<!-- Node8&#45;&gt;Node17 -->
<g id="edge16" class="edge">
<title>Node8&#45;&gt;Node17</title>
<path fill="none" stroke="midnightblue" d="M251.66,-758.94C272.19,-736.19 311.75,-696.32 354,-675 363.21,-670.35 373.56,-666.83 383.76,-664.16"/>
<polygon fill="midnightblue" stroke="midnightblue" points="249,-756.67 244.99,-766.48 254.24,-761.31 249,-756.67"/>
</g>
<!-- Node18 -->
<g id="node18" class="node">
<title>Node18</title>
<g id="a_node18"><a xlink:href="class_ogre_1_1_texture_animator_affector.html" target="_top" xlink:title="This affector makes it possible to have an animated texture for each individual particle.">
<polygon fill="none" stroke="black" points="356.5,-608.5 356.5,-627.5 521.5,-627.5 521.5,-608.5 356.5,-608.5"/>
<text text-anchor="middle" x="439" y="-615.5" font-family="Helvetica,sans-Serif" font-size="10.00">Ogre::TextureAnimatorAffector</text>
</a>
</g>
</g>
<!-- Node8&#45;&gt;Node18 -->
<g id="edge17" class="edge">
<title>Node8&#45;&gt;Node18</title>
<path fill="none" stroke="midnightblue" d="M247.23,-757.34C264.84,-727.04 303.89,-667.5 354,-637 360.39,-633.11 367.48,-630.02 374.77,-627.56"/>
<polygon fill="midnightblue" stroke="midnightblue" points="243.97,-755.98 242.09,-766.4 250.06,-759.43 243.97,-755.98"/>
</g>
<!-- Node20 -->
<g id="node20" class="node">
<title>Node20</title>
<g id="a_node20"><a xlink:href="class_ogre_1_1_area_emitter.html" target="_top" xlink:title="Particle emitter which emits particles randomly from points inside an area (box, sphere,...">
<polygon fill="none" stroke="black" points="387,-570.5 387,-589.5 491,-589.5 491,-570.5 387,-570.5"/>
<text text-anchor="middle" x="439" y="-577.5" font-family="Helvetica,sans-Serif" font-size="10.00">Ogre::AreaEmitter</text>
</a>
</g>
</g>
<!-- Node19&#45;&gt;Node20 -->
<g id="edge19" class="edge">
<title>Node19&#45;&gt;Node20</title>
<path fill="none" stroke="midnightblue" d="M305.68,-580C332.25,-580 362.13,-580 386.76,-580"/>
<polygon fill="midnightblue" stroke="midnightblue" points="305.68,-576.5 295.68,-580 305.68,-583.5 305.68,-576.5"/>
</g>
<!-- Node26 -->
<g id="node25" class="node">
<title>Node26</title>
<g id="a_node25"><a xlink:href="class_ogre_1_1_point_emitter.html" target="_top" xlink:title="This emitter emits particles from a single point, which is it’s position.">
<polygon fill="none" stroke="black" points="385.5,-532.5 385.5,-551.5 492.5,-551.5 492.5,-532.5 385.5,-532.5"/>
<text text-anchor="middle" x="439" y="-539.5" font-family="Helvetica,sans-Serif" font-size="10.00">Ogre::PointEmitter</text>
</a>
</g>
</g>
<!-- Node19&#45;&gt;Node26 -->
<g id="edge24" class="edge">
<title>Node19&#45;&gt;Node26</title>
<path fill="none" stroke="midnightblue" d="M297.4,-568.58C326.16,-563.14 360.16,-556.72 387.52,-551.54"/>
<polygon fill="midnightblue" stroke="midnightblue" points="296.64,-565.16 287.46,-570.46 297.94,-572.04 296.64,-565.16"/>
</g>
<!-- Node21 -->
<g id="node21" class="node">
<title>Node21</title>
<g id="a_node21"><a xlink:href="class_ogre_1_1_box_emitter.html" target="_top" xlink:title="This emitter emits particles from a random location within a 3&#45;dimensional box.">
<polygon fill="none" stroke="black" points="587,-627.5 587,-646.5 688,-646.5 688,-627.5 587,-627.5"/>
<text text-anchor="middle" x="637.5" y="-634.5" font-family="Helvetica,sans-Serif" font-size="10.00">Ogre::BoxEmitter</text>
</a>
</g>
</g>
<!-- Node20&#45;&gt;Node21 -->
<g id="edge20" class="edge">
<title>Node20&#45;&gt;Node21</title>
<path fill="none" stroke="midnightblue" d="M501.1,-591.83C508.9,-593.92 516.7,-596.3 524,-599 540.97,-605.27 543.1,-611.55 560,-618 569.59,-621.66 580.13,-624.8 590.23,-627.42"/>
<polygon fill="midnightblue" stroke="midnightblue" points="501.82,-588.4 491.27,-589.34 500.1,-595.18 501.82,-588.4"/>
</g>
<!-- Node22 -->
<g id="node22" class="node">
<title>Node22</title>
<g id="a_node22"><a xlink:href="class_ogre_1_1_cylinder_emitter.html" target="_top" xlink:title="This emitter emits particles in a random direction from within a cylinder area, where the cylinder is...">
<polygon fill="none" stroke="black" points="576.5,-589.5 576.5,-608.5 698.5,-608.5 698.5,-589.5 576.5,-589.5"/>
<text text-anchor="middle" x="637.5" y="-596.5" font-family="Helvetica,sans-Serif" font-size="10.00">Ogre::CylinderEmitter</text>
</a>
</g>
</g>
<!-- Node20&#45;&gt;Node22 -->
<g id="edge21" class="edge">
<title>Node20&#45;&gt;Node22</title>
<path fill="none" stroke="midnightblue" d="M501.13,-585.91C525.04,-588.22 552.39,-590.87 576.22,-593.17"/>
<polygon fill="midnightblue" stroke="midnightblue" points="501.41,-582.42 491.12,-584.94 500.73,-589.39 501.41,-582.42"/>
</g>
<!-- Node23 -->
<g id="node23" class="node">
<title>Node23</title>
<g id="a_node23"><a xlink:href="class_ogre_1_1_ellipsoid_emitter.html" target="_top" xlink:title="Particle emitter which emits particles randomly from points inside an ellipsoid.">
<polygon fill="none" stroke="red" points="576,-551.5 576,-570.5 699,-570.5 699,-551.5 576,-551.5"/>
<text text-anchor="middle" x="637.5" y="-558.5" font-family="Helvetica,sans-Serif" font-size="10.00">Ogre::EllipsoidEmitter</text>
</a>
</g>
</g>
<!-- Node20&#45;&gt;Node23 -->
<g id="edge22" class="edge">
<title>Node20&#45;&gt;Node23</title>
<path fill="none" stroke="midnightblue" d="M501.09,-574.09C524.89,-571.79 552.1,-569.16 575.86,-566.86"/>
<polygon fill="midnightblue" stroke="midnightblue" points="500.73,-570.61 491.12,-575.06 501.41,-577.58 500.73,-570.61"/>
</g>
<!-- Node25 -->
<g id="node24" class="node">
<title>Node25</title>
<g id="a_node24"><a xlink:href="class_ogre_1_1_ring_emitter.html" target="_top" xlink:title="Particle emitter which emits particles randomly from points inside a ring (e.g.">
<polygon fill="none" stroke="black" points="585.5,-513.5 585.5,-532.5 689.5,-532.5 689.5,-513.5 585.5,-513.5"/>
<text text-anchor="middle" x="637.5" y="-520.5" font-family="Helvetica,sans-Serif" font-size="10.00">Ogre::RingEmitter</text>
</a>
</g>
</g>
<!-- Node20&#45;&gt;Node25 -->
<g id="edge23" class="edge">
<title>Node20&#45;&gt;Node25</title>
<path fill="none" stroke="midnightblue" d="M501.1,-568.17C508.9,-566.08 516.7,-563.7 524,-561 540.97,-554.73 543.1,-548.45 560,-542 569.59,-538.34 580.13,-535.2 590.23,-532.58"/>
<polygon fill="midnightblue" stroke="midnightblue" points="500.1,-564.82 491.27,-570.66 501.82,-571.6 500.1,-564.82"/>
</g>
<!-- Node29 -->
<g id="node28" class="node">
<title>Node29</title>
<g id="a_node28"><a xlink:href="class_ogre_1_1_billboard_particle_renderer.html" target="_top" xlink:title="Specialisation of ParticleSystemRenderer to render particles using a BillboardSet.">
<polygon fill="none" stroke="black" points="354,-494.5 354,-513.5 524,-513.5 524,-494.5 354,-494.5"/>
<text text-anchor="middle" x="439" y="-501.5" font-family="Helvetica,sans-Serif" font-size="10.00">Ogre::BillboardParticleRenderer</text>
</a>
</g>
</g>
<!-- Node28&#45;&gt;Node29 -->
<g id="edge27" class="edge">
<title>Node28&#45;&gt;Node29</title>
<path fill="none" stroke="midnightblue" d="M328.18,-504C336.74,-504 345.4,-504 353.9,-504"/>
<polygon fill="midnightblue" stroke="midnightblue" points="328.18,-500.5 318.18,-504 328.17,-507.5 328.18,-500.5"/>
</g>
<!-- Node31 -->
<g id="node30" class="node">
<title>Node31</title>
<g id="a_node30"><a xlink:href="class_ogre_1_1_bsp_level.html" target="_top" xlink:title="Holds all the data associated with a Binary Space Parition (BSP) based indoor level.">
<polygon fill="none" stroke="black" points="394,-456.5 394,-475.5 484,-475.5 484,-456.5 394,-456.5"/>
<text text-anchor="middle" x="439" y="-463.5" font-family="Helvetica,sans-Serif" font-size="10.00">Ogre::BspLevel</text>
</a>
</g>
</g>
<!-- Node30&#45;&gt;Node31 -->
<g id="edge29" class="edge">
<title>Node30&#45;&gt;Node31</title>
<path fill="none" stroke="midnightblue" d="M252.79,-368.95C273.81,-390.45 313.1,-427.13 354,-447 366.37,-453.01 380.7,-457.16 393.98,-460"/>
<polygon fill="midnightblue" stroke="midnightblue" points="255.11,-366.31 245.67,-361.52 250.06,-371.16 255.11,-366.31"/>
</g>
<!-- Node32 -->
<g id="node31" class="node">
<title>Node32</title>
<g id="a_node31"><a xlink:href="class_ogre_1_1_compositor.html" target="_top" xlink:title="Class representing a Compositor object.">
<polygon fill="none" stroke="black" points="388,-418.5 388,-437.5 490,-437.5 490,-418.5 388,-418.5"/>
<text text-anchor="middle" x="439" y="-425.5" font-family="Helvetica,sans-Serif" font-size="10.00">Ogre::Compositor</text>
</a>
</g>
</g>
<!-- Node30&#45;&gt;Node32 -->
<g id="edge30" class="edge">
<title>Node30&#45;&gt;Node32</title>
<path fill="none" stroke="midnightblue" d="M262.37,-366.49C285.59,-379.23 321.21,-397.48 354,-409 364.72,-412.77 376.48,-415.97 387.71,-418.62"/>
<polygon fill="midnightblue" stroke="midnightblue" points="263.96,-363.37 253.52,-361.57 260.56,-369.49 263.96,-363.37"/>
</g>
<!-- Node33 -->
<g id="node32" class="node">
<title>Node33</title>
<g id="a_node32"><a xlink:href="class_ogre_1_1_font.html" target="_top" xlink:title="Class representing a font in the system.">
<polygon fill="none" stroke="black" points="405.5,-380.5 405.5,-399.5 472.5,-399.5 472.5,-380.5 405.5,-380.5"/>
<text text-anchor="middle" x="439" y="-387.5" font-family="Helvetica,sans-Serif" font-size="10.00">Ogre::Font</text>
</a>
</g>
</g>
<!-- Node30&#45;&gt;Node33 -->
<g id="edge31" class="edge">
<title>Node30&#45;&gt;Node33</title>
<path fill="none" stroke="midnightblue" d="M291.58,-362.32C327.99,-369.2 374.64,-378.02 405.38,-383.83"/>
<polygon fill="midnightblue" stroke="midnightblue" points="292.08,-358.85 281.61,-360.43 290.78,-365.73 292.08,-358.85"/>
</g>
<!-- Node34 -->
<g id="node33" class="node">
<title>Node34</title>
<g id="a_node33"><a xlink:href="class_ogre_1_1_gpu_program.html" target="_top" xlink:title="Defines a program which runs on the GPU such as a vertex or fragment program.">
<polygon fill="none" stroke="black" points="385.5,-342.5 385.5,-361.5 492.5,-361.5 492.5,-342.5 385.5,-342.5"/>
<text text-anchor="middle" x="439" y="-349.5" font-family="Helvetica,sans-Serif" font-size="10.00">Ogre::GpuProgram</text>
</a>
</g>
</g>
<!-- Node30&#45;&gt;Node34 -->
<g id="edge32" class="edge">
<title>Node30&#45;&gt;Node34</title>
<path fill="none" stroke="midnightblue" d="M291.62,-352C320.77,-352 356.48,-352 385.33,-352"/>
<polygon fill="midnightblue" stroke="midnightblue" points="291.61,-348.5 281.61,-352 291.61,-355.5 291.61,-348.5"/>
</g>
<!-- Node52 -->
<g id="node38" class="node">
<title>Node52</title>
<g id="a_node38"><a xlink:href="class_ogre_1_1_material.html" target="_top" xlink:title="Class encapsulates rendering properties of an object.">
<polygon fill="none" stroke="black" points="396,-304.5 396,-323.5 482,-323.5 482,-304.5 396,-304.5"/>
<text text-anchor="middle" x="439" y="-311.5" font-family="Helvetica,sans-Serif" font-size="10.00">Ogre::Material</text>
</a>
</g>
</g>
<!-- Node30&#45;&gt;Node52 -->
<g id="edge37" class="edge">
<title>Node30&#45;&gt;Node52</title>
<path fill="none" stroke="midnightblue" d="M291.52,-341.69C324.37,-335.48 365.59,-327.69 395.92,-321.96"/>
<polygon fill="midnightblue" stroke="midnightblue" points="290.78,-338.27 281.61,-343.57 292.08,-345.15 290.78,-338.27"/>
</g>
<!-- Node53 -->
<g id="node39" class="node">
<title>Node53</title>
<g id="a_node39"><a xlink:href="class_ogre_1_1_mesh.html" target="_top" xlink:title="Resource holding data about 3D mesh.">
<polygon fill="none" stroke="black" points="403,-266.5 403,-285.5 475,-285.5 475,-266.5 403,-266.5"/>
<text text-anchor="middle" x="439" y="-273.5" font-family="Helvetica,sans-Serif" font-size="10.00">Ogre::Mesh</text>
</a>
</g>
</g>
<!-- Node30&#45;&gt;Node53 -->
<g id="edge38" class="edge">
<title>Node30&#45;&gt;Node53</title>
<path fill="none" stroke="midnightblue" d="M262.37,-337.51C285.59,-324.77 321.21,-306.52 354,-295 369.66,-289.5 387.53,-285.2 402.75,-282.09"/>
<polygon fill="midnightblue" stroke="midnightblue" points="260.56,-334.51 253.52,-342.43 263.96,-340.63 260.56,-334.51"/>
</g>
<!-- Node55 -->
<g id="node41" class="node">
<title>Node55</title>
<g id="a_node41"><a xlink:href="class_ogre_1_1_skeleton.html" target="_top" xlink:title="A collection of Bone objects used to animate a skinned mesh.">
<polygon fill="none" stroke="black" points="395,-228.5 395,-247.5 483,-247.5 483,-228.5 395,-228.5"/>
<text text-anchor="middle" x="439" y="-235.5" font-family="Helvetica,sans-Serif" font-size="10.00">Ogre::Skeleton</text>
</a>
</g>
</g>
<!-- Node30&#45;&gt;Node55 -->
<g id="edge40" class="edge">
<title>Node30&#45;&gt;Node55</title>
<path fill="none" stroke="midnightblue" d="M252.79,-335.05C273.81,-313.55 313.1,-276.87 354,-257 366.64,-250.86 381.33,-246.67 394.85,-243.82"/>
<polygon fill="midnightblue" stroke="midnightblue" points="250.06,-332.84 245.67,-342.48 255.11,-337.69 250.06,-332.84"/>
</g>
<!-- Node57 -->
<g id="node43" class="node">
<title>Node57</title>
<g id="a_node43"><a xlink:href="class_ogre_1_1_texture.html" target="_top" xlink:title="Abstract class representing a Texture resource.">
<polygon fill="none" stroke="black" points="398,-114.5 398,-133.5 480,-133.5 480,-114.5 398,-114.5"/>
<text text-anchor="middle" x="439" y="-121.5" font-family="Helvetica,sans-Serif" font-size="10.00">Ogre::Texture</text>
</a>
</g>
</g>
<!-- Node30&#45;&gt;Node57 -->
<g id="edge42" class="edge">
<title>Node30&#45;&gt;Node57</title>
<path fill="none" stroke="midnightblue" d="M252.25,-334.64C274.57,-309.23 317.45,-260.44 354,-219 381.52,-187.79 414.19,-150.88 429.41,-133.7"/>
<polygon fill="midnightblue" stroke="midnightblue" points="249.48,-332.49 245.51,-342.31 254.74,-337.11 249.48,-332.49"/>
</g>
<!-- Node35 -->
<g id="node34" class="node">
<title>Node35</title>
<g id="a_node34"><a xlink:href="class_ogre_1_1_d3_d9_gpu_program.html" target="_top" xlink:title="Direct3D implementation of a few things common to low&#45;level vertex &amp; fragment programs.">
<polygon fill="none" stroke="black" points="570.5,-418.5 570.5,-437.5 704.5,-437.5 704.5,-418.5 570.5,-418.5"/>
<text text-anchor="middle" x="637.5" y="-425.5" font-family="Helvetica,sans-Serif" font-size="10.00">Ogre::D3D9GpuProgram</text>
</a>
</g>
</g>
<!-- Node34&#45;&gt;Node35 -->
<g id="edge33" class="edge">
<title>Node34&#45;&gt;Node35</title>
<path fill="none" stroke="midnightblue" d="M502.68,-361.82C510.12,-364.23 517.4,-367.25 524,-371 544.22,-382.51 539.9,-397.28 560,-409 566.62,-412.86 574,-415.94 581.5,-418.4"/>
<polygon fill="midnightblue" stroke="midnightblue" points="503.44,-358.39 492.86,-358.97 501.49,-365.12 503.44,-358.39"/>
</g>
<!-- Node36 -->
<g id="node35" class="node">
<title>Node36</title>
<g id="a_node35"><a xlink:href="class_ogre_1_1_g_l_gpu_program.html" target="_top" xlink:title="Generalised low&#45;level GL program, can be applied to multiple types (eg ARB and NV)">
<polygon fill="none" stroke="red" points="578,-380.5 578,-399.5 697,-399.5 697,-380.5 578,-380.5"/>
<text text-anchor="middle" x="637.5" y="-387.5" font-family="Helvetica,sans-Serif" font-size="10.00">Ogre::GLGpuProgram</text>
</a>
</g>
</g>
<!-- Node34&#45;&gt;Node36 -->
<g id="edge34" class="edge">
<title>Node34&#45;&gt;Node36</title>
<path fill="none" stroke="midnightblue" d="M499.41,-363.49C527.45,-368.91 560.52,-375.31 587.15,-380.46"/>
<polygon fill="midnightblue" stroke="midnightblue" points="499.81,-360 489.33,-361.54 498.49,-366.88 499.81,-360"/>
</g>
<!-- Node39 -->
<g id="node36" class="node">
<title>Node39</title>
<g id="a_node36"><a xlink:href="class_ogre_1_1_high_level_gpu_program.html" target="_top" xlink:title="Abstract base class representing a high&#45;level program (a vertex or fragment program).">
<polygon fill="none" stroke="red" points="560,-342.5 560,-361.5 715,-361.5 715,-342.5 560,-342.5"/>
<text text-anchor="middle" x="637.5" y="-349.5" font-family="Helvetica,sans-Serif" font-size="10.00">Ogre::HighLevelGpuProgram</text>
</a>
</g>
</g>
<!-- Node34&#45;&gt;Node39 -->
<g id="edge35" class="edge">
<title>Node34&#45;&gt;Node39</title>
<path fill="none" stroke="midnightblue" d="M502.79,-352C520.88,-352 540.83,-352 559.68,-352"/>
<polygon fill="midnightblue" stroke="midnightblue" points="502.66,-348.5 492.66,-352 502.66,-355.5 502.66,-348.5"/>
</g>
<!-- Node51 -->
<g id="node37" class="node">
<title>Node51</title>
<g id="a_node37"><a xlink:href="class_ogre_1_1_vulkan_program.html" target="_top" xlink:title="Specialisation of GpuProgram to provide support for SPIRV.">
<polygon fill="none" stroke="black" points="577,-304.5 577,-323.5 698,-323.5 698,-304.5 577,-304.5"/>
<text text-anchor="middle" x="637.5" y="-311.5" font-family="Helvetica,sans-Serif" font-size="10.00">Ogre::VulkanProgram</text>
</a>
</g>
</g>
<!-- Node34&#45;&gt;Node51 -->
<g id="edge36" class="edge">
<title>Node34&#45;&gt;Node51</title>
<path fill="none" stroke="midnightblue" d="M499.41,-340.51C527.45,-335.09 560.52,-328.69 587.15,-323.54"/>
<polygon fill="midnightblue" stroke="midnightblue" points="498.49,-337.12 489.33,-342.46 499.81,-344 498.49,-337.12"/>
</g>
<!-- Node54 -->
<g id="node40" class="node">
<title>Node54</title>
<g id="a_node40"><a xlink:href="class_ogre_1_1_patch_mesh.html" target="_top" xlink:title="Patch specialisation of Mesh.">
<polygon fill="none" stroke="black" points="588,-266.5 588,-285.5 687,-285.5 687,-266.5 588,-266.5"/>
<text text-anchor="middle" x="637.5" y="-273.5" font-family="Helvetica,sans-Serif" font-size="10.00">Ogre::PatchMesh</text>
</a>
</g>
</g>
<!-- Node53&#45;&gt;Node54 -->
<g id="edge39" class="edge">
<title>Node53&#45;&gt;Node54</title>
<path fill="none" stroke="midnightblue" d="M485.52,-276C516.11,-276 556.39,-276 587.65,-276"/>
<polygon fill="midnightblue" stroke="midnightblue" points="485.13,-272.5 475.13,-276 485.13,-279.5 485.13,-272.5"/>
</g>
<!-- Node56 -->
<g id="node42" class="node">
<title>Node56</title>
<g id="a_node42"><a xlink:href="class_ogre_1_1_skeleton_instance.html" target="_top" xlink:title="A SkeletonInstance is a single instance of a Skeleton used by a world object.">
<polygon fill="none" stroke="black" points="573,-228.5 573,-247.5 702,-247.5 702,-228.5 573,-228.5"/>
<text text-anchor="middle" x="637.5" y="-235.5" font-family="Helvetica,sans-Serif" font-size="10.00">Ogre::SkeletonInstance</text>
</a>
</g>
</g>
<!-- Node55&#45;&gt;Node56 -->
<g id="edge41" class="edge">
<title>Node55&#45;&gt;Node56</title>
<path fill="none" stroke="midnightblue" d="M493.34,-238C517.9,-238 547.25,-238 572.95,-238"/>
<polygon fill="midnightblue" stroke="midnightblue" points="493.12,-234.5 483.12,-238 493.12,-241.5 493.12,-234.5"/>
</g>
<!-- Node58 -->
<g id="node44" class="node">
<title>Node58</title>
<g id="a_node44"><a xlink:href="class_ogre_1_1_d3_d11_texture.html" target="_top" xlink:title="Specialisation of Texture for D3D11.">
<polygon fill="none" stroke="black" points="580,-190.5 580,-209.5 695,-209.5 695,-190.5 580,-190.5"/>
<text text-anchor="middle" x="637.5" y="-197.5" font-family="Helvetica,sans-Serif" font-size="10.00">Ogre::D3D11Texture</text>
</a>
</g>
</g>
<!-- Node57&#45;&gt;Node58 -->
<g id="edge43" class="edge">
<title>Node57&#45;&gt;Node58</title>
<path fill="none" stroke="midnightblue" d="M466.54,-138.5C490.43,-151.09 526.79,-169.12 560,-181 570.05,-184.59 581.08,-187.76 591.56,-190.43"/>
<polygon fill="midnightblue" stroke="midnightblue" points="467.89,-135.25 457.42,-133.64 464.6,-141.43 467.89,-135.25"/>
</g>
<!-- Node59 -->
<g id="node45" class="node">
<title>Node59</title>
<g id="a_node45"><a xlink:href="class_ogre_1_1_d3_d9_texture.html" target="_top" xlink:title=" ">
<polygon fill="none" stroke="black" points="583,-152.5 583,-171.5 692,-171.5 692,-152.5 583,-152.5"/>
<text text-anchor="middle" x="637.5" y="-159.5" font-family="Helvetica,sans-Serif" font-size="10.00">Ogre::D3D9Texture</text>
</a>
</g>
</g>
<!-- Node57&#45;&gt;Node59 -->
<g id="edge44" class="edge">
<title>Node57&#45;&gt;Node59</title>
<path fill="none" stroke="midnightblue" d="M490.42,-133.75C520.19,-139.51 557.7,-146.76 587.26,-152.48"/>
<polygon fill="midnightblue" stroke="midnightblue" points="490.72,-130.24 480.24,-131.78 489.39,-137.12 490.72,-130.24"/>
</g>
<!-- Node60 -->
<g id="node46" class="node">
<title>Node60</title>
<g id="a_node46"><a xlink:href="class_ogre_1_1_g_l_texture_common.html" target="_top" xlink:title=" ">
<polygon fill="none" stroke="red" points="568.5,-114.5 568.5,-133.5 706.5,-133.5 706.5,-114.5 568.5,-114.5"/>
<text text-anchor="middle" x="637.5" y="-121.5" font-family="Helvetica,sans-Serif" font-size="10.00">Ogre::GLTextureCommon</text>
</a>
</g>
</g>
<!-- Node57&#45;&gt;Node60 -->
<g id="edge45" class="edge">
<title>Node57&#45;&gt;Node60</title>
<path fill="none" stroke="midnightblue" d="M490.43,-124C514.16,-124 542.83,-124 568.45,-124"/>
<polygon fill="midnightblue" stroke="midnightblue" points="490.24,-120.5 480.24,-124 490.24,-127.5 490.24,-120.5"/>
</g>
<!-- Node64 -->
<g id="node47" class="node">
<title>Node64</title>
<g id="a_node47"><a xlink:href="class_ogre_1_1_metal_texture.html" target="_top" xlink:title=" ">
<polygon fill="none" stroke="black" points="582.5,-76.5 582.5,-95.5 692.5,-95.5 692.5,-76.5 582.5,-76.5"/>
<text text-anchor="middle" x="637.5" y="-83.5" font-family="Helvetica,sans-Serif" font-size="10.00">Ogre::MetalTexture</text>
</a>
</g>
</g>
<!-- Node57&#45;&gt;Node64 -->
<g id="edge46" class="edge">
<title>Node57&#45;&gt;Node64</title>
<path fill="none" stroke="midnightblue" d="M490.42,-114.25C520.19,-108.49 557.7,-101.24 587.26,-95.52"/>
<polygon fill="midnightblue" stroke="midnightblue" points="489.39,-110.88 480.24,-116.22 490.72,-117.76 489.39,-110.88"/>
</g>
<!-- Node65 -->
<g id="node48" class="node">
<title>Node65</title>
<g id="a_node48"><a xlink:href="class_ogre_1_1_tiny_texture.html" target="_top" xlink:title=" ">
<polygon fill="none" stroke="black" points="586.5,-38.5 586.5,-57.5 688.5,-57.5 688.5,-38.5 586.5,-38.5"/>
<text text-anchor="middle" x="637.5" y="-45.5" font-family="Helvetica,sans-Serif" font-size="10.00">Ogre::TinyTexture</text>
</a>
</g>
</g>
<!-- Node57&#45;&gt;Node65 -->
<g id="edge47" class="edge">
<title>Node57&#45;&gt;Node65</title>
<path fill="none" stroke="midnightblue" d="M466.54,-109.5C490.43,-96.91 526.79,-78.88 560,-67 570.05,-63.41 581.08,-60.24 591.56,-57.57"/>
<polygon fill="midnightblue" stroke="midnightblue" points="464.6,-106.57 457.42,-114.36 467.89,-112.75 464.6,-106.57"/>
</g>
<!-- Node66 -->
<g id="node49" class="node">
<title>Node66</title>
<g id="a_node49"><a xlink:href="class_ogre_1_1_vulkan_texture_gpu.html" target="_top" xlink:title=" ">
<polygon fill="none" stroke="red" points="570,-0.5 570,-19.5 705,-19.5 705,-0.5 570,-0.5"/>
<text text-anchor="middle" x="637.5" y="-7.5" font-family="Helvetica,sans-Serif" font-size="10.00">Ogre::VulkanTextureGpu</text>
</a>
</g>
</g>
<!-- Node57&#45;&gt;Node66 -->
<g id="edge48" class="edge">
<title>Node57&#45;&gt;Node66</title>
<path fill="none" stroke="midnightblue" d="M456.4,-107.16C478.13,-85.81 518.58,-49.34 560,-29 567.86,-25.14 576.57,-22.02 585.22,-19.52"/>
<polygon fill="midnightblue" stroke="midnightblue" points="453.87,-104.73 449.27,-114.28 458.82,-109.69 453.87,-104.73"/>
</g>
</g>
</svg>
