<?xml version="1.0" encoding="UTF-8" standalone="no"?>
<!DOCTYPE svg PUBLIC "-//W3C//DTD SVG 1.1//EN"
 "http://www.w3.org/Graphics/SVG/1.1/DTD/svg11.dtd">
<!-- Generated by graphviz version 2.43.0 (0)
 -->
<!-- Title: Ogre::GpuProgramFactory Pages: 1 -->
<svg width="480pt" height="484pt"
 viewBox="0.00 0.00 480.00 484.00" xmlns="http://www.w3.org/2000/svg" xmlns:xlink="http://www.w3.org/1999/xlink">
<g id="graph0" class="graph" transform="scale(1 1) rotate(0) translate(4 480)">
<title>Ogre::GpuProgramFactory</title>
<!-- Node1 -->
<g id="node1" class="node">
<title>Node1</title>
<g id="a_node1"><a xlink:title="Interface definition for factories of GpuProgram.">
<polygon fill="#bfbfbf" stroke="black" points="113,-228.5 113,-247.5 256,-247.5 256,-228.5 113,-228.5"/>
<text text-anchor="middle" x="184.5" y="-235.5" font-family="Helvetica,sans-Serif" font-size="10.00">Ogre::GpuProgramFactory</text>
</a>
</g>
</g>
<!-- Node3 -->
<g id="node3" class="node">
<title>Node3</title>
<g id="a_node3"><a xlink:href="class_ogre_1_1_cg_program_factory.html" target="_top" xlink:title="Factory class for Cg programs.">
<polygon fill="none" stroke="black" points="314,-456.5 314,-475.5 450,-475.5 450,-456.5 314,-456.5"/>
<text text-anchor="middle" x="382" y="-463.5" font-family="Helvetica,sans-Serif" font-size="10.00">Ogre::CgProgramFactory</text>
</a>
</g>
</g>
<!-- Node1&#45;&gt;Node3 -->
<g id="edge2" class="edge">
<title>Node1&#45;&gt;Node3</title>
<path fill="none" stroke="midnightblue" d="M189.53,-257.58C199.23,-299.44 227.96,-397.82 292,-447 298.52,-452 306.06,-455.76 313.94,-458.57"/>
<polygon fill="midnightblue" stroke="midnightblue" points="192.95,-256.8 187.38,-247.79 186.11,-258.31 192.95,-256.8"/>
</g>
<!-- Node4 -->
<g id="node4" class="node">
<title>Node4</title>
<g id="a_node4"><a xlink:href="struct_ogre_1_1_create_callback_wrapper.html" target="_top" xlink:title=" ">
<polygon fill="none" stroke="black" points="301.5,-418.5 301.5,-437.5 462.5,-437.5 462.5,-418.5 301.5,-418.5"/>
<text text-anchor="middle" x="382" y="-425.5" font-family="Helvetica,sans-Serif" font-size="10.00">Ogre::CreateCallbackWrapper</text>
</a>
</g>
</g>
<!-- Node1&#45;&gt;Node4 -->
<g id="edge3" class="edge">
<title>Node1&#45;&gt;Node4</title>
<path fill="none" stroke="midnightblue" d="M191.81,-257.41C204.57,-293.42 237,-370.39 292,-409 297.43,-412.81 303.48,-415.89 309.79,-418.36"/>
<polygon fill="midnightblue" stroke="midnightblue" points="195.02,-255.98 188.48,-247.64 188.39,-258.24 195.02,-255.98"/>
</g>
<!-- Node5 -->
<g id="node5" class="node">
<title>Node5</title>
<g id="a_node5"><a xlink:href="class_ogre_1_1_d3_d11_h_l_s_l_program_factory.html" target="_top" xlink:title="Factory class for D3D11 HLSL programs.">
<polygon fill="none" stroke="black" points="292,-380.5 292,-399.5 472,-399.5 472,-380.5 292,-380.5"/>
<text text-anchor="middle" x="382" y="-387.5" font-family="Helvetica,sans-Serif" font-size="10.00">Ogre::D3D11HLSLProgramFactory</text>
</a>
</g>
</g>
<!-- Node1&#45;&gt;Node5 -->
<g id="edge4" class="edge">
<title>Node1&#45;&gt;Node5</title>
<path fill="none" stroke="midnightblue" d="M194.97,-256.73C210.83,-286.04 245.61,-342.37 292,-371 298.32,-374.9 305.32,-378.01 312.53,-380.48"/>
<polygon fill="midnightblue" stroke="midnightblue" points="197.91,-254.8 190.17,-247.58 191.72,-258.06 197.91,-254.8"/>
</g>
<!-- Node6 -->
<g id="node6" class="node">
<title>Node6</title>
<g id="a_node6"><a xlink:href="class_ogre_1_1_d3_d9_gpu_program_manager.html" target="_top" xlink:title=" ">
<polygon fill="none" stroke="black" points="294,-342.5 294,-361.5 470,-361.5 470,-342.5 294,-342.5"/>
<text text-anchor="middle" x="382" y="-349.5" font-family="Helvetica,sans-Serif" font-size="10.00">Ogre::D3D9GpuProgramManager</text>
</a>
</g>
</g>
<!-- Node1&#45;&gt;Node6 -->
<g id="edge5" class="edge">
<title>Node1&#45;&gt;Node6</title>
<path fill="none" stroke="midnightblue" d="M199.76,-255.36C218.56,-277.03 253.76,-313.61 292,-333 299.61,-336.86 307.97,-339.94 316.42,-342.39"/>
<polygon fill="midnightblue" stroke="midnightblue" points="202.31,-252.95 193.17,-247.59 196.97,-257.48 202.31,-252.95"/>
</g>
<!-- Node7 -->
<g id="node7" class="node">
<title>Node7</title>
<g id="a_node7"><a xlink:href="class_ogre_1_1_d3_d9_h_l_s_l_program_factory.html" target="_top" xlink:title="Factory class for D3D9 HLSL programs.">
<polygon fill="none" stroke="black" points="295,-304.5 295,-323.5 469,-323.5 469,-304.5 295,-304.5"/>
<text text-anchor="middle" x="382" y="-311.5" font-family="Helvetica,sans-Serif" font-size="10.00">Ogre::D3D9HLSLProgramFactory</text>
</a>
</g>
</g>
<!-- Node1&#45;&gt;Node7 -->
<g id="edge6" class="edge">
<title>Node1&#45;&gt;Node7</title>
<path fill="none" stroke="midnightblue" d="M208.59,-252.82C229.58,-265.69 261.81,-283.95 292,-295 302.24,-298.75 313.42,-301.85 324.3,-304.4"/>
<polygon fill="midnightblue" stroke="midnightblue" points="210.39,-249.82 200.05,-247.5 206.68,-255.76 210.39,-249.82"/>
</g>
<!-- Node8 -->
<g id="node8" class="node">
<title>Node8</title>
<g id="a_node8"><a xlink:href="class_ogre_1_1_g_l_s_l_1_1_g_l_s_l_program_factory.html" target="_top" xlink:title="Factory class for GLSL programs.">
<polygon fill="none" stroke="black" points="293.5,-266.5 293.5,-285.5 470.5,-285.5 470.5,-266.5 293.5,-266.5"/>
<text text-anchor="middle" x="382" y="-273.5" font-family="Helvetica,sans-Serif" font-size="10.00">Ogre::GLSL::GLSLProgramFactory</text>
</a>
</g>
</g>
<!-- Node1&#45;&gt;Node8 -->
<g id="edge7" class="edge">
<title>Node1&#45;&gt;Node8</title>
<path fill="none" stroke="midnightblue" d="M244.61,-249.49C272.5,-254.91 305.4,-261.31 331.9,-266.46"/>
<polygon fill="midnightblue" stroke="midnightblue" points="245.06,-246.01 234.58,-247.54 243.73,-252.88 245.06,-246.01"/>
</g>
<!-- Node9 -->
<g id="node9" class="node">
<title>Node9</title>
<g id="a_node9"><a xlink:href="class_ogre_1_1_g_l_s_l_e_s_cg_program_factory.html" target="_top" xlink:title="Factory class for GLSL ES programs.">
<polygon fill="none" stroke="black" points="296,-228.5 296,-247.5 468,-247.5 468,-228.5 296,-228.5"/>
<text text-anchor="middle" x="382" y="-235.5" font-family="Helvetica,sans-Serif" font-size="10.00">Ogre::GLSLESCgProgramFactory</text>
</a>
</g>
</g>
<!-- Node1&#45;&gt;Node9 -->
<g id="edge8" class="edge">
<title>Node1&#45;&gt;Node9</title>
<path fill="none" stroke="midnightblue" d="M266.18,-238C275.97,-238 286,-238 295.86,-238"/>
<polygon fill="midnightblue" stroke="midnightblue" points="266.08,-234.5 256.08,-238 266.08,-241.5 266.08,-234.5"/>
</g>
<!-- Node10 -->
<g id="node10" class="node">
<title>Node10</title>
<g id="a_node10"><a xlink:href="class_ogre_1_1_g_l_s_l_e_s_program_factory.html" target="_top" xlink:title="Factory class for GLSL ES programs.">
<polygon fill="none" stroke="black" points="302.5,-190.5 302.5,-209.5 461.5,-209.5 461.5,-190.5 302.5,-190.5"/>
<text text-anchor="middle" x="382" y="-197.5" font-family="Helvetica,sans-Serif" font-size="10.00">Ogre::GLSLESProgramFactory</text>
</a>
</g>
</g>
<!-- Node1&#45;&gt;Node10 -->
<g id="edge9" class="edge">
<title>Node1&#45;&gt;Node10</title>
<path fill="none" stroke="midnightblue" d="M244.61,-226.51C272.5,-221.09 305.4,-214.69 331.9,-209.54"/>
<polygon fill="midnightblue" stroke="midnightblue" points="243.73,-223.12 234.58,-228.46 245.06,-229.99 243.73,-223.12"/>
</g>
<!-- Node11 -->
<g id="node11" class="node">
<title>Node11</title>
<g id="a_node11"><a xlink:href="class_ogre_1_1_g_l_s_l_shader_factory.html" target="_top" xlink:title="Factory class for GLSL shaders.">
<polygon fill="none" stroke="black" points="312,-152.5 312,-171.5 452,-171.5 452,-152.5 312,-152.5"/>
<text text-anchor="middle" x="382" y="-159.5" font-family="Helvetica,sans-Serif" font-size="10.00">Ogre::GLSLShaderFactory</text>
</a>
</g>
</g>
<!-- Node1&#45;&gt;Node11 -->
<g id="edge10" class="edge">
<title>Node1&#45;&gt;Node11</title>
<path fill="none" stroke="midnightblue" d="M208.59,-223.18C229.58,-210.31 261.81,-192.05 292,-181 302.24,-177.25 313.42,-174.15 324.3,-171.6"/>
<polygon fill="midnightblue" stroke="midnightblue" points="206.68,-220.24 200.05,-228.5 210.39,-226.18 206.68,-220.24"/>
</g>
<!-- Node12 -->
<g id="node12" class="node">
<title>Node12</title>
<g id="a_node12"><a xlink:href="class_ogre_1_1_g_l_s_lang_program_factory.html" target="_top" xlink:title="Factory class for GLSLang programs.">
<polygon fill="none" stroke="black" points="299.5,-114.5 299.5,-133.5 464.5,-133.5 464.5,-114.5 299.5,-114.5"/>
<text text-anchor="middle" x="382" y="-121.5" font-family="Helvetica,sans-Serif" font-size="10.00">Ogre::GLSLangProgramFactory</text>
</a>
</g>
</g>
<!-- Node1&#45;&gt;Node12 -->
<g id="edge11" class="edge">
<title>Node1&#45;&gt;Node12</title>
<path fill="none" stroke="midnightblue" d="M199.76,-220.64C218.56,-198.97 253.76,-162.39 292,-143 299.61,-139.14 307.97,-136.06 316.42,-133.61"/>
<polygon fill="midnightblue" stroke="midnightblue" points="196.97,-218.52 193.17,-228.41 202.31,-223.05 196.97,-218.52"/>
</g>
<!-- Node13 -->
<g id="node13" class="node">
<title>Node13</title>
<g id="a_node13"><a xlink:href="class_ogre_1_1_metal_program_factory.html" target="_top" xlink:title="Factory class for Metal programs.">
<polygon fill="none" stroke="black" points="306.5,-76.5 306.5,-95.5 457.5,-95.5 457.5,-76.5 306.5,-76.5"/>
<text text-anchor="middle" x="382" y="-83.5" font-family="Helvetica,sans-Serif" font-size="10.00">Ogre::MetalProgramFactory</text>
</a>
</g>
</g>
<!-- Node1&#45;&gt;Node13 -->
<g id="edge12" class="edge">
<title>Node1&#45;&gt;Node13</title>
<path fill="none" stroke="midnightblue" d="M194.97,-219.27C210.83,-189.96 245.61,-133.63 292,-105 298.32,-101.1 305.32,-97.99 312.53,-95.52"/>
<polygon fill="midnightblue" stroke="midnightblue" points="191.72,-217.94 190.17,-228.42 197.91,-221.2 191.72,-217.94"/>
</g>
<!-- Node14 -->
<g id="node14" class="node">
<title>Node14</title>
<g id="a_node14"><a xlink:href="class_ogre_1_1_s_p_i_r_v_shader_factory.html" target="_top" xlink:title=" ">
<polygon fill="none" stroke="black" points="310,-38.5 310,-57.5 454,-57.5 454,-38.5 310,-38.5"/>
<text text-anchor="middle" x="382" y="-45.5" font-family="Helvetica,sans-Serif" font-size="10.00">Ogre::SPIRVShaderFactory</text>
</a>
</g>
</g>
<!-- Node1&#45;&gt;Node14 -->
<g id="edge13" class="edge">
<title>Node1&#45;&gt;Node14</title>
<path fill="none" stroke="midnightblue" d="M191.81,-218.59C204.57,-182.58 237,-105.61 292,-67 297.43,-63.19 303.48,-60.11 309.79,-57.64"/>
<polygon fill="midnightblue" stroke="midnightblue" points="188.39,-217.76 188.48,-228.36 195.02,-220.02 188.39,-217.76"/>
</g>
<!-- Node15 -->
<g id="node15" class="node">
<title>Node15</title>
<g id="a_node15"><a xlink:href="class_ogre_1_1_vulkan_program_factory.html" target="_top" xlink:title="Factory class for Vulkan programs.">
<polygon fill="none" stroke="black" points="303.5,-0.5 303.5,-19.5 460.5,-19.5 460.5,-0.5 303.5,-0.5"/>
<text text-anchor="middle" x="382" y="-7.5" font-family="Helvetica,sans-Serif" font-size="10.00">Ogre::VulkanProgramFactory</text>
</a>
</g>
</g>
<!-- Node1&#45;&gt;Node15 -->
<g id="edge14" class="edge">
<title>Node1&#45;&gt;Node15</title>
<path fill="none" stroke="midnightblue" d="M189.53,-218.42C199.23,-176.56 227.96,-78.18 292,-29 297.01,-25.15 302.63,-22.04 308.54,-19.53"/>
<polygon fill="midnightblue" stroke="midnightblue" points="186.11,-217.69 187.38,-228.21 192.95,-219.2 186.11,-217.69"/>
</g>
<!-- Node2 -->
<g id="node2" class="node">
<title>Node2</title>
<g id="a_node2"><a xlink:title=" ">
<polygon fill="none" stroke="#bfbfbf" points="0,-228.5 0,-247.5 77,-247.5 77,-228.5 0,-228.5"/>
<text text-anchor="middle" x="38.5" y="-235.5" font-family="Helvetica,sans-Serif" font-size="10.00">FactoryAlloc</text>
</a>
</g>
</g>
<!-- Node2&#45;&gt;Node1 -->
<g id="edge1" class="edge">
<title>Node2&#45;&gt;Node1</title>
<path fill="none" stroke="midnightblue" d="M87.38,-238C95.54,-238 104.16,-238 112.76,-238"/>
<polygon fill="midnightblue" stroke="midnightblue" points="87.33,-234.5 77.33,-238 87.33,-241.5 87.33,-234.5"/>
</g>
</g>
</svg>
