<?xml version="1.0" encoding="UTF-8" standalone="no"?>
<!DOCTYPE svg PUBLIC "-//W3C//DTD SVG 1.1//EN"
 "http://www.w3.org/Graphics/SVG/1.1/DTD/svg11.dtd">
<!-- Generated by graphviz version 2.43.0 (0)
 -->
<!-- Title: Ogre::Resource Pages: 1 -->
<svg width="974pt" height="503pt"
 viewBox="0.00 0.00 974.00 503.00" xmlns="http://www.w3.org/2000/svg" xmlns:xlink="http://www.w3.org/1999/xlink">
<g id="graph0" class="graph" transform="scale(1 1) rotate(0) translate(4 499)">
<title>Ogre::Resource</title>
<!-- Node1 -->
<g id="node1" class="node">
<title>Node1</title>
<g id="a_node1"><a xlink:title="Abstract class representing a loadable resource.">
<polygon fill="#bfbfbf" stroke="black" points="154,-323.5 154,-342.5 245,-342.5 245,-323.5 154,-323.5"/>
<text text-anchor="middle" x="199.5" y="-330.5" font-family="Helvetica,sans-Serif" font-size="10.00">Ogre::Resource</text>
</a>
</g>
</g>
<!-- Node4 -->
<g id="node4" class="node">
<title>Node4</title>
<g id="a_node4"><a xlink:href="class_ogre_1_1_bsp_level.html" target="_top" xlink:title="Holds all the data associated with a Binary Space Parition (BSP) based indoor level.">
<polygon fill="none" stroke="black" points="289.5,-456.5 289.5,-475.5 379.5,-475.5 379.5,-456.5 289.5,-456.5"/>
<text text-anchor="middle" x="334.5" y="-463.5" font-family="Helvetica,sans-Serif" font-size="10.00">Ogre::BspLevel</text>
</a>
</g>
</g>
<!-- Node1&#45;&gt;Node4 -->
<g id="edge3" class="edge">
<title>Node1&#45;&gt;Node4</title>
<path fill="none" stroke="midnightblue" d="M209.28,-351.96C221.82,-377.06 247.14,-421.17 281,-447 286.01,-450.82 291.86,-453.93 297.8,-456.43"/>
<polygon fill="midnightblue" stroke="midnightblue" points="212.34,-350.24 204.84,-342.76 206.04,-353.29 212.34,-350.24"/>
</g>
<!-- Node5 -->
<g id="node5" class="node">
<title>Node5</title>
<g id="a_node5"><a xlink:href="class_ogre_1_1_compositor.html" target="_top" xlink:title="Class representing a Compositor object.">
<polygon fill="none" stroke="black" points="283.5,-418.5 283.5,-437.5 385.5,-437.5 385.5,-418.5 283.5,-418.5"/>
<text text-anchor="middle" x="334.5" y="-425.5" font-family="Helvetica,sans-Serif" font-size="10.00">Ogre::Compositor</text>
</a>
</g>
</g>
<!-- Node1&#45;&gt;Node5 -->
<g id="edge4" class="edge">
<title>Node1&#45;&gt;Node5</title>
<path fill="none" stroke="midnightblue" d="M215.38,-350.76C230.42,-367.73 255.08,-393.04 281,-409 287.03,-412.71 293.88,-415.85 300.61,-418.44"/>
<polygon fill="midnightblue" stroke="midnightblue" points="217.63,-348.01 208.44,-342.73 212.33,-352.59 217.63,-348.01"/>
</g>
<!-- Node6 -->
<g id="node6" class="node">
<title>Node6</title>
<g id="a_node6"><a xlink:href="class_ogre_1_1_font.html" target="_top" xlink:title="Class representing a font in the system.">
<polygon fill="none" stroke="black" points="301,-380.5 301,-399.5 368,-399.5 368,-380.5 301,-380.5"/>
<text text-anchor="middle" x="334.5" y="-387.5" font-family="Helvetica,sans-Serif" font-size="10.00">Ogre::Font</text>
</a>
</g>
</g>
<!-- Node1&#45;&gt;Node6 -->
<g id="edge5" class="edge">
<title>Node1&#45;&gt;Node6</title>
<path fill="none" stroke="midnightblue" d="M228.44,-346.98C243.8,-354.46 263.27,-363.63 281,-371 288.88,-374.28 297.54,-377.54 305.52,-380.42"/>
<polygon fill="midnightblue" stroke="midnightblue" points="229.98,-343.84 219.47,-342.57 226.9,-350.12 229.98,-343.84"/>
</g>
<!-- Node7 -->
<g id="node7" class="node">
<title>Node7</title>
<g id="a_node7"><a xlink:href="class_ogre_1_1_gpu_program.html" target="_top" xlink:title="Defines a program which runs on the GPU such as a vertex or fragment program.">
<polygon fill="none" stroke="black" points="281,-342.5 281,-361.5 388,-361.5 388,-342.5 281,-342.5"/>
<text text-anchor="middle" x="334.5" y="-349.5" font-family="Helvetica,sans-Serif" font-size="10.00">Ogre::GpuProgram</text>
</a>
</g>
</g>
<!-- Node1&#45;&gt;Node7 -->
<g id="edge6" class="edge">
<title>Node1&#45;&gt;Node7</title>
<path fill="none" stroke="midnightblue" d="M255.31,-340.83C263.77,-342.04 272.49,-343.28 280.91,-344.49"/>
<polygon fill="midnightblue" stroke="midnightblue" points="255.55,-337.33 245.16,-339.38 254.56,-344.26 255.55,-337.33"/>
</g>
<!-- Node25 -->
<g id="node23" class="node">
<title>Node25</title>
<g id="a_node23"><a xlink:href="class_ogre_1_1_material.html" target="_top" xlink:title="Class encapsulates rendering properties of an object.">
<polygon fill="none" stroke="black" points="291.5,-304.5 291.5,-323.5 377.5,-323.5 377.5,-304.5 291.5,-304.5"/>
<text text-anchor="middle" x="334.5" y="-311.5" font-family="Helvetica,sans-Serif" font-size="10.00">Ogre::Material</text>
</a>
</g>
</g>
<!-- Node1&#45;&gt;Node25 -->
<g id="edge22" class="edge">
<title>Node1&#45;&gt;Node25</title>
<path fill="none" stroke="midnightblue" d="M255.16,-325.19C267.27,-323.46 279.92,-321.65 291.43,-320.01"/>
<polygon fill="midnightblue" stroke="midnightblue" points="254.56,-321.74 245.16,-326.62 255.55,-328.67 254.56,-321.74"/>
</g>
<!-- Node26 -->
<g id="node24" class="node">
<title>Node26</title>
<g id="a_node24"><a xlink:href="class_ogre_1_1_mesh.html" target="_top" xlink:title="Resource holding data about 3D mesh.">
<polygon fill="none" stroke="black" points="298.5,-266.5 298.5,-285.5 370.5,-285.5 370.5,-266.5 298.5,-266.5"/>
<text text-anchor="middle" x="334.5" y="-273.5" font-family="Helvetica,sans-Serif" font-size="10.00">Ogre::Mesh</text>
</a>
</g>
</g>
<!-- Node1&#45;&gt;Node26 -->
<g id="edge23" class="edge">
<title>Node1&#45;&gt;Node26</title>
<path fill="none" stroke="midnightblue" d="M228.44,-319.02C243.8,-311.54 263.27,-302.37 281,-295 288.88,-291.72 297.54,-288.46 305.52,-285.58"/>
<polygon fill="midnightblue" stroke="midnightblue" points="226.9,-315.88 219.47,-323.43 229.98,-322.16 226.9,-315.88"/>
</g>
<!-- Node28 -->
<g id="node26" class="node">
<title>Node28</title>
<g id="a_node26"><a xlink:href="class_ogre_1_1_skeleton.html" target="_top" xlink:title="A collection of Bone objects used to animate a skinned mesh.">
<polygon fill="none" stroke="black" points="290.5,-228.5 290.5,-247.5 378.5,-247.5 378.5,-228.5 290.5,-228.5"/>
<text text-anchor="middle" x="334.5" y="-235.5" font-family="Helvetica,sans-Serif" font-size="10.00">Ogre::Skeleton</text>
</a>
</g>
</g>
<!-- Node1&#45;&gt;Node28 -->
<g id="edge25" class="edge">
<title>Node1&#45;&gt;Node28</title>
<path fill="none" stroke="midnightblue" d="M215.38,-315.24C230.42,-298.27 255.08,-272.96 281,-257 287.03,-253.29 293.88,-250.15 300.61,-247.56"/>
<polygon fill="midnightblue" stroke="midnightblue" points="212.33,-313.41 208.44,-323.27 217.63,-317.99 212.33,-313.41"/>
</g>
<!-- Node30 -->
<g id="node28" class="node">
<title>Node30</title>
<g id="a_node28"><a xlink:href="class_ogre_1_1_texture.html" target="_top" xlink:title="Abstract class representing a Texture resource.">
<polygon fill="none" stroke="black" points="293.5,-114.5 293.5,-133.5 375.5,-133.5 375.5,-114.5 293.5,-114.5"/>
<text text-anchor="middle" x="334.5" y="-121.5" font-family="Helvetica,sans-Serif" font-size="10.00">Ogre::Texture</text>
</a>
</g>
</g>
<!-- Node1&#45;&gt;Node30 -->
<g id="edge27" class="edge">
<title>Node1&#45;&gt;Node30</title>
<path fill="none" stroke="midnightblue" d="M212,-314.93C239.2,-272.18 306.75,-166.03 327.4,-133.58"/>
<polygon fill="midnightblue" stroke="midnightblue" points="208.98,-313.16 206.56,-323.48 214.88,-316.92 208.98,-313.16"/>
</g>
<!-- Node2 -->
<g id="node2" class="node">
<title>Node2</title>
<g id="a_node2"><a xlink:href="class_ogre_1_1_string_interface.html" target="_top" xlink:title="Class defining the common interface which classes can use to present a reflection&#45;style,...">
<polygon fill="none" stroke="black" points="0,-342.5 0,-361.5 118,-361.5 118,-342.5 0,-342.5"/>
<text text-anchor="middle" x="59" y="-349.5" font-family="Helvetica,sans-Serif" font-size="10.00">Ogre::StringInterface</text>
</a>
</g>
</g>
<!-- Node2&#45;&gt;Node1 -->
<g id="edge1" class="edge">
<title>Node2&#45;&gt;Node1</title>
<path fill="none" stroke="midnightblue" d="M128.39,-342.62C136.98,-341.44 145.6,-340.26 153.7,-339.15"/>
<polygon fill="midnightblue" stroke="midnightblue" points="127.77,-339.17 118.34,-344 128.72,-346.11 127.77,-339.17"/>
</g>
<!-- Node3 -->
<g id="node3" class="node">
<title>Node3</title>
<g id="a_node3"><a xlink:title=" ">
<polygon fill="none" stroke="#bfbfbf" points="16,-304.5 16,-323.5 102,-323.5 102,-304.5 16,-304.5"/>
<text text-anchor="middle" x="59" y="-311.5" font-family="Helvetica,sans-Serif" font-size="10.00">ResourceAlloc</text>
</a>
</g>
</g>
<!-- Node3&#45;&gt;Node1 -->
<g id="edge2" class="edge">
<title>Node3&#45;&gt;Node1</title>
<path fill="none" stroke="midnightblue" d="M112.45,-321.2C125.99,-323.05 140.45,-325.04 153.57,-326.84"/>
<polygon fill="midnightblue" stroke="midnightblue" points="112.69,-317.7 102.31,-319.8 111.74,-324.63 112.69,-317.7"/>
</g>
<!-- Node8 -->
<g id="node8" class="node">
<title>Node8</title>
<g id="a_node8"><a xlink:href="class_ogre_1_1_d3_d9_gpu_program.html" target="_top" xlink:title="Direct3D implementation of a few things common to low&#45;level vertex &amp; fragment programs.">
<polygon fill="none" stroke="black" points="434.5,-447.5 434.5,-466.5 568.5,-466.5 568.5,-447.5 434.5,-447.5"/>
<text text-anchor="middle" x="501.5" y="-454.5" font-family="Helvetica,sans-Serif" font-size="10.00">Ogre::D3D9GpuProgram</text>
</a>
</g>
</g>
<!-- Node7&#45;&gt;Node8 -->
<g id="edge7" class="edge">
<title>Node7&#45;&gt;Node8</title>
<path fill="none" stroke="midnightblue" d="M381.7,-366.35C383.92,-367.76 386.04,-369.31 388,-371 413.58,-393.1 397.31,-417.26 424,-438 428.97,-441.86 434.63,-444.95 440.56,-447.42"/>
<polygon fill="midnightblue" stroke="midnightblue" points="383.16,-363.17 372.69,-361.55 379.87,-369.34 383.16,-363.17"/>
</g>
<!-- Node9 -->
<g id="node9" class="node">
<title>Node9</title>
<g id="a_node9"><a xlink:href="class_ogre_1_1_g_l_gpu_program.html" target="_top" xlink:title="Generalised low&#45;level GL program, can be applied to multiple types (eg ARB and NV)">
<polygon fill="none" stroke="black" points="442,-409.5 442,-428.5 561,-428.5 561,-409.5 442,-409.5"/>
<text text-anchor="middle" x="501.5" y="-416.5" font-family="Helvetica,sans-Serif" font-size="10.00">Ogre::GLGpuProgram</text>
</a>
</g>
</g>
<!-- Node7&#45;&gt;Node9 -->
<g id="edge8" class="edge">
<title>Node7&#45;&gt;Node9</title>
<path fill="none" stroke="midnightblue" d="M372.64,-365.15C377.82,-367.07 383.05,-369.05 388,-371 420.01,-383.61 456.56,-399.48 479.08,-409.44"/>
<polygon fill="midnightblue" stroke="midnightblue" points="373.45,-361.72 362.86,-361.57 371.05,-368.29 373.45,-361.72"/>
</g>
<!-- Node12 -->
<g id="node12" class="node">
<title>Node12</title>
<g id="a_node12"><a xlink:href="class_ogre_1_1_high_level_gpu_program.html" target="_top" xlink:title="Abstract base class representing a high&#45;level program (a vertex or fragment program).">
<polygon fill="none" stroke="black" points="424,-342.5 424,-361.5 579,-361.5 579,-342.5 424,-342.5"/>
<text text-anchor="middle" x="501.5" y="-349.5" font-family="Helvetica,sans-Serif" font-size="10.00">Ogre::HighLevelGpuProgram</text>
</a>
</g>
</g>
<!-- Node7&#45;&gt;Node12 -->
<g id="edge11" class="edge">
<title>Node7&#45;&gt;Node12</title>
<path fill="none" stroke="midnightblue" d="M398.25,-352C406.66,-352 415.37,-352 423.98,-352"/>
<polygon fill="midnightblue" stroke="midnightblue" points="398.16,-348.5 388.16,-352 398.16,-355.5 398.16,-348.5"/>
</g>
<!-- Node24 -->
<g id="node22" class="node">
<title>Node24</title>
<g id="a_node22"><a xlink:href="class_ogre_1_1_vulkan_program.html" target="_top" xlink:title="Specialisation of GpuProgram to provide support for SPIRV.">
<polygon fill="none" stroke="black" points="441,-304.5 441,-323.5 562,-323.5 562,-304.5 441,-304.5"/>
<text text-anchor="middle" x="501.5" y="-311.5" font-family="Helvetica,sans-Serif" font-size="10.00">Ogre::VulkanProgram</text>
</a>
</g>
</g>
<!-- Node7&#45;&gt;Node24 -->
<g id="edge21" class="edge">
<title>Node7&#45;&gt;Node24</title>
<path fill="none" stroke="midnightblue" d="M387.15,-340.1C410.35,-334.76 437.34,-328.55 459.16,-323.52"/>
<polygon fill="midnightblue" stroke="midnightblue" points="386.1,-336.76 377.14,-342.41 387.67,-343.58 386.1,-336.76"/>
</g>
<!-- Node10 -->
<g id="node10" class="node">
<title>Node10</title>
<g id="a_node10"><a xlink:href="class_ogre_1_1_g_l_arb_gpu_program.html" target="_top" xlink:title="Specialisation of the GL low&#45;level program for ARB programs.">
<polygon fill="none" stroke="black" points="633.5,-475.5 633.5,-494.5 770.5,-494.5 770.5,-475.5 633.5,-475.5"/>
<text text-anchor="middle" x="702" y="-482.5" font-family="Helvetica,sans-Serif" font-size="10.00">Ogre::GLArbGpuProgram</text>
</a>
</g>
</g>
<!-- Node9&#45;&gt;Node10 -->
<g id="edge9" class="edge">
<title>Node9&#45;&gt;Node10</title>
<path fill="none" stroke="midnightblue" d="M563.47,-431.64C568.82,-433.5 574.08,-435.61 579,-438 597.23,-446.86 596.65,-457.38 615,-466 623.17,-469.84 632.13,-472.91 641.1,-475.38"/>
<polygon fill="midnightblue" stroke="midnightblue" points="564.34,-428.25 553.75,-428.57 562.23,-434.93 564.34,-428.25"/>
</g>
<!-- Node11 -->
<g id="node11" class="node">
<title>Node11</title>
<g id="a_node11"><a xlink:href="class_ogre_1_1_g_l_gpu_nvparse_program.html" target="_top" xlink:title=" ">
<polygon fill="none" stroke="black" points="622,-437.5 622,-456.5 782,-456.5 782,-437.5 622,-437.5"/>
<text text-anchor="middle" x="702" y="-444.5" font-family="Helvetica,sans-Serif" font-size="10.00">Ogre::GLGpuNvparseProgram</text>
</a>
</g>
</g>
<!-- Node9&#45;&gt;Node11 -->
<g id="edge10" class="edge">
<title>Node9&#45;&gt;Node11</title>
<path fill="none" stroke="midnightblue" d="M571.26,-428.7C591.36,-431.53 613.3,-434.63 633.33,-437.45"/>
<polygon fill="midnightblue" stroke="midnightblue" points="571.64,-425.22 561.25,-427.29 570.66,-432.15 571.64,-425.22"/>
</g>
<!-- Node13 -->
<g id="node13" class="node">
<title>Node13</title>
<g id="a_node13"><a xlink:href="class_ogre_1_1_cg_program.html" target="_top" xlink:title="Specialisation of HighLevelGpuProgram to provide support for nVidia&#39;s CG language.">
<polygon fill="none" stroke="black" points="652,-399.5 652,-418.5 752,-418.5 752,-399.5 652,-399.5"/>
<text text-anchor="middle" x="702" y="-406.5" font-family="Helvetica,sans-Serif" font-size="10.00">Ogre::CgProgram</text>
</a>
</g>
</g>
<!-- Node12&#45;&gt;Node13 -->
<g id="edge12" class="edge">
<title>Node12&#45;&gt;Node13</title>
<path fill="none" stroke="midnightblue" d="M537.76,-365C559.78,-372.85 588.82,-382.71 615,-390 627.37,-393.45 640.89,-396.68 653.46,-399.46"/>
<polygon fill="midnightblue" stroke="midnightblue" points="538.76,-361.65 528.17,-361.56 536.39,-368.23 538.76,-361.65"/>
</g>
<!-- Node14 -->
<g id="node14" class="node">
<title>Node14</title>
<g id="a_node14"><a xlink:href="class_ogre_1_1_d3_d11_h_l_s_l_program.html" target="_top" xlink:title="Specialization of HighLevelGpuProgram to provide support for D3D11 High&#45;Level Shader Language (HLSL).">
<polygon fill="none" stroke="black" points="630,-361.5 630,-380.5 774,-380.5 774,-361.5 630,-361.5"/>
<text text-anchor="middle" x="702" y="-368.5" font-family="Helvetica,sans-Serif" font-size="10.00">Ogre::D3D11HLSLProgram</text>
</a>
</g>
</g>
<!-- Node12&#45;&gt;Node14 -->
<g id="edge13" class="edge">
<title>Node12&#45;&gt;Node14</title>
<path fill="none" stroke="midnightblue" d="M589.51,-360.33C603.04,-361.62 616.87,-362.95 629.98,-364.2"/>
<polygon fill="midnightblue" stroke="midnightblue" points="589.53,-356.81 579.25,-359.35 588.87,-363.78 589.53,-356.81"/>
</g>
<!-- Node15 -->
<g id="node15" class="node">
<title>Node15</title>
<g id="a_node15"><a xlink:href="class_ogre_1_1_d3_d9_h_l_s_l_program.html" target="_top" xlink:title="Specialisation of HighLevelGpuProgram to provide support for D3D9 High&#45;Level Shader Language (HLSL).">
<polygon fill="none" stroke="black" points="633,-323.5 633,-342.5 771,-342.5 771,-323.5 633,-323.5"/>
<text text-anchor="middle" x="702" y="-330.5" font-family="Helvetica,sans-Serif" font-size="10.00">Ogre::D3D9HLSLProgram</text>
</a>
</g>
</g>
<!-- Node12&#45;&gt;Node15 -->
<g id="edge14" class="edge">
<title>Node12&#45;&gt;Node15</title>
<path fill="none" stroke="midnightblue" d="M589.28,-343.69C603.87,-342.3 618.84,-340.86 632.88,-339.52"/>
<polygon fill="midnightblue" stroke="midnightblue" points="588.87,-340.22 579.25,-344.65 589.53,-347.19 588.87,-340.22"/>
</g>
<!-- Node16 -->
<g id="node16" class="node">
<title>Node16</title>
<g id="a_node16"><a xlink:href="class_ogre_1_1_g_l_s_l_shader_common.html" target="_top" xlink:title="Specialisation of HighLevelGpuProgram to provide support for OpenGL Shader Language (GLSL).">
<polygon fill="none" stroke="black" points="628,-285.5 628,-304.5 776,-304.5 776,-285.5 628,-285.5"/>
<text text-anchor="middle" x="702" y="-292.5" font-family="Helvetica,sans-Serif" font-size="10.00">Ogre::GLSLShaderCommon</text>
</a>
</g>
</g>
<!-- Node12&#45;&gt;Node16 -->
<g id="edge15" class="edge">
<title>Node12&#45;&gt;Node16</title>
<path fill="none" stroke="midnightblue" d="M558.81,-339.68C565.69,-337.69 572.56,-335.46 579,-333 595.9,-326.55 598.01,-320.23 615,-314 625.19,-310.26 636.35,-307.14 647.14,-304.57"/>
<polygon fill="midnightblue" stroke="midnightblue" points="557.49,-336.41 548.77,-342.42 559.34,-343.16 557.49,-336.41"/>
</g>
<!-- Node22 -->
<g id="node20" class="node">
<title>Node22</title>
<g id="a_node20"><a xlink:href="class_ogre_1_1_g_l_s_lang_program.html" target="_top" xlink:title="Specialisation of HighLevelGpuProgram to provide support for the GLSLang compiler by Khronos.">
<polygon fill="none" stroke="black" points="637.5,-247.5 637.5,-266.5 766.5,-266.5 766.5,-247.5 637.5,-247.5"/>
<text text-anchor="middle" x="702" y="-254.5" font-family="Helvetica,sans-Serif" font-size="10.00">Ogre::GLSLangProgram</text>
</a>
</g>
</g>
<!-- Node12&#45;&gt;Node22 -->
<g id="edge19" class="edge">
<title>Node12&#45;&gt;Node22</title>
<path fill="none" stroke="midnightblue" d="M570.55,-338.21C573.5,-336.65 576.34,-334.92 579,-333 603.29,-315.46 590.48,-293.23 615,-276 621.76,-271.25 629.49,-267.66 637.48,-264.95"/>
<polygon fill="midnightblue" stroke="midnightblue" points="569.05,-335.04 561.39,-342.37 571.95,-341.42 569.05,-335.04"/>
</g>
<!-- Node23 -->
<g id="node21" class="node">
<title>Node23</title>
<g id="a_node21"><a xlink:href="class_ogre_1_1_metal_program.html" target="_top" xlink:title="Specialisation of HighLevelGpuProgram to provide support for Metal Shader Language.">
<polygon fill="none" stroke="black" points="644.5,-209.5 644.5,-228.5 759.5,-228.5 759.5,-209.5 644.5,-209.5"/>
<text text-anchor="middle" x="702" y="-216.5" font-family="Helvetica,sans-Serif" font-size="10.00">Ogre::MetalProgram</text>
</a>
</g>
</g>
<!-- Node12&#45;&gt;Node23 -->
<g id="edge20" class="edge">
<title>Node12&#45;&gt;Node23</title>
<path fill="none" stroke="midnightblue" d="M573.46,-337.29C575.4,-335.98 577.25,-334.55 579,-333 612.77,-303.02 580.85,-267.53 615,-238 623.33,-230.8 633.77,-226.15 644.49,-223.18"/>
<polygon fill="midnightblue" stroke="midnightblue" points="571.47,-334.4 564.49,-342.37 574.92,-340.49 571.47,-334.4"/>
</g>
<!-- Node17 -->
<g id="node17" class="node">
<title>Node17</title>
<g id="a_node17"><a xlink:href="class_ogre_1_1_g_l_s_l_1_1_g_l_s_l_program.html" target="_top" xlink:title=" ">
<polygon fill="none" stroke="black" points="825,-323.5 825,-342.5 966,-342.5 966,-323.5 825,-323.5"/>
<text text-anchor="middle" x="895.5" y="-330.5" font-family="Helvetica,sans-Serif" font-size="10.00">Ogre::GLSL::GLSLProgram</text>
</a>
</g>
</g>
<!-- Node16&#45;&gt;Node17 -->
<g id="edge16" class="edge">
<title>Node16&#45;&gt;Node17</title>
<path fill="none" stroke="midnightblue" d="M761.15,-306.54C788.46,-311.96 820.63,-318.34 846.52,-323.48"/>
<polygon fill="midnightblue" stroke="midnightblue" points="761.81,-303.1 751.32,-304.59 760.45,-309.97 761.81,-303.1"/>
</g>
<!-- Node18 -->
<g id="node18" class="node">
<title>Node18</title>
<g id="a_node18"><a xlink:href="class_ogre_1_1_g_l_s_l_e_s_program.html" target="_top" xlink:title=" ">
<polygon fill="none" stroke="red" points="834,-285.5 834,-304.5 957,-304.5 957,-285.5 834,-285.5"/>
<text text-anchor="middle" x="895.5" y="-292.5" font-family="Helvetica,sans-Serif" font-size="10.00">Ogre::GLSLESProgram</text>
</a>
</g>
</g>
<!-- Node16&#45;&gt;Node18 -->
<g id="edge17" class="edge">
<title>Node16&#45;&gt;Node18</title>
<path fill="none" stroke="midnightblue" d="M786.57,-295C802.44,-295 818.77,-295 833.77,-295"/>
<polygon fill="midnightblue" stroke="midnightblue" points="786.22,-291.5 776.22,-295 786.22,-298.5 786.22,-291.5"/>
</g>
<!-- Node20 -->
<g id="node19" class="node">
<title>Node20</title>
<g id="a_node19"><a xlink:href="class_ogre_1_1_g_l_s_l_shader.html" target="_top" xlink:title=" ">
<polygon fill="none" stroke="red" points="843.5,-247.5 843.5,-266.5 947.5,-266.5 947.5,-247.5 843.5,-247.5"/>
<text text-anchor="middle" x="895.5" y="-254.5" font-family="Helvetica,sans-Serif" font-size="10.00">Ogre::GLSLShader</text>
</a>
</g>
</g>
<!-- Node16&#45;&gt;Node20 -->
<g id="edge18" class="edge">
<title>Node16&#45;&gt;Node20</title>
<path fill="none" stroke="midnightblue" d="M761.15,-283.46C788.46,-278.04 820.63,-271.66 846.52,-266.52"/>
<polygon fill="midnightblue" stroke="midnightblue" points="760.45,-280.03 751.32,-285.41 761.81,-286.9 760.45,-280.03"/>
</g>
<!-- Node27 -->
<g id="node25" class="node">
<title>Node27</title>
<g id="a_node25"><a xlink:href="class_ogre_1_1_patch_mesh.html" target="_top" xlink:title="Patch specialisation of Mesh.">
<polygon fill="none" stroke="black" points="452,-266.5 452,-285.5 551,-285.5 551,-266.5 452,-266.5"/>
<text text-anchor="middle" x="501.5" y="-273.5" font-family="Helvetica,sans-Serif" font-size="10.00">Ogre::PatchMesh</text>
</a>
</g>
</g>
<!-- Node26&#45;&gt;Node27 -->
<g id="edge24" class="edge">
<title>Node26&#45;&gt;Node27</title>
<path fill="none" stroke="midnightblue" d="M380.97,-276C402.93,-276 429.32,-276 451.71,-276"/>
<polygon fill="midnightblue" stroke="midnightblue" points="380.9,-272.5 370.9,-276 380.9,-279.5 380.9,-272.5"/>
</g>
<!-- Node29 -->
<g id="node27" class="node">
<title>Node29</title>
<g id="a_node27"><a xlink:href="class_ogre_1_1_skeleton_instance.html" target="_top" xlink:title="A SkeletonInstance is a single instance of a Skeleton used by a world object.">
<polygon fill="none" stroke="black" points="437,-228.5 437,-247.5 566,-247.5 566,-228.5 437,-228.5"/>
<text text-anchor="middle" x="501.5" y="-235.5" font-family="Helvetica,sans-Serif" font-size="10.00">Ogre::SkeletonInstance</text>
</a>
</g>
</g>
<!-- Node28&#45;&gt;Node29 -->
<g id="edge26" class="edge">
<title>Node28&#45;&gt;Node29</title>
<path fill="none" stroke="midnightblue" d="M389.14,-238C404.4,-238 421.16,-238 436.95,-238"/>
<polygon fill="midnightblue" stroke="midnightblue" points="388.85,-234.5 378.85,-238 388.85,-241.5 388.85,-234.5"/>
</g>
<!-- Node31 -->
<g id="node29" class="node">
<title>Node31</title>
<g id="a_node29"><a xlink:href="class_ogre_1_1_d3_d11_texture.html" target="_top" xlink:title="Specialisation of Texture for D3D11.">
<polygon fill="none" stroke="black" points="444,-190.5 444,-209.5 559,-209.5 559,-190.5 444,-190.5"/>
<text text-anchor="middle" x="501.5" y="-197.5" font-family="Helvetica,sans-Serif" font-size="10.00">Ogre::D3D11Texture</text>
</a>
</g>
</g>
<!-- Node30&#45;&gt;Node31 -->
<g id="edge28" class="edge">
<title>Node30&#45;&gt;Node31</title>
<path fill="none" stroke="midnightblue" d="M355.85,-139.88C373.12,-152.66 399,-170.2 424,-181 432.67,-184.74 442.22,-187.85 451.55,-190.39"/>
<polygon fill="midnightblue" stroke="midnightblue" points="357.75,-136.93 347.66,-133.7 353.53,-142.52 357.75,-136.93"/>
</g>
<!-- Node32 -->
<g id="node30" class="node">
<title>Node32</title>
<g id="a_node30"><a xlink:href="class_ogre_1_1_d3_d9_texture.html" target="_top" xlink:title=" ">
<polygon fill="none" stroke="black" points="447,-152.5 447,-171.5 556,-171.5 556,-152.5 447,-152.5"/>
<text text-anchor="middle" x="501.5" y="-159.5" font-family="Helvetica,sans-Serif" font-size="10.00">Ogre::D3D9Texture</text>
</a>
</g>
</g>
<!-- Node30&#45;&gt;Node32 -->
<g id="edge29" class="edge">
<title>Node30&#45;&gt;Node32</title>
<path fill="none" stroke="midnightblue" d="M385.66,-135.55C409.16,-140.96 436.83,-147.34 459.12,-152.47"/>
<polygon fill="midnightblue" stroke="midnightblue" points="386.39,-132.13 375.86,-133.3 384.82,-138.95 386.39,-132.13"/>
</g>
<!-- Node33 -->
<g id="node31" class="node">
<title>Node33</title>
<g id="a_node31"><a xlink:href="class_ogre_1_1_g_l_texture_common.html" target="_top" xlink:title=" ">
<polygon fill="none" stroke="black" points="432.5,-114.5 432.5,-133.5 570.5,-133.5 570.5,-114.5 432.5,-114.5"/>
<text text-anchor="middle" x="501.5" y="-121.5" font-family="Helvetica,sans-Serif" font-size="10.00">Ogre::GLTextureCommon</text>
</a>
</g>
</g>
<!-- Node30&#45;&gt;Node33 -->
<g id="edge30" class="edge">
<title>Node30&#45;&gt;Node33</title>
<path fill="none" stroke="midnightblue" d="M386.15,-124C400.71,-124 416.83,-124 432.26,-124"/>
<polygon fill="midnightblue" stroke="midnightblue" points="385.86,-120.5 375.86,-124 385.86,-127.5 385.86,-120.5"/>
</g>
<!-- Node37 -->
<g id="node35" class="node">
<title>Node37</title>
<g id="a_node35"><a xlink:href="class_ogre_1_1_metal_texture.html" target="_top" xlink:title=" ">
<polygon fill="none" stroke="black" points="446.5,-76.5 446.5,-95.5 556.5,-95.5 556.5,-76.5 446.5,-76.5"/>
<text text-anchor="middle" x="501.5" y="-83.5" font-family="Helvetica,sans-Serif" font-size="10.00">Ogre::MetalTexture</text>
</a>
</g>
</g>
<!-- Node30&#45;&gt;Node37 -->
<g id="edge34" class="edge">
<title>Node30&#45;&gt;Node37</title>
<path fill="none" stroke="midnightblue" d="M385.66,-112.45C409.16,-107.04 436.83,-100.66 459.12,-95.53"/>
<polygon fill="midnightblue" stroke="midnightblue" points="384.82,-109.05 375.86,-114.7 386.39,-115.87 384.82,-109.05"/>
</g>
<!-- Node38 -->
<g id="node36" class="node">
<title>Node38</title>
<g id="a_node36"><a xlink:href="class_ogre_1_1_tiny_texture.html" target="_top" xlink:title=" ">
<polygon fill="none" stroke="black" points="450.5,-38.5 450.5,-57.5 552.5,-57.5 552.5,-38.5 450.5,-38.5"/>
<text text-anchor="middle" x="501.5" y="-45.5" font-family="Helvetica,sans-Serif" font-size="10.00">Ogre::TinyTexture</text>
</a>
</g>
</g>
<!-- Node30&#45;&gt;Node38 -->
<g id="edge35" class="edge">
<title>Node30&#45;&gt;Node38</title>
<path fill="none" stroke="midnightblue" d="M355.85,-108.12C373.12,-95.34 399,-77.8 424,-67 432.67,-63.26 442.22,-60.15 451.55,-57.61"/>
<polygon fill="midnightblue" stroke="midnightblue" points="353.53,-105.48 347.66,-114.3 357.75,-111.07 353.53,-105.48"/>
</g>
<!-- Node39 -->
<g id="node37" class="node">
<title>Node39</title>
<g id="a_node37"><a xlink:href="class_ogre_1_1_vulkan_texture_gpu.html" target="_top" xlink:title=" ">
<polygon fill="none" stroke="black" points="434,-0.5 434,-19.5 569,-19.5 569,-0.5 434,-0.5"/>
<text text-anchor="middle" x="501.5" y="-7.5" font-family="Helvetica,sans-Serif" font-size="10.00">Ogre::VulkanTextureGpu</text>
</a>
</g>
</g>
<!-- Node30&#45;&gt;Node39 -->
<g id="edge36" class="edge">
<title>Node30&#45;&gt;Node39</title>
<path fill="none" stroke="midnightblue" d="M347.17,-106.19C362.29,-84.58 390.69,-48.61 424,-29 430.6,-25.11 437.98,-22.02 445.47,-19.55"/>
<polygon fill="midnightblue" stroke="midnightblue" points="344.26,-104.25 341.53,-114.48 350.05,-108.19 344.26,-104.25"/>
</g>
<!-- Node34 -->
<g id="node32" class="node">
<title>Node34</title>
<g id="a_node32"><a xlink:href="class_ogre_1_1_g_l3_plus_texture.html" target="_top" xlink:title=" ">
<polygon fill="none" stroke="black" points="641.5,-152.5 641.5,-171.5 762.5,-171.5 762.5,-152.5 641.5,-152.5"/>
<text text-anchor="middle" x="702" y="-159.5" font-family="Helvetica,sans-Serif" font-size="10.00">Ogre::GL3PlusTexture</text>
</a>
</g>
</g>
<!-- Node33&#45;&gt;Node34 -->
<g id="edge31" class="edge">
<title>Node33&#45;&gt;Node34</title>
<path fill="none" stroke="midnightblue" d="M562.52,-135.49C590.84,-140.91 624.24,-147.31 651.15,-152.46"/>
<polygon fill="midnightblue" stroke="midnightblue" points="562.81,-131.98 552.33,-133.54 561.5,-138.86 562.81,-131.98"/>
</g>
<!-- Node35 -->
<g id="node33" class="node">
<title>Node35</title>
<g id="a_node33"><a xlink:href="class_ogre_1_1_g_l_e_s2_texture.html" target="_top" xlink:title=" ">
<polygon fill="none" stroke="black" points="645.5,-114.5 645.5,-133.5 758.5,-133.5 758.5,-114.5 645.5,-114.5"/>
<text text-anchor="middle" x="702" y="-121.5" font-family="Helvetica,sans-Serif" font-size="10.00">Ogre::GLES2Texture</text>
</a>
</g>
</g>
<!-- Node33&#45;&gt;Node35 -->
<g id="edge32" class="edge">
<title>Node33&#45;&gt;Node35</title>
<path fill="none" stroke="midnightblue" d="M580.66,-124C602.24,-124 625.21,-124 645.23,-124"/>
<polygon fill="midnightblue" stroke="midnightblue" points="580.53,-120.5 570.53,-124 580.53,-127.5 580.53,-120.5"/>
</g>
<!-- Node36 -->
<g id="node34" class="node">
<title>Node36</title>
<g id="a_node34"><a xlink:href="class_ogre_1_1_g_l_texture.html" target="_top" xlink:title=" ">
<polygon fill="none" stroke="black" points="655,-76.5 655,-95.5 749,-95.5 749,-76.5 655,-76.5"/>
<text text-anchor="middle" x="702" y="-83.5" font-family="Helvetica,sans-Serif" font-size="10.00">Ogre::GLTexture</text>
</a>
</g>
</g>
<!-- Node33&#45;&gt;Node36 -->
<g id="edge33" class="edge">
<title>Node33&#45;&gt;Node36</title>
<path fill="none" stroke="midnightblue" d="M562.18,-112.58C591.9,-106.89 627.29,-100.11 654.89,-94.83"/>
<polygon fill="midnightblue" stroke="midnightblue" points="561.5,-109.14 552.33,-114.46 562.81,-116.02 561.5,-109.14"/>
</g>
<!-- Node40 -->
<g id="node38" class="node">
<title>Node40</title>
<g id="a_node38"><a xlink:href="class_ogre_1_1_vulkan_texture_gpu_window.html" target="_top" xlink:title=" ">
<polygon fill="none" stroke="black" points="615,-0.5 615,-19.5 789,-19.5 789,-0.5 615,-0.5"/>
<text text-anchor="middle" x="702" y="-7.5" font-family="Helvetica,sans-Serif" font-size="10.00">Ogre::VulkanTextureGpuWindow</text>
</a>
</g>
</g>
<!-- Node39&#45;&gt;Node40 -->
<g id="edge37" class="edge">
<title>Node39&#45;&gt;Node40</title>
<path fill="none" stroke="midnightblue" d="M579.25,-10C590.89,-10 602.96,-10 614.79,-10"/>
<polygon fill="midnightblue" stroke="midnightblue" points="579.15,-6.5 569.15,-10 579.15,-13.5 579.15,-6.5"/>
</g>
</g>
</svg>
