<?xml version="1.0" encoding="UTF-8" standalone="no"?>
<!DOCTYPE svg PUBLIC "-//W3C//DTD SVG 1.1//EN"
 "http://www.w3.org/Graphics/SVG/1.1/DTD/svg11.dtd">
<!-- Generated by graphviz version 2.43.0 (0)
 -->
<!-- Title: Ogre::SceneManagerFactory Pages: 1 -->
<svg width="371pt" height="116pt"
 viewBox="0.00 0.00 371.00 116.00" xmlns="http://www.w3.org/2000/svg" xmlns:xlink="http://www.w3.org/1999/xlink">
<g id="graph0" class="graph" transform="scale(1 1) rotate(0) translate(4 112)">
<title>Ogre::SceneManagerFactory</title>
<!-- Node1 -->
<g id="node1" class="node">
<title>Node1</title>
<g id="a_node1"><a xlink:title="Class which will create instances of a given SceneManager.">
<polygon fill="#bfbfbf" stroke="black" points="0,-44.5 0,-63.5 154,-63.5 154,-44.5 0,-44.5"/>
<text text-anchor="middle" x="77" y="-51.5" font-family="Helvetica,sans-Serif" font-size="10.00">Ogre::SceneManagerFactory</text>
</a>
</g>
</g>
<!-- Node2 -->
<g id="node2" class="node">
<title>Node2</title>
<g id="a_node2"><a xlink:href="class_ogre_1_1_bsp_scene_manager_factory.html" target="_top" xlink:title="Factory for BspSceneManager.">
<polygon fill="none" stroke="black" points="190.5,-88.5 190.5,-107.5 362.5,-107.5 362.5,-88.5 190.5,-88.5"/>
<text text-anchor="middle" x="276.5" y="-95.5" font-family="Helvetica,sans-Serif" font-size="10.00">Ogre::BspSceneManagerFactory</text>
</a>
</g>
</g>
<!-- Node1&#45;&gt;Node2 -->
<g id="edge1" class="edge">
<title>Node1&#45;&gt;Node2</title>
<path fill="none" stroke="midnightblue" d="M130.41,-65.71C149.2,-69.9 170.55,-74.67 190,-79 203.8,-82.07 218.86,-85.42 232.44,-88.44"/>
<polygon fill="midnightblue" stroke="midnightblue" points="131.07,-62.27 120.54,-63.51 129.54,-69.1 131.07,-62.27"/>
</g>
<!-- Node3 -->
<g id="node3" class="node">
<title>Node3</title>
<g id="a_node3"><a xlink:href="class_ogre_1_1_octree_scene_manager_factory.html" target="_top" xlink:title="Factory for OctreeSceneManager.">
<polygon fill="none" stroke="black" points="201.5,-39 201.5,-69 351.5,-69 351.5,-39 201.5,-39"/>
<text text-anchor="start" x="209.5" y="-57" font-family="Helvetica,sans-Serif" font-size="10.00">Ogre::OctreeSceneManager</text>
<text text-anchor="middle" x="276.5" y="-46" font-family="Helvetica,sans-Serif" font-size="10.00">Factory</text>
</a>
</g>
</g>
<!-- Node1&#45;&gt;Node3 -->
<g id="edge2" class="edge">
<title>Node1&#45;&gt;Node3</title>
<path fill="none" stroke="midnightblue" d="M164.37,-54C176.72,-54 189.33,-54 201.41,-54"/>
<polygon fill="midnightblue" stroke="midnightblue" points="164.08,-50.5 154.08,-54 164.08,-57.5 164.08,-50.5"/>
</g>
<!-- Node4 -->
<g id="node4" class="node">
<title>Node4</title>
<g id="a_node4"><a xlink:href="class_ogre_1_1_p_c_z_scene_manager_factory.html" target="_top" xlink:title="Factory for PCZSceneManager.">
<polygon fill="none" stroke="black" points="190,-0.5 190,-19.5 363,-19.5 363,-0.5 190,-0.5"/>
<text text-anchor="middle" x="276.5" y="-7.5" font-family="Helvetica,sans-Serif" font-size="10.00">Ogre::PCZSceneManagerFactory</text>
</a>
</g>
</g>
<!-- Node1&#45;&gt;Node4 -->
<g id="edge3" class="edge">
<title>Node1&#45;&gt;Node4</title>
<path fill="none" stroke="midnightblue" d="M130.89,-42.22C162.78,-35.11 202.86,-26.18 232.73,-19.53"/>
<polygon fill="midnightblue" stroke="midnightblue" points="129.85,-38.86 120.85,-44.45 131.38,-45.69 129.85,-38.86"/>
</g>
</g>
</svg>
