<?xml version="1.0" encoding="UTF-8" standalone="no"?>
<!DOCTYPE svg PUBLIC "-//W3C//DTD SVG 1.1//EN"
 "http://www.w3.org/Graphics/SVG/1.1/DTD/svg11.dtd">
<!-- Generated by graphviz version 2.43.0 (0)
 -->
<!-- Title: Ogre::SceneManager Pages: 1 -->
<svg width="468pt" height="140pt"
 viewBox="0.00 0.00 467.50 140.00" xmlns="http://www.w3.org/2000/svg" xmlns:xlink="http://www.w3.org/1999/xlink">
<g id="graph0" class="graph" transform="scale(1 1) rotate(0) translate(4 136)">
<title>Ogre::SceneManager</title>
<!-- Node1 -->
<g id="node1" class="node">
<title>Node1</title>
<g id="a_node1"><a xlink:title="Manages the organisation and rendering of a &#39;scene&#39;: a collection of objects and potentially world ge...">
<polygon fill="#bfbfbf" stroke="black" points="170,-56.5 170,-75.5 288,-75.5 288,-56.5 170,-56.5"/>
<text text-anchor="middle" x="229" y="-63.5" font-family="Helvetica,sans-Serif" font-size="10.00">Ogre::SceneManager</text>
</a>
</g>
</g>
<!-- Node3 -->
<g id="node3" class="node">
<title>Node3</title>
<g id="a_node3"><a xlink:href="class_ogre_1_1_bsp_scene_manager.html" target="_top" xlink:title="Specialisation of the SceneManager class to deal with indoor scenes based on a BSP tree.">
<polygon fill="none" stroke="black" points="0,-0.5 0,-19.5 136,-19.5 136,-0.5 0,-0.5"/>
<text text-anchor="middle" x="68" y="-7.5" font-family="Helvetica,sans-Serif" font-size="10.00">Ogre::BspSceneManager</text>
</a>
</g>
</g>
<!-- Node1&#45;&gt;Node3 -->
<g id="edge2" class="edge">
<title>Node1&#45;&gt;Node3</title>
<path fill="none" stroke="midnightblue" d="M193.74,-53.17C163.42,-43 120.43,-28.59 93.39,-19.52"/>
<polygon fill="midnightblue" stroke="midnightblue" points="192.9,-56.58 203.49,-56.44 195.12,-49.95 192.9,-56.58"/>
</g>
<!-- Node4 -->
<g id="node4" class="node">
<title>Node4</title>
<g id="a_node4"><a xlink:href="class_ogre_1_1_octree_scene_manager.html" target="_top" xlink:title="Specialized SceneManager that divides the geometry into an octree in order to facilitate spatial quer...">
<polygon fill="none" stroke="black" points="154,-0.5 154,-19.5 304,-19.5 304,-0.5 154,-0.5"/>
<text text-anchor="middle" x="229" y="-7.5" font-family="Helvetica,sans-Serif" font-size="10.00">Ogre::OctreeSceneManager</text>
</a>
</g>
</g>
<!-- Node1&#45;&gt;Node4 -->
<g id="edge3" class="edge">
<title>Node1&#45;&gt;Node4</title>
<path fill="none" stroke="midnightblue" d="M229,-45.8C229,-36.91 229,-26.78 229,-19.75"/>
<polygon fill="midnightblue" stroke="midnightblue" points="225.5,-46.08 229,-56.08 232.5,-46.08 225.5,-46.08"/>
</g>
<!-- Node5 -->
<g id="node5" class="node">
<title>Node5</title>
<g id="a_node5"><a xlink:href="class_ogre_1_1_p_c_z_scene_manager.html" target="_top" xlink:title="Specialized SceneManager that uses Portal&#45;Connected&#45;Zones to divide the scene spatially.">
<polygon fill="none" stroke="black" points="322.5,-0.5 322.5,-19.5 459.5,-19.5 459.5,-0.5 322.5,-0.5"/>
<text text-anchor="middle" x="391" y="-7.5" font-family="Helvetica,sans-Serif" font-size="10.00">Ogre::PCZSceneManager</text>
</a>
</g>
</g>
<!-- Node1&#45;&gt;Node5 -->
<g id="edge4" class="edge">
<title>Node1&#45;&gt;Node5</title>
<path fill="none" stroke="midnightblue" d="M264.48,-53.17C294.99,-43 338.24,-28.59 365.45,-19.52"/>
<polygon fill="midnightblue" stroke="midnightblue" points="263.05,-49.96 254.67,-56.44 265.26,-56.6 263.05,-49.96"/>
</g>
<!-- Node2 -->
<g id="node2" class="node">
<title>Node2</title>
<g id="a_node2"><a xlink:title=" ">
<polygon fill="none" stroke="#bfbfbf" points="184.5,-112.5 184.5,-131.5 273.5,-131.5 273.5,-112.5 184.5,-112.5"/>
<text text-anchor="middle" x="229" y="-119.5" font-family="Helvetica,sans-Serif" font-size="10.00">SceneMgtAlloc</text>
</a>
</g>
</g>
<!-- Node2&#45;&gt;Node1 -->
<g id="edge1" class="edge">
<title>Node2&#45;&gt;Node1</title>
<path fill="none" stroke="midnightblue" d="M229,-101.8C229,-92.91 229,-82.78 229,-75.75"/>
<polygon fill="midnightblue" stroke="midnightblue" points="225.5,-102.08 229,-112.08 232.5,-102.08 225.5,-102.08"/>
</g>
</g>
</svg>
