<?xml version="1.0" encoding="UTF-8" standalone="no"?>
<!DOCTYPE svg PUBLIC "-//W3C//DTD SVG 1.1//EN"
 "http://www.w3.org/Graphics/SVG/1.1/DTD/svg11.dtd">
<!-- Generated by graphviz version 2.43.0 (0)
 -->
<!-- Title: Ogre::SmallVectorTemplateCommon&lt; T &gt; Pages: 1 -->
<svg width="1037pt" height="216pt"
 viewBox="0.00 0.00 1037.00 215.50" xmlns="http://www.w3.org/2000/svg" xmlns:xlink="http://www.w3.org/1999/xlink">
<g id="graph0" class="graph" transform="scale(1 1) rotate(0) translate(4 211.5)">
<title>Ogre::SmallVectorTemplateCommon&lt; T &gt;</title>
<!-- Node1 -->
<g id="node1" class="node">
<title>Node1</title>
<g id="a_node1"><a xlink:title=" ">
<polygon fill="#bfbfbf" stroke="black" points="165,-49.5 165,-79.5 315,-79.5 315,-49.5 165,-49.5"/>
<text text-anchor="start" x="173" y="-67.5" font-family="Helvetica,sans-Serif" font-size="10.00">Ogre::SmallVectorTemplate</text>
<text text-anchor="middle" x="240" y="-56.5" font-family="Helvetica,sans-Serif" font-size="10.00">Common&lt; T &gt;</text>
</a>
</g>
</g>
<!-- Node3 -->
<g id="node3" class="node">
<title>Node3</title>
<g id="a_node3"><a xlink:href="class_ogre_1_1_small_vector_template_base.html" target="_top" xlink:title=" ">
<polygon fill="none" stroke="black" points="351,-99 351,-140 501,-140 501,-99 351,-99"/>
<text text-anchor="start" x="359" y="-128" font-family="Helvetica,sans-Serif" font-size="10.00">Ogre::SmallVectorTemplate</text>
<text text-anchor="start" x="359" y="-117" font-family="Helvetica,sans-Serif" font-size="10.00">Base&lt; T, isPodLike&lt; T &gt;</text>
<text text-anchor="middle" x="426" y="-106" font-family="Helvetica,sans-Serif" font-size="10.00">::value &gt;</text>
</a>
</g>
</g>
<!-- Node1&#45;&gt;Node3 -->
<g id="edge2" class="edge">
<title>Node1&#45;&gt;Node3</title>
<path fill="none" stroke="midnightblue" d="M300.88,-82.4C318.53,-87.68 337.99,-93.49 356.16,-98.92"/>
<polygon fill="midnightblue" stroke="midnightblue" points="301.86,-79.04 291.28,-79.53 299.86,-85.75 301.86,-79.04"/>
</g>
<!-- Node12 -->
<g id="node12" class="node">
<title>Node12</title>
<g id="a_node12"><a xlink:href="class_ogre_1_1_small_vector_template_base.html" target="_top" xlink:title="SmallVectorTemplateBase&lt;isPodLike = false&gt; &#45; This is where we put method implementations that are des...">
<polygon fill="none" stroke="black" points="351,-49.5 351,-79.5 501,-79.5 501,-49.5 351,-49.5"/>
<text text-anchor="start" x="359" y="-67.5" font-family="Helvetica,sans-Serif" font-size="10.00">Ogre::SmallVectorTemplate</text>
<text text-anchor="middle" x="426" y="-56.5" font-family="Helvetica,sans-Serif" font-size="10.00">Base&lt; T, isPodLike &gt;</text>
</a>
</g>
</g>
<!-- Node1&#45;&gt;Node12 -->
<g id="edge11" class="edge">
<title>Node1&#45;&gt;Node12</title>
<path fill="none" stroke="midnightblue" d="M325.07,-64.5C333.65,-64.5 342.34,-64.5 350.81,-64.5"/>
<polygon fill="midnightblue" stroke="midnightblue" points="325.04,-61 315.04,-64.5 325.04,-68 325.04,-61"/>
</g>
<!-- Node13 -->
<g id="node13" class="node">
<title>Node13</title>
<g id="a_node13"><a xlink:href="class_ogre_1_1_small_vector_template_base_3_01_t_00_01true_01_4.html" target="_top" xlink:title="SmallVectorTemplateBase&lt;isPodLike = true&gt; &#45; This is where we put method implementations that are desi...">
<polygon fill="none" stroke="black" points="351,-0.5 351,-30.5 501,-30.5 501,-0.5 351,-0.5"/>
<text text-anchor="start" x="359" y="-18.5" font-family="Helvetica,sans-Serif" font-size="10.00">Ogre::SmallVectorTemplate</text>
<text text-anchor="middle" x="426" y="-7.5" font-family="Helvetica,sans-Serif" font-size="10.00">Base&lt; T, true &gt;</text>
</a>
</g>
</g>
<!-- Node1&#45;&gt;Node13 -->
<g id="edge12" class="edge">
<title>Node1&#45;&gt;Node13</title>
<path fill="none" stroke="midnightblue" d="M307.18,-46.88C327.31,-41.52 349.23,-35.68 368.65,-30.51"/>
<polygon fill="midnightblue" stroke="midnightblue" points="306.22,-43.51 297.46,-49.47 308.02,-50.27 306.22,-43.51"/>
</g>
<!-- Node2 -->
<g id="node2" class="node">
<title>Node2</title>
<g id="a_node2"><a xlink:href="class_ogre_1_1_small_vector_base.html" target="_top" xlink:title="SmallVectorBase &#45; This is all the non&#45;templated stuff common to all SmallVectors.">
<polygon fill="none" stroke="black" points="0,-55 0,-74 129,-74 129,-55 0,-55"/>
<text text-anchor="middle" x="64.5" y="-62" font-family="Helvetica,sans-Serif" font-size="10.00">Ogre::SmallVectorBase</text>
</a>
</g>
</g>
<!-- Node2&#45;&gt;Node1 -->
<g id="edge1" class="edge">
<title>Node2&#45;&gt;Node1</title>
<path fill="none" stroke="midnightblue" d="M139.31,-64.5C147.75,-64.5 156.36,-64.5 164.81,-64.5"/>
<polygon fill="midnightblue" stroke="midnightblue" points="139.12,-61 129.12,-64.5 139.12,-68 139.12,-61"/>
</g>
<!-- Node4 -->
<g id="node4" class="node">
<title>Node4</title>
<g id="a_node4"><a xlink:href="class_ogre_1_1_small_vector_impl.html" target="_top" xlink:title="SmallVectorImpl &#45; This class consists of common code factored out of the SmallVector class to reduce ...">
<polygon fill="none" stroke="black" points="537,-110 537,-129 692,-129 692,-110 537,-110"/>
<text text-anchor="middle" x="614.5" y="-117" font-family="Helvetica,sans-Serif" font-size="10.00">Ogre::SmallVectorImpl&lt; T &gt;</text>
</a>
</g>
</g>
<!-- Node3&#45;&gt;Node4 -->
<g id="edge3" class="edge">
<title>Node3&#45;&gt;Node4</title>
<path fill="none" stroke="midnightblue" d="M511.46,-119.5C519.89,-119.5 528.42,-119.5 536.76,-119.5"/>
<polygon fill="midnightblue" stroke="midnightblue" points="511.25,-116 501.25,-119.5 511.25,-123 511.25,-116"/>
</g>
<!-- Node5 -->
<g id="node5" class="node">
<title>Node5</title>
<g id="a_node5"><a xlink:href="class_ogre_1_1_small_vector.html" target="_top" xlink:title=" ">
<polygon fill="none" stroke="black" points="728,-172.5 728,-202.5 841,-202.5 841,-172.5 728,-172.5"/>
<text text-anchor="start" x="736" y="-190.5" font-family="Helvetica,sans-Serif" font-size="10.00">Ogre::SmallVector&lt;</text>
<text text-anchor="middle" x="784.5" y="-179.5" font-family="Helvetica,sans-Serif" font-size="10.00"> T, S &gt;</text>
</a>
</g>
</g>
<!-- Node4&#45;&gt;Node5 -->
<g id="edge4" class="edge">
<title>Node4&#45;&gt;Node5</title>
<path fill="none" stroke="midnightblue" d="M648.61,-132.9C676.74,-144.29 717.07,-160.61 746.3,-172.44"/>
<polygon fill="midnightblue" stroke="midnightblue" points="649.8,-129.61 639.21,-129.1 647.17,-136.09 649.8,-129.61"/>
</g>
<!-- Node7 -->
<g id="node7" class="node">
<title>Node7</title>
<g id="a_node7"><a xlink:href="class_ogre_1_1_small_vector.html" target="_top" xlink:title="SmallVector &#45; This is a &#39;vector&#39; (really, a variable&#45;sized array), optimized for the case when the ar...">
<polygon fill="none" stroke="black" points="728,-104.5 728,-134.5 841,-134.5 841,-104.5 728,-104.5"/>
<text text-anchor="start" x="736" y="-122.5" font-family="Helvetica,sans-Serif" font-size="10.00">Ogre::SmallVector&lt;</text>
<text text-anchor="middle" x="784.5" y="-111.5" font-family="Helvetica,sans-Serif" font-size="10.00"> T, N &gt;</text>
</a>
</g>
</g>
<!-- Node4&#45;&gt;Node7 -->
<g id="edge6" class="edge">
<title>Node4&#45;&gt;Node7</title>
<path fill="none" stroke="midnightblue" d="M702.23,-119.5C710.84,-119.5 719.41,-119.5 727.58,-119.5"/>
<polygon fill="midnightblue" stroke="midnightblue" points="702.13,-116 692.13,-119.5 702.13,-123 702.13,-116"/>
</g>
<!-- Node11 -->
<g id="node11" class="node">
<title>Node11</title>
<g id="a_node11"><a xlink:href="class_ogre_1_1_small_vector_3_01_t_00_010_01_4.html" target="_top" xlink:title="Specialize SmallVector at N=0.">
<polygon fill="none" stroke="black" points="728,-55.5 728,-85.5 841,-85.5 841,-55.5 728,-55.5"/>
<text text-anchor="start" x="736" y="-73.5" font-family="Helvetica,sans-Serif" font-size="10.00">Ogre::SmallVector&lt;</text>
<text text-anchor="middle" x="784.5" y="-62.5" font-family="Helvetica,sans-Serif" font-size="10.00"> T, 0 &gt;</text>
</a>
</g>
</g>
<!-- Node4&#45;&gt;Node11 -->
<g id="edge10" class="edge">
<title>Node4&#45;&gt;Node11</title>
<path fill="none" stroke="midnightblue" d="M657.9,-107.13C680.39,-100.57 708.21,-92.46 731.94,-85.54"/>
<polygon fill="midnightblue" stroke="midnightblue" points="656.91,-103.78 648.29,-109.94 658.87,-110.5 656.91,-103.78"/>
</g>
<!-- Node6 -->
<g id="node6" class="node">
<title>Node6</title>
<g id="a_node6"><a xlink:href="struct_ogre_1_1_vector_set.html" target="_top" xlink:title="VectorSet is basically a helper to use a vector as a small set container.">
<polygon fill="none" stroke="black" points="886,-188 886,-207 1020,-207 1020,-188 886,-188"/>
<text text-anchor="middle" x="953" y="-195" font-family="Helvetica,sans-Serif" font-size="10.00">Ogre::VectorSet&lt; T, S &gt;</text>
</a>
</g>
</g>
<!-- Node5&#45;&gt;Node6 -->
<g id="edge5" class="edge">
<title>Node5&#45;&gt;Node6</title>
<path fill="none" stroke="midnightblue" d="M851.61,-191.47C862.88,-192.15 874.59,-192.85 885.87,-193.53"/>
<polygon fill="midnightblue" stroke="midnightblue" points="851.6,-187.96 841.41,-190.86 851.18,-194.95 851.6,-187.96"/>
</g>
<!-- Node8 -->
<g id="node8" class="node">
<title>Node8</title>
<g id="a_node8"><a xlink:href="struct_ogre_1_1_vector_set.html" target="_top" xlink:title=" ">
<polygon fill="none" stroke="black" points="881.5,-138.5 881.5,-168.5 1024.5,-168.5 1024.5,-138.5 881.5,-138.5"/>
<text text-anchor="start" x="889.5" y="-156.5" font-family="Helvetica,sans-Serif" font-size="10.00">Ogre::VectorSet&lt; Triangle</text>
<text text-anchor="middle" x="953" y="-145.5" font-family="Helvetica,sans-Serif" font-size="10.00"> *, 7 &gt;</text>
</a>
</g>
</g>
<!-- Node7&#45;&gt;Node8 -->
<g id="edge7" class="edge">
<title>Node7&#45;&gt;Node8</title>
<path fill="none" stroke="midnightblue" d="M851.51,-132.98C861.35,-134.99 871.53,-137.07 881.46,-139.09"/>
<polygon fill="midnightblue" stroke="midnightblue" points="851.9,-129.49 841.41,-130.92 850.5,-136.35 851.9,-129.49"/>
</g>
<!-- Node9 -->
<g id="node9" class="node">
<title>Node9</title>
<g id="a_node9"><a xlink:href="struct_ogre_1_1_vector_set.html" target="_top" xlink:title=" ">
<polygon fill="none" stroke="black" points="877,-100 877,-119 1029,-119 1029,-100 877,-100"/>
<text text-anchor="middle" x="953" y="-107" font-family="Helvetica,sans-Serif" font-size="10.00">Ogre::VectorSet&lt; Edge, 8 &gt;</text>
</a>
</g>
</g>
<!-- Node7&#45;&gt;Node9 -->
<g id="edge8" class="edge">
<title>Node7&#45;&gt;Node9</title>
<path fill="none" stroke="midnightblue" d="M851.4,-115.54C859.72,-115.04 868.27,-114.53 876.72,-114.02"/>
<polygon fill="midnightblue" stroke="midnightblue" points="851.18,-112.05 841.41,-116.14 851.6,-119.04 851.18,-112.05"/>
</g>
<!-- Node10 -->
<g id="node10" class="node">
<title>Node10</title>
<g id="a_node10"><a xlink:href="struct_ogre_1_1_vector_set.html" target="_top" xlink:title=" ">
<polygon fill="none" stroke="black" points="890.5,-50.5 890.5,-80.5 1015.5,-80.5 1015.5,-50.5 890.5,-50.5"/>
<text text-anchor="start" x="898.5" y="-68.5" font-family="Helvetica,sans-Serif" font-size="10.00">Ogre::VectorSet&lt; Line</text>
<text text-anchor="middle" x="953" y="-57.5" font-family="Helvetica,sans-Serif" font-size="10.00"> *, 7 &gt;</text>
</a>
</g>
</g>
<!-- Node7&#45;&gt;Node10 -->
<g id="edge9" class="edge">
<title>Node7&#45;&gt;Node10</title>
<path fill="none" stroke="midnightblue" d="M841.55,-101.32C862.36,-94.57 885.72,-87 905.58,-80.55"/>
<polygon fill="midnightblue" stroke="midnightblue" points="840.31,-98.04 831.88,-104.46 842.47,-104.7 840.31,-98.04"/>
</g>
</g>
</svg>
