<?xml version="1.0" encoding="UTF-8" standalone="no"?>
<!DOCTYPE svg PUBLIC "-//W3C//DTD SVG 1.1//EN"
 "http://www.w3.org/Graphics/SVG/1.1/DTD/svg11.dtd">
<!-- Generated by graphviz version 2.43.0 (0)
 -->
<!-- Title: Graphical Class Hierarchy Pages: 1 -->
<svg width="340pt" height="294pt"
 viewBox="0.00 0.00 340.00 294.00" xmlns="http://www.w3.org/2000/svg" xmlns:xlink="http://www.w3.org/1999/xlink">
<g id="graph0" class="graph" transform="scale(1 1) rotate(0) translate(4 290)">
<title>Graphical Class Hierarchy</title>
<!-- Node0 -->
<g id="node1" class="node">
<title>Node0</title>
<g id="a_node1"><a xlink:href="struct_ogre_1_1_vector_base.html" target="_top" xlink:title="helper class to implement legacy API. Notably x, y, z access">
<polygon fill="none" stroke="black" points="0,-133.5 0,-152.5 160,-152.5 160,-133.5 0,-133.5"/>
<text text-anchor="middle" x="80" y="-140.5" font-family="Helvetica,sans-Serif" font-size="10.00">Ogre::VectorBase&lt; dims, T &gt;</text>
</a>
</g>
</g>
<!-- Node1 -->
<g id="node2" class="node">
<title>Node1</title>
<g id="a_node2"><a xlink:href="class_ogre_1_1_vector.html" target="_top" xlink:title=" ">
<polygon fill="none" stroke="black" points="197,-266.5 197,-285.5 331,-285.5 331,-266.5 197,-266.5"/>
<text text-anchor="middle" x="264" y="-273.5" font-family="Helvetica,sans-Serif" font-size="10.00">Ogre::Vector&lt; 4, Real &gt;</text>
</a>
</g>
</g>
<!-- Node0&#45;&gt;Node1 -->
<g id="edge1" class="edge">
<title>Node0&#45;&gt;Node1</title>
<path fill="none" stroke="midnightblue" d="M94.16,-160.84C113.63,-185.99 152.54,-231.62 196,-257 202.58,-260.84 209.97,-263.94 217.39,-266.44"/>
<polygon fill="midnightblue" stroke="midnightblue" points="96.72,-158.43 87.89,-152.58 91.14,-162.66 96.72,-158.43"/>
</g>
<!-- Node2 -->
<g id="node3" class="node">
<title>Node2</title>
<g id="a_node3"><a xlink:href="class_ogre_1_1_vector.html" target="_top" xlink:title=" ">
<polygon fill="none" stroke="black" points="201.5,-228.5 201.5,-247.5 326.5,-247.5 326.5,-228.5 201.5,-228.5"/>
<text text-anchor="middle" x="264" y="-235.5" font-family="Helvetica,sans-Serif" font-size="10.00">Ogre::Vector&lt; 3, int &gt;</text>
</a>
</g>
</g>
<!-- Node0&#45;&gt;Node2 -->
<g id="edge2" class="edge">
<title>Node0&#45;&gt;Node2</title>
<path fill="none" stroke="midnightblue" d="M100.62,-158.71C122.67,-175.69 160.09,-202.53 196,-219 204.02,-222.68 212.92,-225.81 221.53,-228.4"/>
<polygon fill="midnightblue" stroke="midnightblue" points="102.73,-155.92 92.69,-152.52 98.42,-161.43 102.73,-155.92"/>
</g>
<!-- Node3 -->
<g id="node4" class="node">
<title>Node3</title>
<g id="a_node4"><a xlink:href="class_ogre_1_1_vector.html" target="_top" xlink:title=" ">
<polygon fill="none" stroke="black" points="197,-190.5 197,-209.5 331,-209.5 331,-190.5 197,-190.5"/>
<text text-anchor="middle" x="264" y="-197.5" font-family="Helvetica,sans-Serif" font-size="10.00">Ogre::Vector&lt; 2, Real &gt;</text>
</a>
</g>
</g>
<!-- Node0&#45;&gt;Node3 -->
<g id="edge3" class="edge">
<title>Node0&#45;&gt;Node3</title>
<path fill="none" stroke="midnightblue" d="M118.27,-155.76C140.71,-163.34 169.91,-172.99 196,-181 206.4,-184.19 217.77,-187.49 228.14,-190.42"/>
<polygon fill="midnightblue" stroke="midnightblue" points="119.37,-152.44 108.78,-152.55 117.13,-159.07 119.37,-152.44"/>
</g>
<!-- Node4 -->
<g id="node5" class="node">
<title>Node4</title>
<g id="a_node5"><a xlink:href="class_ogre_1_1_vector.html" target="_top" xlink:title=" ">
<polygon fill="none" stroke="black" points="197,-152.5 197,-171.5 331,-171.5 331,-152.5 197,-152.5"/>
<text text-anchor="middle" x="264" y="-159.5" font-family="Helvetica,sans-Serif" font-size="10.00">Ogre::Vector&lt; 3, Real &gt;</text>
</a>
</g>
</g>
<!-- Node0&#45;&gt;Node4 -->
<g id="edge4" class="edge">
<title>Node0&#45;&gt;Node4</title>
<path fill="none" stroke="midnightblue" d="M170.15,-152.31C179.14,-153.25 188.16,-154.19 196.84,-155.09"/>
<polygon fill="midnightblue" stroke="midnightblue" points="170.34,-148.81 160.03,-151.25 169.62,-155.77 170.34,-148.81"/>
</g>
<!-- Node5 -->
<g id="node6" class="node">
<title>Node5</title>
<g id="a_node6"><a xlink:href="class_ogre_1_1_vector.html" target="_top" xlink:title=" ">
<polygon fill="none" stroke="black" points="197,-114.5 197,-133.5 331,-133.5 331,-114.5 197,-114.5"/>
<text text-anchor="middle" x="264" y="-121.5" font-family="Helvetica,sans-Serif" font-size="10.00">Ogre::Vector&lt; 4, float &gt;</text>
</a>
</g>
</g>
<!-- Node0&#45;&gt;Node5 -->
<g id="edge5" class="edge">
<title>Node0&#45;&gt;Node5</title>
<path fill="none" stroke="midnightblue" d="M170.15,-133.69C179.14,-132.75 188.16,-131.81 196.84,-130.91"/>
<polygon fill="midnightblue" stroke="midnightblue" points="169.62,-130.23 160.03,-134.75 170.34,-137.19 169.62,-130.23"/>
</g>
<!-- Node6 -->
<g id="node7" class="node">
<title>Node6</title>
<g id="a_node7"><a xlink:href="class_ogre_1_1_vector.html" target="_top" xlink:title=" ">
<polygon fill="none" stroke="black" points="197,-76.5 197,-95.5 331,-95.5 331,-76.5 197,-76.5"/>
<text text-anchor="middle" x="264" y="-83.5" font-family="Helvetica,sans-Serif" font-size="10.00">Ogre::Vector&lt; 3, float &gt;</text>
</a>
</g>
</g>
<!-- Node0&#45;&gt;Node6 -->
<g id="edge6" class="edge">
<title>Node0&#45;&gt;Node6</title>
<path fill="none" stroke="midnightblue" d="M118.27,-130.24C140.71,-122.66 169.91,-113.01 196,-105 206.4,-101.81 217.77,-98.51 228.14,-95.58"/>
<polygon fill="midnightblue" stroke="midnightblue" points="117.13,-126.93 108.78,-133.45 119.37,-133.56 117.13,-126.93"/>
</g>
<!-- Node7 -->
<g id="node8" class="node">
<title>Node7</title>
<g id="a_node8"><a xlink:href="class_ogre_1_1_vector.html" target="_top" xlink:title=" ">
<polygon fill="none" stroke="black" points="197,-38.5 197,-57.5 331,-57.5 331,-38.5 197,-38.5"/>
<text text-anchor="middle" x="264" y="-45.5" font-family="Helvetica,sans-Serif" font-size="10.00">Ogre::Vector&lt; 2, float &gt;</text>
</a>
</g>
</g>
<!-- Node0&#45;&gt;Node7 -->
<g id="edge7" class="edge">
<title>Node0&#45;&gt;Node7</title>
<path fill="none" stroke="midnightblue" d="M100.62,-127.29C122.67,-110.31 160.09,-83.47 196,-67 204.02,-63.32 212.92,-60.19 221.53,-57.6"/>
<polygon fill="midnightblue" stroke="midnightblue" points="98.42,-124.57 92.69,-133.48 102.73,-130.08 98.42,-124.57"/>
</g>
<!-- Node8 -->
<g id="node9" class="node">
<title>Node8</title>
<g id="a_node9"><a xlink:href="class_ogre_1_1_vector.html" target="_top" xlink:title="Standard N&#45;dimensional vector.">
<polygon fill="none" stroke="black" points="196,-0.5 196,-19.5 332,-19.5 332,-0.5 196,-0.5"/>
<text text-anchor="middle" x="264" y="-7.5" font-family="Helvetica,sans-Serif" font-size="10.00">Ogre::Vector&lt; dims, T &gt;</text>
</a>
</g>
</g>
<!-- Node0&#45;&gt;Node8 -->
<g id="edge8" class="edge">
<title>Node0&#45;&gt;Node8</title>
<path fill="none" stroke="midnightblue" d="M94.16,-125.16C113.63,-100.01 152.54,-54.38 196,-29 202.58,-25.16 209.97,-22.06 217.39,-19.56"/>
<polygon fill="midnightblue" stroke="midnightblue" points="91.14,-123.34 87.89,-133.42 96.72,-127.57 91.14,-123.34"/>
</g>
</g>
</svg>
