<?xml version="1.0" encoding="UTF-8" standalone="no"?>
<!DOCTYPE svg PUBLIC "-//W3C//DTD SVG 1.1//EN"
 "http://www.w3.org/Graphics/SVG/1.1/DTD/svg11.dtd">
<!-- Generated by graphviz version 2.43.0 (0)
 -->
<!-- Title: Graphical Class Hierarchy Pages: 1 -->
<svg width="872pt" height="684pt"
 viewBox="0.00 0.00 872.00 684.00" xmlns="http://www.w3.org/2000/svg" xmlns:xlink="http://www.w3.org/1999/xlink">
<g id="graph0" class="graph" transform="scale(1 1) rotate(0) translate(4 680)">
<title>Graphical Class Hierarchy</title>
<!-- Node969 -->
<g id="node1" class="node">
<title>Node969</title>
<g id="a_node1"><a xlink:title=" ">
<polygon fill="none" stroke="#bfbfbf" points="36.5,-252.5 36.5,-271.5 160.5,-271.5 160.5,-252.5 36.5,-252.5"/>
<text text-anchor="middle" x="98.5" y="-259.5" font-family="Helvetica,sans-Serif" font-size="10.00">RTShaderSystemAlloc</text>
</a>
</g>
</g>
<!-- Node0 -->
<g id="node2" class="node">
<title>Node0</title>
<g id="a_node2"><a xlink:href="class_ogre_1_1_r_t_shader_1_1_function.html" target="_top" xlink:title="A class that represents a shader based program function.">
<polygon fill="none" stroke="black" points="254,-416.5 254,-435.5 394,-435.5 394,-416.5 254,-416.5"/>
<text text-anchor="middle" x="324" y="-423.5" font-family="Helvetica,sans-Serif" font-size="10.00">Ogre::RTShader::Function</text>
</a>
</g>
</g>
<!-- Node969&#45;&gt;Node0 -->
<g id="edge1" class="edge">
<title>Node969&#45;&gt;Node0</title>
<path fill="none" stroke="midnightblue" d="M110.76,-280.27C131.06,-311.56 176.94,-375.1 233,-407 239.8,-410.87 247.3,-413.95 254.97,-416.41"/>
<polygon fill="midnightblue" stroke="midnightblue" points="113.61,-278.24 105.3,-271.67 107.7,-281.99 113.61,-278.24"/>
</g>
<!-- Node971 -->
<g id="node3" class="node">
<title>Node971</title>
<g id="a_node3"><a xlink:href="class_ogre_1_1_r_t_shader_1_1_function_atom.html" target="_top" xlink:title="A class that represents an atomic code section of shader based program function.">
<polygon fill="none" stroke="black" points="241,-492.5 241,-511.5 407,-511.5 407,-492.5 241,-492.5"/>
<text text-anchor="middle" x="324" y="-499.5" font-family="Helvetica,sans-Serif" font-size="10.00">Ogre::RTShader::FunctionAtom</text>
</a>
</g>
</g>
<!-- Node969&#45;&gt;Node971 -->
<g id="edge2" class="edge">
<title>Node969&#45;&gt;Node971</title>
<path fill="none" stroke="midnightblue" d="M109.75,-280.44C129.92,-315.56 177.64,-393.16 233,-445 254.6,-465.23 284.36,-482.44 303.64,-492.5"/>
<polygon fill="midnightblue" stroke="midnightblue" points="112.78,-278.69 104.81,-271.72 106.69,-282.14 112.78,-278.69"/>
</g>
<!-- Node977 -->
<g id="node9" class="node">
<title>Node977</title>
<g id="a_node9"><a xlink:href="class_ogre_1_1_r_t_shader_1_1_operand.html" target="_top" xlink:title="A class that represents a function operand (its the combination of a parameter the in/out semantic an...">
<polygon fill="none" stroke="black" points="254,-378.5 254,-397.5 394,-397.5 394,-378.5 254,-378.5"/>
<text text-anchor="middle" x="324" y="-385.5" font-family="Helvetica,sans-Serif" font-size="10.00">Ogre::RTShader::Operand</text>
</a>
</g>
</g>
<!-- Node969&#45;&gt;Node977 -->
<g id="edge8" class="edge">
<title>Node969&#45;&gt;Node977</title>
<path fill="none" stroke="midnightblue" d="M115.51,-279.13C138.93,-303.11 184.99,-346.29 233,-369 241.23,-372.89 250.25,-375.99 259.31,-378.46"/>
<polygon fill="midnightblue" stroke="midnightblue" points="117.91,-276.58 108.46,-271.79 112.86,-281.43 117.91,-276.58"/>
</g>
<!-- Node982 -->
<g id="node14" class="node">
<title>Node982</title>
<g id="a_node14"><a xlink:href="class_ogre_1_1_r_t_shader_1_1_parameter.html" target="_top" xlink:title="A class that represents a shader based program parameter.">
<polygon fill="none" stroke="black" points="249.5,-340.5 249.5,-359.5 398.5,-359.5 398.5,-340.5 249.5,-340.5"/>
<text text-anchor="middle" x="324" y="-347.5" font-family="Helvetica,sans-Serif" font-size="10.00">Ogre::RTShader::Parameter</text>
</a>
</g>
</g>
<!-- Node969&#45;&gt;Node982 -->
<g id="edge13" class="edge">
<title>Node969&#45;&gt;Node982</title>
<path fill="none" stroke="midnightblue" d="M123.7,-277.05C149.78,-292.65 192.95,-316.72 233,-331 243.53,-334.75 255.03,-337.88 266.18,-340.43"/>
<polygon fill="midnightblue" stroke="midnightblue" points="125.27,-273.91 114.91,-271.72 121.64,-279.9 125.27,-273.91"/>
</g>
<!-- Node985 -->
<g id="node17" class="node">
<title>Node985</title>
<g id="a_node17"><a xlink:href="class_ogre_1_1_r_t_shader_1_1_program.html" target="_top" xlink:title="A class that represents a shader based program.">
<polygon fill="none" stroke="black" points="254,-252.5 254,-271.5 394,-271.5 394,-252.5 254,-252.5"/>
<text text-anchor="middle" x="324" y="-259.5" font-family="Helvetica,sans-Serif" font-size="10.00">Ogre::RTShader::Program</text>
</a>
</g>
</g>
<!-- Node969&#45;&gt;Node985 -->
<g id="edge16" class="edge">
<title>Node969&#45;&gt;Node985</title>
<path fill="none" stroke="midnightblue" d="M170.92,-262C197.42,-262 227.41,-262 253.72,-262"/>
<polygon fill="midnightblue" stroke="midnightblue" points="170.57,-258.5 160.57,-262 170.57,-265.5 170.57,-258.5"/>
</g>
<!-- Node986 -->
<g id="node18" class="node">
<title>Node986</title>
<g id="a_node18"><a xlink:href="class_ogre_1_1_r_t_shader_1_1_program_manager.html" target="_top" xlink:title="A singleton manager class that manages shader based programs.">
<polygon fill="none" stroke="black" points="233,-580.5 233,-599.5 415,-599.5 415,-580.5 233,-580.5"/>
<text text-anchor="middle" x="324" y="-587.5" font-family="Helvetica,sans-Serif" font-size="10.00">Ogre::RTShader::ProgramManager</text>
</a>
</g>
</g>
<!-- Node969&#45;&gt;Node986 -->
<g id="edge17" class="edge">
<title>Node969&#45;&gt;Node986</title>
<path fill="none" stroke="midnightblue" d="M101.82,-281.87C109.4,-337.17 138.61,-493.81 233,-571 237.7,-574.84 242.98,-577.96 248.58,-580.49"/>
<polygon fill="midnightblue" stroke="midnightblue" points="105.26,-281.15 100.52,-271.68 98.32,-282.04 105.26,-281.15"/>
</g>
<!-- Node987 -->
<g id="node19" class="node">
<title>Node987</title>
<g id="a_node19"><a xlink:href="class_ogre_1_1_r_t_shader_1_1_program_set.html" target="_top" xlink:title="Container class for shader based programs.">
<polygon fill="none" stroke="black" points="246.5,-214.5 246.5,-233.5 401.5,-233.5 401.5,-214.5 246.5,-214.5"/>
<text text-anchor="middle" x="324" y="-221.5" font-family="Helvetica,sans-Serif" font-size="10.00">Ogre::RTShader::ProgramSet</text>
</a>
</g>
</g>
<!-- Node969&#45;&gt;Node987 -->
<g id="edge18" class="edge">
<title>Node969&#45;&gt;Node987</title>
<path fill="none" stroke="midnightblue" d="M165.82,-250.72C197.97,-245.26 236.18,-238.76 266.87,-233.54"/>
<polygon fill="midnightblue" stroke="midnightblue" points="164.88,-247.33 155.61,-252.46 166.06,-254.23 164.88,-247.33"/>
</g>
<!-- Node988 -->
<g id="node20" class="node">
<title>Node988</title>
<g id="a_node20"><a xlink:href="class_ogre_1_1_r_t_shader_1_1_program_writer.html" target="_top" xlink:title="Base class interface for shader program writers.">
<polygon fill="none" stroke="black" points="239,-126.5 239,-145.5 409,-145.5 409,-126.5 239,-126.5"/>
<text text-anchor="middle" x="324" y="-133.5" font-family="Helvetica,sans-Serif" font-size="10.00">Ogre::RTShader::ProgramWriter</text>
</a>
</g>
</g>
<!-- Node969&#45;&gt;Node988 -->
<g id="edge19" class="edge">
<title>Node969&#45;&gt;Node988</title>
<path fill="none" stroke="midnightblue" d="M115.51,-244.87C138.93,-220.89 184.99,-177.71 233,-155 241.23,-151.11 250.25,-148.01 259.31,-145.54"/>
<polygon fill="midnightblue" stroke="midnightblue" points="112.86,-242.57 108.46,-252.21 117.91,-247.42 112.86,-242.57"/>
</g>
<!-- Node989 -->
<g id="node21" class="node">
<title>Node989</title>
<g id="a_node21"><a xlink:href="class_ogre_1_1_r_t_shader_1_1_program_writer_manager.html" target="_top" xlink:title=" ">
<polygon fill="none" stroke="black" points="239,-39 239,-69 409,-69 409,-39 239,-39"/>
<text text-anchor="start" x="247" y="-57" font-family="Helvetica,sans-Serif" font-size="10.00">Ogre::RTShader::ProgramWriter</text>
<text text-anchor="middle" x="324" y="-46" font-family="Helvetica,sans-Serif" font-size="10.00">Manager</text>
</a>
</g>
</g>
<!-- Node969&#45;&gt;Node989 -->
<g id="edge20" class="edge">
<title>Node969&#45;&gt;Node989</title>
<path fill="none" stroke="midnightblue" d="M107.97,-243.04C125.64,-205.73 170.06,-122.59 233,-79 238.6,-75.12 244.78,-71.84 251.21,-69.07"/>
<polygon fill="midnightblue" stroke="midnightblue" points="104.72,-241.74 103.71,-252.28 111.08,-244.67 104.72,-241.74"/>
</g>
<!-- Node990 -->
<g id="node22" class="node">
<title>Node990</title>
<g id="a_node22"><a xlink:href="class_ogre_1_1_r_t_shader_1_1_render_state.html" target="_top" xlink:title="This is a container class for sub render state class.">
<polygon fill="none" stroke="black" points="245,-88.5 245,-107.5 403,-107.5 403,-88.5 245,-88.5"/>
<text text-anchor="middle" x="324" y="-95.5" font-family="Helvetica,sans-Serif" font-size="10.00">Ogre::RTShader::RenderState</text>
</a>
</g>
</g>
<!-- Node969&#45;&gt;Node990 -->
<g id="edge21" class="edge">
<title>Node969&#45;&gt;Node990</title>
<path fill="none" stroke="midnightblue" d="M110.76,-243.73C131.06,-212.44 176.94,-148.9 233,-117 239.8,-113.13 247.3,-110.05 254.97,-107.59"/>
<polygon fill="midnightblue" stroke="midnightblue" points="107.7,-242.01 105.3,-252.33 113.61,-245.76 107.7,-242.01"/>
</g>
<!-- Node992 -->
<g id="node24" class="node">
<title>Node992</title>
<g id="a_node24"><a xlink:href="class_ogre_1_1_r_t_shader_1_1_shader_generator.html" target="_top" xlink:title="Shader generator system main interface.">
<polygon fill="none" stroke="black" points="233.5,-0.5 233.5,-19.5 414.5,-19.5 414.5,-0.5 233.5,-0.5"/>
<text text-anchor="middle" x="324" y="-7.5" font-family="Helvetica,sans-Serif" font-size="10.00">Ogre::RTShader::ShaderGenerator</text>
</a>
</g>
</g>
<!-- Node969&#45;&gt;Node992 -->
<g id="edge23" class="edge">
<title>Node969&#45;&gt;Node992</title>
<path fill="none" stroke="midnightblue" d="M108.98,-243.51C136.08,-190.92 213.22,-43.4 233,-29 238.29,-25.15 244.2,-22.04 250.39,-19.54"/>
<polygon fill="midnightblue" stroke="midnightblue" points="105.85,-241.94 104.39,-252.43 112.08,-245.14 105.85,-241.94"/>
</g>
<!-- Node993 -->
<g id="node25" class="node">
<title>Node993</title>
<g id="a_node25"><a xlink:href="class_ogre_1_1_r_t_shader_1_1_sub_render_state.html" target="_top" xlink:title="This class is the base interface of sub part from a shader based rendering pipeline.">
<polygon fill="none" stroke="black" points="248.5,-531 248.5,-561 399.5,-561 399.5,-531 248.5,-531"/>
<text text-anchor="start" x="256.5" y="-549" font-family="Helvetica,sans-Serif" font-size="10.00">Ogre::RTShader::SubRender</text>
<text text-anchor="middle" x="324" y="-538" font-family="Helvetica,sans-Serif" font-size="10.00">State</text>
</a>
</g>
</g>
<!-- Node969&#45;&gt;Node993 -->
<g id="edge24" class="edge">
<title>Node969&#45;&gt;Node993</title>
<path fill="none" stroke="midnightblue" d="M103.86,-281.58C115.67,-329.95 152.91,-455.84 233,-521 237.78,-524.89 243.12,-528.17 248.76,-530.95"/>
<polygon fill="midnightblue" stroke="midnightblue" points="107.25,-280.7 101.56,-271.76 100.43,-282.29 107.25,-280.7"/>
</g>
<!-- Node996 -->
<g id="node28" class="node">
<title>Node996</title>
<g id="a_node28"><a xlink:href="class_ogre_1_1_r_t_shader_1_1_sub_render_state_factory.html" target="_top" xlink:title="Abstract factory interface for creating SubRenderState implementation instances.">
<polygon fill="none" stroke="black" points="248.5,-165 248.5,-195 399.5,-195 399.5,-165 248.5,-165"/>
<text text-anchor="start" x="256.5" y="-183" font-family="Helvetica,sans-Serif" font-size="10.00">Ogre::RTShader::SubRender</text>
<text text-anchor="middle" x="324" y="-172" font-family="Helvetica,sans-Serif" font-size="10.00">StateFactory</text>
</a>
</g>
</g>
<!-- Node969&#45;&gt;Node996 -->
<g id="edge27" class="edge">
<title>Node969&#45;&gt;Node996</title>
<path fill="none" stroke="midnightblue" d="M128.71,-248.2C155.46,-235.88 196.36,-217.85 233,-205 243.1,-201.46 253.97,-198.08 264.55,-195.02"/>
<polygon fill="midnightblue" stroke="midnightblue" points="127.12,-245.08 119.53,-252.46 130.07,-251.43 127.12,-245.08"/>
</g>
<!-- Node972 -->
<g id="node4" class="node">
<title>Node972</title>
<g id="a_node4"><a xlink:href="class_ogre_1_1_r_t_shader_1_1_assignment_atom.html" target="_top" xlink:title="shorthand for &quot;lhs = rhs;&quot; insted of using FFP_Assign(rhs, lhs)">
<polygon fill="none" stroke="black" points="458.5,-530.5 458.5,-549.5 640.5,-549.5 640.5,-530.5 458.5,-530.5"/>
<text text-anchor="middle" x="549.5" y="-537.5" font-family="Helvetica,sans-Serif" font-size="10.00">Ogre::RTShader::AssignmentAtom</text>
</a>
</g>
</g>
<!-- Node971&#45;&gt;Node972 -->
<g id="edge3" class="edge">
<title>Node971&#45;&gt;Node972</title>
<path fill="none" stroke="midnightblue" d="M391.32,-513.28C423.47,-518.74 461.68,-525.24 492.37,-530.46"/>
<polygon fill="midnightblue" stroke="midnightblue" points="391.56,-509.77 381.11,-511.54 390.38,-516.67 391.56,-509.77"/>
</g>
<!-- Node973 -->
<g id="node5" class="node">
<title>Node973</title>
<g id="a_node5"><a xlink:href="class_ogre_1_1_r_t_shader_1_1_binary_op_atom.html" target="_top" xlink:title="shorthand for &quot;dst = a OP b;&quot;">
<polygon fill="none" stroke="black" points="464.5,-492.5 464.5,-511.5 634.5,-511.5 634.5,-492.5 464.5,-492.5"/>
<text text-anchor="middle" x="549.5" y="-499.5" font-family="Helvetica,sans-Serif" font-size="10.00">Ogre::RTShader::BinaryOpAtom</text>
</a>
</g>
</g>
<!-- Node971&#45;&gt;Node973 -->
<g id="edge4" class="edge">
<title>Node971&#45;&gt;Node973</title>
<path fill="none" stroke="midnightblue" d="M417.37,-502C432.87,-502 448.88,-502 464.16,-502"/>
<polygon fill="midnightblue" stroke="midnightblue" points="417.27,-498.5 407.27,-502 417.27,-505.5 417.27,-498.5"/>
</g>
<!-- Node974 -->
<g id="node6" class="node">
<title>Node974</title>
<g id="a_node6"><a xlink:href="class_ogre_1_1_r_t_shader_1_1_builtin_function_atom.html" target="_top" xlink:title="shorthand for &quot;dst = BUILTIN(args);&quot;">
<polygon fill="none" stroke="black" points="451,-454.5 451,-473.5 648,-473.5 648,-454.5 451,-454.5"/>
<text text-anchor="middle" x="549.5" y="-461.5" font-family="Helvetica,sans-Serif" font-size="10.00">Ogre::RTShader::BuiltinFunctionAtom</text>
</a>
</g>
</g>
<!-- Node971&#45;&gt;Node974 -->
<g id="edge5" class="edge">
<title>Node971&#45;&gt;Node974</title>
<path fill="none" stroke="midnightblue" d="M391.32,-490.72C423.47,-485.26 461.68,-478.76 492.37,-473.54"/>
<polygon fill="midnightblue" stroke="midnightblue" points="390.38,-487.33 381.11,-492.46 391.56,-494.23 390.38,-487.33"/>
</g>
<!-- Node975 -->
<g id="node7" class="node">
<title>Node975</title>
<g id="a_node7"><a xlink:href="class_ogre_1_1_r_t_shader_1_1_function_invocation.html" target="_top" xlink:title="A class that represents function invocation code from shader based program function.">
<polygon fill="none" stroke="black" points="479.5,-607 479.5,-637 619.5,-637 619.5,-607 479.5,-607"/>
<text text-anchor="start" x="487.5" y="-625" font-family="Helvetica,sans-Serif" font-size="10.00">Ogre::RTShader::Function</text>
<text text-anchor="middle" x="549.5" y="-614" font-family="Helvetica,sans-Serif" font-size="10.00">Invocation</text>
</a>
</g>
</g>
<!-- Node971&#45;&gt;Node975 -->
<g id="edge6" class="edge">
<title>Node971&#45;&gt;Node975</title>
<path fill="none" stroke="midnightblue" d="M406.13,-516.05C409.25,-517.82 412.22,-519.79 415,-522 443.96,-544.99 422.42,-573.55 451,-597 459.24,-603.76 469.09,-608.72 479.31,-612.35"/>
<polygon fill="midnightblue" stroke="midnightblue" points="407.56,-512.85 397.04,-511.61 404.49,-519.14 407.56,-512.85"/>
</g>
<!-- Node976 -->
<g id="node8" class="node">
<title>Node976</title>
<g id="a_node8"><a xlink:href="class_ogre_1_1_r_t_shader_1_1_sample_texture_atom.html" target="_top" xlink:title="shorthand for &quot;dst = texture(sampler, uv);&quot; instead of using FFP_SampleTexture">
<polygon fill="none" stroke="black" points="451,-568.5 451,-587.5 648,-587.5 648,-568.5 451,-568.5"/>
<text text-anchor="middle" x="549.5" y="-575.5" font-family="Helvetica,sans-Serif" font-size="10.00">Ogre::RTShader::SampleTextureAtom</text>
</a>
</g>
</g>
<!-- Node971&#45;&gt;Node976 -->
<g id="edge7" class="edge">
<title>Node971&#45;&gt;Node976</title>
<path fill="none" stroke="midnightblue" d="M399.48,-514.88C404.87,-516.91 410.11,-519.27 415,-522 435.04,-533.18 430.82,-548.09 451,-559 458.21,-562.9 466.09,-566 474.16,-568.47"/>
<polygon fill="midnightblue" stroke="midnightblue" points="400.23,-511.44 389.63,-511.55 397.98,-518.07 400.23,-511.44"/>
</g>
<!-- Node978 -->
<g id="node10" class="node">
<title>Node978</title>
<g id="a_node10"><a xlink:href="struct_ogre_1_1_r_t_shader_1_1_at.html" target="_top" xlink:title="shorthand for operator[] on preceding operand. e.g. myArray[p]">
<polygon fill="none" stroke="black" points="495,-378.5 495,-397.5 604,-397.5 604,-378.5 495,-378.5"/>
<text text-anchor="middle" x="549.5" y="-385.5" font-family="Helvetica,sans-Serif" font-size="10.00">Ogre::RTShader::At</text>
</a>
</g>
</g>
<!-- Node977&#45;&gt;Node978 -->
<g id="edge9" class="edge">
<title>Node977&#45;&gt;Node978</title>
<path fill="none" stroke="midnightblue" d="M404.23,-388C434.27,-388 467.75,-388 494.89,-388"/>
<polygon fill="midnightblue" stroke="midnightblue" points="404.19,-384.5 394.19,-388 404.19,-391.5 404.19,-384.5"/>
</g>
<!-- Node979 -->
<g id="node11" class="node">
<title>Node979</title>
<g id="a_node11"><a xlink:href="struct_ogre_1_1_r_t_shader_1_1_in.html" target="_top" xlink:title=" ">
<polygon fill="none" stroke="black" points="496,-340.5 496,-359.5 603,-359.5 603,-340.5 496,-340.5"/>
<text text-anchor="middle" x="549.5" y="-347.5" font-family="Helvetica,sans-Serif" font-size="10.00">Ogre::RTShader::In</text>
</a>
</g>
</g>
<!-- Node977&#45;&gt;Node979 -->
<g id="edge10" class="edge">
<title>Node977&#45;&gt;Node979</title>
<path fill="none" stroke="midnightblue" d="M391.25,-376.74C424.63,-371.06 464.56,-364.27 495.83,-358.96"/>
<polygon fill="midnightblue" stroke="midnightblue" points="390.38,-373.33 381.11,-378.46 391.56,-380.23 390.38,-373.33"/>
</g>
<!-- Node980 -->
<g id="node12" class="node">
<title>Node980</title>
<g id="a_node12"><a xlink:href="struct_ogre_1_1_r_t_shader_1_1_in_out.html" target="_top" xlink:title=" ">
<polygon fill="none" stroke="black" points="487,-302.5 487,-321.5 612,-321.5 612,-302.5 487,-302.5"/>
<text text-anchor="middle" x="549.5" y="-309.5" font-family="Helvetica,sans-Serif" font-size="10.00">Ogre::RTShader::InOut</text>
</a>
</g>
</g>
<!-- Node977&#45;&gt;Node980 -->
<g id="edge11" class="edge">
<title>Node977&#45;&gt;Node980</title>
<path fill="none" stroke="midnightblue" d="M401.95,-375.14C406.48,-373.35 410.86,-371.32 415,-369 435.3,-357.64 430.61,-342.2 451,-331 461.96,-324.98 474.53,-320.84 486.92,-318.01"/>
<polygon fill="midnightblue" stroke="midnightblue" points="400.77,-371.84 392.51,-378.47 403.1,-378.44 400.77,-371.84"/>
</g>
<!-- Node981 -->
<g id="node13" class="node">
<title>Node981</title>
<g id="a_node13"><a xlink:href="struct_ogre_1_1_r_t_shader_1_1_out.html" target="_top" xlink:title=" ">
<polygon fill="none" stroke="black" points="491.5,-416.5 491.5,-435.5 607.5,-435.5 607.5,-416.5 491.5,-416.5"/>
<text text-anchor="middle" x="549.5" y="-423.5" font-family="Helvetica,sans-Serif" font-size="10.00">Ogre::RTShader::Out</text>
</a>
</g>
</g>
<!-- Node977&#45;&gt;Node981 -->
<g id="edge12" class="edge">
<title>Node977&#45;&gt;Node981</title>
<path fill="none" stroke="midnightblue" d="M391.32,-399.28C423.47,-404.74 461.68,-411.24 492.37,-416.46"/>
<polygon fill="midnightblue" stroke="midnightblue" points="391.56,-395.77 381.11,-397.54 390.38,-402.67 391.56,-395.77"/>
</g>
<!-- Node983 -->
<g id="node15" class="node">
<title>Node983</title>
<g id="a_node15"><a xlink:href="class_ogre_1_1_r_t_shader_1_1_const_parameter.html" target="_top" xlink:title="Helper template which is the base for our ConstParameters.">
<polygon fill="none" stroke="black" points="461,-253 461,-283 638,-283 638,-253 461,-253"/>
<text text-anchor="start" x="469" y="-271" font-family="Helvetica,sans-Serif" font-size="10.00">Ogre::RTShader::ConstParameter</text>
<text text-anchor="middle" x="549.5" y="-260" font-family="Helvetica,sans-Serif" font-size="10.00">&lt; valueType &gt;</text>
</a>
</g>
</g>
<!-- Node982&#45;&gt;Node983 -->
<g id="edge14" class="edge">
<title>Node982&#45;&gt;Node983</title>
<path fill="none" stroke="midnightblue" d="M401.95,-337.14C406.48,-335.35 410.86,-333.32 415,-331 435.3,-319.64 430.95,-304.8 451,-293 457.63,-289.1 464.86,-285.8 472.29,-283.02"/>
<polygon fill="midnightblue" stroke="midnightblue" points="400.77,-333.84 392.51,-340.47 403.1,-340.44 400.77,-333.84"/>
</g>
<!-- Node984 -->
<g id="node16" class="node">
<title>Node984</title>
<g id="a_node16"><a xlink:href="class_ogre_1_1_r_t_shader_1_1_uniform_parameter.html" target="_top" xlink:title="Uniform parameter class.">
<polygon fill="none" stroke="black" points="455,-214.5 455,-233.5 644,-233.5 644,-214.5 455,-214.5"/>
<text text-anchor="middle" x="549.5" y="-221.5" font-family="Helvetica,sans-Serif" font-size="10.00">Ogre::RTShader::UniformParameter</text>
</a>
</g>
</g>
<!-- Node982&#45;&gt;Node984 -->
<g id="edge15" class="edge">
<title>Node982&#45;&gt;Node984</title>
<path fill="none" stroke="midnightblue" d="M407.69,-336.22C410.25,-334.65 412.7,-332.91 415,-331 447.19,-304.26 418.74,-270.65 451,-244 456.06,-239.82 461.77,-236.44 467.82,-233.71"/>
<polygon fill="midnightblue" stroke="midnightblue" points="405.85,-333.23 398.6,-340.96 409.09,-339.44 405.85,-333.23"/>
</g>
<!-- Node991 -->
<g id="node23" class="node">
<title>Node991</title>
<g id="a_node23"><a xlink:href="class_ogre_1_1_r_t_shader_1_1_target_render_state.html" target="_top" xlink:title="This is the target render state.">
<polygon fill="none" stroke="black" points="468,-83 468,-113 631,-113 631,-83 468,-83"/>
<text text-anchor="start" x="476" y="-101" font-family="Helvetica,sans-Serif" font-size="10.00">Ogre::RTShader::TargetRender</text>
<text text-anchor="middle" x="549.5" y="-90" font-family="Helvetica,sans-Serif" font-size="10.00">State</text>
</a>
</g>
</g>
<!-- Node990&#45;&gt;Node991 -->
<g id="edge22" class="edge">
<title>Node990&#45;&gt;Node991</title>
<path fill="none" stroke="midnightblue" d="M413.33,-98C431.27,-98 450.06,-98 467.72,-98"/>
<polygon fill="midnightblue" stroke="midnightblue" points="413.17,-94.5 403.17,-98 413.17,-101.5 413.17,-94.5"/>
</g>
<!-- Node994 -->
<g id="node26" class="node">
<title>Node994</title>
<g id="a_node26"><a xlink:href="class_ogre_1_1_r_t_shader_1_1_f_f_p_texturing.html" target="_top" xlink:title="Texturing sub render state implementation of the Fixed Function Pipeline.">
<polygon fill="none" stroke="black" points="469,-656.5 469,-675.5 630,-675.5 630,-656.5 469,-656.5"/>
<text text-anchor="middle" x="549.5" y="-663.5" font-family="Helvetica,sans-Serif" font-size="10.00">Ogre::RTShader::FFPTexturing</text>
</a>
</g>
</g>
<!-- Node993&#45;&gt;Node994 -->
<g id="edge25" class="edge">
<title>Node993&#45;&gt;Node994</title>
<path fill="none" stroke="midnightblue" d="M408.68,-566.26C410.88,-567.73 412.99,-569.31 415,-571 443.59,-595.07 421.48,-624.07 451,-647 456.31,-651.13 462.27,-654.44 468.55,-657.08"/>
<polygon fill="midnightblue" stroke="midnightblue" points="410.23,-563.11 399.83,-561.1 406.7,-569.16 410.23,-563.11"/>
</g>
<!-- Node995 -->
<g id="node27" class="node">
<title>Node995</title>
<g id="a_node27"><a xlink:href="class_ogre_1_1_r_t_shader_1_1_layered_blending.html" target="_top" xlink:title=" ">
<polygon fill="none" stroke="black" points="684,-656.5 684,-675.5 864,-675.5 864,-656.5 684,-656.5"/>
<text text-anchor="middle" x="774" y="-663.5" font-family="Helvetica,sans-Serif" font-size="10.00">Ogre::RTShader::LayeredBlending</text>
</a>
</g>
</g>
<!-- Node994&#45;&gt;Node995 -->
<g id="edge26" class="edge">
<title>Node994&#45;&gt;Node995</title>
<path fill="none" stroke="midnightblue" d="M640.47,-666C654.71,-666 669.43,-666 683.66,-666"/>
<polygon fill="midnightblue" stroke="midnightblue" points="640.2,-662.5 630.2,-666 640.2,-669.5 640.2,-662.5"/>
</g>
<!-- Node997 -->
<g id="node29" class="node">
<title>Node997</title>
<g id="a_node29"><a xlink:href="class_ogre_1_1_r_t_shader_1_1_hardware_skinning_factory.html" target="_top" xlink:title="A factory that enables creation of HardwareSkinning instances.">
<polygon fill="none" stroke="black" points="476.5,-165 476.5,-195 622.5,-195 622.5,-165 476.5,-165"/>
<text text-anchor="start" x="484.5" y="-183" font-family="Helvetica,sans-Serif" font-size="10.00">Ogre::RTShader::Hardware</text>
<text text-anchor="middle" x="549.5" y="-172" font-family="Helvetica,sans-Serif" font-size="10.00">SkinningFactory</text>
</a>
</g>
</g>
<!-- Node996&#45;&gt;Node997 -->
<g id="edge28" class="edge">
<title>Node996&#45;&gt;Node997</title>
<path fill="none" stroke="midnightblue" d="M410.02,-180C431.94,-180 455.31,-180 476.49,-180"/>
<polygon fill="midnightblue" stroke="midnightblue" points="409.73,-176.5 399.73,-180 409.73,-183.5 409.73,-176.5"/>
</g>
<!-- Node1063 -->
<g id="node30" class="node">
<title>Node1063</title>
<g id="a_node30"><a xlink:href="class_ogre_1_1_singleton.html" target="_top" xlink:title=" ">
<polygon fill="none" stroke="black" points="249,-291 249,-321 399,-321 399,-291 249,-291"/>
<text text-anchor="start" x="257" y="-309" font-family="Helvetica,sans-Serif" font-size="10.00">Ogre::Singleton&lt; Hardware</text>
<text text-anchor="middle" x="324" y="-298" font-family="Helvetica,sans-Serif" font-size="10.00">SkinningFactory &gt;</text>
</a>
</g>
</g>
<!-- Node1063&#45;&gt;Node997 -->
<g id="edge29" class="edge">
<title>Node1063&#45;&gt;Node997</title>
<path fill="none" stroke="midnightblue" d="M408.5,-285.86C410.76,-284.35 412.94,-282.74 415,-281 443.59,-256.93 422.17,-228.78 451,-205 458.41,-198.88 467.14,-194.24 476.28,-190.72"/>
<polygon fill="midnightblue" stroke="midnightblue" points="406.29,-283.09 399.38,-291.12 409.79,-289.15 406.29,-283.09"/>
</g>
<!-- Node1076 -->
<g id="node31" class="node">
<title>Node1076</title>
<g id="a_node31"><a xlink:href="class_ogre_1_1_singleton.html" target="_top" xlink:title=" ">
<polygon fill="none" stroke="black" points="26.5,-575 26.5,-605 170.5,-605 170.5,-575 26.5,-575"/>
<text text-anchor="start" x="34.5" y="-593" font-family="Helvetica,sans-Serif" font-size="10.00">Ogre::Singleton&lt; Program</text>
<text text-anchor="middle" x="98.5" y="-582" font-family="Helvetica,sans-Serif" font-size="10.00">Manager &gt;</text>
</a>
</g>
</g>
<!-- Node1076&#45;&gt;Node986 -->
<g id="edge30" class="edge">
<title>Node1076&#45;&gt;Node986</title>
<path fill="none" stroke="midnightblue" d="M180.9,-590C197.8,-590 215.69,-590 232.88,-590"/>
<polygon fill="midnightblue" stroke="midnightblue" points="180.52,-586.5 170.52,-590 180.52,-593.5 180.52,-586.5"/>
</g>
<!-- Node1077 -->
<g id="node32" class="node">
<title>Node1077</title>
<g id="a_node32"><a xlink:href="class_ogre_1_1_singleton.html" target="_top" xlink:title=" ">
<polygon fill="none" stroke="black" points="26.5,-39 26.5,-69 170.5,-69 170.5,-39 26.5,-39"/>
<text text-anchor="start" x="34.5" y="-57" font-family="Helvetica,sans-Serif" font-size="10.00">Ogre::Singleton&lt; Program</text>
<text text-anchor="middle" x="98.5" y="-46" font-family="Helvetica,sans-Serif" font-size="10.00">WriterManager &gt;</text>
</a>
</g>
</g>
<!-- Node1077&#45;&gt;Node989 -->
<g id="edge31" class="edge">
<title>Node1077&#45;&gt;Node989</title>
<path fill="none" stroke="midnightblue" d="M180.61,-54C199.56,-54 219.79,-54 238.88,-54"/>
<polygon fill="midnightblue" stroke="midnightblue" points="180.52,-50.5 170.52,-54 180.52,-57.5 180.52,-50.5"/>
</g>
<!-- Node1086 -->
<g id="node33" class="node">
<title>Node1086</title>
<g id="a_node33"><a xlink:href="class_ogre_1_1_singleton.html" target="_top" xlink:title=" ">
<polygon fill="none" stroke="black" points="0,-0.5 0,-19.5 197,-19.5 197,-0.5 0,-0.5"/>
<text text-anchor="middle" x="98.5" y="-7.5" font-family="Helvetica,sans-Serif" font-size="10.00">Ogre::Singleton&lt; ShaderGenerator &gt;</text>
</a>
</g>
</g>
<!-- Node1086&#45;&gt;Node992 -->
<g id="edge32" class="edge">
<title>Node1086&#45;&gt;Node992</title>
<path fill="none" stroke="midnightblue" d="M207.35,-10C216.02,-10 224.72,-10 233.24,-10"/>
<polygon fill="midnightblue" stroke="midnightblue" points="207.21,-6.5 197.21,-10 207.21,-13.5 207.21,-6.5"/>
</g>
</g>
</svg>
