<?xml version="1.0" encoding="UTF-8" standalone="no"?>
<!DOCTYPE svg PUBLIC "-//W3C//DTD SVG 1.1//EN"
 "http://www.w3.org/Graphics/SVG/1.1/DTD/svg11.dtd">
<!-- Generated by graphviz version 2.43.0 (0)
 -->
<!-- Title: Graphical Class Hierarchy Pages: 1 -->
<svg width="565pt" height="127pt"
 viewBox="0.00 0.00 565.00 126.50" xmlns="http://www.w3.org/2000/svg" xmlns:xlink="http://www.w3.org/1999/xlink">
<g id="graph0" class="graph" transform="scale(1 1) rotate(0) translate(4 122.5)">
<title>Graphical Class Hierarchy</title>
<!-- Node0 -->
<g id="node1" class="node">
<title>Node0</title>
<g id="a_node1"><a xlink:href="class_ogre_1_1_render_to_vertex_buffer.html" target="_top" xlink:title="An object which renders geometry to a vertex.">
<polygon fill="none" stroke="black" points="0,-68.5 0,-87.5 153,-87.5 153,-68.5 0,-68.5"/>
<text text-anchor="middle" x="76.5" y="-75.5" font-family="Helvetica,sans-Serif" font-size="10.00">Ogre::RenderToVertexBuffer</text>
</a>
</g>
</g>
<!-- Node1 -->
<g id="node2" class="node">
<title>Node1</title>
<g id="a_node2"><a xlink:href="class_ogre_1_1_d3_d11_render_to_vertex_buffer.html" target="_top" xlink:title=" ">
<polygon fill="none" stroke="black" points="194,-88 194,-118 350,-118 350,-88 194,-88"/>
<text text-anchor="start" x="202" y="-106" font-family="Helvetica,sans-Serif" font-size="10.00">Ogre::D3D11RenderToVertex</text>
<text text-anchor="middle" x="272" y="-95" font-family="Helvetica,sans-Serif" font-size="10.00">Buffer</text>
</a>
</g>
</g>
<!-- Node0&#45;&gt;Node1 -->
<g id="edge1" class="edge">
<title>Node0&#45;&gt;Node1</title>
<path fill="none" stroke="midnightblue" d="M161.14,-88.81C172.04,-90.21 183.17,-91.65 193.96,-93.05"/>
<polygon fill="midnightblue" stroke="midnightblue" points="161.57,-85.33 151.21,-87.52 160.68,-92.28 161.57,-85.33"/>
</g>
<!-- Node2 -->
<g id="node3" class="node">
<title>Node2</title>
<g id="a_node3"><a xlink:href="class_ogre_1_1_g_l_render_to_vertex_buffer_common.html" target="_top" xlink:title=" ">
<polygon fill="none" stroke="black" points="189,-39 189,-69 355,-69 355,-39 189,-39"/>
<text text-anchor="start" x="197" y="-57" font-family="Helvetica,sans-Serif" font-size="10.00">Ogre::GLRenderToVertexBuffer</text>
<text text-anchor="middle" x="272" y="-46" font-family="Helvetica,sans-Serif" font-size="10.00">Common</text>
</a>
</g>
</g>
<!-- Node0&#45;&gt;Node2 -->
<g id="edge2" class="edge">
<title>Node0&#45;&gt;Node2</title>
<path fill="none" stroke="midnightblue" d="M163.35,-67.35C171.77,-66.31 180.3,-65.25 188.69,-64.21"/>
<polygon fill="midnightblue" stroke="midnightblue" points="162.64,-63.91 153.14,-68.62 163.5,-70.86 162.64,-63.91"/>
</g>
<!-- Node3 -->
<g id="node4" class="node">
<title>Node3</title>
<g id="a_node4"><a xlink:href="class_ogre_1_1_g_l3_plus_render_to_vertex_buffer.html" target="_top" xlink:title=" ">
<polygon fill="none" stroke="black" points="393,-88 393,-118 555,-118 555,-88 393,-88"/>
<text text-anchor="start" x="401" y="-106" font-family="Helvetica,sans-Serif" font-size="10.00">Ogre::GL3PlusRenderToVertex</text>
<text text-anchor="middle" x="474" y="-95" font-family="Helvetica,sans-Serif" font-size="10.00">Buffer</text>
</a>
</g>
</g>
<!-- Node2&#45;&gt;Node3 -->
<g id="edge3" class="edge">
<title>Node2&#45;&gt;Node3</title>
<path fill="none" stroke="midnightblue" d="M344.33,-71.48C366.38,-76.88 390.45,-82.78 411.75,-87.99"/>
<polygon fill="midnightblue" stroke="midnightblue" points="344.91,-68.01 334.37,-69.03 343.25,-74.81 344.91,-68.01"/>
</g>
<!-- Node4 -->
<g id="node5" class="node">
<title>Node4</title>
<g id="a_node5"><a xlink:href="class_ogre_1_1_g_l_e_s2_render_to_vertex_buffer.html" target="_top" xlink:title=" ">
<polygon fill="none" stroke="black" points="397,-39 397,-69 551,-69 551,-39 397,-39"/>
<text text-anchor="start" x="405" y="-57" font-family="Helvetica,sans-Serif" font-size="10.00">Ogre::GLES2RenderToVertex</text>
<text text-anchor="middle" x="474" y="-46" font-family="Helvetica,sans-Serif" font-size="10.00">Buffer</text>
</a>
</g>
</g>
<!-- Node2&#45;&gt;Node4 -->
<g id="edge4" class="edge">
<title>Node2&#45;&gt;Node4</title>
<path fill="none" stroke="midnightblue" d="M365.3,-54C375.87,-54 386.56,-54 396.89,-54"/>
<polygon fill="midnightblue" stroke="midnightblue" points="365.21,-50.5 355.21,-54 365.21,-57.5 365.21,-50.5"/>
</g>
<!-- Node5 -->
<g id="node6" class="node">
<title>Node5</title>
<g id="a_node6"><a xlink:href="class_ogre_1_1_g_l_render_to_vertex_buffer.html" target="_top" xlink:title=" ">
<polygon fill="none" stroke="black" points="391,-0.5 391,-19.5 557,-19.5 557,-0.5 391,-0.5"/>
<text text-anchor="middle" x="474" y="-7.5" font-family="Helvetica,sans-Serif" font-size="10.00">Ogre::GLRenderToVertexBuffer</text>
</a>
</g>
</g>
<!-- Node2&#45;&gt;Node5 -->
<g id="edge5" class="edge">
<title>Node2&#45;&gt;Node5</title>
<path fill="none" stroke="midnightblue" d="M351.37,-36.76C378.04,-30.89 406.87,-24.55 429.76,-19.51"/>
<polygon fill="midnightblue" stroke="midnightblue" points="350.28,-33.41 341.27,-38.98 351.79,-40.25 350.28,-33.41"/>
</g>
</g>
</svg>
