<?xml version="1.0" encoding="UTF-8" standalone="no"?>
<!DOCTYPE svg PUBLIC "-//W3C//DTD SVG 1.1//EN"
 "http://www.w3.org/Graphics/SVG/1.1/DTD/svg11.dtd">
<!-- Generated by graphviz version 2.43.0 (0)
 -->
<!-- Title: Graphical Class Hierarchy Pages: 1 -->
<svg width="301pt" height="1232pt"
 viewBox="0.00 0.00 301.00 1231.50" xmlns="http://www.w3.org/2000/svg" xmlns:xlink="http://www.w3.org/1999/xlink">
<g id="graph0" class="graph" transform="scale(1 1) rotate(0) translate(4 1227.5)">
<title>Graphical Class Hierarchy</title>
<!-- Node1174 -->
<g id="node1" class="node">
<title>Node1174</title>
<g id="a_node1"><a xlink:title=" ">
<polygon fill="none" stroke="#bfbfbf" points="0,-590.5 0,-609.5 68,-609.5 68,-590.5 0,-590.5"/>
<text text-anchor="middle" x="34" y="-597.5" font-family="Helvetica,sans-Serif" font-size="10.00">shared_ptr</text>
</a>
</g>
</g>
<!-- Node0 -->
<g id="node2" class="node">
<title>Node0</title>
<g id="a_node2"><a xlink:href="class_ogre_1_1_shared_ptr.html" target="_top" xlink:title=" ">
<polygon fill="none" stroke="black" points="129,-1193 129,-1223 268,-1223 268,-1193 129,-1193"/>
<text text-anchor="start" x="137" y="-1211" font-family="Helvetica,sans-Serif" font-size="10.00">Ogre::SharedPtr&lt; Ogre</text>
<text text-anchor="middle" x="198.5" y="-1200" font-family="Helvetica,sans-Serif" font-size="10.00">::D3D11VideoModeList &gt;</text>
</a>
</g>
</g>
<!-- Node1174&#45;&gt;Node0 -->
<g id="edge1" class="edge">
<title>Node1174&#45;&gt;Node0</title>
<path fill="none" stroke="midnightblue" d="M36.05,-619.96C41.32,-717.31 66.25,-1139.41 104,-1183 110.6,-1190.62 119.24,-1196.04 128.61,-1199.88"/>
<polygon fill="midnightblue" stroke="midnightblue" points="39.53,-619.54 35.5,-609.74 32.54,-619.92 39.53,-619.54"/>
</g>
<!-- Node1176 -->
<g id="node3" class="node">
<title>Node1176</title>
<g id="a_node3"><a xlink:href="class_ogre_1_1_shared_ptr.html" target="_top" xlink:title=" ">
<polygon fill="none" stroke="black" points="118.5,-1154.5 118.5,-1173.5 278.5,-1173.5 278.5,-1154.5 118.5,-1154.5"/>
<text text-anchor="middle" x="198.5" y="-1161.5" font-family="Helvetica,sans-Serif" font-size="10.00">Ogre::SharedPtr&lt; BspLevel &gt;</text>
</a>
</g>
</g>
<!-- Node1174&#45;&gt;Node1176 -->
<g id="edge2" class="edge">
<title>Node1174&#45;&gt;Node1176</title>
<path fill="none" stroke="midnightblue" d="M34.56,-619.81C33,-708.34 31.35,-1066.73 104,-1145 108.17,-1149.49 113.09,-1153.08 118.45,-1155.94"/>
<polygon fill="midnightblue" stroke="midnightblue" points="38.06,-619.64 34.76,-609.57 31.06,-619.5 38.06,-619.64"/>
</g>
<!-- Node1177 -->
<g id="node4" class="node">
<title>Node1177</title>
<g id="a_node4"><a xlink:href="class_ogre_1_1_shared_ptr.html" target="_top" xlink:title=" ">
<polygon fill="none" stroke="black" points="134.5,-1094.5 134.5,-1135.5 262.5,-1135.5 262.5,-1094.5 134.5,-1094.5"/>
<text text-anchor="start" x="142.5" y="-1123.5" font-family="Helvetica,sans-Serif" font-size="10.00">Ogre::SharedPtr&lt; Ogre</text>
<text text-anchor="start" x="142.5" y="-1112.5" font-family="Helvetica,sans-Serif" font-size="10.00">::ControllerFunction</text>
<text text-anchor="middle" x="198.5" y="-1101.5" font-family="Helvetica,sans-Serif" font-size="10.00">&lt; T &gt; &gt;</text>
</a>
</g>
</g>
<!-- Node1174&#45;&gt;Node1177 -->
<g id="edge3" class="edge">
<title>Node1174&#45;&gt;Node1177</title>
<path fill="none" stroke="midnightblue" d="M35.11,-620.02C35.97,-702.23 43.23,-1012.97 104,-1085 111.92,-1094.38 122.77,-1100.86 134.29,-1105.32"/>
<polygon fill="midnightblue" stroke="midnightblue" points="38.61,-619.57 35.03,-609.6 31.61,-619.63 38.61,-619.57"/>
</g>
<!-- Node1178 -->
<g id="node5" class="node">
<title>Node1178</title>
<g id="a_node5"><a xlink:href="class_ogre_1_1_shared_ptr.html" target="_top" xlink:title=" ">
<polygon fill="none" stroke="black" points="126,-1045 126,-1075 271,-1075 271,-1045 126,-1045"/>
<text text-anchor="start" x="134" y="-1063" font-family="Helvetica,sans-Serif" font-size="10.00">Ogre::SharedPtr&lt; Abstract</text>
<text text-anchor="middle" x="198.5" y="-1052" font-family="Helvetica,sans-Serif" font-size="10.00">NodeList &gt;</text>
</a>
</g>
</g>
<!-- Node1174&#45;&gt;Node1178 -->
<g id="edge4" class="edge">
<title>Node1174&#45;&gt;Node1178</title>
<path fill="none" stroke="midnightblue" d="M35.35,-620.04C37.11,-697.17 47.34,-973.73 104,-1036 109.98,-1042.57 117.49,-1047.45 125.64,-1051.05"/>
<polygon fill="midnightblue" stroke="midnightblue" points="38.84,-619.72 35.14,-609.79 31.85,-619.86 38.84,-619.72"/>
</g>
<!-- Node1179 -->
<g id="node6" class="node">
<title>Node1179</title>
<g id="a_node6"><a xlink:href="class_ogre_1_1_shared_ptr.html" target="_top" xlink:title=" ">
<polygon fill="none" stroke="black" points="114.5,-996 114.5,-1026 282.5,-1026 282.5,-996 114.5,-996"/>
<text text-anchor="start" x="122.5" y="-1014" font-family="Helvetica,sans-Serif" font-size="10.00">Ogre::SharedPtr&lt; MemoryData</text>
<text text-anchor="middle" x="198.5" y="-1003" font-family="Helvetica,sans-Serif" font-size="10.00">Stream &gt;</text>
</a>
</g>
</g>
<!-- Node1174&#45;&gt;Node1179 -->
<g id="edge5" class="edge">
<title>Node1174&#45;&gt;Node1179</title>
<path fill="none" stroke="midnightblue" d="M35.82,-619.97C39.14,-691.2 53.93,-931.52 104,-986 107.52,-989.84 111.57,-993.11 115.95,-995.9"/>
<polygon fill="midnightblue" stroke="midnightblue" points="39.3,-619.54 35.37,-609.7 32.31,-619.85 39.3,-619.54"/>
</g>
<!-- Node1180 -->
<g id="node7" class="node">
<title>Node1180</title>
<g id="a_node7"><a xlink:href="class_ogre_1_1_shared_ptr.html" target="_top" xlink:title=" ">
<polygon fill="none" stroke="black" points="111.5,-957.5 111.5,-976.5 285.5,-976.5 285.5,-957.5 111.5,-957.5"/>
<text text-anchor="middle" x="198.5" y="-964.5" font-family="Helvetica,sans-Serif" font-size="10.00">Ogre::SharedPtr&lt; DataStream &gt;</text>
</a>
</g>
</g>
<!-- Node1174&#45;&gt;Node1180 -->
<g id="edge6" class="edge">
<title>Node1174&#45;&gt;Node1180</title>
<path fill="none" stroke="midnightblue" d="M36.12,-619.81C40.29,-686.45 57.18,-900.95 104,-948 107.74,-951.76 112,-954.87 116.61,-957.45"/>
<polygon fill="midnightblue" stroke="midnightblue" points="39.61,-619.57 35.52,-609.79 32.62,-619.98 39.61,-619.57"/>
</g>
<!-- Node1181 -->
<g id="node8" class="node">
<title>Node1181</title>
<g id="a_node8"><a xlink:href="class_ogre_1_1_shared_ptr.html" target="_top" xlink:title=" ">
<polygon fill="none" stroke="black" points="104,-908 104,-938 293,-938 293,-908 104,-908"/>
<text text-anchor="start" x="112" y="-926" font-family="Helvetica,sans-Serif" font-size="10.00">Ogre::SharedPtr&lt; Ogre</text>
<text text-anchor="middle" x="198.5" y="-915" font-family="Helvetica,sans-Serif" font-size="10.00">::GLStateCacheManagerCommon &gt;</text>
</a>
</g>
</g>
<!-- Node1174&#45;&gt;Node1181 -->
<g id="edge7" class="edge">
<title>Node1174&#45;&gt;Node1181</title>
<path fill="none" stroke="midnightblue" d="M36.89,-619.61C43.06,-679.52 64.5,-858.52 104,-899 107.28,-902.36 110.96,-905.27 114.91,-907.79"/>
<polygon fill="midnightblue" stroke="midnightblue" points="40.37,-619.18 35.89,-609.58 33.4,-619.88 40.37,-619.18"/>
</g>
<!-- Node1182 -->
<g id="node9" class="node">
<title>Node1182</title>
<g id="a_node9"><a xlink:href="class_ogre_1_1_shared_ptr.html" target="_top" xlink:title=" ">
<polygon fill="none" stroke="black" points="123,-859 123,-889 274,-889 274,-859 123,-859"/>
<text text-anchor="start" x="131" y="-877" font-family="Helvetica,sans-Serif" font-size="10.00">Ogre::SharedPtr&lt; Animable</text>
<text text-anchor="middle" x="198.5" y="-866" font-family="Helvetica,sans-Serif" font-size="10.00">Value &gt;</text>
</a>
</g>
</g>
<!-- Node1174&#45;&gt;Node1182 -->
<g id="edge8" class="edge">
<title>Node1174&#45;&gt;Node1182</title>
<path fill="none" stroke="midnightblue" d="M34.26,-619.63C33.62,-666.54 38.86,-786.02 104,-850 109.38,-855.28 115.76,-859.45 122.62,-862.73"/>
<polygon fill="midnightblue" stroke="midnightblue" points="37.76,-619.66 34.51,-609.57 30.76,-619.48 37.76,-619.66"/>
</g>
<!-- Node1183 -->
<g id="node10" class="node">
<title>Node1183</title>
<g id="a_node10"><a xlink:href="class_ogre_1_1_shared_ptr.html" target="_top" xlink:title=" ">
<polygon fill="none" stroke="black" points="122.5,-810 122.5,-840 274.5,-840 274.5,-810 122.5,-810"/>
<text text-anchor="start" x="130.5" y="-828" font-family="Helvetica,sans-Serif" font-size="10.00">Ogre::SharedPtr&lt; Hardware</text>
<text text-anchor="middle" x="198.5" y="-817" font-family="Helvetica,sans-Serif" font-size="10.00">VertexBuffer &gt;</text>
</a>
</g>
</g>
<!-- Node1174&#45;&gt;Node1183 -->
<g id="edge9" class="edge">
<title>Node1174&#45;&gt;Node1183</title>
<path fill="none" stroke="midnightblue" d="M35.91,-619.66C38.85,-659.67 51.29,-750.91 104,-800 109.41,-805.04 115.72,-809.08 122.47,-812.33"/>
<polygon fill="midnightblue" stroke="midnightblue" points="39.4,-619.37 35.3,-609.6 32.41,-619.8 39.4,-619.37"/>
</g>
<!-- Node1184 -->
<g id="node11" class="node">
<title>Node1184</title>
<g id="a_node11"><a xlink:href="class_ogre_1_1_shared_ptr.html" target="_top" xlink:title=" ">
<polygon fill="none" stroke="black" points="110.5,-771.5 110.5,-790.5 286.5,-790.5 286.5,-771.5 110.5,-771.5"/>
<text text-anchor="middle" x="198.5" y="-778.5" font-family="Helvetica,sans-Serif" font-size="10.00">Ogre::SharedPtr&lt; GpuProgram &gt;</text>
</a>
</g>
</g>
<!-- Node1174&#45;&gt;Node1184 -->
<g id="edge10" class="edge">
<title>Node1174&#45;&gt;Node1184</title>
<path fill="none" stroke="midnightblue" d="M37.53,-620.16C43.01,-654.83 59.31,-725.54 104,-762 108.62,-765.77 113.79,-768.85 119.26,-771.37"/>
<polygon fill="midnightblue" stroke="midnightblue" points="40.94,-619.29 36.06,-609.88 34.02,-620.28 40.94,-619.29"/>
</g>
<!-- Node1185 -->
<g id="node12" class="node">
<title>Node1185</title>
<g id="a_node12"><a xlink:href="class_ogre_1_1_shared_ptr.html" target="_top" xlink:title=" ">
<polygon fill="none" stroke="black" points="122.5,-722 122.5,-752 274.5,-752 274.5,-722 122.5,-722"/>
<text text-anchor="start" x="130.5" y="-740" font-family="Helvetica,sans-Serif" font-size="10.00">Ogre::SharedPtr&lt; Controller</text>
<text text-anchor="middle" x="198.5" y="-729" font-family="Helvetica,sans-Serif" font-size="10.00">Value&lt; float &gt; &gt;</text>
</a>
</g>
</g>
<!-- Node1174&#45;&gt;Node1185 -->
<g id="edge11" class="edge">
<title>Node1174&#45;&gt;Node1185</title>
<path fill="none" stroke="midnightblue" d="M41.72,-619.37C51.47,-644.56 71.94,-688.13 104,-712 109.53,-716.11 115.68,-719.55 122.12,-722.42"/>
<polygon fill="midnightblue" stroke="midnightblue" points="44.94,-617.99 38.2,-609.82 38.38,-620.41 44.94,-617.99"/>
</g>
<!-- Node1186 -->
<g id="node13" class="node">
<title>Node1186</title>
<g id="a_node13"><a xlink:href="class_ogre_1_1_shared_ptr.html" target="_top" xlink:title=" ">
<polygon fill="none" stroke="black" points="122.5,-683.5 122.5,-702.5 274.5,-702.5 274.5,-683.5 122.5,-683.5"/>
<text text-anchor="middle" x="198.5" y="-690.5" font-family="Helvetica,sans-Serif" font-size="10.00">Ogre::SharedPtr&lt; Texture &gt;</text>
</a>
</g>
</g>
<!-- Node1174&#45;&gt;Node1186 -->
<g id="edge12" class="edge">
<title>Node1174&#45;&gt;Node1186</title>
<path fill="none" stroke="midnightblue" d="M47,-618.34C59.23,-635.5 79.82,-660.46 104,-674 110.94,-677.88 118.56,-680.98 126.37,-683.45"/>
<polygon fill="midnightblue" stroke="midnightblue" points="49.63,-616 41.09,-609.73 43.86,-619.96 49.63,-616"/>
</g>
<!-- Node1187 -->
<g id="node14" class="node">
<title>Node1187</title>
<g id="a_node14"><a xlink:href="class_ogre_1_1_shared_ptr.html" target="_top" xlink:title=" ">
<polygon fill="none" stroke="black" points="119.5,-634 119.5,-664 277.5,-664 277.5,-634 119.5,-634"/>
<text text-anchor="start" x="127.5" y="-652" font-family="Helvetica,sans-Serif" font-size="10.00">Ogre::SharedPtr&lt; GpuShared</text>
<text text-anchor="middle" x="198.5" y="-641" font-family="Helvetica,sans-Serif" font-size="10.00">Parameters &gt;</text>
</a>
</g>
</g>
<!-- Node1174&#45;&gt;Node1187 -->
<g id="edge13" class="edge">
<title>Node1174&#45;&gt;Node1187</title>
<path fill="none" stroke="midnightblue" d="M69.38,-613.2C80.37,-617.21 92.63,-621.49 104,-625 114.09,-628.11 124.87,-631.15 135.4,-633.96"/>
<polygon fill="midnightblue" stroke="midnightblue" points="70.31,-609.81 59.72,-609.61 67.87,-616.37 70.31,-609.81"/>
</g>
<!-- Node1188 -->
<g id="node15" class="node">
<title>Node1188</title>
<g id="a_node15"><a xlink:href="class_ogre_1_1_shared_ptr.html" target="_top" xlink:title=" ">
<polygon fill="none" stroke="black" points="119,-585 119,-615 278,-615 278,-585 119,-585"/>
<text text-anchor="start" x="127" y="-603" font-family="Helvetica,sans-Serif" font-size="10.00">Ogre::SharedPtr&lt; GpuNamed</text>
<text text-anchor="middle" x="198.5" y="-592" font-family="Helvetica,sans-Serif" font-size="10.00">Constants &gt;</text>
</a>
</g>
</g>
<!-- Node1174&#45;&gt;Node1188 -->
<g id="edge14" class="edge">
<title>Node1174&#45;&gt;Node1188</title>
<path fill="none" stroke="midnightblue" d="M78.4,-600C90.93,-600 105.01,-600 118.98,-600"/>
<polygon fill="midnightblue" stroke="midnightblue" points="78.28,-596.5 68.28,-600 78.28,-603.5 78.28,-596.5"/>
</g>
<!-- Node1189 -->
<g id="node16" class="node">
<title>Node1189</title>
<g id="a_node16"><a xlink:href="class_ogre_1_1_shared_ptr.html" target="_top" xlink:title=" ">
<polygon fill="none" stroke="black" points="122.5,-536 122.5,-566 274.5,-566 274.5,-536 122.5,-536"/>
<text text-anchor="start" x="130.5" y="-554" font-family="Helvetica,sans-Serif" font-size="10.00">Ogre::SharedPtr&lt; Controller</text>
<text text-anchor="middle" x="198.5" y="-543" font-family="Helvetica,sans-Serif" font-size="10.00">Function&lt; float &gt; &gt;</text>
</a>
</g>
</g>
<!-- Node1174&#45;&gt;Node1189 -->
<g id="edge15" class="edge">
<title>Node1174&#45;&gt;Node1189</title>
<path fill="none" stroke="midnightblue" d="M70.53,-587.08C81.23,-583.34 93.05,-579.36 104,-576 115.08,-572.6 126.98,-569.21 138.46,-566.08"/>
<polygon fill="midnightblue" stroke="midnightblue" points="69.33,-583.8 61.06,-590.43 71.66,-590.4 69.33,-583.8"/>
</g>
<!-- Node1190 -->
<g id="node17" class="node">
<title>Node1190</title>
<g id="a_node17"><a xlink:href="class_ogre_1_1_shared_ptr.html" target="_top" xlink:title=" ">
<polygon fill="none" stroke="black" points="120.5,-497.5 120.5,-516.5 276.5,-516.5 276.5,-497.5 120.5,-497.5"/>
<text text-anchor="middle" x="198.5" y="-504.5" font-family="Helvetica,sans-Serif" font-size="10.00">Ogre::SharedPtr&lt; Material &gt;</text>
</a>
</g>
</g>
<!-- Node1174&#45;&gt;Node1190 -->
<g id="edge16" class="edge">
<title>Node1174&#45;&gt;Node1190</title>
<path fill="none" stroke="midnightblue" d="M47.08,-581.96C59.38,-565.08 80.01,-540.48 104,-527 111.81,-522.61 120.49,-519.18 129.32,-516.5"/>
<polygon fill="midnightblue" stroke="midnightblue" points="44.02,-580.24 41.14,-590.43 49.75,-584.26 44.02,-580.24"/>
</g>
<!-- Node1191 -->
<g id="node18" class="node">
<title>Node1191</title>
<g id="a_node18"><a xlink:href="class_ogre_1_1_shared_ptr.html" target="_top" xlink:title=" ">
<polygon fill="none" stroke="black" points="129.5,-448 129.5,-478 267.5,-478 267.5,-448 129.5,-448"/>
<text text-anchor="start" x="137.5" y="-466" font-family="Helvetica,sans-Serif" font-size="10.00">Ogre::SharedPtr&lt; Ogre</text>
<text text-anchor="middle" x="198.5" y="-455" font-family="Helvetica,sans-Serif" font-size="10.00">::ControllerValue&lt; T &gt; &gt;</text>
</a>
</g>
</g>
<!-- Node1174&#45;&gt;Node1191 -->
<g id="edge17" class="edge">
<title>Node1174&#45;&gt;Node1191</title>
<path fill="none" stroke="midnightblue" d="M41.72,-580.63C51.47,-555.44 71.94,-511.87 104,-488 111.55,-482.38 120.27,-478.02 129.29,-474.65"/>
<polygon fill="midnightblue" stroke="midnightblue" points="38.38,-579.59 38.2,-590.18 44.94,-582.01 38.38,-579.59"/>
</g>
<!-- Node1192 -->
<g id="node19" class="node">
<title>Node1192</title>
<g id="a_node19"><a xlink:href="class_ogre_1_1_shared_ptr.html" target="_top" xlink:title=" ">
<polygon fill="none" stroke="black" points="119.5,-399 119.5,-429 277.5,-429 277.5,-399 119.5,-399"/>
<text text-anchor="start" x="127.5" y="-417" font-family="Helvetica,sans-Serif" font-size="10.00">Ogre::SharedPtr&lt; GpuLogical</text>
<text text-anchor="middle" x="198.5" y="-406" font-family="Helvetica,sans-Serif" font-size="10.00">BufferStruct &gt;</text>
</a>
</g>
</g>
<!-- Node1174&#45;&gt;Node1192 -->
<g id="edge18" class="edge">
<title>Node1174&#45;&gt;Node1192</title>
<path fill="none" stroke="midnightblue" d="M37.81,-580.24C43.71,-546.2 60.62,-476.56 104,-439 108.57,-435.04 113.71,-431.7 119.16,-428.88"/>
<polygon fill="midnightblue" stroke="midnightblue" points="34.32,-579.9 36.21,-590.32 41.23,-580.99 34.32,-579.9"/>
</g>
<!-- Node1193 -->
<g id="node20" class="node">
<title>Node1193</title>
<g id="a_node20"><a xlink:href="class_ogre_1_1_shared_ptr.html" target="_top" xlink:title=" ">
<polygon fill="none" stroke="black" points="122.5,-350 122.5,-380 274.5,-380 274.5,-350 122.5,-350"/>
<text text-anchor="start" x="130.5" y="-368" font-family="Helvetica,sans-Serif" font-size="10.00">Ogre::SharedPtr&lt; Hardware</text>
<text text-anchor="middle" x="198.5" y="-357" font-family="Helvetica,sans-Serif" font-size="10.00">Buffer &gt;</text>
</a>
</g>
</g>
<!-- Node1174&#45;&gt;Node1193 -->
<g id="edge19" class="edge">
<title>Node1174&#45;&gt;Node1193</title>
<path fill="none" stroke="midnightblue" d="M35.54,-580.23C37.77,-538.72 48.94,-442.05 104,-390 109.37,-384.92 115.66,-380.85 122.39,-377.59"/>
<polygon fill="midnightblue" stroke="midnightblue" points="32.03,-580.26 35.12,-590.39 39.03,-580.55 32.03,-580.26"/>
</g>
<!-- Node1194 -->
<g id="node21" class="node">
<title>Node1194</title>
<g id="a_node21"><a xlink:href="class_ogre_1_1_shared_ptr.html" target="_top" xlink:title=" ">
<polygon fill="none" stroke="black" points="108,-301 108,-331 289,-331 289,-301 108,-301"/>
<text text-anchor="start" x="116" y="-319" font-family="Helvetica,sans-Serif" font-size="10.00">Ogre::SharedPtr&lt; ShadowCamera</text>
<text text-anchor="middle" x="198.5" y="-308" font-family="Helvetica,sans-Serif" font-size="10.00">Setup &gt;</text>
</a>
</g>
</g>
<!-- Node1174&#45;&gt;Node1194 -->
<g id="edge20" class="edge">
<title>Node1174&#45;&gt;Node1194</title>
<path fill="none" stroke="midnightblue" d="M37.69,-580.23C45.47,-525.77 69.69,-375.34 104,-341 107.8,-337.2 112.11,-333.95 116.75,-331.19"/>
<polygon fill="midnightblue" stroke="midnightblue" points="34.19,-579.93 36.28,-590.32 41.13,-580.9 34.19,-579.93"/>
</g>
<!-- Node1195 -->
<g id="node22" class="node">
<title>Node1195</title>
<g id="a_node22"><a xlink:href="class_ogre_1_1_shared_ptr.html" target="_top" xlink:title=" ">
<polygon fill="none" stroke="black" points="130,-262.5 130,-281.5 267,-281.5 267,-262.5 130,-262.5"/>
<text text-anchor="middle" x="198.5" y="-269.5" font-family="Helvetica,sans-Serif" font-size="10.00">Ogre::SharedPtr&lt; Font &gt;</text>
</a>
</g>
</g>
<!-- Node1174&#45;&gt;Node1195 -->
<g id="edge21" class="edge">
<title>Node1174&#45;&gt;Node1195</title>
<path fill="none" stroke="midnightblue" d="M36.69,-580.14C42.34,-518.64 62.58,-333.03 104,-292 111.19,-284.87 120.27,-280.01 129.92,-276.73"/>
<polygon fill="midnightblue" stroke="midnightblue" points="33.18,-580.14 35.78,-590.41 40.15,-580.76 33.18,-580.14"/>
</g>
<!-- Node1196 -->
<g id="node23" class="node">
<title>Node1196</title>
<g id="a_node23"><a xlink:href="class_ogre_1_1_shared_ptr.html" target="_top" xlink:title=" ">
<polygon fill="none" stroke="black" points="130,-213 130,-243 267,-243 267,-213 130,-213"/>
<text text-anchor="start" x="138" y="-231" font-family="Helvetica,sans-Serif" font-size="10.00">Ogre::SharedPtr&lt; Terrain</text>
<text text-anchor="middle" x="198.5" y="-220" font-family="Helvetica,sans-Serif" font-size="10.00">MaterialGenerator &gt;</text>
</a>
</g>
</g>
<!-- Node1174&#45;&gt;Node1196 -->
<g id="edge22" class="edge">
<title>Node1174&#45;&gt;Node1196</title>
<path fill="none" stroke="midnightblue" d="M36.26,-579.94C40.86,-513.35 58.83,-301.2 104,-253 111.01,-245.52 119.99,-240.19 129.6,-236.4"/>
<polygon fill="midnightblue" stroke="midnightblue" points="32.75,-580.08 35.58,-590.29 39.73,-580.54 32.75,-580.08"/>
</g>
<!-- Node1197 -->
<g id="node24" class="node">
<title>Node1197</title>
<g id="a_node24"><a xlink:href="class_ogre_1_1_shared_ptr.html" target="_top" xlink:title=" ">
<polygon fill="none" stroke="black" points="116,-164 116,-194 281,-194 281,-164 116,-164"/>
<text text-anchor="start" x="124" y="-182" font-family="Helvetica,sans-Serif" font-size="10.00">Ogre::SharedPtr&lt; GpuProgram</text>
<text text-anchor="middle" x="198.5" y="-171" font-family="Helvetica,sans-Serif" font-size="10.00">Parameters &gt;</text>
</a>
</g>
</g>
<!-- Node1174&#45;&gt;Node1197 -->
<g id="edge23" class="edge">
<title>Node1174&#45;&gt;Node1197</title>
<path fill="none" stroke="midnightblue" d="M35.72,-580C38.74,-507.53 52.68,-260.09 104,-204 107.52,-200.16 111.55,-196.88 115.93,-194.08"/>
<polygon fill="midnightblue" stroke="midnightblue" points="32.21,-580.28 35.31,-590.41 39.2,-580.55 32.21,-580.28"/>
</g>
<!-- Node1198 -->
<g id="node25" class="node">
<title>Node1198</title>
<g id="a_node25"><a xlink:href="class_ogre_1_1_shared_ptr.html" target="_top" xlink:title=" ">
<polygon fill="none" stroke="black" points="120,-115 120,-145 277,-145 277,-115 120,-115"/>
<text text-anchor="start" x="128" y="-133" font-family="Helvetica,sans-Serif" font-size="10.00">Ogre::SharedPtr&lt; SubRender</text>
<text text-anchor="middle" x="198.5" y="-122" font-family="Helvetica,sans-Serif" font-size="10.00">StateAccessor &gt;</text>
</a>
</g>
</g>
<!-- Node1174&#45;&gt;Node1198 -->
<g id="edge24" class="edge">
<title>Node1174&#45;&gt;Node1198</title>
<path fill="none" stroke="midnightblue" d="M35.3,-580.08C36.86,-502.14 46.49,-219.04 104,-155 108.49,-150 113.86,-145.95 119.73,-142.68"/>
<polygon fill="midnightblue" stroke="midnightblue" points="31.79,-580.34 35.11,-590.4 38.79,-580.47 31.79,-580.34"/>
</g>
<!-- Node1199 -->
<g id="node26" class="node">
<title>Node1199</title>
<g id="a_node26"><a xlink:href="class_ogre_1_1_shared_ptr.html" target="_top" xlink:title=" ">
<polygon fill="none" stroke="black" points="127.5,-76.5 127.5,-95.5 269.5,-95.5 269.5,-76.5 127.5,-76.5"/>
<text text-anchor="middle" x="198.5" y="-83.5" font-family="Helvetica,sans-Serif" font-size="10.00">Ogre::SharedPtr&lt; Mesh &gt;</text>
</a>
</g>
</g>
<!-- Node1174&#45;&gt;Node1199 -->
<g id="edge25" class="edge">
<title>Node1174&#45;&gt;Node1199</title>
<path fill="none" stroke="midnightblue" d="M34.86,-579.96C34.72,-496.35 38.5,-176.39 104,-106 110.33,-99.19 118.37,-94.41 127.06,-91.09"/>
<polygon fill="midnightblue" stroke="midnightblue" points="31.36,-580.15 34.9,-590.14 38.36,-580.13 31.36,-580.15"/>
</g>
<!-- Node1200 -->
<g id="node27" class="node">
<title>Node1200</title>
<g id="a_node27"><a xlink:href="class_ogre_1_1_shared_ptr.html" target="_top" xlink:title=" ">
<polygon fill="none" stroke="black" points="119.5,-38.5 119.5,-57.5 277.5,-57.5 277.5,-38.5 119.5,-38.5"/>
<text text-anchor="middle" x="198.5" y="-45.5" font-family="Helvetica,sans-Serif" font-size="10.00">Ogre::SharedPtr&lt; Skeleton &gt;</text>
</a>
</g>
</g>
<!-- Node1174&#45;&gt;Node1200 -->
<g id="edge26" class="edge">
<title>Node1174&#45;&gt;Node1200</title>
<path fill="none" stroke="midnightblue" d="M34.62,-580.06C33.37,-492.53 32.97,-143.32 104,-67 108.4,-62.27 113.63,-58.54 119.34,-55.62"/>
<polygon fill="midnightblue" stroke="midnightblue" points="31.12,-580.28 34.79,-590.22 38.12,-580.16 31.12,-580.28"/>
</g>
<!-- Node1201 -->
<g id="node28" class="node">
<title>Node1201</title>
<g id="a_node28"><a xlink:href="class_ogre_1_1_shared_ptr.html" target="_top" xlink:title=" ">
<polygon fill="none" stroke="black" points="137.5,-0.5 137.5,-19.5 259.5,-19.5 259.5,-0.5 137.5,-0.5"/>
<text text-anchor="middle" x="198.5" y="-7.5" font-family="Helvetica,sans-Serif" font-size="10.00">Ogre::SharedPtr&lt; T &gt;</text>
</a>
</g>
</g>
<!-- Node1174&#45;&gt;Node1201 -->
<g id="edge27" class="edge">
<title>Node1174&#45;&gt;Node1201</title>
<path fill="none" stroke="midnightblue" d="M36.02,-580.4C41.19,-484.83 65.69,-70.52 104,-29 112.76,-19.51 124.87,-14.03 137.46,-11.01"/>
<polygon fill="midnightblue" stroke="midnightblue" points="32.53,-580.26 35.49,-590.43 39.52,-580.63 32.53,-580.26"/>
</g>
</g>
</svg>
