<?xml version="1.0" encoding="UTF-8" standalone="no"?>
<!DOCTYPE svg PUBLIC "-//W3C//DTD SVG 1.1//EN"
 "http://www.w3.org/Graphics/SVG/1.1/DTD/svg11.dtd">
<!-- Generated by graphviz version 2.43.0 (0)
 -->
<!-- Title: Graphical Class Hierarchy Pages: 1 -->
<svg width="512pt" height="382pt"
 viewBox="0.00 0.00 512.00 382.00" xmlns="http://www.w3.org/2000/svg" xmlns:xlink="http://www.w3.org/1999/xlink">
<g id="graph0" class="graph" transform="scale(1 1) rotate(0) translate(4 378)">
<title>Graphical Class Hierarchy</title>
<!-- Node857 -->
<g id="node1" class="node">
<title>Node857</title>
<g id="a_node1"><a xlink:title=" ">
<polygon fill="none" stroke="#bfbfbf" points="0,-171.5 0,-190.5 65,-190.5 65,-171.5 0,-171.5"/>
<text text-anchor="middle" x="32.5" y="-178.5" font-family="Helvetica,sans-Serif" font-size="10.00">PageAlloc</text>
</a>
</g>
</g>
<!-- Node0 -->
<g id="node2" class="node">
<title>Node0</title>
<g id="a_node2"><a xlink:href="class_ogre_1_1_page_content.html" target="_top" xlink:title="Interface definition for a unit of content within a page.">
<polygon fill="none" stroke="black" points="135,-354.5 135,-373.5 243,-373.5 243,-354.5 135,-354.5"/>
<text text-anchor="middle" x="189" y="-361.5" font-family="Helvetica,sans-Serif" font-size="10.00">Ogre::PageContent</text>
</a>
</g>
</g>
<!-- Node857&#45;&gt;Node0 -->
<g id="edge1" class="edge">
<title>Node857&#45;&gt;Node0</title>
<path fill="none" stroke="midnightblue" d="M35.74,-200.82C40.77,-235.61 56.27,-307.5 101,-345 110.48,-352.95 122.53,-357.78 134.62,-360.67"/>
<polygon fill="midnightblue" stroke="midnightblue" points="39.17,-200.02 34.41,-190.55 32.22,-200.92 39.17,-200.02"/>
</g>
<!-- Node859 -->
<g id="node3" class="node">
<title>Node859</title>
<g id="a_node3"><a xlink:href="class_ogre_1_1_page_content_collection.html" target="_top" xlink:title="Definition of the interface for a collection of PageContent instances.">
<polygon fill="none" stroke="black" points="110.5,-316.5 110.5,-335.5 267.5,-335.5 267.5,-316.5 110.5,-316.5"/>
<text text-anchor="middle" x="189" y="-323.5" font-family="Helvetica,sans-Serif" font-size="10.00">Ogre::PageContentCollection</text>
</a>
</g>
</g>
<!-- Node857&#45;&gt;Node859 -->
<g id="edge2" class="edge">
<title>Node857&#45;&gt;Node859</title>
<path fill="none" stroke="midnightblue" d="M38.38,-200.56C46.45,-228.67 65.34,-280.06 101,-307 106.06,-310.82 111.73,-313.91 117.68,-316.39"/>
<polygon fill="midnightblue" stroke="midnightblue" points="41.71,-199.45 35.72,-190.71 34.95,-201.27 41.71,-199.45"/>
</g>
<!-- Node861 -->
<g id="node5" class="node">
<title>Node861</title>
<g id="a_node5"><a xlink:href="class_ogre_1_1_page_content_collection_factory.html" target="_top" xlink:title="Define the interface to a factory class that will create subclasses of PageContentCollection.">
<polygon fill="none" stroke="black" points="110.5,-267 110.5,-297 267.5,-297 267.5,-267 110.5,-267"/>
<text text-anchor="start" x="118.5" y="-285" font-family="Helvetica,sans-Serif" font-size="10.00">Ogre::PageContentCollection</text>
<text text-anchor="middle" x="189" y="-274" font-family="Helvetica,sans-Serif" font-size="10.00">Factory</text>
</a>
</g>
</g>
<!-- Node857&#45;&gt;Node861 -->
<g id="edge4" class="edge">
<title>Node857&#45;&gt;Node861</title>
<path fill="none" stroke="midnightblue" d="M45.28,-199.42C57.28,-216.74 77.44,-242.16 101,-257 107.12,-260.85 113.84,-264.13 120.77,-266.91"/>
<polygon fill="midnightblue" stroke="midnightblue" points="47.95,-197.12 39.48,-190.75 42.13,-201.01 47.95,-197.12"/>
</g>
<!-- Node863 -->
<g id="node7" class="node">
<title>Node863</title>
<g id="a_node7"><a xlink:href="class_ogre_1_1_page_content_factory.html" target="_top" xlink:title="Define the interface to a factory class that will create subclasses of PageContent.">
<polygon fill="none" stroke="black" points="117,-228.5 117,-247.5 261,-247.5 261,-228.5 117,-228.5"/>
<text text-anchor="middle" x="189" y="-235.5" font-family="Helvetica,sans-Serif" font-size="10.00">Ogre::PageContentFactory</text>
</a>
</g>
</g>
<!-- Node857&#45;&gt;Node863 -->
<g id="edge6" class="edge">
<title>Node857&#45;&gt;Node863</title>
<path fill="none" stroke="midnightblue" d="M56.18,-196.02C68.9,-203.86 85.32,-213.03 101,-219 110.97,-222.8 121.88,-225.93 132.51,-228.47"/>
<polygon fill="midnightblue" stroke="midnightblue" points="57.96,-193 47.63,-190.61 54.21,-198.92 57.96,-193"/>
</g>
<!-- Node864 -->
<g id="node8" class="node">
<title>Node864</title>
<g id="a_node8"><a xlink:href="class_ogre_1_1_page_manager.html" target="_top" xlink:title="The PageManager is the entry point through which you load all PagedWorld instances,...">
<polygon fill="none" stroke="black" points="132.5,-190.5 132.5,-209.5 245.5,-209.5 245.5,-190.5 132.5,-190.5"/>
<text text-anchor="middle" x="189" y="-197.5" font-family="Helvetica,sans-Serif" font-size="10.00">Ogre::PageManager</text>
</a>
</g>
</g>
<!-- Node857&#45;&gt;Node864 -->
<g id="edge7" class="edge">
<title>Node857&#45;&gt;Node864</title>
<path fill="none" stroke="midnightblue" d="M75.1,-186.12C92.69,-188.28 113.45,-190.83 132.34,-193.15"/>
<polygon fill="midnightblue" stroke="midnightblue" points="75.49,-182.64 65.14,-184.89 74.64,-189.59 75.49,-182.64"/>
</g>
<!-- Node865 -->
<g id="node9" class="node">
<title>Node865</title>
<g id="a_node9"><a xlink:href="class_ogre_1_1_page_strategy.html" target="_top" xlink:title="Defines the interface to a strategy class which is responsible for deciding when Page instances are r...">
<polygon fill="none" stroke="black" points="133.5,-152.5 133.5,-171.5 244.5,-171.5 244.5,-152.5 133.5,-152.5"/>
<text text-anchor="middle" x="189" y="-159.5" font-family="Helvetica,sans-Serif" font-size="10.00">Ogre::PageStrategy</text>
</a>
</g>
</g>
<!-- Node857&#45;&gt;Node865 -->
<g id="edge8" class="edge">
<title>Node857&#45;&gt;Node865</title>
<path fill="none" stroke="midnightblue" d="M75.24,-175.87C93.09,-173.67 114.18,-171.08 133.27,-168.73"/>
<polygon fill="midnightblue" stroke="midnightblue" points="74.64,-172.41 65.14,-177.11 75.49,-179.36 74.64,-172.41"/>
</g>
<!-- Node868 -->
<g id="node12" class="node">
<title>Node868</title>
<g id="a_node12"><a xlink:href="class_ogre_1_1_page_strategy_data.html" target="_top" xlink:title="Abstract marker class representing the data held against the PagedWorldSection which is specifically ...">
<polygon fill="none" stroke="black" points="122,-114.5 122,-133.5 256,-133.5 256,-114.5 122,-114.5"/>
<text text-anchor="middle" x="189" y="-121.5" font-family="Helvetica,sans-Serif" font-size="10.00">Ogre::PageStrategyData</text>
</a>
</g>
</g>
<!-- Node857&#45;&gt;Node868 -->
<g id="edge11" class="edge">
<title>Node857&#45;&gt;Node868</title>
<path fill="none" stroke="midnightblue" d="M56.18,-165.98C68.9,-158.14 85.32,-148.97 101,-143 110.97,-139.2 121.88,-136.07 132.51,-133.53"/>
<polygon fill="midnightblue" stroke="midnightblue" points="54.21,-163.08 47.63,-171.39 57.96,-169 54.21,-163.08"/>
</g>
<!-- Node871 -->
<g id="node15" class="node">
<title>Node871</title>
<g id="a_node15"><a xlink:href="class_ogre_1_1_paged_world.html" target="_top" xlink:title="This class represents a collection of pages which make up a world.">
<polygon fill="none" stroke="black" points="137,-76.5 137,-95.5 241,-95.5 241,-76.5 137,-76.5"/>
<text text-anchor="middle" x="189" y="-83.5" font-family="Helvetica,sans-Serif" font-size="10.00">Ogre::PagedWorld</text>
</a>
</g>
</g>
<!-- Node857&#45;&gt;Node871 -->
<g id="edge14" class="edge">
<title>Node857&#45;&gt;Node871</title>
<path fill="none" stroke="midnightblue" d="M44.88,-162.52C56.71,-144.94 76.84,-119.15 101,-105 111.81,-98.67 124.48,-94.45 136.77,-91.63"/>
<polygon fill="midnightblue" stroke="midnightblue" points="41.69,-161.01 39.2,-171.31 47.57,-164.81 41.69,-161.01"/>
</g>
<!-- Node872 -->
<g id="node16" class="node">
<title>Node872</title>
<g id="a_node16"><a xlink:href="class_ogre_1_1_paged_world_section.html" target="_top" xlink:title="Represents a section of the PagedWorld which uses a given PageStrategy, and which is made up of a gen...">
<polygon fill="none" stroke="black" points="119,-38.5 119,-57.5 259,-57.5 259,-38.5 119,-38.5"/>
<text text-anchor="middle" x="189" y="-45.5" font-family="Helvetica,sans-Serif" font-size="10.00">Ogre::PagedWorldSection</text>
</a>
</g>
</g>
<!-- Node857&#45;&gt;Node872 -->
<g id="edge15" class="edge">
<title>Node857&#45;&gt;Node872</title>
<path fill="none" stroke="midnightblue" d="M39.56,-161.45C48.61,-135.63 68.21,-90.69 101,-67 106.39,-63.11 112.42,-59.99 118.73,-57.49"/>
<polygon fill="midnightblue" stroke="midnightblue" points="36.15,-160.63 36.32,-171.22 42.79,-162.83 36.15,-160.63"/>
</g>
<!-- Node874 -->
<g id="node18" class="node">
<title>Node874</title>
<g id="a_node18"><a xlink:href="class_ogre_1_1_paged_world_section_factory.html" target="_top" xlink:title="A factory class for creating types of world section.">
<polygon fill="none" stroke="black" points="101,-0.5 101,-19.5 277,-19.5 277,-0.5 101,-0.5"/>
<text text-anchor="middle" x="189" y="-7.5" font-family="Helvetica,sans-Serif" font-size="10.00">Ogre::PagedWorldSectionFactory</text>
</a>
</g>
</g>
<!-- Node857&#45;&gt;Node874 -->
<g id="edge17" class="edge">
<title>Node857&#45;&gt;Node874</title>
<path fill="none" stroke="midnightblue" d="M36.45,-161.24C42.43,-128.47 59.16,-63.11 101,-29 105.67,-25.19 110.94,-22.1 116.52,-19.6"/>
<polygon fill="midnightblue" stroke="midnightblue" points="32.95,-160.93 34.76,-171.37 39.86,-162.08 32.95,-160.93"/>
</g>
<!-- Node860 -->
<g id="node4" class="node">
<title>Node860</title>
<g id="a_node4"><a xlink:href="class_ogre_1_1_simple_page_content_collection.html" target="_top" xlink:title="Specialisation of PageContentCollection which just provides a simple list of PageContent instances.">
<polygon fill="none" stroke="black" points="313,-316.5 313,-335.5 504,-335.5 504,-316.5 313,-316.5"/>
<text text-anchor="middle" x="408.5" y="-323.5" font-family="Helvetica,sans-Serif" font-size="10.00">Ogre::SimplePageContentCollection</text>
</a>
</g>
</g>
<!-- Node859&#45;&gt;Node860 -->
<g id="edge3" class="edge">
<title>Node859&#45;&gt;Node860</title>
<path fill="none" stroke="midnightblue" d="M277.66,-326C289.23,-326 301.12,-326 312.8,-326"/>
<polygon fill="midnightblue" stroke="midnightblue" points="277.6,-322.5 267.6,-326 277.6,-329.5 277.6,-322.5"/>
</g>
<!-- Node862 -->
<g id="node6" class="node">
<title>Node862</title>
<g id="a_node6"><a xlink:href="class_ogre_1_1_simple_page_content_collection_factory.html" target="_top" xlink:title="Factory class for SimplePageContentCollection.">
<polygon fill="none" stroke="black" points="313,-267 313,-297 504,-297 504,-267 313,-267"/>
<text text-anchor="start" x="321" y="-285" font-family="Helvetica,sans-Serif" font-size="10.00">Ogre::SimplePageContentCollection</text>
<text text-anchor="middle" x="408.5" y="-274" font-family="Helvetica,sans-Serif" font-size="10.00">Factory</text>
</a>
</g>
</g>
<!-- Node861&#45;&gt;Node862 -->
<g id="edge5" class="edge">
<title>Node861&#45;&gt;Node862</title>
<path fill="none" stroke="midnightblue" d="M277.66,-282C289.23,-282 301.12,-282 312.8,-282"/>
<polygon fill="midnightblue" stroke="midnightblue" points="277.6,-278.5 267.6,-282 277.6,-285.5 277.6,-278.5"/>
</g>
<!-- Node866 -->
<g id="node10" class="node">
<title>Node866</title>
<g id="a_node10"><a xlink:href="class_ogre_1_1_grid2_d_page_strategy.html" target="_top" xlink:title="Page strategy which loads new pages based on a regular 2D grid.">
<polygon fill="none" stroke="black" points="336,-190.5 336,-209.5 481,-209.5 481,-190.5 336,-190.5"/>
<text text-anchor="middle" x="408.5" y="-197.5" font-family="Helvetica,sans-Serif" font-size="10.00">Ogre::Grid2DPageStrategy</text>
</a>
</g>
</g>
<!-- Node865&#45;&gt;Node866 -->
<g id="edge9" class="edge">
<title>Node865&#45;&gt;Node866</title>
<path fill="none" stroke="midnightblue" d="M254.54,-173.28C285.83,-178.74 323.01,-185.24 352.87,-190.46"/>
<polygon fill="midnightblue" stroke="midnightblue" points="255.06,-169.81 244.6,-171.54 253.85,-176.71 255.06,-169.81"/>
</g>
<!-- Node867 -->
<g id="node11" class="node">
<title>Node867</title>
<g id="a_node11"><a xlink:href="class_ogre_1_1_grid3_d_page_strategy.html" target="_top" xlink:title="Page strategy which loads new pages based on a regular 3D grid.">
<polygon fill="none" stroke="black" points="336,-152.5 336,-171.5 481,-171.5 481,-152.5 336,-152.5"/>
<text text-anchor="middle" x="408.5" y="-159.5" font-family="Helvetica,sans-Serif" font-size="10.00">Ogre::Grid3DPageStrategy</text>
</a>
</g>
</g>
<!-- Node865&#45;&gt;Node867 -->
<g id="edge10" class="edge">
<title>Node865&#45;&gt;Node867</title>
<path fill="none" stroke="midnightblue" d="M254.92,-162C280.45,-162 309.86,-162 336,-162"/>
<polygon fill="midnightblue" stroke="midnightblue" points="254.6,-158.5 244.6,-162 254.6,-165.5 254.6,-158.5"/>
</g>
<!-- Node869 -->
<g id="node13" class="node">
<title>Node869</title>
<g id="a_node13"><a xlink:href="class_ogre_1_1_grid2_d_page_strategy_data.html" target="_top" xlink:title="Specialisation of PageStrategyData for Grid2DPageStrategy.">
<polygon fill="none" stroke="black" points="324.5,-114.5 324.5,-133.5 492.5,-133.5 492.5,-114.5 324.5,-114.5"/>
<text text-anchor="middle" x="408.5" y="-121.5" font-family="Helvetica,sans-Serif" font-size="10.00">Ogre::Grid2DPageStrategyData</text>
</a>
</g>
</g>
<!-- Node868&#45;&gt;Node869 -->
<g id="edge12" class="edge">
<title>Node868&#45;&gt;Node869</title>
<path fill="none" stroke="midnightblue" d="M266.4,-124C285.14,-124 305.3,-124 324.35,-124"/>
<polygon fill="midnightblue" stroke="midnightblue" points="266.14,-120.5 256.14,-124 266.14,-127.5 266.14,-120.5"/>
</g>
<!-- Node870 -->
<g id="node14" class="node">
<title>Node870</title>
<g id="a_node14"><a xlink:href="class_ogre_1_1_grid3_d_page_strategy_data.html" target="_top" xlink:title="Specialisation of PageStrategyData for Grid3DPageStrategy.">
<polygon fill="none" stroke="black" points="324.5,-76.5 324.5,-95.5 492.5,-95.5 492.5,-76.5 324.5,-76.5"/>
<text text-anchor="middle" x="408.5" y="-83.5" font-family="Helvetica,sans-Serif" font-size="10.00">Ogre::Grid3DPageStrategyData</text>
</a>
</g>
</g>
<!-- Node868&#45;&gt;Node870 -->
<g id="edge13" class="edge">
<title>Node868&#45;&gt;Node870</title>
<path fill="none" stroke="midnightblue" d="M254.54,-112.72C285.83,-107.26 323.01,-100.76 352.87,-95.54"/>
<polygon fill="midnightblue" stroke="midnightblue" points="253.85,-109.29 244.6,-114.46 255.06,-116.19 253.85,-109.29"/>
</g>
<!-- Node873 -->
<g id="node17" class="node">
<title>Node873</title>
<g id="a_node17"><a xlink:href="class_ogre_1_1_terrain_paged_world_section.html" target="_top" xlink:title="A world section which includes paged terrain.">
<polygon fill="none" stroke="black" points="322,-38.5 322,-57.5 495,-57.5 495,-38.5 322,-38.5"/>
<text text-anchor="middle" x="408.5" y="-45.5" font-family="Helvetica,sans-Serif" font-size="10.00">Ogre::TerrainPagedWorldSection</text>
</a>
</g>
</g>
<!-- Node872&#45;&gt;Node873 -->
<g id="edge16" class="edge">
<title>Node872&#45;&gt;Node873</title>
<path fill="none" stroke="midnightblue" d="M269.54,-48C286.53,-48 304.54,-48 321.75,-48"/>
<polygon fill="midnightblue" stroke="midnightblue" points="269.12,-44.5 259.12,-48 269.12,-51.5 269.12,-44.5"/>
</g>
</g>
</svg>
