<?xml version="1.0" encoding="UTF-8" standalone="no"?>
<!DOCTYPE svg PUBLIC "-//W3C//DTD SVG 1.1//EN"
 "http://www.w3.org/Graphics/SVG/1.1/DTD/svg11.dtd">
<!-- Generated by graphviz version 2.43.0 (0)
 -->
<!-- Title: Graphical Class Hierarchy Pages: 1 -->
<svg width="460pt" height="66pt"
 viewBox="0.00 0.00 460.00 66.00" xmlns="http://www.w3.org/2000/svg" xmlns:xlink="http://www.w3.org/1999/xlink">
<g id="graph0" class="graph" transform="scale(1 1) rotate(0) translate(4 62)">
<title>Graphical Class Hierarchy</title>
<!-- Node0 -->
<g id="node1" class="node">
<title>Node0</title>
<g id="a_node1"><a xlink:href="class_ogre_1_1_scene_manager_1_1_listener.html" target="_top" xlink:title="Class that allows listening in on the various stages of SceneManager processing, so that custom behav...">
<polygon fill="none" stroke="black" points="0,-14 0,-44 118,-44 118,-14 0,-14"/>
<text text-anchor="start" x="8" y="-32" font-family="Helvetica,sans-Serif" font-size="10.00">Ogre::SceneManager</text>
<text text-anchor="middle" x="59" y="-21" font-family="Helvetica,sans-Serif" font-size="10.00">::Listener</text>
</a>
</g>
</g>
<!-- Node1 -->
<g id="node2" class="node">
<title>Node1</title>
<g id="a_node2"><a xlink:href="class_ogre_1_1_debug_drawer.html" target="_top" xlink:title="Interface for visualising debugging the SceneManager state.">
<polygon fill="none" stroke="black" points="154,-38.5 154,-57.5 267,-57.5 267,-38.5 154,-38.5"/>
<text text-anchor="middle" x="210.5" y="-45.5" font-family="Helvetica,sans-Serif" font-size="10.00">Ogre::DebugDrawer</text>
</a>
</g>
</g>
<!-- Node0&#45;&gt;Node1 -->
<g id="edge1" class="edge">
<title>Node0&#45;&gt;Node1</title>
<path fill="none" stroke="midnightblue" d="M128.16,-37.66C136.69,-38.75 145.33,-39.84 153.64,-40.9"/>
<polygon fill="midnightblue" stroke="midnightblue" points="128.59,-34.19 118.23,-36.4 127.71,-41.13 128.59,-34.19"/>
</g>
<!-- Node3 -->
<g id="node4" class="node">
<title>Node3</title>
<g id="a_node4"><a xlink:href="class_ogre_1_1_terrain.html" target="_top" xlink:title="The main containing class for a chunk of terrain.">
<polygon fill="none" stroke="black" points="171,-0.5 171,-19.5 250,-19.5 250,-0.5 171,-0.5"/>
<text text-anchor="middle" x="210.5" y="-7.5" font-family="Helvetica,sans-Serif" font-size="10.00">Ogre::Terrain</text>
</a>
</g>
</g>
<!-- Node0&#45;&gt;Node3 -->
<g id="edge3" class="edge">
<title>Node0&#45;&gt;Node3</title>
<path fill="none" stroke="midnightblue" d="M128.21,-20.33C142.73,-18.49 157.59,-16.6 170.57,-14.95"/>
<polygon fill="midnightblue" stroke="midnightblue" points="127.71,-16.87 118.23,-21.6 128.59,-23.81 127.71,-16.87"/>
</g>
<!-- Node2 -->
<g id="node3" class="node">
<title>Node2</title>
<g id="a_node3"><a xlink:href="class_ogre_1_1_default_debug_drawer.html" target="_top" xlink:title=" ">
<polygon fill="none" stroke="black" points="303,-38.5 303,-57.5 452,-57.5 452,-38.5 303,-38.5"/>
<text text-anchor="middle" x="377.5" y="-45.5" font-family="Helvetica,sans-Serif" font-size="10.00">Ogre::DefaultDebugDrawer</text>
</a>
</g>
</g>
<!-- Node1&#45;&gt;Node2 -->
<g id="edge2" class="edge">
<title>Node1&#45;&gt;Node2</title>
<path fill="none" stroke="midnightblue" d="M277.42,-48C285.78,-48 294.38,-48 302.85,-48"/>
<polygon fill="midnightblue" stroke="midnightblue" points="277.36,-44.5 267.36,-48 277.36,-51.5 277.36,-44.5"/>
</g>
</g>
</svg>
