<?xml version="1.0" encoding="UTF-8" standalone="no"?>
<!DOCTYPE svg PUBLIC "-//W3C//DTD SVG 1.1//EN"
 "http://www.w3.org/Graphics/SVG/1.1/DTD/svg11.dtd">
<!-- Generated by graphviz version 2.43.0 (0)
 -->
<!-- Title: Graphical Class Hierarchy Pages: 1 -->
<svg width="564pt" height="385pt"
 viewBox="0.00 0.00 564.00 385.00" xmlns="http://www.w3.org/2000/svg" xmlns:xlink="http://www.w3.org/1999/xlink">
<g id="graph0" class="graph" transform="scale(1 1) rotate(0) translate(4 381)">
<title>Graphical Class Hierarchy</title>
<!-- Node0 -->
<g id="node1" class="node">
<title>Node0</title>
<g id="a_node1"><a xlink:href="class_ogre_1_1_singleton.html" target="_top" xlink:title=" ">
<polygon fill="none" stroke="black" points="0,-346.5 0,-376.5 136,-376.5 136,-346.5 0,-346.5"/>
<text text-anchor="start" x="8" y="-364.5" font-family="Helvetica,sans-Serif" font-size="10.00">Ogre::Singleton&lt; Terrain</text>
<text text-anchor="middle" x="68" y="-353.5" font-family="Helvetica,sans-Serif" font-size="10.00">GlobalOptions &gt;</text>
</a>
</g>
</g>
<!-- Node1 -->
<g id="node2" class="node">
<title>Node1</title>
<g id="a_node2"><a xlink:href="class_ogre_1_1_terrain_global_options.html" target="_top" xlink:title="Options class which just stores default options for the terrain.">
<polygon fill="none" stroke="black" points="184.5,-352 184.5,-371 332.5,-371 332.5,-352 184.5,-352"/>
<text text-anchor="middle" x="258.5" y="-359" font-family="Helvetica,sans-Serif" font-size="10.00">Ogre::TerrainGlobalOptions</text>
</a>
</g>
</g>
<!-- Node0&#45;&gt;Node1 -->
<g id="edge1" class="edge">
<title>Node0&#45;&gt;Node1</title>
<path fill="none" stroke="midnightblue" d="M146.59,-361.5C159.03,-361.5 171.86,-361.5 184.2,-361.5"/>
<polygon fill="midnightblue" stroke="midnightblue" points="146.25,-358 136.25,-361.5 146.25,-365 146.25,-358"/>
</g>
<!-- Node1128 -->
<g id="node3" class="node">
<title>Node1128</title>
<g id="a_node3"><a xlink:title=" ">
<polygon fill="none" stroke="#bfbfbf" points="31,-176 31,-195 105,-195 105,-176 31,-176"/>
<text text-anchor="middle" x="68" y="-183" font-family="Helvetica,sans-Serif" font-size="10.00">TerrainAlloc</text>
</a>
</g>
</g>
<!-- Node1128&#45;&gt;Node1 -->
<g id="edge6" class="edge">
<title>Node1128&#45;&gt;Node1</title>
<path fill="none" stroke="midnightblue" d="M75.95,-204.68C89.16,-238.24 121.17,-307.4 172,-342.5 177.63,-346.39 183.92,-349.5 190.47,-351.98"/>
<polygon fill="midnightblue" stroke="midnightblue" points="79.15,-203.23 72.33,-195.12 72.6,-205.71 79.15,-203.23"/>
</g>
<!-- Node1129 -->
<g id="node4" class="node">
<title>Node1129</title>
<g id="a_node4"><a xlink:href="class_ogre_1_1_terrain_1_1_gpu_buffer_allocator.html" target="_top" xlink:title="Interface used to by the Terrain instance to allocate GPU buffers.">
<polygon fill="none" stroke="black" points="191.5,-302.5 191.5,-332.5 325.5,-332.5 325.5,-302.5 191.5,-302.5"/>
<text text-anchor="start" x="199.5" y="-320.5" font-family="Helvetica,sans-Serif" font-size="10.00">Ogre::Terrain::GpuBuffer</text>
<text text-anchor="middle" x="258.5" y="-309.5" font-family="Helvetica,sans-Serif" font-size="10.00">Allocator</text>
</a>
</g>
</g>
<!-- Node1128&#45;&gt;Node1129 -->
<g id="edge2" class="edge">
<title>Node1128&#45;&gt;Node1129</title>
<path fill="none" stroke="midnightblue" d="M81.38,-203.25C98.88,-227.02 133.08,-268.93 172,-292.5 178.35,-296.34 185.32,-299.63 192.47,-302.42"/>
<polygon fill="midnightblue" stroke="midnightblue" points="84.2,-201.17 75.52,-195.1 78.52,-205.26 84.2,-201.17"/>
</g>
<!-- Node1131 -->
<g id="node6" class="node">
<title>Node1131</title>
<g id="a_node6"><a xlink:href="class_ogre_1_1_terrain_auto_update_lod.html" target="_top" xlink:title="Terrain automatic LOD loading.">
<polygon fill="none" stroke="black" points="181.5,-264 181.5,-283 335.5,-283 335.5,-264 181.5,-264"/>
<text text-anchor="middle" x="258.5" y="-271" font-family="Helvetica,sans-Serif" font-size="10.00">Ogre::TerrainAutoUpdateLod</text>
</a>
</g>
</g>
<!-- Node1128&#45;&gt;Node1131 -->
<g id="edge4" class="edge">
<title>Node1128&#45;&gt;Node1131</title>
<path fill="none" stroke="midnightblue" d="M88.13,-201.53C107.91,-217.3 140.29,-240.92 172,-254.5 180.95,-258.33 190.76,-261.43 200.46,-263.93"/>
<polygon fill="midnightblue" stroke="midnightblue" points="90.19,-198.69 80.22,-195.11 85.77,-204.13 90.19,-198.69"/>
</g>
<!-- Node1133 -->
<g id="node8" class="node">
<title>Node1133</title>
<g id="a_node8"><a xlink:href="struct_ogre_1_1_terrain_group_1_1_terrain_slot.html" target="_top" xlink:title="Slot for a terrain instance, together with its definition.">
<polygon fill="none" stroke="black" points="204.5,-214.5 204.5,-244.5 312.5,-244.5 312.5,-214.5 204.5,-214.5"/>
<text text-anchor="start" x="212.5" y="-232.5" font-family="Helvetica,sans-Serif" font-size="10.00">Ogre::TerrainGroup</text>
<text text-anchor="middle" x="258.5" y="-221.5" font-family="Helvetica,sans-Serif" font-size="10.00">::TerrainSlot</text>
</a>
</g>
</g>
<!-- Node1128&#45;&gt;Node1133 -->
<g id="edge7" class="edge">
<title>Node1128&#45;&gt;Node1133</title>
<path fill="none" stroke="midnightblue" d="M115.27,-196.3C142.16,-202.58 176.14,-210.51 204.14,-217.05"/>
<polygon fill="midnightblue" stroke="midnightblue" points="115.88,-192.85 105.34,-193.98 114.29,-199.67 115.88,-192.85"/>
</g>
<!-- Node1134 -->
<g id="node9" class="node">
<title>Node1134</title>
<g id="a_node9"><a xlink:href="class_ogre_1_1_terrain_layer_blend_map.html" target="_top" xlink:title="Class exposing an interface to a blend map for a given layer.">
<polygon fill="none" stroke="black" points="181,-176 181,-195 336,-195 336,-176 181,-176"/>
<text text-anchor="middle" x="258.5" y="-183" font-family="Helvetica,sans-Serif" font-size="10.00">Ogre::TerrainLayerBlendMap</text>
</a>
</g>
</g>
<!-- Node1128&#45;&gt;Node1134 -->
<g id="edge8" class="edge">
<title>Node1128&#45;&gt;Node1134</title>
<path fill="none" stroke="midnightblue" d="M115.55,-185.5C135.2,-185.5 158.61,-185.5 180.69,-185.5"/>
<polygon fill="midnightblue" stroke="midnightblue" points="115.34,-182 105.34,-185.5 115.34,-189 115.34,-182"/>
</g>
<!-- Node1135 -->
<g id="node10" class="node">
<title>Node1135</title>
<g id="a_node10"><a xlink:href="class_ogre_1_1_terrain_material_generator.html" target="_top" xlink:title="Class that provides functionality to generate materials for use with a terrain.">
<polygon fill="none" stroke="black" points="174.5,-138 174.5,-157 342.5,-157 342.5,-138 174.5,-138"/>
<text text-anchor="middle" x="258.5" y="-145" font-family="Helvetica,sans-Serif" font-size="10.00">Ogre::TerrainMaterialGenerator</text>
</a>
</g>
</g>
<!-- Node1128&#45;&gt;Node1135 -->
<g id="edge9" class="edge">
<title>Node1128&#45;&gt;Node1135</title>
<path fill="none" stroke="midnightblue" d="M115.18,-176.19C144.05,-170.37 181.12,-162.9 210.19,-157.04"/>
<polygon fill="midnightblue" stroke="midnightblue" points="114.46,-172.77 105.34,-178.17 115.84,-179.63 114.46,-172.77"/>
</g>
<!-- Node1137 -->
<g id="node12" class="node">
<title>Node1137</title>
<g id="a_node12"><a xlink:href="class_ogre_1_1_terrain_paged_world_section_1_1_terrain_definer.html" target="_top" xlink:title=" ">
<polygon fill="none" stroke="black" points="172,-88.5 172,-118.5 345,-118.5 345,-88.5 172,-88.5"/>
<text text-anchor="start" x="180" y="-106.5" font-family="Helvetica,sans-Serif" font-size="10.00">Ogre::TerrainPagedWorldSection</text>
<text text-anchor="middle" x="258.5" y="-95.5" font-family="Helvetica,sans-Serif" font-size="10.00">::TerrainDefiner</text>
</a>
</g>
</g>
<!-- Node1128&#45;&gt;Node1137 -->
<g id="edge11" class="edge">
<title>Node1128&#45;&gt;Node1137</title>
<path fill="none" stroke="midnightblue" d="M92.44,-170.56C112.84,-158.05 143.54,-140.37 172,-128.5 180.71,-124.87 190.12,-121.55 199.41,-118.6"/>
<polygon fill="midnightblue" stroke="midnightblue" points="90.48,-167.66 83.83,-175.91 94.17,-173.61 90.48,-167.66"/>
</g>
<!-- Node1138 -->
<g id="node13" class="node">
<title>Node1138</title>
<g id="a_node13"><a xlink:href="class_ogre_1_1_terrain_paging.html" target="_top" xlink:title="This class is the &#39;core&#39; class for paging terrain, that will integrate with the larger paging system ...">
<polygon fill="none" stroke="black" points="202.5,-50 202.5,-69 314.5,-69 314.5,-50 202.5,-50"/>
<text text-anchor="middle" x="258.5" y="-57" font-family="Helvetica,sans-Serif" font-size="10.00">Ogre::TerrainPaging</text>
</a>
</g>
</g>
<!-- Node1128&#45;&gt;Node1138 -->
<g id="edge12" class="edge">
<title>Node1128&#45;&gt;Node1138</title>
<path fill="none" stroke="midnightblue" d="M81.16,-167.38C98.41,-143.18 132.33,-100.77 172,-78.5 181.28,-73.29 191.88,-69.51 202.38,-66.76"/>
<polygon fill="midnightblue" stroke="midnightblue" points="78.22,-165.48 75.39,-175.68 83.97,-169.47 78.22,-165.48"/>
</g>
<!-- Node1139 -->
<g id="node14" class="node">
<title>Node1139</title>
<g id="a_node14"><a xlink:href="struct_ogre_1_1_terrain_quad_tree_node_1_1_lod_level.html" target="_top" xlink:title=" ">
<polygon fill="none" stroke="black" points="183.5,-0.5 183.5,-30.5 333.5,-30.5 333.5,-0.5 183.5,-0.5"/>
<text text-anchor="start" x="191.5" y="-18.5" font-family="Helvetica,sans-Serif" font-size="10.00">Ogre::TerrainQuadTreeNode</text>
<text text-anchor="middle" x="258.5" y="-7.5" font-family="Helvetica,sans-Serif" font-size="10.00">::LodLevel</text>
</a>
</g>
</g>
<!-- Node1128&#45;&gt;Node1139 -->
<g id="edge13" class="edge">
<title>Node1128&#45;&gt;Node1139</title>
<path fill="none" stroke="midnightblue" d="M77.4,-166.37C92.05,-135.25 125.22,-73.81 172,-40.5 177.42,-36.64 183.43,-33.38 189.68,-30.61"/>
<polygon fill="midnightblue" stroke="midnightblue" points="74.12,-165.12 73.15,-175.67 80.49,-168.03 74.12,-165.12"/>
</g>
<!-- Node1130 -->
<g id="node5" class="node">
<title>Node1130</title>
<g id="a_node5"><a xlink:href="class_ogre_1_1_terrain_1_1_default_gpu_buffer_allocator.html" target="_top" xlink:title="Standard implementation of a buffer allocator which re&#45;uses buffers.">
<polygon fill="none" stroke="black" points="398.5,-304.5 398.5,-334.5 538.5,-334.5 538.5,-304.5 398.5,-304.5"/>
<text text-anchor="start" x="406.5" y="-322.5" font-family="Helvetica,sans-Serif" font-size="10.00">Ogre::Terrain::DefaultGpu</text>
<text text-anchor="middle" x="468.5" y="-311.5" font-family="Helvetica,sans-Serif" font-size="10.00">BufferAllocator</text>
</a>
</g>
</g>
<!-- Node1129&#45;&gt;Node1130 -->
<g id="edge3" class="edge">
<title>Node1129&#45;&gt;Node1130</title>
<path fill="none" stroke="midnightblue" d="M335.82,-318.23C356.29,-318.43 378.29,-318.64 398.35,-318.84"/>
<polygon fill="midnightblue" stroke="midnightblue" points="335.63,-314.73 325.6,-318.14 335.56,-321.73 335.63,-314.73"/>
</g>
<!-- Node1132 -->
<g id="node7" class="node">
<title>Node1132</title>
<g id="a_node7"><a xlink:href="class_ogre_1_1_terrain_auto_update_lod_by_distance.html" target="_top" xlink:title="Class implementing TerrainAutoUpdateLod interface.">
<polygon fill="none" stroke="black" points="391.5,-255.5 391.5,-285.5 545.5,-285.5 545.5,-255.5 391.5,-255.5"/>
<text text-anchor="start" x="399.5" y="-273.5" font-family="Helvetica,sans-Serif" font-size="10.00">Ogre::TerrainAutoUpdateLod</text>
<text text-anchor="middle" x="468.5" y="-262.5" font-family="Helvetica,sans-Serif" font-size="10.00">ByDistance</text>
</a>
</g>
</g>
<!-- Node1131&#45;&gt;Node1132 -->
<g id="edge5" class="edge">
<title>Node1131&#45;&gt;Node1132</title>
<path fill="none" stroke="midnightblue" d="M346.06,-272.25C361.05,-272.04 376.54,-271.81 391.24,-271.6"/>
<polygon fill="midnightblue" stroke="midnightblue" points="345.72,-268.76 335.77,-272.4 345.82,-275.76 345.72,-268.76"/>
</g>
<!-- Node1136 -->
<g id="node11" class="node">
<title>Node1136</title>
<g id="a_node11"><a xlink:href="class_ogre_1_1_terrain_material_generator_a.html" target="_top" xlink:title="A TerrainMaterialGenerator which can cope with normal mapped, specular mapped terrain.">
<polygon fill="none" stroke="black" points="381,-138 381,-157 556,-157 556,-138 381,-138"/>
<text text-anchor="middle" x="468.5" y="-145" font-family="Helvetica,sans-Serif" font-size="10.00">Ogre::TerrainMaterialGeneratorA</text>
</a>
</g>
</g>
<!-- Node1135&#45;&gt;Node1136 -->
<g id="edge10" class="edge">
<title>Node1135&#45;&gt;Node1136</title>
<path fill="none" stroke="midnightblue" d="M352.69,-147.5C362.04,-147.5 371.5,-147.5 380.78,-147.5"/>
<polygon fill="midnightblue" stroke="midnightblue" points="352.6,-144 342.6,-147.5 352.6,-151 352.6,-144"/>
</g>
</g>
</svg>
