<?xml version="1.0" encoding="UTF-8" standalone="no"?>
<!DOCTYPE svg PUBLIC "-//W3C//DTD SVG 1.1//EN"
 "http://www.w3.org/Graphics/SVG/1.1/DTD/svg11.dtd">
<!-- Generated by graphviz version 2.43.0 (0)
 -->
<!-- Title: Graphical Class Hierarchy Pages: 1 -->
<svg width="1088pt" height="492pt"
 viewBox="0.00 0.00 1088.00 492.00" xmlns="http://www.w3.org/2000/svg" xmlns:xlink="http://www.w3.org/1999/xlink">
<g id="graph0" class="graph" transform="scale(1 1) rotate(0) translate(4 488)">
<title>Graphical Class Hierarchy</title>
<!-- Node0 -->
<g id="node1" class="node">
<title>Node0</title>
<g id="a_node1"><a xlink:href="class_ogre_1_1_intersection_scene_query_listener.html" target="_top" xlink:title="Alternative listener class for dealing with IntersectionSceneQuery.">
<polygon fill="none" stroke="black" points="125,-336.5 125,-366.5 287,-366.5 287,-336.5 125,-336.5"/>
<text text-anchor="start" x="133" y="-354.5" font-family="Helvetica,sans-Serif" font-size="10.00">Ogre::IntersectionSceneQuery</text>
<text text-anchor="middle" x="206" y="-343.5" font-family="Helvetica,sans-Serif" font-size="10.00">Listener</text>
</a>
</g>
</g>
<!-- Node1 -->
<g id="node2" class="node">
<title>Node1</title>
<g id="a_node2"><a xlink:href="class_ogre_1_1_intersection_scene_query.html" target="_top" xlink:title="Separate SceneQuery class to query for pairs of objects which are possibly intersecting one another.">
<polygon fill="none" stroke="black" points="323,-342 323,-361 485,-361 485,-342 323,-342"/>
<text text-anchor="middle" x="404" y="-349" font-family="Helvetica,sans-Serif" font-size="10.00">Ogre::IntersectionSceneQuery</text>
</a>
</g>
</g>
<!-- Node0&#45;&gt;Node1 -->
<g id="edge1" class="edge">
<title>Node0&#45;&gt;Node1</title>
<path fill="none" stroke="midnightblue" d="M297.08,-351.5C305.7,-351.5 314.41,-351.5 322.93,-351.5"/>
<polygon fill="midnightblue" stroke="midnightblue" points="297,-348 287,-351.5 297,-355 297,-348"/>
</g>
<!-- Node2 -->
<g id="node3" class="node">
<title>Node2</title>
<g id="a_node3"><a xlink:href="class_ogre_1_1_default_intersection_scene_query.html" target="_top" xlink:title="Default implementation of IntersectionSceneQuery.">
<polygon fill="none" stroke="black" points="530.5,-379.5 530.5,-409.5 670.5,-409.5 670.5,-379.5 530.5,-379.5"/>
<text text-anchor="start" x="538.5" y="-397.5" font-family="Helvetica,sans-Serif" font-size="10.00">Ogre::DefaultIntersection</text>
<text text-anchor="middle" x="600.5" y="-386.5" font-family="Helvetica,sans-Serif" font-size="10.00">SceneQuery</text>
</a>
</g>
</g>
<!-- Node1&#45;&gt;Node2 -->
<g id="edge2" class="edge">
<title>Node1&#45;&gt;Node2</title>
<path fill="none" stroke="midnightblue" d="M457.96,-363.21C480.67,-368.23 507.48,-374.16 531.62,-379.49"/>
<polygon fill="midnightblue" stroke="midnightblue" points="458.69,-359.78 448.17,-361.04 457.17,-366.62 458.69,-359.78"/>
</g>
<!-- Node3 -->
<g id="node4" class="node">
<title>Node3</title>
<g id="a_node4"><a xlink:href="class_ogre_1_1_bsp_intersection_scene_query.html" target="_top" xlink:title="BSP specialisation of IntersectionSceneQuery.">
<polygon fill="none" stroke="black" points="718,-453.5 718,-483.5 869,-483.5 869,-453.5 718,-453.5"/>
<text text-anchor="start" x="726" y="-471.5" font-family="Helvetica,sans-Serif" font-size="10.00">Ogre::BspIntersectionScene</text>
<text text-anchor="middle" x="793.5" y="-460.5" font-family="Helvetica,sans-Serif" font-size="10.00">Query</text>
</a>
</g>
</g>
<!-- Node2&#45;&gt;Node3 -->
<g id="edge3" class="edge">
<title>Node2&#45;&gt;Node3</title>
<path fill="none" stroke="midnightblue" d="M642.89,-413.86C664.46,-423.62 691.4,-435.3 716,-444.5 724.21,-447.57 733.02,-450.58 741.62,-453.38"/>
<polygon fill="midnightblue" stroke="midnightblue" points="644.24,-410.63 633.69,-409.67 641.34,-417 644.24,-410.63"/>
</g>
<!-- Node4 -->
<g id="node5" class="node">
<title>Node4</title>
<g id="a_node5"><a xlink:href="class_ogre_1_1_octree_intersection_scene_query.html" target="_top" xlink:title="Octree implementation of IntersectionSceneQuery.">
<polygon fill="none" stroke="black" points="725.5,-404.5 725.5,-434.5 861.5,-434.5 861.5,-404.5 725.5,-404.5"/>
<text text-anchor="start" x="733.5" y="-422.5" font-family="Helvetica,sans-Serif" font-size="10.00">Ogre::OctreeIntersection</text>
<text text-anchor="middle" x="793.5" y="-411.5" font-family="Helvetica,sans-Serif" font-size="10.00">SceneQuery</text>
</a>
</g>
</g>
<!-- Node2&#45;&gt;Node4 -->
<g id="edge4" class="edge">
<title>Node2&#45;&gt;Node4</title>
<path fill="none" stroke="midnightblue" d="M680.88,-404.89C695.69,-406.83 711.03,-408.84 725.43,-410.72"/>
<polygon fill="midnightblue" stroke="midnightblue" points="681.1,-401.39 670.73,-403.56 680.19,-408.33 681.1,-401.39"/>
</g>
<!-- Node5 -->
<g id="node6" class="node">
<title>Node5</title>
<g id="a_node6"><a xlink:href="class_ogre_1_1_p_c_z_intersection_scene_query.html" target="_top" xlink:title="PCZ implementation of IntersectionSceneQuery.">
<polygon fill="none" stroke="black" points="717.5,-355.5 717.5,-385.5 869.5,-385.5 869.5,-355.5 717.5,-355.5"/>
<text text-anchor="start" x="725.5" y="-373.5" font-family="Helvetica,sans-Serif" font-size="10.00">Ogre::PCZIntersectionScene</text>
<text text-anchor="middle" x="793.5" y="-362.5" font-family="Helvetica,sans-Serif" font-size="10.00">Query</text>
</a>
</g>
</g>
<!-- Node2&#45;&gt;Node5 -->
<g id="edge5" class="edge">
<title>Node2&#45;&gt;Node5</title>
<path fill="none" stroke="midnightblue" d="M680.79,-384.54C692.9,-383.02 705.37,-381.45 717.38,-379.94"/>
<polygon fill="midnightblue" stroke="midnightblue" points="680.21,-381.08 670.73,-385.8 681.08,-388.03 680.21,-381.08"/>
</g>
<!-- Node580 -->
<g id="node7" class="node">
<title>Node580</title>
<g id="a_node7"><a xlink:href="class_ogre_1_1_ray_scene_query_listener.html" target="_top" xlink:title="Alternative listener class for dealing with RaySceneQuery.">
<polygon fill="none" stroke="black" points="125,-298 125,-317 287,-317 287,-298 125,-298"/>
<text text-anchor="middle" x="206" y="-305" font-family="Helvetica,sans-Serif" font-size="10.00">Ogre::RaySceneQueryListener</text>
</a>
</g>
</g>
<!-- Node581 -->
<g id="node8" class="node">
<title>Node581</title>
<g id="a_node8"><a xlink:href="class_ogre_1_1_ray_scene_query.html" target="_top" xlink:title="Specialises the SceneQuery class for querying along a ray.">
<polygon fill="none" stroke="black" points="342.5,-279 342.5,-298 465.5,-298 465.5,-279 342.5,-279"/>
<text text-anchor="middle" x="404" y="-286" font-family="Helvetica,sans-Serif" font-size="10.00">Ogre::RaySceneQuery</text>
</a>
</g>
</g>
<!-- Node580&#45;&gt;Node581 -->
<g id="edge6" class="edge">
<title>Node580&#45;&gt;Node581</title>
<path fill="none" stroke="midnightblue" d="M297.06,-298.77C312.44,-297.28 328.09,-295.76 342.47,-294.37"/>
<polygon fill="midnightblue" stroke="midnightblue" points="296.62,-295.3 287,-299.74 297.29,-302.26 296.62,-295.3"/>
</g>
<!-- Node582 -->
<g id="node9" class="node">
<title>Node582</title>
<g id="a_node9"><a xlink:href="class_ogre_1_1_default_ray_scene_query.html" target="_top" xlink:title="Default implementation of RaySceneQuery.">
<polygon fill="none" stroke="black" points="521,-279 521,-298 680,-298 680,-279 521,-279"/>
<text text-anchor="middle" x="600.5" y="-286" font-family="Helvetica,sans-Serif" font-size="10.00">Ogre::DefaultRaySceneQuery</text>
</a>
</g>
</g>
<!-- Node581&#45;&gt;Node582 -->
<g id="edge7" class="edge">
<title>Node581&#45;&gt;Node582</title>
<path fill="none" stroke="midnightblue" d="M475.76,-288.5C490.46,-288.5 506.04,-288.5 521,-288.5"/>
<polygon fill="midnightblue" stroke="midnightblue" points="475.74,-285 465.74,-288.5 475.74,-292 475.74,-285"/>
</g>
<!-- Node583 -->
<g id="node10" class="node">
<title>Node583</title>
<g id="a_node10"><a xlink:href="class_ogre_1_1_bsp_ray_scene_query.html" target="_top" xlink:title="BSP specialisation of RaySceneQuery.">
<polygon fill="none" stroke="black" points="723,-317 723,-336 864,-336 864,-317 723,-317"/>
<text text-anchor="middle" x="793.5" y="-324" font-family="Helvetica,sans-Serif" font-size="10.00">Ogre::BspRaySceneQuery</text>
</a>
</g>
</g>
<!-- Node582&#45;&gt;Node583 -->
<g id="edge8" class="edge">
<title>Node582&#45;&gt;Node583</title>
<path fill="none" stroke="midnightblue" d="M659.85,-300.11C687.02,-305.51 718.93,-311.86 744.65,-316.98"/>
<polygon fill="midnightblue" stroke="midnightblue" points="660.19,-296.61 649.7,-298.09 658.82,-303.47 660.19,-296.61"/>
</g>
<!-- Node584 -->
<g id="node11" class="node">
<title>Node584</title>
<g id="a_node11"><a xlink:href="class_ogre_1_1_octree_ray_scene_query.html" target="_top" xlink:title="Octree implementation of RaySceneQuery.">
<polygon fill="none" stroke="black" points="716,-279 716,-298 871,-298 871,-279 716,-279"/>
<text text-anchor="middle" x="793.5" y="-286" font-family="Helvetica,sans-Serif" font-size="10.00">Ogre::OctreeRaySceneQuery</text>
</a>
</g>
</g>
<!-- Node582&#45;&gt;Node584 -->
<g id="edge9" class="edge">
<title>Node582&#45;&gt;Node584</title>
<path fill="none" stroke="midnightblue" d="M690.07,-288.5C698.67,-288.5 707.36,-288.5 715.83,-288.5"/>
<polygon fill="midnightblue" stroke="midnightblue" points="690.01,-285 680.01,-288.5 690.01,-292 690.01,-285"/>
</g>
<!-- Node585 -->
<g id="node12" class="node">
<title>Node585</title>
<g id="a_node12"><a xlink:href="class_ogre_1_1_p_c_z_ray_scene_query.html" target="_top" xlink:title="PCZ implementation of RaySceneQuery.">
<polygon fill="none" stroke="black" points="722,-241 722,-260 865,-260 865,-241 722,-241"/>
<text text-anchor="middle" x="793.5" y="-248" font-family="Helvetica,sans-Serif" font-size="10.00">Ogre::PCZRaySceneQuery</text>
</a>
</g>
</g>
<!-- Node582&#45;&gt;Node585 -->
<g id="edge10" class="edge">
<title>Node582&#45;&gt;Node585</title>
<path fill="none" stroke="midnightblue" d="M659.85,-276.89C687.02,-271.49 718.93,-265.14 744.65,-260.02"/>
<polygon fill="midnightblue" stroke="midnightblue" points="658.82,-273.53 649.7,-278.91 660.19,-280.39 658.82,-273.53"/>
</g>
<!-- Node648 -->
<g id="node13" class="node">
<title>Node648</title>
<g id="a_node13"><a xlink:href="class_ogre_1_1_scene_query_listener.html" target="_top" xlink:title="This optional class allows you to receive per&#45;result callbacks from SceneQuery executions instead of ...">
<polygon fill="none" stroke="black" points="134.5,-172 134.5,-191 277.5,-191 277.5,-172 134.5,-172"/>
<text text-anchor="middle" x="206" y="-179" font-family="Helvetica,sans-Serif" font-size="10.00">Ogre::SceneQueryListener</text>
</a>
</g>
</g>
<!-- Node649 -->
<g id="node14" class="node">
<title>Node649</title>
<g id="a_node14"><a xlink:href="class_ogre_1_1_region_scene_query.html" target="_top" xlink:title="Abstract class defining a query which returns single results from a region.">
<polygon fill="none" stroke="black" points="335,-172 335,-191 473,-191 473,-172 335,-172"/>
<text text-anchor="middle" x="404" y="-179" font-family="Helvetica,sans-Serif" font-size="10.00">Ogre::RegionSceneQuery</text>
</a>
</g>
</g>
<!-- Node648&#45;&gt;Node649 -->
<g id="edge11" class="edge">
<title>Node648&#45;&gt;Node649</title>
<path fill="none" stroke="midnightblue" d="M287.93,-181.5C303.56,-181.5 319.79,-181.5 334.96,-181.5"/>
<polygon fill="midnightblue" stroke="midnightblue" points="287.76,-178 277.76,-181.5 287.76,-185 287.76,-178"/>
</g>
<!-- Node650 -->
<g id="node15" class="node">
<title>Node650</title>
<g id="a_node15"><a xlink:href="class_ogre_1_1_axis_aligned_box_scene_query.html" target="_top" xlink:title="Specialises the SceneQuery class for querying within an axis aligned box.">
<polygon fill="none" stroke="black" points="524.5,-143.5 524.5,-173.5 676.5,-173.5 676.5,-143.5 524.5,-143.5"/>
<text text-anchor="start" x="532.5" y="-161.5" font-family="Helvetica,sans-Serif" font-size="10.00">Ogre::AxisAlignedBoxScene</text>
<text text-anchor="middle" x="600.5" y="-150.5" font-family="Helvetica,sans-Serif" font-size="10.00">Query</text>
</a>
</g>
</g>
<!-- Node649&#45;&gt;Node650 -->
<g id="edge12" class="edge">
<title>Node649&#45;&gt;Node650</title>
<path fill="none" stroke="midnightblue" d="M483.24,-172.25C496.76,-170.65 510.78,-168.99 524.21,-167.4"/>
<polygon fill="midnightblue" stroke="midnightblue" points="482.55,-168.81 473.03,-173.46 483.37,-175.76 482.55,-168.81"/>
</g>
<!-- Node654 -->
<g id="node19" class="node">
<title>Node654</title>
<g id="a_node19"><a xlink:href="class_ogre_1_1_plane_bounded_volume_list_scene_query.html" target="_top" xlink:title="Specialises the SceneQuery class for querying within a plane&#45;bounded volume.">
<polygon fill="none" stroke="black" points="524,-72.5 524,-102.5 677,-102.5 677,-72.5 524,-72.5"/>
<text text-anchor="start" x="532" y="-90.5" font-family="Helvetica,sans-Serif" font-size="10.00">Ogre::PlaneBoundedVolume</text>
<text text-anchor="middle" x="600.5" y="-79.5" font-family="Helvetica,sans-Serif" font-size="10.00">ListSceneQuery</text>
</a>
</g>
</g>
<!-- Node649&#45;&gt;Node654 -->
<g id="edge16" class="edge">
<title>Node649&#45;&gt;Node654</title>
<path fill="none" stroke="midnightblue" d="M469.28,-168.84C474.7,-166.99 480.01,-164.89 485,-162.5 503.28,-153.74 504.27,-145.95 521,-134.5 537.65,-123.1 557.1,-111.45 572.47,-102.6"/>
<polygon fill="midnightblue" stroke="midnightblue" points="467.96,-165.59 459.45,-171.9 470.03,-172.27 467.96,-165.59"/>
</g>
<!-- Node658 -->
<g id="node23" class="node">
<title>Node658</title>
<g id="a_node23"><a xlink:href="class_ogre_1_1_sphere_scene_query.html" target="_top" xlink:title="Specialises the SceneQuery class for querying within a sphere.">
<polygon fill="none" stroke="black" points="531.5,-195 531.5,-214 669.5,-214 669.5,-195 531.5,-195"/>
<text text-anchor="middle" x="600.5" y="-202" font-family="Helvetica,sans-Serif" font-size="10.00">Ogre::SphereSceneQuery</text>
</a>
</g>
</g>
<!-- Node649&#45;&gt;Node658 -->
<g id="edge20" class="edge">
<title>Node649&#45;&gt;Node658</title>
<path fill="none" stroke="midnightblue" d="M483.32,-190.76C499.17,-192.64 515.71,-194.59 531.18,-196.42"/>
<polygon fill="midnightblue" stroke="midnightblue" points="483.37,-187.24 473.03,-189.54 482.55,-194.19 483.37,-187.24"/>
</g>
<!-- Node651 -->
<g id="node16" class="node">
<title>Node651</title>
<g id="a_node16"><a xlink:href="class_ogre_1_1_default_axis_aligned_box_scene_query.html" target="_top" xlink:title="Default implementation of AxisAlignedBoxSceneQuery.">
<polygon fill="none" stroke="black" points="723.5,-142.5 723.5,-172.5 863.5,-172.5 863.5,-142.5 723.5,-142.5"/>
<text text-anchor="start" x="731.5" y="-160.5" font-family="Helvetica,sans-Serif" font-size="10.00">Ogre::DefaultAxisAligned</text>
<text text-anchor="middle" x="793.5" y="-149.5" font-family="Helvetica,sans-Serif" font-size="10.00">BoxSceneQuery</text>
</a>
</g>
</g>
<!-- Node650&#45;&gt;Node651 -->
<g id="edge13" class="edge">
<title>Node650&#45;&gt;Node651</title>
<path fill="none" stroke="midnightblue" d="M686.87,-158.05C699.05,-157.99 711.45,-157.92 723.26,-157.86"/>
<polygon fill="midnightblue" stroke="midnightblue" points="686.7,-154.55 676.71,-158.11 686.73,-161.55 686.7,-154.55"/>
</g>
<!-- Node652 -->
<g id="node17" class="node">
<title>Node652</title>
<g id="a_node17"><a xlink:href="class_ogre_1_1_octree_axis_aligned_box_scene_query.html" target="_top" xlink:title="Octree implementation of AxisAlignedBoxSceneQuery.">
<polygon fill="none" stroke="black" points="916,-147.5 916,-177.5 1071,-177.5 1071,-147.5 916,-147.5"/>
<text text-anchor="start" x="924" y="-165.5" font-family="Helvetica,sans-Serif" font-size="10.00">Ogre::OctreeAxisAlignedBox</text>
<text text-anchor="middle" x="993.5" y="-154.5" font-family="Helvetica,sans-Serif" font-size="10.00">SceneQuery</text>
</a>
</g>
</g>
<!-- Node651&#45;&gt;Node652 -->
<g id="edge14" class="edge">
<title>Node651&#45;&gt;Node652</title>
<path fill="none" stroke="midnightblue" d="M874.15,-159.51C887.91,-159.86 902.18,-160.22 915.86,-160.56"/>
<polygon fill="midnightblue" stroke="midnightblue" points="873.84,-156 863.75,-159.25 873.66,-163 873.84,-156"/>
</g>
<!-- Node653 -->
<g id="node18" class="node">
<title>Node653</title>
<g id="a_node18"><a xlink:href="class_ogre_1_1_p_c_z_axis_aligned_box_scene_query.html" target="_top" xlink:title="PCZ implementation of AxisAlignedBoxSceneQuery.">
<polygon fill="none" stroke="black" points="908,-98.5 908,-128.5 1079,-128.5 1079,-98.5 908,-98.5"/>
<text text-anchor="start" x="916" y="-116.5" font-family="Helvetica,sans-Serif" font-size="10.00">Ogre::PCZAxisAlignedBoxScene</text>
<text text-anchor="middle" x="993.5" y="-105.5" font-family="Helvetica,sans-Serif" font-size="10.00">Query</text>
</a>
</g>
</g>
<!-- Node651&#45;&gt;Node653 -->
<g id="edge15" class="edge">
<title>Node651&#45;&gt;Node653</title>
<path fill="none" stroke="midnightblue" d="M872.21,-140.23C889.61,-136.36 907.93,-132.29 924.88,-128.53"/>
<polygon fill="midnightblue" stroke="midnightblue" points="871.09,-136.89 862.09,-142.48 872.61,-143.73 871.09,-136.89"/>
</g>
<!-- Node655 -->
<g id="node20" class="node">
<title>Node655</title>
<g id="a_node20"><a xlink:href="class_ogre_1_1_default_plane_bounded_volume_list_scene_query.html" target="_top" xlink:title="Default implementation of PlaneBoundedVolumeListSceneQuery.">
<polygon fill="none" stroke="black" points="717.5,-49.5 717.5,-79.5 869.5,-79.5 869.5,-49.5 717.5,-49.5"/>
<text text-anchor="start" x="725.5" y="-67.5" font-family="Helvetica,sans-Serif" font-size="10.00">Ogre::DefaultPlaneBounded</text>
<text text-anchor="middle" x="793.5" y="-56.5" font-family="Helvetica,sans-Serif" font-size="10.00">VolumeListSceneQuery</text>
</a>
</g>
</g>
<!-- Node654&#45;&gt;Node655 -->
<g id="edge17" class="edge">
<title>Node654&#45;&gt;Node655</title>
<path fill="none" stroke="midnightblue" d="M687.27,-77.17C697.33,-75.96 707.55,-74.73 717.45,-73.54"/>
<polygon fill="midnightblue" stroke="midnightblue" points="686.77,-73.71 677.26,-78.38 687.61,-80.66 686.77,-73.71"/>
</g>
<!-- Node656 -->
<g id="node21" class="node">
<title>Node656</title>
<g id="a_node21"><a xlink:href="class_ogre_1_1_octree_plane_bounded_volume_list_scene_query.html" target="_top" xlink:title="Octree implementation of PlaneBoundedVolumeListSceneQuery.">
<polygon fill="none" stroke="black" points="919.5,-49.5 919.5,-79.5 1067.5,-79.5 1067.5,-49.5 919.5,-49.5"/>
<text text-anchor="start" x="927.5" y="-67.5" font-family="Helvetica,sans-Serif" font-size="10.00">Ogre::OctreePlaneBounded</text>
<text text-anchor="middle" x="993.5" y="-56.5" font-family="Helvetica,sans-Serif" font-size="10.00">VolumeListSceneQuery</text>
</a>
</g>
</g>
<!-- Node655&#45;&gt;Node656 -->
<g id="edge18" class="edge">
<title>Node655&#45;&gt;Node656</title>
<path fill="none" stroke="midnightblue" d="M879.67,-64.5C892.89,-64.5 906.45,-64.5 919.38,-64.5"/>
<polygon fill="midnightblue" stroke="midnightblue" points="879.64,-61 869.64,-64.5 879.64,-68 879.64,-61"/>
</g>
<!-- Node657 -->
<g id="node22" class="node">
<title>Node657</title>
<g id="a_node22"><a xlink:href="class_ogre_1_1_p_c_z_plane_bounded_volume_list_scene_query.html" target="_top" xlink:title="PCZ implementation of PlaneBoundedVolumeListSceneQuery.">
<polygon fill="none" stroke="black" points="907,-0.5 907,-30.5 1080,-30.5 1080,-0.5 907,-0.5"/>
<text text-anchor="start" x="915" y="-18.5" font-family="Helvetica,sans-Serif" font-size="10.00">Ogre::PCZPlaneBoundedVolume</text>
<text text-anchor="middle" x="993.5" y="-7.5" font-family="Helvetica,sans-Serif" font-size="10.00">ListSceneQuery</text>
</a>
</g>
</g>
<!-- Node655&#45;&gt;Node657 -->
<g id="edge19" class="edge">
<title>Node655&#45;&gt;Node657</title>
<path fill="none" stroke="midnightblue" d="M865.12,-47.02C886.94,-41.62 910.78,-35.72 931.86,-30.51"/>
<polygon fill="midnightblue" stroke="midnightblue" points="864.12,-43.67 855.25,-49.47 865.8,-50.46 864.12,-43.67"/>
</g>
<!-- Node659 -->
<g id="node24" class="node">
<title>Node659</title>
<g id="a_node24"><a xlink:href="class_ogre_1_1_default_sphere_scene_query.html" target="_top" xlink:title="Default implementation of SphereSceneQuery.">
<polygon fill="none" stroke="black" points="721,-191.5 721,-221.5 866,-221.5 866,-191.5 721,-191.5"/>
<text text-anchor="start" x="729" y="-209.5" font-family="Helvetica,sans-Serif" font-size="10.00">Ogre::DefaultSphereScene</text>
<text text-anchor="middle" x="793.5" y="-198.5" font-family="Helvetica,sans-Serif" font-size="10.00">Query</text>
</a>
</g>
</g>
<!-- Node658&#45;&gt;Node659 -->
<g id="edge21" class="edge">
<title>Node658&#45;&gt;Node659</title>
<path fill="none" stroke="midnightblue" d="M679.9,-205.32C693.44,-205.46 707.47,-205.61 720.83,-205.75"/>
<polygon fill="midnightblue" stroke="midnightblue" points="679.68,-201.82 669.65,-205.21 679.61,-208.82 679.68,-201.82"/>
</g>
<!-- Node660 -->
<g id="node25" class="node">
<title>Node660</title>
<g id="a_node25"><a xlink:href="class_ogre_1_1_octree_sphere_scene_query.html" target="_top" xlink:title="Octree implementation of SphereSceneQuery.">
<polygon fill="none" stroke="black" points="908.5,-235 908.5,-254 1078.5,-254 1078.5,-235 908.5,-235"/>
<text text-anchor="middle" x="993.5" y="-242" font-family="Helvetica,sans-Serif" font-size="10.00">Ogre::OctreeSphereSceneQuery</text>
</a>
</g>
</g>
<!-- Node659&#45;&gt;Node660 -->
<g id="edge22" class="edge">
<title>Node659&#45;&gt;Node660</title>
<path fill="none" stroke="midnightblue" d="M876.22,-222.18C898.87,-226.53 922.77,-231.12 942.96,-234.99"/>
<polygon fill="midnightblue" stroke="midnightblue" points="876.74,-218.72 866.26,-220.27 875.42,-225.59 876.74,-218.72"/>
</g>
<!-- Node661 -->
<g id="node26" class="node">
<title>Node661</title>
<g id="a_node26"><a xlink:href="class_ogre_1_1_p_c_z_sphere_scene_query.html" target="_top" xlink:title="PCZ implementation of SphereSceneQuery.">
<polygon fill="none" stroke="black" points="914.5,-197 914.5,-216 1072.5,-216 1072.5,-197 914.5,-197"/>
<text text-anchor="middle" x="993.5" y="-204" font-family="Helvetica,sans-Serif" font-size="10.00">Ogre::PCZSphereSceneQuery</text>
</a>
</g>
</g>
<!-- Node659&#45;&gt;Node661 -->
<g id="edge23" class="edge">
<title>Node659&#45;&gt;Node661</title>
<path fill="none" stroke="midnightblue" d="M876.63,-206.5C889.09,-206.5 901.92,-206.5 914.29,-206.5"/>
<polygon fill="midnightblue" stroke="midnightblue" points="876.26,-203 866.26,-206.5 876.26,-210 876.26,-203"/>
</g>
<!-- Node697 -->
<g id="node27" class="node">
<title>Node697</title>
<g id="a_node27"><a xlink:href="struct_ogre_1_1_shadow_texture_listener.html" target="_top" xlink:title=" ">
<polygon fill="none" stroke="black" points="126.5,-20 126.5,-39 285.5,-39 285.5,-20 126.5,-20"/>
<text text-anchor="middle" x="206" y="-27" font-family="Helvetica,sans-Serif" font-size="10.00">Ogre::ShadowTextureListener</text>
</a>
</g>
</g>
<!-- Node698 -->
<g id="node28" class="node">
<title>Node698</title>
<g id="a_node28"><a xlink:href="class_ogre_1_1_p_c_z_scene_manager.html" target="_top" xlink:title="Specialized SceneManager that uses Portal&#45;Connected&#45;Zones to divide the scene spatially.">
<polygon fill="none" stroke="black" points="335.5,-39 335.5,-58 472.5,-58 472.5,-39 335.5,-39"/>
<text text-anchor="middle" x="404" y="-46" font-family="Helvetica,sans-Serif" font-size="10.00">Ogre::PCZSceneManager</text>
</a>
</g>
</g>
<!-- Node697&#45;&gt;Node698 -->
<g id="edge24" class="edge">
<title>Node697&#45;&gt;Node698</title>
<path fill="none" stroke="midnightblue" d="M295.73,-38.1C309.07,-39.39 322.63,-40.71 335.43,-41.95"/>
<polygon fill="midnightblue" stroke="midnightblue" points="295.88,-34.6 285.59,-37.12 295.21,-41.57 295.88,-34.6"/>
</g>
<!-- Node1008 -->
<g id="node29" class="node">
<title>Node1008</title>
<g id="a_node29"><a xlink:title=" ">
<polygon fill="none" stroke="#bfbfbf" points="0,-134 0,-153 89,-153 89,-134 0,-134"/>
<text text-anchor="middle" x="44.5" y="-141" font-family="Helvetica,sans-Serif" font-size="10.00">SceneMgtAlloc</text>
</a>
</g>
</g>
<!-- Node1009 -->
<g id="node30" class="node">
<title>Node1009</title>
<g id="a_node30"><a xlink:href="class_ogre_1_1_auto_param_data_source.html" target="_top" xlink:title="This utility class is used to hold the information used to generate the matrices and other informatio...">
<polygon fill="none" stroke="black" points="128,-58 128,-77 284,-77 284,-58 128,-58"/>
<text text-anchor="middle" x="206" y="-65" font-family="Helvetica,sans-Serif" font-size="10.00">Ogre::AutoParamDataSource</text>
</a>
</g>
</g>
<!-- Node1008&#45;&gt;Node1009 -->
<g id="edge25" class="edge">
<title>Node1008&#45;&gt;Node1009</title>
<path fill="none" stroke="midnightblue" d="M63.64,-127.32C78.98,-114.46 102.05,-96.96 125,-86.5 133.44,-82.65 142.76,-79.53 151.95,-77.02"/>
<polygon fill="midnightblue" stroke="midnightblue" points="61.28,-124.74 55.97,-133.91 65.84,-130.05 61.28,-124.74"/>
</g>
<!-- Node1010 -->
<g id="node31" class="node">
<title>Node1010</title>
<g id="a_node31"><a xlink:href="struct_ogre_1_1_intersection_scene_query_result.html" target="_top" xlink:title="Holds the results of an intersection scene query (pair values).">
<polygon fill="none" stroke="black" points="125,-210.5 125,-240.5 287,-240.5 287,-210.5 125,-210.5"/>
<text text-anchor="start" x="133" y="-228.5" font-family="Helvetica,sans-Serif" font-size="10.00">Ogre::IntersectionSceneQuery</text>
<text text-anchor="middle" x="206" y="-217.5" font-family="Helvetica,sans-Serif" font-size="10.00">Result</text>
</a>
</g>
</g>
<!-- Node1008&#45;&gt;Node1010 -->
<g id="edge26" class="edge">
<title>Node1008&#45;&gt;Node1010</title>
<path fill="none" stroke="midnightblue" d="M64.11,-159.48C79.56,-172.07 102.56,-189.31 125,-200.5 132.42,-204.2 140.51,-207.49 148.59,-210.37"/>
<polygon fill="midnightblue" stroke="midnightblue" points="66.28,-156.73 56.35,-153.03 61.8,-162.11 66.28,-156.73"/>
</g>
<!-- Node1011 -->
<g id="node32" class="node">
<title>Node1011</title>
<g id="a_node32"><a xlink:href="class_ogre_1_1_scene_manager.html" target="_top" xlink:title="Manages the organisation and rendering of a &#39;scene&#39;: a collection of objects and potentially world ge...">
<polygon fill="none" stroke="black" points="147,-134 147,-153 265,-153 265,-134 147,-134"/>
<text text-anchor="middle" x="206" y="-141" font-family="Helvetica,sans-Serif" font-size="10.00">Ogre::SceneManager</text>
</a>
</g>
</g>
<!-- Node1008&#45;&gt;Node1011 -->
<g id="edge27" class="edge">
<title>Node1008&#45;&gt;Node1011</title>
<path fill="none" stroke="midnightblue" d="M99.39,-143.5C114.64,-143.5 131.31,-143.5 146.81,-143.5"/>
<polygon fill="midnightblue" stroke="midnightblue" points="99.08,-140 89.08,-143.5 99.08,-147 99.08,-140"/>
</g>
<!-- Node1014 -->
<g id="node35" class="node">
<title>Node1014</title>
<g id="a_node35"><a xlink:href="class_ogre_1_1_scene_query.html" target="_top" xlink:title="A class for performing queries on a scene.">
<polygon fill="none" stroke="black" points="154,-260 154,-279 258,-279 258,-260 154,-260"/>
<text text-anchor="middle" x="206" y="-267" font-family="Helvetica,sans-Serif" font-size="10.00">Ogre::SceneQuery</text>
</a>
</g>
</g>
<!-- Node1008&#45;&gt;Node1014 -->
<g id="edge31" class="edge">
<title>Node1008&#45;&gt;Node1014</title>
<path fill="none" stroke="midnightblue" d="M54.37,-162.53C66.69,-186.82 91.35,-228.33 125,-250.5 133.58,-256.15 143.67,-260.13 153.73,-262.93"/>
<polygon fill="midnightblue" stroke="midnightblue" points="57.38,-160.73 49.85,-153.28 51.09,-163.81 57.38,-160.73"/>
</g>
<!-- Node1015 -->
<g id="node36" class="node">
<title>Node1015</title>
<g id="a_node36"><a xlink:href="struct_ogre_1_1_scene_query_result.html" target="_top" xlink:title="Holds the results of a scene query.">
<polygon fill="none" stroke="black" points="138.5,-96 138.5,-115 273.5,-115 273.5,-96 138.5,-96"/>
<text text-anchor="middle" x="206" y="-103" font-family="Helvetica,sans-Serif" font-size="10.00">Ogre::SceneQueryResult</text>
</a>
</g>
</g>
<!-- Node1008&#45;&gt;Node1015 -->
<g id="edge35" class="edge">
<title>Node1008&#45;&gt;Node1015</title>
<path fill="none" stroke="midnightblue" d="M95.53,-131.53C105.3,-129.2 115.47,-126.77 125,-124.5 137.91,-121.42 152,-118.07 164.71,-115.06"/>
<polygon fill="midnightblue" stroke="midnightblue" points="94.45,-128.19 85.53,-133.92 96.07,-135 94.45,-128.19"/>
</g>
<!-- Node1011&#45;&gt;Node698 -->
<g id="edge30" class="edge">
<title>Node1011&#45;&gt;Node698</title>
<path fill="none" stroke="midnightblue" d="M274.79,-130.43C279.03,-128.69 283.14,-126.73 287,-124.5 307.16,-112.88 304.17,-100.17 323,-86.5 339.55,-74.49 360.5,-64.7 376.8,-58.07"/>
<polygon fill="midnightblue" stroke="midnightblue" points="273.54,-127.15 265.35,-133.87 275.94,-133.73 273.54,-127.15"/>
</g>
<!-- Node1012 -->
<g id="node33" class="node">
<title>Node1012</title>
<g id="a_node33"><a xlink:href="class_ogre_1_1_bsp_scene_manager.html" target="_top" xlink:title="Specialisation of the SceneManager class to deal with indoor scenes based on a BSP tree.">
<polygon fill="none" stroke="black" points="336,-134 336,-153 472,-153 472,-134 336,-134"/>
<text text-anchor="middle" x="404" y="-141" font-family="Helvetica,sans-Serif" font-size="10.00">Ogre::BspSceneManager</text>
</a>
</g>
</g>
<!-- Node1011&#45;&gt;Node1012 -->
<g id="edge28" class="edge">
<title>Node1011&#45;&gt;Node1012</title>
<path fill="none" stroke="midnightblue" d="M275.11,-143.5C294.78,-143.5 316.22,-143.5 335.83,-143.5"/>
<polygon fill="midnightblue" stroke="midnightblue" points="275.01,-140 265.01,-143.5 275.01,-147 275.01,-140"/>
</g>
<!-- Node1013 -->
<g id="node34" class="node">
<title>Node1013</title>
<g id="a_node34"><a xlink:href="class_ogre_1_1_octree_scene_manager.html" target="_top" xlink:title="Specialized SceneManager that divides the geometry into an octree in order to facilitate spatial quer...">
<polygon fill="none" stroke="black" points="329,-96 329,-115 479,-115 479,-96 329,-96"/>
<text text-anchor="middle" x="404" y="-103" font-family="Helvetica,sans-Serif" font-size="10.00">Ogre::OctreeSceneManager</text>
</a>
</g>
</g>
<!-- Node1011&#45;&gt;Node1013 -->
<g id="edge29" class="edge">
<title>Node1011&#45;&gt;Node1013</title>
<path fill="none" stroke="midnightblue" d="M266.26,-132.01C294.23,-126.59 327.21,-120.19 353.77,-115.04"/>
<polygon fill="midnightblue" stroke="midnightblue" points="265.36,-128.62 256.21,-133.96 266.69,-135.49 265.36,-128.62"/>
</g>
<!-- Node1014&#45;&gt;Node1 -->
<g id="edge32" class="edge">
<title>Node1014&#45;&gt;Node1</title>
<path fill="none" stroke="midnightblue" d="M266.01,-281.63C273.17,-283.65 280.31,-285.94 287,-288.5 292.11,-290.45 354.17,-324.56 385.35,-341.76"/>
<polygon fill="midnightblue" stroke="midnightblue" points="266.84,-278.23 256.27,-279.04 265.04,-285 266.84,-278.23"/>
</g>
<!-- Node1014&#45;&gt;Node581 -->
<g id="edge33" class="edge">
<title>Node1014&#45;&gt;Node581</title>
<path fill="none" stroke="midnightblue" d="M268.46,-275.46C292,-277.74 318.83,-280.34 342.31,-282.62"/>
<polygon fill="midnightblue" stroke="midnightblue" points="268.53,-271.95 258.24,-274.47 267.86,-278.92 268.53,-271.95"/>
</g>
<!-- Node1014&#45;&gt;Node649 -->
<g id="edge34" class="edge">
<title>Node1014&#45;&gt;Node649</title>
<path fill="none" stroke="midnightblue" d="M267.45,-257.23C274.14,-255.26 280.78,-253.02 287,-250.5 326.74,-234.4 368.94,-206.06 389.78,-191.2"/>
<polygon fill="midnightblue" stroke="midnightblue" points="266.37,-253.9 257.66,-259.93 268.23,-260.64 266.37,-253.9"/>
</g>
</g>
</svg>
